<!DOCTYPE svg PUBLIC "-//W3C//DTD SVG 20010904//EN" "http://www.w3.org/TR/2001/REC-SVG-20010904/DTD/svg10.dtd">
<svg xmlns="http://www.w3.org/2000/svg" version="1.0" width="3744.000000pt" height="5616.000000pt" viewBox="0 0 3744.000000 5616.000000" preserveAspectRatio="xMidYMid meet">
<metadata>
Created by potrace 1.15, written by Peter Selinger 2001-2017
</metadata>
<g transform="translate(0.000000,5616.000000) scale(0.100000,-0.100000)" fill="#000000" stroke="none">
<polygon points="18391.0,56123.0 18321.16,56002.38 18202.63,55888.67 18098.81,55769.94 18038.0,55654.48 18020.34,55518.82 18029.36,55350.59 18083.94,55239.35 18201.37,55234.45 18358.73,55335.57 18442.26,55281.42 18447.62,55106.19 18425.81,54964.87 18345.95,54874.93 18211.11,54785.28 18178.89,54659.52 18188.6,54503.85 18215.06,54341.7 18252.54,54195.9 18299.97,54085.17 18354.74,53969.57 18357.25,53842.52 18337.17,53671.81 18310.34,53535.37 18271.68,53393.66 18220.81,53245.35 18202.27,53120.45 18206.63,52949.51 18196.24,52808.91 18197.38,52677.77 18217.05,52517.99 18193.07,52376.87 18162.15,52235.23 18167.41,52089.05 18131.6,51948.75 18101.1,51802.07 18075.53,51664.65 18029.22,51508.6 18003.96,51395.39 17954.12,51230.19 17921.2,51100.4 17882.7,50963.22 17826.25,50831.71 17783.33,50713.83 17748.66,50581.45 17717.25,50416.86 17683.33,50256.22 17628.7,50129.54 17575.29,49985.91 17526.32,49848.86 17492.55,49707.05 17463.53,49551.6 17403.69,49436.7 17359.71,49310.86 17319.27,49166.73 17241.81,49021.38 17197.5,48874.14 17140.35,48773.8 17063.69,48629.94 16995.07,48485.46 16939.48,48371.45 16859.82,48232.26 16773.01,48253.01 16721.44,48360.82 16700.58,48547.44 16706.9,48730.96 16726.44,48880.15 16779.69,48984.81 16844.97,49104.32 16810.3,49216.2 16738.67,49377.43 16744.12,49531.9 16755.09,49686.39 16708.48,49814.08 16592.34,49838.02 16535.89,49720.86 16551.38,49557.66 16557.38,49414.02 16509.48,49288.5 16416.73,49157.09 16442.29,49036.17 16528.98,48887.67 16546.88,48755.71 16507.11,48610.64 16413.05,48494.0 16369.97,48389.29 16359.82,48225.63 16360.2,48086.81 16359.28,47916.63 16357.41,47727.36 16354.86,47538.8 16351.87,47370.76 16348.68,47243.02 16345.56,47175.39 16305.58,47061.95 16256.86,46933.93 16243.03,46807.78 16253.11,46617.01 16255.73,46476.07 16252.15,46429.21 16249.01,46307.73 16246.21,46127.98 16244.13,45909.09 16242.07,45613.15 16237.89,45416.39 16227.83,45296.87 16208.06,45221.63 16174.74,45157.71 16106.26,45037.47 16061.03,44912.1 16031.06,44782.67 15983.68,44626.02 15981.75,44480.8 15934.95,44370.97 15969.86,44211.02 15981.78,44105.19 15980.19,43995.91 15978.14,43821.81 15976.57,43649.64 15975.67,43503.58 15964.06,43359.16 15924.12,43214.51 15935.66,43057.49 15904.23,42932.99 15783.11,42834.88 15746.48,42713.81 15757.24,42542.58 15689.55,42448.22 15567.71,42369.2 15498.72,42233.45 15411.16,42138.39 15266.21,42060.8 15253.67,41953.48 15269.65,41772.12 15194.43,41667.78 15084.31,41577.47 15027.74,41441.48 14987.66,41305.86 14837.42,41254.99 14708.8,41219.36 14613.11,41246.42 14535.82,41432.57 14491.9,41592.08 14495.71,41706.88 14539.53,41846.6 14619.81,41965.79 14644.94,42083.89 14618.48,42224.12 14695.69,42354.17 14719.54,42487.33 14697.89,42633.88 14621.73,42758.18 14566.03,42890.67 14597.55,43045.4 14570.67,43179.28 14472.11,43261.47 14368.78,43176.19 14326.28,43044.83 14318.66,42866.88 14241.47,42755.17 14177.89,42639.93 14173.26,42484.17 14195.82,42349.8 14279.16,42209.11 14313.98,42119.7 14317.35,41948.41 14310.41,41736.54 14263.78,41651.98 14153.54,41562.43 14115.27,41484.9 14104.11,41365.0 14096.98,41129.78 14090.27,40959.48 14083.49,40823.09 14076.79,40725.64 14069.98,40575.68 14065.64,40404.64 14058.6,40218.66 14046.19,40128.94 13977.25,39983.89 13903.42,39860.62 13795.28,39834.15 13723.82,39786.94 13673.61,39682.05 13639.48,39507.11 13617.74,39274.98 13603.94,39117.73 13593.7,39010.43 13597.23,38855.02 13606.29,38684.18 13609.06,38511.62 13606.44,38343.36 13598.89,38199.81 13586.86,38101.39 13520.24,37964.3 13401.37,37921.55 13301.31,37830.54 13223.37,37701.43 13147.89,37578.39 13137.15,37456.97 13179.47,37266.29 13166.12,37148.3 13056.73,37027.84 13010.0,36911.15 13052.68,36788.38 13141.86,36650.7 13170.83,36519.98 13166.02,36368.73 13118.6,36216.46 13096.99,36085.33 13116.59,35954.9 13110.01,35797.04 13106.66,35683.97 13125.58,35519.69 13134.74,35428.54 13138.91,35326.26 13139.12,35174.97 13136.39,34936.82 13132.47,34706.69 13127.87,34533.64 13122.22,34408.11 13115.15,34325.56 13105.99,34226.25 13101.37,34080.1 13101.19,33892.32 13099.99,33721.07 13096.92,33591.22 13091.25,33479.45 13085.76,33318.44 13079.84,33153.59 13065.19,33019.12 13046.56,32896.95 13056.19,32752.27 13071.37,32607.1 13076.27,32494.88 13073.73,32338.44 13068.7,32184.21 13066.07,32079.32 13063.47,31948.28 13061.02,31797.35 13058.8,31632.79 13056.94,31460.86 13055.52,31287.83 13054.0,31050.03 13051.85,30790.21 13049.36,30590.43 13046.22,30440.64 13042.11,30330.76 13036.72,30250.73 13029.75,30190.48 13019.98,30127.42 13011.78,29995.08 13010.15,29782.43 13020.4,29624.01 13066.28,29534.07 13137.9,29431.6 13176.16,29329.44 13186.62,29188.83 13177.77,28982.35 13169.52,28817.98 13165.25,28678.25 13166.73,28560.16 13180.64,28436.46 13212.2,28249.95 13191.39,28122.67 13121.21,27983.17 13168.81,27880.64 13314.39,27784.14 13366.75,27681.94 13395.49,27556.13 13416.08,27400.05 13426.12,27234.34 13424.55,27100.49 13422.0,27036.81 13418.88,26945.0 13415.25,26827.44 13411.18,26686.53 13406.74,26524.66 13402.0,26344.22 13397.01,26147.59 13391.85,25937.17 13386.35,25728.19 13379.74,25552.85 13372.97,25443.25 13366.61,25375.22 13359.85,25224.22 13354.51,25031.88 13349.67,24856.62 13343.27,24705.8 13335.75,24598.52 13333.3,24469.39 13346.22,24316.94 13353.11,24225.03 13355.24,24122.65 13352.63,23973.61 13345.26,23741.71 13337.86,23524.36 13331.74,23339.82 13326.5,23175.12 13322.04,23026.49 13318.29,22890.16 13315.15,22762.35 13312.53,22639.28 13310.34,22517.2 13308.5,22392.31 13306.92,22260.86 13305.51,22119.06 13303.38,21902.06 13300.04,21683.57 13295.58,21507.81 13289.77,21369.19 13282.37,21262.08 13273.16,21180.89 13257.81,21096.23 13253.64,20957.46 13270.47,20842.04 13276.87,20723.94 13278.33,20568.48 13275.25,20393.5 13268.03,20216.86 13257.08,20056.41 13242.78,19930.01 13228.02,19787.04 13227.85,19639.4 13239.08,19508.1 13240.05,19356.3 13234.22,19228.21 13227.48,19077.36 13220.98,18913.44 13213.88,18745.23 13206.11,18587.61 13200.05,18479.51 13198.02,18341.6 13203.45,18181.63 13208.41,18035.38 13206.59,17891.32 13198.61,17736.29 13185.38,17631.55 13142.4,17511.44 13061.89,17314.38 13028.06,17166.29 13074.71,17061.3 13161.15,16943.17 13166.1,16830.9 13140.45,16663.91 13104.91,16489.21 13096.59,16337.3 13117.62,16223.77 13111.47,16079.62 13071.26,15934.31 13095.72,15784.7 13119.04,15647.34 13137.85,15522.1 13131.89,15356.66 13125.58,15238.07 13121.39,15079.76 13119.99,14911.8 13117.7,14725.78 13110.7,14599.17 13096.35,14478.58 13100.11,14334.5 13101.76,14183.79 13081.62,14043.84 13072.55,13928.68 13089.6,13760.73 13095.3,13682.03 13096.46,13548.43 13093.09,13337.81 13086.68,13098.49 13079.83,12944.2 13070.03,12836.72 13054.53,12733.16 13030.09,12589.94 13042.28,12445.32 13052.14,12356.21 13059.08,12255.05 13063.48,12135.56 13065.43,11993.84 13065.02,11825.96 13062.31,11627.99 13057.63,11402.88 13052.81,11201.53 13047.9,11027.29 13042.72,10876.31 13037.11,10744.73 13030.88,10628.67 13023.87,10524.29 13017.28,10433.41 13011.26,10306.24 13005.46,10141.65 13000.98,9964.02 12994.57,9707.47 12986.1,9590.23 12968.53,9522.52 12939.04,9381.96 12964.24,9243.94 12985.37,9135.82 12985.99,9028.58 12982.97,8864.41 12977.25,8674.65 12969.79,8490.64 12961.54,8343.73 12954.61,8259.2 12950.03,8150.98 12946.76,7996.98 12945.13,7808.01 12944.9,7530.49 12940.82,7344.4 12925.03,7257.27 12889.71,7202.45 12839.03,7107.59 12854.69,6931.42 12865.88,6785.43 12840.31,6683.02 12782.5,6540.11 12706.68,6389.86 12690.47,6249.41 12754.0,6132.56 12844.81,6008.56 12893.75,5910.57 12902.44,5790.43 12872.1,5619.73 12833.63,5447.66 12836.64,5270.54 12756.73,5287.63 12683.05,5422.39 12580.77,5512.54 12466.49,5485.54 12385.67,5339.55 12327.25,5196.89 12293.84,5053.35 12329.26,4943.32 12367.53,4789.82 12395.05,4633.45 12395.86,4526.24 12382.27,4365.08 12360.79,4199.66 12329.5,4054.36 12287.17,3909.23 12272.89,3779.95 12297.02,3643.61 12347.39,3477.93 12367.07,3361.68 12376.17,3215.44 12386.19,3026.94 12379.18,2883.41 12346.68,2766.33 12304.19,2628.34 12320.39,2487.61 12353.02,2327.6 12355.38,2173.38 12328.01,2047.67 12243.05,1948.84 12143.46,1868.55 12252.04,1732.54 12320.07,1617.04 12314.47,1477.0 12278.62,1332.5 12308.33,1195.59 12323.25,1048.82 12298.71,903.05 12212.16,806.94 12060.78,747.23 11988.25,669.5 11953.1,573.67 11941.46,427.65 11949.74,207.0 11959.19,59.43 12049.51,0.0 12195.57,0.0 12341.62,0.0 12487.68,0.0 12633.74,0.0 12779.79,0.0 12925.85,0.0 13071.91,0.0 13217.97,0.0 13364.02,0.0 13510.08,0.0 13656.14,0.0 13802.19,0.0 13948.25,0.0 14094.31,0.0 14240.37,0.0 14386.42,0.0 14532.48,0.0 14678.54,0.0 14824.6,0.0 14970.65,0.0 15116.71,0.0 15262.77,0.0 15408.82,0.0 15554.88,0.0 15700.94,0.0 15847.0,0.0 15993.05,0.0 16139.11,0.0 16285.17,0.0 16431.22,0.0 16577.28,0.0 16723.34,0.0 16869.4,0.0 17015.45,0.0 17161.51,0.0 17307.57,0.0 17453.63,0.0 17599.68,0.0 17745.74,0.0 17891.8,0.0 18037.85,0.0 18183.91,0.0 18329.97,0.0 18476.03,0.0 18622.08,0.0 18768.14,0.0 18914.2,0.0 19060.25,0.0 19206.31,0.0 19352.37,0.0 19498.43,0.0 19644.48,0.0 19790.54,0.0 19936.6,0.0 20082.66,0.0 20228.71,0.0 20374.77,0.0 20520.83,0.0 20666.88,0.0 20812.94,0.0 20959.0,0.0 21105.06,0.0 21251.11,0.0 21397.17,0.0 21543.23,0.0 21689.28,0.0 21835.34,0.0 21981.4,0.0 22127.46,0.0 22273.51,0.0 22419.57,0.0 22565.63,0.0 22711.69,0.0 22857.74,0.0 23003.8,0.0 23149.86,0.0 23295.91,0.0 23441.97,0.0 23588.03,0.0 23734.09,0.0 23880.14,0.0 24026.2,0.0 24172.26,0.0 24318.31,0.0 24464.37,0.0 24509.81,97.38 24504.06,270.5 24489.59,397.02 24448.74,537.59 24431.85,668.01 24449.23,800.74 24456.93,908.51 24457.63,1050.69 24451.81,1213.43 24439.97,1382.9 24422.62,1545.28 24409.89,1647.44 24400.05,1754.7 24391.31,1888.38 24382.81,2062.05 24373.87,2286.51 24365.13,2489.13 24355.82,2634.87 24345.93,2720.32 24327.71,2829.14 24316.36,2964.03 24305.16,3157.75 24289.83,3310.78 24271.43,3431.09 24280.34,3584.68 24282.99,3717.37 24265.06,3897.74 24250.72,3986.12 24242.53,4130.75 24236.27,4317.59 24229.53,4480.03 24222.28,4611.9 24212.54,4743.67 24201.33,4897.22 24189.38,5053.93 24177.65,5177.45 24165.28,5321.16 24151.94,5503.29 24142.44,5590.09 24132.01,5752.69 24119.68,6010.01 24108.21,6191.59 24095.63,6305.8 24079.1,6381.7 24048.61,6482.8 24040.56,6615.78 24046.55,6792.81 24016.67,6914.96 24019.87,7061.3 24036.43,7213.72 24037.83,7382.46 24026.3,7528.58 23991.22,7631.41 23906.06,7770.98 23853.24,7889.35 23813.23,8048.93 23767.33,8190.33 23687.5,8297.7 23581.69,8375.04 23543.01,8502.95 23544.48,8677.91 23560.87,8822.72 23578.73,8923.19 23564.39,9082.26 23533.83,9279.13 23539.59,9393.02 23556.7,9528.22 23544.14,9674.03 23562.76,9803.87 23598.64,9962.93 23570.82,10108.74 23551.17,10252.63 23530.46,10401.84 23520.16,10558.12 23532.66,10700.29 23560.36,10836.13 23550.98,10977.53 23526.78,11084.49 23520.28,11229.55 23519.05,11434.71 23514.1,11588.53 23506.4,11679.32 23500.82,11784.22 23498.18,11924.95 23498.29,12113.54 23501.19,12344.64 23512.19,12464.16 23546.23,12587.12 23534.19,12711.67 23523.94,12868.45 23512.82,13020.97 23501.57,13142.3 23497.34,13324.2 23486.67,13435.26 23475.5,13587.5 23472.14,13766.11 23488.82,13888.68 23497.53,14022.22 23476.27,14154.48 23464.65,14229.95 23455.58,14324.4 23448.75,14444.36 23443.81,14596.37 23440.45,14786.98 23438.35,15022.73 23437.03,15317.07 23438.74,15517.74 23446.65,15636.69 23463.84,15710.76 23493.38,15776.72 23522.87,15900.88 23461.65,16043.59 23443.24,16178.84 23460.5,16337.22 23495.21,16477.42 23504.79,16606.1 23460.81,16761.4 23429.67,16894.53 23424.53,16943.19 23419.76,17008.22 23415.33,17090.55 23411.23,17191.17 23407.45,17311.0 23403.96,17451.02 23400.75,17612.18 23397.79,17795.43 23395.09,18001.73 23392.61,18232.04 23390.34,18487.31 23388.01,18799.75 23386.42,19057.61 23385.72,19255.95 23385.98,19403.59 23387.23,19509.36 23389.53,19582.09 23392.93,19630.6 23399.69,19676.92 23399.5,19803.73 23377.6,19917.31 23369.16,20001.97 23366.02,20143.25 23365.98,20396.91 23367.28,20650.08 23370.87,20798.29 23378.67,20889.76 23394.75,20983.86 23397.31,21126.76 23362.5,21268.61 23386.11,21413.74 23406.45,21545.02 23397.13,21682.39 23369.5,21860.4 23362.31,21986.78 23369.88,22174.29 23371.56,22325.87 23362.42,22437.67 23348.33,22547.09 23342.53,22672.64 23344.89,22816.54 23355.25,22975.29 23373.48,23145.37 23387.72,23297.77 23359.35,23435.64 23343.72,23493.7 23331.39,23555.44 23321.64,23632.43 23313.79,23736.24 23307.14,23878.45 23300.99,24070.62 23294.64,24324.34 23287.52,24646.41 23282.95,24919.61 23285.17,25105.88 23297.63,25227.66 23323.8,25307.4 23367.14,25367.55 23443.81,25443.6 23508.74,25562.08 23422.32,25677.66 23377.35,25765.11 23377.39,25917.83 23384.9,26112.73 23396.58,26260.08 23440.09,26375.86 23512.48,26519.66 23550.13,26645.76 23558.46,26742.82 23566.9,26915.68 23575.01,27151.31 23587.42,27311.17 23614.61,27399.42 23669.58,27495.67 23699.76,27593.79 23702.11,27785.73 23696.6,27973.56 23689.47,28059.48 23686.54,28118.92 23683.83,28237.24 23681.54,28402.29 23679.84,28601.93 23678.77,28846.8 23677.51,29154.5 23678.56,29349.21 23684.42,29463.88 23697.59,29531.48 23720.55,29584.94 23763.68,29672.0 23774.51,29815.42 23773.88,29955.12 23772.27,30080.97 23769.53,30233.61 23765.91,30394.52 23761.76,30542.26 23758.53,30657.44 23755.37,30797.08 23752.33,30956.48 23749.46,31130.91 23746.8,31315.63 23744.4,31505.93 23742.29,31697.09 23740.54,31884.38 23739.18,32063.08 23738.25,32228.46 23737.81,32375.8 23737.89,32500.38 23738.55,32597.47 23739.82,32662.35 23747.87,32764.98 23757.69,32939.01 23753.04,33044.29 23743.76,33117.62 23735.91,33265.0 23729.54,33466.64 23723.99,33636.85 23717.36,33796.29 23710.6,33917.71 23702.56,34043.02 23703.07,34177.07 23711.13,34324.68 23715.25,34428.95 23716.49,34549.47 23714.85,34702.55 23710.33,34904.5 23704.5,35157.77 23702.02,35348.35 23703.59,35483.84 23709.7,35585.03 23720.84,35672.72 23737.65,35801.76 23727.61,35939.12 23735.0,36072.57 23752.34,36203.21 23716.49,36358.45 23683.56,36504.8 23683.76,36645.42 23709.82,36819.5 23721.92,36971.41 23702.94,37099.84 23661.96,37249.64 23684.36,37368.06 23735.76,37550.86 23731.71,37673.21 23665.12,37779.54 23555.43,37927.14 23463.4,37970.14 23338.15,37848.24 23232.85,37847.02 23194.53,37973.97 23182.13,38118.41 23169.59,38272.85 23162.74,38428.98 23160.9,38590.94 23164.12,38740.98 23172.48,38861.37 23182.03,38989.42 23183.02,39130.58 23175.32,39285.04 23154.81,39491.02 23126.01,39686.0 23090.29,39811.12 23039.53,39892.27 22951.79,39969.7 22854.75,40082.63 22798.94,40209.06 22785.2,40304.12 22778.7,40451.6 22773.98,40644.56 22769.71,40847.62 22763.03,40982.24 22754.19,41049.81 22744.22,41202.16 22736.56,41428.49 22716.56,41575.54 22663.21,41650.36 22558.88,41737.95 22522.72,41834.21 22547.76,42035.81 22560.17,42165.09 22597.5,42286.78 22681.12,42437.4 22716.4,42574.22 22705.59,42727.79 22642.83,42837.39 22541.1,42959.8 22564.03,43097.17 22547.04,43241.78 22440.44,43328.93 22338.32,43251.22 22320.75,43110.32 22345.99,42963.07 22257.56,42831.17 22189.83,42712.18 22187.72,42565.26 22231.01,42423.51 22309.65,42299.71 22344.49,42175.85 22363.25,42008.26 22395.91,41845.05 22414.91,41768.1 22393.79,41606.32 22352.19,41437.56 22270.83,41356.47 22101.32,41326.25 21937.02,41332.18 21863.71,41411.98 21829.71,41577.13 21743.89,41681.25 21653.4,41779.04 21631.3,41904.36 21634.01,42070.93 21584.88,42203.81 21519.87,42331.56 21440.43,42453.4 21313.97,42535.67 21232.84,42625.62 21219.27,42792.15 21181.2,42917.44 21091.62,43059.08 21067.53,43152.34 21060.56,43267.62 21053.51,43448.02 21047.34,43656.57 21040.36,43840.89 21033.42,43959.01 21020.99,44045.03 21012.73,44195.3 21016.59,44355.45 21026.16,44485.19 21015.5,44607.21 20981.93,44813.66 20961.36,44959.91 20949.45,45059.87 20914.38,45223.23 20900.57,45323.41 20890.39,45509.72 20883.2,45667.35 20875.36,45824.0 20868.49,45943.21 20863.38,46051.64 20858.04,46201.21 20853.02,46370.98 20848.01,46578.49 20840.69,46795.52 20828.87,46928.29 20808.27,47015.71 20776.61,47098.65 20743.6,47253.33 20720.32,47361.59 20712.34,47427.52 20707.1,47544.68 20703.28,47743.75 20699.56,48051.85 20695.46,48294.98 20685.1,48429.44 20660.9,48501.79 20615.3,48558.57 20542.49,48653.72 20520.92,48790.74 20533.43,48960.9 20619.1,49110.32 20628.82,49220.5 20551.65,49336.89 20485.19,49470.37 20496.8,49609.25 20518.23,49763.84 20444.58,49877.96 20358.82,49791.86 20363.37,49639.21 20377.65,49495.55 20332.03,49360.12 20245.98,49214.3 20270.5,49096.32 20340.95,48992.93 20370.33,48865.64 20379.44,48658.96 20369.12,48534.21 20315.65,48363.53 20241.28,48323.14 20153.01,48467.68 20080.14,48574.46 20006.03,48712.46 19932.53,48840.21 19891.0,48973.99 19847.69,49108.5 19780.79,49255.63 19743.24,49373.97 19684.71,49520.25 19661.87,49662.47 19652.98,49838.58 19632.46,49951.43 19576.88,50091.73 19523.13,50220.01 19477.27,50362.98 19432.19,50501.12 19384.78,50636.44 19361.98,50778.27 19332.34,50926.41 19305.07,51069.34 19276.11,51205.97 19227.84,51352.23 19192.43,51487.2 19162.65,51625.74 19147.28,51792.78 19120.22,51919.41 19059.83,52054.58 19056.01,52200.59 19045.6,52366.98 19029.74,52466.23 19028.75,52644.46 19022.65,52780.32 18991.52,52960.16 18957.47,53150.0 18941.83,53261.87 18935.26,53358.05 18918.12,53508.83 18895.42,53641.16 18886.24,53790.78 18885.1,53940.77 18938.87,54061.88 18984.16,54186.19 19027.64,54342.68 19060.77,54499.8 19076.87,54666.74 19045.79,54803.81 18937.98,54866.21 18820.14,54941.82 18795.08,55088.11 18823.29,55225.86 18925.15,55277.01 19063.48,55177.34 19178.83,55216.65 19227.62,55316.44 19239.99,55497.8 19218.92,55639.78 19137.86,55750.56 19071.32,55866.75 18998.92,56041.46 18967.07,56159.62 18821.33,56160.0 18675.27,56160.0 18529.22,56160.0 18396.35,56142.78 14180.02,38017.91 14104.48,37902.86 14006.39,37989.99 14053.23,38136.25 12856.19,4950.97 12781.46,4851.25 12753.52,4968.76 12854.0,4969.0"/><path d="M12191 6234 c-26 -22 -31 -33 -31 -70 0 -25 6 -59 14 -77 12 -29 67 -87 82 -87 4 0 43 -24 88 -54 105 -69 119 -76 154 -76 21 0 35 8 47 26 18 28 17 32 -43 94 -19 19 -54 76 -78 127 -55 113 -87 143 -154 143 -38 0 -55 -6 -79 -26z"/>
</g>
</svg>
