<?xml version="1.0" standalone="no"?>
<!DOCTYPE svg PUBLIC "-//W3C//DTD SVG 20010904//EN"
 "http://www.w3.org/TR/2001/REC-SVG-20010904/DTD/svg10.dtd">
<svg version="1.0" xmlns="http://www.w3.org/2000/svg"
 width="3744.000000pt" height="5616.000000pt" viewBox="0 0 3744.000000 5616.000000"
 preserveAspectRatio="xMidYMid meet">
<metadata>
Created by potrace 1.15, written by Peter Selinger 2001-2017
</metadata>
<g transform="translate(0.000000,5616.000000) scale(0.100000,-0.100000)"
fill="#000000" stroke="none">
<path d="M18391 56123 c-15 -55 -73 -135 -133 -185 -126 -105 -208 -218 -229
-316 -17 -83 -8 -288 15 -331 27 -51 55 -70 102 -71 36 0 52 8 113 56 91 71
127 78 164 34 25 -29 27 -38 27 -123 0 -114 -13 -204 -35 -251 -13 -27 -33
-43 -88 -71 -128 -65 -150 -98 -148 -224 2 -178 57 -441 112 -540 81 -143 80
-136 56 -356 -18 -161 -61 -329 -132 -515 -14 -38 -16 -64 -10 -166 4 -75 2
-158 -5 -220 -10 -84 -9 -119 5 -235 l18 -136 -33 -106 c-30 -100 -31 -113
-25 -200 6 -86 5 -98 -25 -191 -18 -54 -36 -137 -40 -185 -5 -51 -23 -128 -43
-191 -20 -58 -38 -127 -42 -153 -3 -27 -24 -102 -45 -168 -22 -65 -43 -138
-46 -161 -10 -70 -35 -148 -72 -228 -71 -153 -104 -277 -145 -536 -10 -63 -26
-113 -52 -165 -20 -41 -51 -119 -70 -174 -18 -55 -45 -130 -59 -167 -14 -37
-30 -109 -36 -160 -14 -115 -29 -162 -73 -230 -36 -55 -47 -87 -67 -198 -8
-48 -25 -89 -65 -155 -37 -63 -58 -112 -69 -164 -15 -67 -39 -128 -55 -141
-14 -11 -61 -88 -79 -130 -38 -84 -91 -195 -115 -240 -13 -25 -34 -72 -47
-105 -28 -74 -62 -109 -99 -100 -82 20 -121 141 -121 369 1 117 19 280 36 321
4 11 27 47 51 80 24 33 49 76 55 96 11 40 3 63 -73 203 -29 52 -32 67 -32 136
1 43 7 112 14 155 14 91 1 171 -37 222 -35 46 -58 57 -98 43 -69 -22 -100
-133 -72 -253 9 -38 16 -101 16 -140 0 -85 -27 -147 -103 -240 -67 -82 -65
-109 13 -223 69 -102 85 -159 75 -262 -8 -70 -23 -109 -53 -139 -29 -29 -87
-106 -100 -133 -25 -55 -34 -119 -32 -249 2 -259 -8 -1003 -15 -1040 -4 -20
-24 -74 -45 -122 -59 -131 -65 -181 -50 -385 7 -95 9 -181 5 -191 -4 -10 -9
-272 -11 -583 -4 -645 -1 -619 -89 -765 -63 -105 -89 -168 -99 -243 -4 -28
-23 -97 -42 -153 -30 -85 -36 -113 -34 -173 1 -39 2 -81 2 -94 0 -20 -17 -50
-67 -119 -7 -10 -3 -26 14 -56 56 -99 56 -100 53 -172 -1 -38 -3 -216 -5 -395
l-2 -325 -29 -95 c-28 -94 -28 -97 -16 -192 17 -125 6 -159 -64 -205 -106 -69
-131 -119 -116 -223 24 -157 8 -199 -95 -251 -81 -40 -105 -67 -140 -157 -35
-91 -62 -117 -160 -162 -44 -21 -87 -45 -94 -54 -16 -19 -16 -57 2 -164 22
-128 9 -166 -80 -233 -32 -24 -70 -54 -85 -67 -36 -32 -67 -108 -75 -182 -3
-37 -14 -74 -27 -93 -20 -29 -31 -34 -123 -54 -56 -12 -112 -27 -124 -33 -11
-7 -42 -12 -67 -13 -63 0 -78 20 -136 186 -55 158 -65 211 -53 287 16 109 57
198 127 276 28 30 50 60 50 67 0 7 -15 36 -34 65 -36 56 -39 98 -11 136 79
107 101 177 93 300 -6 87 -36 157 -97 225 -52 58 -67 115 -46 177 40 119 28
219 -35 285 -69 73 -129 48 -187 -76 -25 -54 -28 -70 -28 -170 0 -123 -4 -134
-70 -205 -70 -76 -77 -92 -82 -188 -3 -48 0 -121 6 -162 10 -64 19 -86 65
-155 29 -44 58 -93 64 -110 8 -20 11 -99 9 -235 -2 -238 -1 -233 -99 -301 -48
-33 -69 -56 -87 -94 -24 -48 -25 -62 -32 -335 -5 -157 -13 -339 -18 -405 -6
-66 -13 -230 -15 -365 -3 -135 -9 -260 -15 -277 -13 -46 -108 -231 -138 -270
-21 -29 -30 -33 -69 -33 -143 0 -194 -122 -224 -535 -6 -82 -15 -186 -21 -230
-8 -59 -8 -128 1 -265 17 -244 9 -618 -15 -717 -19 -82 -70 -153 -109 -153
-39 0 -113 -30 -137 -56 -13 -14 -39 -54 -59 -89 -19 -35 -58 -97 -86 -138
-72 -105 -76 -139 -34 -305 41 -163 37 -183 -55 -273 -73 -71 -95 -110 -95
-167 0 -55 13 -85 70 -162 75 -101 92 -154 92 -280 -1 -96 -4 -114 -38 -210
-32 -87 -38 -117 -37 -175 1 -39 7 -83 12 -98 14 -36 14 -114 0 -196 -8 -53
-6 -96 12 -235 21 -163 21 -194 15 -649 -5 -333 -11 -513 -22 -590 -10 -78
-14 -192 -13 -377 1 -146 -2 -312 -5 -370 -4 -58 -9 -186 -11 -285 -2 -122
-10 -215 -24 -290 -20 -110 -20 -110 0 -285 18 -161 19 -198 9 -485 -6 -170
-13 -632 -15 -1025 -5 -783 -9 -926 -31 -1044 -9 -52 -14 -150 -14 -297 0
-247 1 -253 73 -347 104 -136 115 -194 96 -510 -8 -125 -14 -283 -14 -352 0
-120 4 -156 40 -353 19 -105 12 -140 -46 -229 -29 -46 -39 -71 -39 -103 0 -49
23 -74 113 -124 71 -39 94 -61 118 -116 49 -110 84 -404 74 -615 -6 -121 -20
-621 -35 -1250 -5 -206 -13 -401 -19 -432 -5 -32 -12 -198 -16 -370 -3 -172
-11 -367 -17 -433 -9 -99 -8 -149 6 -285 15 -153 15 -199 0 -635 -28 -817 -34
-1066 -39 -1643 -5 -579 -15 -808 -40 -928 -19 -88 -19 -153 0 -251 26 -136
12 -737 -23 -958 -19 -123 -21 -259 -6 -381 6 -49 7 -143 2 -235 -4 -85 -13
-275 -18 -424 -6 -148 -15 -324 -19 -390 -5 -71 -4 -195 2 -305 7 -128 8 -242
0 -370 -11 -204 -1 -166 -116 -441 -46 -107 -68 -210 -56 -252 5 -17 33 -56
63 -87 31 -31 59 -72 66 -93 18 -56 5 -187 -32 -337 -34 -137 -42 -283 -19
-352 21 -63 17 -146 -13 -232 l-27 -78 16 -97 c17 -107 29 -174 46 -273 10
-51 10 -101 1 -220 -7 -84 -12 -277 -12 -429 0 -196 -4 -305 -15 -377 -12 -80
-13 -124 -6 -206 11 -107 3 -218 -19 -309 -13 -50 -10 -144 9 -272 9 -61 10
-177 3 -475 -9 -359 -13 -410 -38 -560 l-28 -164 17 -126 c24 -181 28 -441 16
-975 -11 -509 -21 -772 -39 -990 -6 -77 -15 -306 -19 -510 -8 -369 -8 -370
-35 -450 -33 -96 -36 -167 -8 -251 11 -33 23 -82 26 -109 9 -65 -11 -716 -27
-865 -7 -70 -12 -288 -12 -555 0 -485 3 -457 -65 -545 -49 -64 -52 -88 -29
-234 13 -83 18 -149 14 -180 -10 -79 -90 -270 -172 -410 -15 -25 -16 -69 -3
-115 11 -39 77 -145 132 -213 103 -125 107 -215 23 -523 -12 -46 -15 -82 -10
-155 6 -86 5 -97 -12 -113 -19 -16 -21 -16 -45 11 -14 15 -34 49 -44 75 -24
61 -80 135 -123 164 -87 59 -181 -5 -224 -153 -8 -28 -32 -87 -52 -130 -49
-106 -54 -154 -22 -224 26 -59 75 -275 84 -375 6 -66 -18 -320 -43 -455 -9
-47 -26 -116 -39 -155 -58 -176 -57 -251 6 -438 25 -75 42 -147 45 -187 2 -36
9 -145 15 -242 13 -204 5 -279 -43 -393 -43 -103 -46 -161 -14 -270 47 -160
45 -348 -4 -445 -24 -48 -55 -74 -117 -101 -83 -36 -80 -73 13 -161 88 -83
108 -120 108 -203 0 -48 -8 -92 -24 -140 -29 -85 -29 -121 1 -205 28 -81 30
-206 5 -295 -24 -81 -61 -113 -162 -144 -65 -19 -87 -31 -120 -66 -80 -82 -95
-187 -74 -512 l13 -203 6275 0 6275 0 -6 183 c-5 174 -7 187 -41 296 -40 127
-43 173 -20 301 24 131 11 513 -26 785 -20 146 -30 296 -45 690 -9 255 -19
418 -30 470 -21 110 -24 144 -35 355 -5 102 -17 224 -27 273 -15 77 -16 102
-5 205 9 97 9 143 -4 261 -8 79 -18 149 -21 154 -4 6 -10 124 -14 261 -4 138
-12 316 -18 396 -6 80 -16 215 -22 300 -6 85 -15 191 -20 235 -5 44 -14 150
-19 235 -6 85 -13 162 -15 171 -3 9 -10 110 -15 225 -20 440 -28 522 -60 614
-32 95 -36 129 -25 276 6 82 5 110 -9 150 -27 80 -30 144 -11 259 22 135 17
400 -9 482 -9 29 -46 96 -81 149 -63 94 -78 133 -105 259 -7 33 -19 74 -26 90
-7 17 -20 56 -28 87 -25 88 -51 126 -96 138 -65 17 -97 53 -121 132 -19 62
-21 86 -16 211 3 89 11 160 21 191 22 67 20 136 -9 306 -29 171 -30 184 -9
285 14 66 14 92 4 174 -12 101 -8 134 34 284 20 74 20 88 -3 178 -10 41 -22
110 -26 154 -4 44 -13 118 -21 164 -21 125 -18 271 8 361 27 97 27 176 0 274
-20 71 -22 103 -22 310 0 127 -4 269 -10 316 -11 104 -14 253 -11 560 2 221 4
240 28 319 26 81 26 87 13 155 -8 39 -15 125 -16 191 -1 66 -7 140 -13 165 -6
25 -11 113 -11 195 -1 83 -5 170 -11 195 -5 25 -12 117 -15 205 -5 128 -3 176
10 239 21 102 20 153 -4 272 -30 141 -39 357 -42 949 -3 573 -3 574 58 697 19
37 34 78 34 91 0 12 -14 49 -30 81 -53 102 -65 172 -52 300 7 61 23 146 37
189 33 104 32 149 -10 273 -19 57 -40 136 -45 176 -20 149 -32 620 -40 1638
-7 907 -6 1056 7 1131 14 82 14 90 -9 200 -22 110 -23 130 -22 544 1 398 3
439 23 548 l22 118 -27 110 -27 110 23 97 c35 144 35 192 5 372 -24 143 -26
177 -20 298 11 236 10 304 -8 416 -26 166 -17 433 24 728 13 86 9 133 -20 228
-47 160 -52 227 -72 1147 -15 701 -14 705 131 843 112 108 117 147 25 235 -30
28 -59 63 -64 78 -13 34 3 480 19 547 6 25 30 79 53 120 54 95 83 169 97 245
6 33 15 195 20 360 10 325 13 344 70 440 65 108 65 108 62 350 -2 121 -7 238
-12 261 -5 22 -10 353 -11 735 -3 770 -9 688 64 839 l32 65 -1 245 c-1 135 -6
403 -12 595 -16 487 -31 2041 -21 2150 19 209 22 320 9 375 -7 33 -15 188 -20
390 -5 184 -14 404 -21 489 -10 124 -10 191 0 350 10 156 10 292 0 666 -12
499 -10 592 17 749 14 82 15 114 6 187 -10 85 -7 137 17 262 9 53 4 83 -43
241 -33 111 -34 213 -5 374 31 168 28 255 -10 372 -17 52 -31 109 -31 127 0
17 18 86 41 152 45 137 52 216 23 272 -20 40 -181 258 -203 277 -25 19 -72 5
-100 -30 -61 -76 -97 -108 -128 -114 -28 -6 -37 -2 -62 25 -26 27 -30 41 -35
109 -4 42 -13 152 -21 243 -18 202 -19 517 -2 665 16 146 14 314 -6 514 -40
385 -67 471 -174 555 -116 91 -182 193 -203 315 -6 36 -13 212 -16 393 -2 196
-9 346 -15 375 -7 26 -15 153 -18 282 -7 268 -14 297 -89 360 -23 19 -60 50
-82 68 -54 46 -58 75 -31 247 12 77 21 159 21 181 0 57 20 108 80 204 61 98
85 188 76 290 -11 116 -21 138 -102 216 -70 68 -74 75 -74 116 0 24 7 61 15
83 32 89 7 190 -59 240 -40 30 -69 32 -106 5 -72 -51 -91 -142 -55 -263 25
-85 16 -113 -65 -202 -59 -65 -70 -84 -80 -132 -22 -105 6 -248 65 -329 74
-103 85 -134 95 -269 8 -104 45 -293 64 -323 6 -10 -9 -127 -30 -242 -33 -171
-74 -206 -261 -222 -154 -13 -194 -6 -232 37 -22 26 -31 47 -36 92 -12 108
-34 161 -83 201 -138 113 -144 128 -140 324 l3 133 -57 101 c-32 55 -58 106
-58 113 0 25 -40 89 -78 123 -21 19 -66 50 -100 68 -105 56 -121 87 -122 236
0 92 -10 123 -69 207 -56 79 -70 109 -81 170 -6 28 -14 221 -20 427 -5 206
-14 395 -19 420 -19 85 -24 274 -12 406 12 128 12 131 -23 342 -20 117 -36
230 -36 250 0 37 -28 185 -50 261 -6 20 -15 146 -20 281 -6 135 -15 322 -21
415 -6 94 -14 343 -19 555 -9 422 -15 472 -66 586 -7 17 -20 68 -28 115 -9 46
-23 116 -32 154 -15 60 -18 146 -23 580 -7 584 1 536 -106 656 -68 77 -78 110
-73 259 3 114 3 115 43 178 86 137 92 163 48 229 -16 22 -47 68 -70 103 -68
100 -77 159 -43 270 27 84 27 148 1 199 -36 70 -76 79 -117 25 -36 -46 -43
-127 -20 -207 33 -113 14 -216 -57 -316 -78 -109 -85 -150 -35 -227 17 -27 39
-58 48 -69 38 -46 51 -107 57 -270 5 -132 3 -174 -12 -240 -31 -141 -61 -194
-112 -195 -18 0 -32 18 -73 98 -27 53 -64 113 -81 132 -18 19 -48 69 -67 110
-19 41 -50 99 -68 127 -46 72 -60 108 -74 193 -9 52 -27 101 -60 164 -26 50
-53 116 -60 146 -7 30 -33 105 -58 165 l-46 110 -7 165 c-5 126 -11 178 -26
220 -23 61 -86 217 -109 268 -8 18 -29 80 -45 139 -17 59 -36 121 -44 138 -37
80 -54 138 -64 225 -7 52 -23 140 -36 195 -13 55 -27 125 -30 155 -9 68 -26
136 -55 215 -12 33 -28 85 -36 115 -7 30 -23 93 -35 140 -13 51 -25 136 -29
210 -7 119 -10 129 -49 211 l-41 87 -4 153 c-2 90 -9 175 -17 204 -10 35 -13
94 -11 198 3 126 -1 168 -23 285 -57 304 -64 351 -69 457 -3 61 -15 157 -27
215 -16 78 -22 142 -23 250 l-1 145 43 84 c53 103 128 383 144 541 17 174 -9
246 -102 275 -65 20 -127 56 -150 87 -23 30 -25 42 -25 128 0 82 4 103 26 151
22 47 32 58 58 64 27 6 38 1 77 -32 90 -76 94 -78 141 -78 41 0 49 4 83 43 46
51 60 116 60 273 0 123 -12 156 -87 241 -38 44 -64 91 -111 201 -34 80 -64
163 -68 186 l-7 41 -283 0 -283 0 -10 -37z m-4236 -17983 c20 -22 32 -111 21
-154 -3 -13 -18 -38 -32 -55 -47 -56 -111 -33 -135 49 -33 109 80 232 146 160z
m-1301 -33171 c11 -58 -17 -119 -56 -119 -41 0 -58 19 -58 64 0 35 6 50 33 78
29 32 34 34 53 21 12 -8 24 -28 28 -44z"/>
<path d="M12191 6234 c-26 -22 -31 -33 -31 -70 0 -25 6 -59 14 -77 12 -29 67
-87 82 -87 4 0 43 -24 88 -54 105 -69 119 -76 154 -76 21 0 35 8 47 26 18 28
17 32 -43 94 -19 19 -54 76 -78 127 -55 113 -87 143 -154 143 -38 0 -55 -6
-79 -26z"/>
</g>
</svg>
