<!DOCTYPE svg PUBLIC "-//W3C//DTD SVG 20010904//EN" "http://www.w3.org/TR/2001/REC-SVG-20010904/DTD/svg10.dtd">
<svg xmlns="http://www.w3.org/2000/svg" version="1.0" width="728.000000pt" height="449.000000pt" viewBox="0 0 728.000000 449.000000" preserveAspectRatio="xMidYMid meet">
<metadata>
Created by potrace 1.15, written by Peter Selinger 2001-2017
</metadata>
<g transform="translate(0.000000,449.000000) scale(0.100000,-0.100000)" fill="#000000" stroke="none">
<polygon points="3080.0,4090.0 3058.2,4089.41 3036.53,4088.8 3015.0,4088.17 2993.61,4087.52 2972.36,4086.85 2951.24,4086.16 2930.27,4085.45 2909.45,4084.72 2888.77,4083.97 2868.23,4083.21 2847.85,4082.42 2827.62,4081.61 2807.54,4080.79 2787.61,4079.94 2767.84,4079.08 2748.23,4078.2 2728.77,4077.29 2709.48,4076.37 2690.35,4075.44 2671.39,4074.48 2652.59,4073.5 2633.96,4072.51 2615.5,4071.5 2597.21,4070.47 2579.09,4069.42 2561.15,4068.35 2543.38,4067.27 2525.8,4066.16 2508.39,4065.04 2491.16,4063.91 2474.12,4062.75 2457.26,4061.58 2440.58,4060.39 2424.1,4059.18 2407.8,4057.96 2391.7,4056.71 2375.79,4055.46 2360.08,4054.18 2344.56,4052.89 2329.24,4051.58 2314.12,4050.25 2299.2,4048.91 2284.48,4047.55 2269.97,4046.17 2255.67,4044.78 2241.57,4043.37 2227.69,4041.95 2214.01,4040.5 2200.55,4039.05 2187.31,4037.57 2174.28,4036.09 2160.23,4034.44 2142.58,4032.4 2124.37,4030.37 2105.69,4028.34 2086.65,4026.32 2067.33,4024.33 2047.85,4022.38 2028.3,4020.48 2008.78,4018.64 1989.39,4016.86 1970.23,4015.16 1951.41,4013.54 1933.02,4012.03 1915.16,4010.62 1897.93,4009.33 1881.43,4008.16 1865.76,4007.14 1851.03,4006.26 1837.33,4005.54 1824.59,4004.98 1804.37,4004.04 1784.56,4003.07 1765.12,4002.07 1746.04,4001.03 1727.3,3999.94 1708.86,3998.82 1690.7,3997.65 1672.8,3996.43 1655.13,3995.17 1637.68,3993.84 1620.4,3992.46 1603.29,3991.02 1586.32,3989.52 1569.46,3987.95 1552.69,3986.31 1535.98,3984.6 1519.31,3982.82 1502.65,3980.96 1485.99,3979.02 1469.29,3977.0 1452.54,3974.89 1435.7,3972.69 1418.76,3970.4 1401.68,3968.01 1384.45,3965.53 1367.04,3962.95 1349.43,3960.26 1331.59,3957.47 1313.5,3954.57 1282.44,3949.65 1250.91,3944.68 1222.06,3940.15 1195.7,3936.02 1171.65,3932.27 1149.74,3928.88 1129.78,3925.82 1111.58,3923.07 1094.97,3920.59 1079.77,3918.37 1065.79,3916.38 1052.86,3914.6 1040.79,3912.98 1029.39,3911.53 1018.5,3910.19 1007.93,3908.96 997.49,3907.81 987.0,3906.7 976.3,3905.62 964.67,3904.45 951.16,3902.87 936.29,3900.91 920.19,3898.6 902.99,3895.96 884.84,3893.02 865.86,3889.82 846.21,3886.38 826.02,3882.72 805.41,3878.89 784.54,3874.9 763.54,3870.78 742.54,3866.56 721.69,3862.28 701.12,3857.95 680.96,3853.62 661.37,3849.3 642.46,3845.02 624.39,3840.81 607.28,3836.71 591.28,3832.74 576.52,3828.92 563.14,3825.29 551.28,3821.88 541.07,3818.7 531.29,3815.18 519.23,3810.06 505.97,3803.86 491.66,3796.68 476.46,3788.62 460.54,3779.79 444.05,3770.29 427.16,3760.22 410.03,3749.7 392.82,3738.81 375.68,3727.66 358.79,3716.37 342.3,3705.02 326.37,3693.73 311.17,3682.59 296.85,3671.71 283.58,3661.2 271.51,3651.16 260.82,3641.68 247.67,3628.8 234.92,3614.65 223.47,3600.08 213.32,3585.12 204.46,3569.8 196.92,3554.16 190.7,3538.21 185.79,3521.99 182.22,3505.54 179.97,3488.88 179.07,3472.04 179.52,3455.05 181.31,3437.94 184.47,3420.75 188.98,3403.51 194.87,3386.23 202.14,3368.96 208.66,3355.51 215.09,3343.6 222.04,3332.08 229.57,3320.88 237.79,3309.9 246.77,3299.08 256.59,3288.33 267.35,3277.57 279.12,3266.72 291.99,3255.7 306.03,3244.43 321.35,3232.83 338.01,3220.82 356.11,3208.33 375.72,3195.26 396.94,3181.55 419.84,3167.1 433.16,3158.88 445.99,3150.8 458.44,3142.76 470.56,3134.73 482.38,3126.66 493.96,3118.52 505.33,3110.27 516.54,3101.87 527.63,3093.27 538.65,3084.43 549.64,3075.32 560.64,3065.9 571.69,3056.13 582.85,3045.95 594.15,3035.35 605.64,3024.27 617.36,3012.67 629.35,3000.52 641.66,2987.77 654.34,2974.39 667.41,2960.33 680.94,2945.56 694.95,2930.03 709.51,2913.7 724.64,2896.54 740.39,2878.5 756.81,2859.55 773.94,2839.64 791.82,2818.73 809.96,2797.55 827.42,2777.2 844.0,2757.9 859.48,2739.89 873.66,2723.41 886.34,2708.7 897.31,2695.99 906.37,2685.53 913.31,2677.54 917.93,2672.28 920.09,2669.91 924.7,2665.0 931.43,2657.45 940.0,2647.57 950.16,2635.69 961.64,2622.13 974.16,2607.22 987.47,2591.26 1001.29,2574.6 1015.36,2557.54 1029.41,2540.41 1043.17,2523.53 1056.38,2507.22 1068.77,2491.81 1080.08,2477.62 1090.02,2464.97 1099.74,2452.7 1110.4,2439.3 1121.78,2425.08 1133.63,2410.34 1145.73,2395.39 1157.83,2380.53 1169.72,2366.06 1181.14,2352.29 1191.87,2339.52 1201.12,2328.7 1207.72,2320.88 1214.83,2312.15 1222.41,2302.56 1230.44,2292.15 1238.9,2280.97 1247.75,2269.04 1256.97,2256.43 1266.53,2243.16 1276.41,2229.28 1286.58,2214.84 1297.0,2199.87 1307.66,2184.42 1318.53,2168.52 1329.57,2152.24 1340.77,2135.59 1352.09,2118.64 1363.51,2101.41 1375.0,2083.95 1386.53,2066.31 1398.08,2048.53 1409.62,2030.64 1421.12,2012.69 1432.55,1994.73 1443.89,1976.79 1455.11,1958.92 1466.18,1941.16 1477.08,1923.55 1487.78,1906.14 1498.25,1888.96 1508.46,1872.06 1518.39,1855.49 1528.01,1839.27 1537.29,1823.47 1546.21,1808.11 1554.74,1793.24 1562.85,1778.91 1570.51,1765.15 1577.7,1752.01 1584.38,1739.52 1590.54,1727.74 1596.15,1716.71 1600.58,1707.76 1605.35,1698.28 1610.64,1687.92 1616.46,1676.67 1622.79,1664.57 1629.61,1651.62 1636.94,1637.84 1644.74,1623.25 1653.02,1607.88 1661.76,1591.72 1670.95,1574.81 1680.59,1557.15 1690.67,1538.77 1701.17,1519.68 1712.08,1499.9 1723.4,1479.45 1735.12,1458.34 1747.15,1436.73 1755.31,1422.02 1763.54,1406.97 1771.85,1391.58 1780.22,1375.89 1788.64,1359.9 1797.11,1343.64 1805.62,1327.13 1814.15,1310.4 1822.7,1293.45 1831.26,1276.31 1839.82,1259.01 1848.37,1241.55 1856.9,1223.97 1865.41,1206.27 1873.88,1188.49 1882.31,1170.64 1890.68,1152.75 1898.99,1134.82 1907.23,1116.89 1915.39,1098.96 1923.46,1081.08 1931.44,1063.24 1939.3,1045.48 1947.05,1027.81 1954.68,1010.25 1962.17,992.83 1969.52,975.56 1976.72,958.46 1983.76,941.56 1990.62,924.87 1997.31,908.42 2003.82,892.22 2010.12,876.29 2016.22,860.67 2022.11,845.35 2027.78,830.37 2033.21,815.75 2038.4,801.5 2043.34,787.65 2048.02,774.22 2052.44,761.22 2056.58,748.67 2060.43,736.61 2063.99,725.04 2070.26,704.52 2076.55,684.6 2082.86,665.31 2089.2,646.62 2095.59,628.52 2102.06,611.0 2108.6,594.04 2115.25,577.64 2122.02,561.78 2128.92,546.44 2135.97,531.61 2143.19,517.28 2150.59,503.44 2158.19,490.07 2166.01,477.15 2174.07,464.68 2182.37,452.64 2190.95,441.02 2199.8,429.8 2208.96,418.98 2218.43,408.52 2228.24,398.44 2238.39,388.7 2248.92,379.3 2259.82,370.22 2271.13,361.45 2282.85,352.98 2295.01,344.79 2307.61,336.87 2320.68,329.21 2334.23,321.78 2348.29,314.59 2362.85,307.61 2377.95,300.83 2393.6,294.24 2409.82,287.83 2426.61,281.58 2444.01,275.47 2462.02,269.5 2480.66,263.65 2499.95,257.91 2519.9,252.26 2540.54,246.69 2561.87,241.19 2583.92,235.75 2606.7,230.34 2630.23,224.96 2654.52,219.59 2679.6,214.22 2700.78,209.86 2716.23,206.94 2732.92,203.94 2750.6,200.92 2769.0,197.9 2787.85,194.93 2806.88,192.05 2825.83,189.31 2844.44,186.73 2862.43,184.38 2879.54,182.28 2895.51,180.47 2910.15,178.93 2925.78,177.24 2942.57,175.36 2960.31,173.33 2978.74,171.16 2997.63,168.9 3016.75,166.57 3035.86,164.19 3054.72,161.79 3073.1,159.4 3090.76,157.05 3107.46,154.76 3122.04,152.74 3133.18,151.44 3145.67,150.1 3159.4,148.76 3174.27,147.41 3190.17,146.06 3206.99,144.73 3224.63,143.42 3242.96,142.14 3261.9,140.91 3281.32,139.72 3301.12,138.59 3321.19,137.54 3341.43,136.56 3361.72,135.67 3381.96,134.87 3402.04,134.18 3421.85,133.61 3441.28,133.16 3460.26,132.76 3479.08,132.37 3497.8,132.04 3516.45,131.79 3535.01,131.61 3553.49,131.5 3571.9,131.45 3590.23,131.48 3608.49,131.58 3626.67,131.75 3644.79,131.99 3662.85,132.3 3680.84,132.68 3698.77,133.14 3716.64,133.66 3734.45,134.26 3752.21,134.93 3769.92,135.68 3787.58,136.49 3805.2,137.38 3822.77,138.34 3840.29,139.38 3857.78,140.49 3875.23,141.67 3892.64,142.93 3910.03,144.26 3927.38,145.67 3944.7,147.15 3962.0,148.7 3979.27,150.33 3996.52,152.04 4013.76,153.82 4030.97,155.68 4048.18,157.61 4065.37,159.62 4082.55,161.7 4099.73,163.87 4116.9,166.1 4134.06,168.42 4151.23,170.81 4168.4,173.28 4185.58,175.83 4202.76,178.46 4219.95,181.16 4237.15,183.94 4254.37,186.8 4271.6,189.74 4288.85,192.76 4306.12,195.86 4323.42,199.03 4340.74,202.29 4358.09,205.63 4375.47,209.04 4392.88,212.54 4410.33,216.12 4427.82,219.77 4445.34,223.51 4462.91,227.33 4483.72,231.98 4510.74,238.24 4536.51,244.39 4561.08,250.45 4584.49,256.44 4606.8,262.39 4628.04,268.32 4648.26,274.25 4667.5,280.19 4685.82,286.18 4703.26,292.23 4719.85,298.37 4735.66,304.61 4750.72,310.97 4765.07,317.49 4778.77,324.18 4791.86,331.05 4804.38,338.14 4816.39,345.46 4827.91,353.04 4839.01,360.9 4849.73,369.05 4860.1,377.52 4870.18,386.33 4880.02,395.5 4889.65,405.06 4899.12,415.02 4908.48,425.41 4916.4,434.68 4923.82,443.77 4930.86,452.9 4937.6,462.21 4944.1,471.84 4950.41,481.93 4956.61,492.61 4962.75,504.02 4968.91,516.31 4975.13,529.62 4981.49,544.07 4988.06,559.82 4994.88,576.99 5002.03,595.74 5009.57,616.19 5017.56,638.49 5026.07,662.78 5035.16,689.2 5044.89,717.87 5054.44,746.29 5061.05,765.83 5067.59,784.99 5074.06,803.78 5080.47,822.24 5086.83,840.36 5093.14,858.18 5099.42,875.71 5105.67,892.97 5111.9,909.97 5118.11,926.73 5124.32,943.27 5130.53,959.6 5136.75,975.75 5142.98,991.74 5149.23,1007.57 5155.51,1023.27 5161.83,1038.85 5168.19,1054.34 5174.61,1069.74 5181.08,1085.09 5187.63,1100.38 5194.24,1115.65 5200.94,1130.91 5207.72,1146.18 5214.6,1161.47 5221.58,1176.8 5228.68,1192.19 5235.89,1207.66 5243.23,1223.23 5250.7,1238.91 5258.3,1254.71 5266.06,1270.67 5273.97,1286.79 5282.07,1303.14 5294.52,1328.4 5306.36,1352.52 5317.41,1375.16 5327.53,1396.0 5336.57,1414.72 5344.36,1430.97 5350.75,1444.45 5355.59,1454.81 5358.72,1461.73 5359.98,1464.88 5361.74,1470.13 5367.49,1484.13 5376.19,1504.47 5386.75,1528.64 5397.57,1552.17 5407.94,1574.58 5417.87,1595.92 5427.42,1616.26 5436.61,1635.66 5445.46,1654.18 5454.03,1671.88 5462.33,1688.81 5470.4,1705.05 5478.27,1720.65 5485.98,1735.67 5493.56,1750.17 5501.04,1764.22 5508.45,1777.87 5515.82,1791.19 5523.2,1804.23 5530.6,1817.05 5538.06,1829.73 5545.62,1842.31 5553.31,1854.85 5561.16,1867.43 5569.2,1880.09 5577.47,1892.91 5585.99,1905.93 5594.81,1919.23 5604.07,1932.98 5613.82,1947.44 5623.96,1962.48 5634.39,1977.98 5645.04,1993.81 5655.81,2009.85 5666.63,2025.97 5677.41,2042.06 5688.06,2057.98 5698.52,2073.61 5708.68,2088.83 5718.47,2103.51 5727.8,2117.52 5736.6,2130.75 5744.77,2143.07 5752.39,2154.59 5764.31,2172.45 5776.16,2190.15 5787.97,2207.67 5799.71,2225.02 5811.39,2242.18 5823.02,2259.17 5834.57,2275.97 5846.06,2292.59 5857.48,2309.02 5868.84,2325.25 5880.12,2341.29 5891.32,2357.14 5902.45,2372.78 5913.51,2388.22 5924.48,2403.46 5935.37,2418.48 5946.18,2433.3 5956.9,2447.9 5967.54,2462.28 5978.09,2476.45 5988.54,2490.39 5998.91,2504.11 6009.18,2517.6 6019.35,2530.86 6029.42,2543.89 6039.39,2556.68 6049.26,2569.23 6059.03,2581.54 6068.69,2593.61 6078.24,2605.43 6087.68,2617.0 6097.01,2628.32 6106.23,2639.39 6115.33,2650.19 6124.31,2660.74 6133.17,2671.02 6141.74,2680.85 6149.22,2689.36 6157.53,2698.7 6166.64,2708.79 6176.48,2719.61 6187.02,2731.1 6198.21,2743.22 6210.0,2755.91 6222.35,2769.13 6235.21,2782.84 6248.54,2796.98 6262.28,2811.51 6276.4,2826.38 6290.84,2841.55 6305.57,2856.96 6320.53,2872.58 6335.67,2888.34 6350.96,2904.22 6366.35,2920.15 6381.79,2936.09 6397.23,2952.0 6412.63,2967.83 6427.94,2983.52 6443.12,2999.04 6458.11,3014.33 6472.89,3029.36 6487.39,3044.06 6501.57,3058.4 6515.39,3072.32 6528.79,3085.79 6541.74,3098.74 6554.19,3111.15 6566.09,3122.95 6577.4,3134.1 6588.07,3144.55 6598.04,3154.27 6607.29,3163.19 6615.76,3171.27 6623.4,3178.47 6630.17,3184.74 6636.05,3190.04 6645.86,3198.77 6657.78,3209.17 6671.28,3220.8 6685.8,3233.22 6700.81,3246.0 6715.78,3258.7 6730.14,3270.88 6748.89,3286.61 6768.99,3303.84 6787.38,3320.21 6804.12,3335.8 6819.27,3350.72 6832.9,3365.05 6845.06,3378.9 6855.82,3392.34 6865.24,3405.48 6873.38,3418.41 6880.3,3431.22 6886.08,3444.0 6890.76,3456.85 6894.41,3469.86 6897.1,3483.12 6898.88,3496.73 6899.81,3510.78 6899.95,3524.98 6899.11,3538.44 6897.22,3551.85 6894.31,3565.21 6890.39,3578.49 6885.49,3591.67 6879.61,3604.75 6872.79,3617.7 6865.04,3630.51 6856.38,3643.16 6846.82,3655.63 6836.4,3667.92 6825.12,3679.99 6813.0,3691.84 6800.07,3703.46 6786.34,3714.81 6771.84,3725.9 6756.58,3736.69 6740.58,3747.18 6723.85,3757.34 6706.43,3767.17 6688.33,3776.65 6669.56,3785.75 6650.15,3794.47 6630.11,3802.78 6609.47,3810.67 6588.24,3818.13 6566.45,3825.13 6546.92,3830.91 6533.94,3834.83 6519.25,3839.42 6503.16,3844.55 6485.98,3850.14 6468.03,3856.08 6449.59,3862.25 6431.0,3868.58 6412.55,3874.94 6394.55,3881.24 6377.31,3887.37 6362.65,3892.64 6349.18,3897.3 6335.34,3901.85 6321.15,3906.29 6306.61,3910.63 6291.73,3914.86 6276.53,3918.97 6261.0,3922.98 6245.16,3926.87 6229.02,3930.65 6212.58,3934.31 6195.86,3937.85 6178.85,3941.28 6161.58,3944.58 6144.05,3947.77 6126.27,3950.83 6108.24,3953.76 6089.98,3956.57 6071.49,3959.25 6052.78,3961.81 6033.87,3964.23 6014.75,3966.52 5995.44,3968.68 5975.95,3970.71 5956.28,3972.6 5936.44,3974.35 5916.45,3975.97 5896.31,3977.44 5876.03,3978.78 5855.61,3979.97 5824.18,3981.77 5793.59,3983.55 5764.16,3985.28 5735.86,3986.96 5708.66,3988.61 5682.51,3990.22 5657.39,3991.79 5633.26,3993.34 5610.09,3994.85 5587.84,3996.34 5566.49,3997.81 5545.99,3999.25 5526.31,4000.68 5507.42,4002.1 5489.28,4003.5 5471.86,4004.89 5455.13,4006.28 5439.05,4007.67 5423.58,4009.06 5408.7,4010.45 5394.37,4011.85 5380.55,4013.25 5367.22,4014.67 5354.33,4016.1 5341.86,4017.55 5329.76,4019.03 5318.01,4020.52 5306.58,4022.04 5295.41,4023.59 5284.5,4025.18 5273.79,4026.79 5263.25,4028.45 5252.86,4030.15 5242.57,4031.89 5232.36,4033.68 5221.76,4035.58 5210.33,4037.6 5199.22,4039.53 5188.37,4041.37 5177.73,4043.12 5167.21,4044.79 5156.75,4046.39 5146.29,4047.91 5135.76,4049.37 5125.09,4050.77 5114.22,4052.12 5103.08,4053.41 5091.6,4054.66 5079.72,4055.87 5067.37,4057.05 5054.49,4058.19 5041.0,4059.31 5026.84,4060.41 5011.94,4061.5 4996.24,4062.58 4979.68,4063.65 4962.17,4064.72 4943.67,4065.8 4924.1,4066.89 4903.39,4067.99 4881.47,4069.12 4858.29,4070.27 4833.78,4071.46 4807.86,4072.67 4780.48,4073.94 4751.56,4075.24 4721.03,4076.6 4688.84,4078.02 4654.92,4079.49 4619.78,4081.01 4609.58,4081.42 4598.91,4081.83 4587.77,4082.23 4576.18,4082.62 4564.14,4083.01 4551.66,4083.39 4538.77,4083.77 4525.46,4084.14 4511.75,4084.51 4497.64,4084.86 4483.16,4085.22 4468.31,4085.56 4453.1,4085.9 4437.54,4086.24 4421.64,4086.57 4405.41,4086.89 4388.87,4087.2 4372.02,4087.51 4354.87,4087.81 4337.44,4088.11 4319.74,4088.4 4301.77,4088.68 4283.55,4088.95 4265.09,4089.22 4246.4,4089.48 4227.48,4089.74 4208.35,4089.99 4189.03,4090.23 4169.51,4090.46 4149.82,4090.69 4129.96,4090.9 4109.94,4091.12 4089.78,4091.32 4069.48,4091.52 4049.05,4091.71 4028.51,4091.89 4007.87,4092.06 3987.13,4092.23 3966.31,4092.39 3945.41,4092.54 3924.46,4092.68 3903.46,4092.82 3882.41,4092.95 3861.34,4093.07 3840.24,4093.18 3819.14,4093.29 3798.04,4093.38 3776.96,4093.47 3755.9,4093.55 3734.87,4093.62 3713.89,4093.68 3692.96,4093.74 3672.1,4093.79 3651.31,4093.82 3630.62,4093.85 3610.02,4093.87 3589.53,4093.89 3569.16,4093.89 3548.92,4093.88 3528.82,4093.87 3508.88,4093.85 3489.09,4093.81 3469.48,4093.77 3450.05,4093.72 3430.82,4093.67 3411.78,4093.6 3392.97,4093.52 3374.38,4093.43 3356.03,4093.34 3337.92,4093.23 3320.07,4093.12 3302.5,4092.99 3285.19,4092.86 3268.18,4092.72 3251.47,4092.56 3235.08,4092.4 3219.0,4092.23 3203.25,4092.05 3187.85,4091.86 3172.8,4091.65 3158.12,4091.44 3143.81,4091.22 3129.89,4090.99 3116.36,4090.75 3103.24,4090.5 3090.54,4090.23 2104.43,3832.79 2120.35,3823.43 2134.57,3812.48 2146.98,3800.05 2157.5,3786.26 2166.02,3771.2 2172.45,3755.0 2176.7,3737.76 2178.35,3720.23 2176.31,3705.46 2169.57,3691.13 2157.11,3674.71 2141.81,3658.56 2128.62,3647.94 2115.22,3641.65 2099.3,3638.68 2079.09,3638.03 2060.53,3639.55 2041.57,3643.07 2022.51,3648.38 2003.65,3655.3 1985.27,3663.63 1967.66,3673.16 1951.14,3683.7 1935.97,3695.05 1922.47,3707.01 1910.92,3719.38 1901.61,3731.96 1894.85,3744.55 1890.91,3756.97 1890.17,3769.2 1894.06,3782.89 1902.4,3797.42 1914.33,3811.72 1928.98,3824.76 1945.51,3835.49 1960.71,3842.11 1975.66,3845.73 1993.17,3847.97 2012.35,3848.85 2032.31,3848.41 2052.14,3846.67 2070.97,3843.67 2087.88,3839.44 2102.0,3834.0"/></g>
</svg>
