<?xml version="1.0" standalone="no"?>
<!DOCTYPE svg PUBLIC "-//W3C//DTD SVG 20010904//EN"
 "http://www.w3.org/TR/2001/REC-SVG-20010904/DTD/svg10.dtd">
<svg version="1.0" xmlns="http://www.w3.org/2000/svg"
 width="728.000000pt" height="449.000000pt" viewBox="0 0 728.000000 449.000000"
 preserveAspectRatio="xMidYMid meet">
<metadata>
Created by potrace 1.15, written by Peter Selinger 2001-2017
</metadata>
<g transform="translate(0.000000,449.000000) scale(0.100000,-0.100000)"
fill="#000000" stroke="none">
<path d="M3080 4090 c-377 -10 -695 -29 -915 -55 -110 -13 -263 -27 -340 -30
-199 -9 -337 -22 -515 -51 -228 -36 -268 -42 -340 -49 -101 -10 -365 -64 -434
-88 -67 -25 -217 -121 -277 -177 -82 -77 -102 -177 -55 -275 33 -70 83 -115
216 -198 131 -80 196 -142 375 -352 66 -77 122 -142 125 -145 17 -17 124 -146
170 -205 30 -38 79 -99 110 -135 86 -99 325 -470 397 -615 24 -49 77 -147 150
-278 119 -213 267 -546 317 -712 104 -345 202 -425 631 -514 55 -11 147 -25
205 -31 58 -6 157 -18 220 -27 63 -8 212 -18 330 -20 367 -9 683 21 1025 97
256 58 349 99 434 196 53 61 74 107 144 316 76 226 136 374 229 561 43 87 78
160 78 162 0 2 12 30 26 62 94 205 135 282 212 397 48 71 117 174 154 230 147
221 282 404 389 526 93 107 423 446 495 510 21 19 66 57 99 85 128 106 165
161 165 246 0 126 -140 249 -350 309 -41 12 -122 39 -180 60 -129 47 -313 79
-515 90 -385 22 -509 33 -630 55 -134 24 -187 28 -605 46 -288 12 -1189 17
-1540 9z m-978 -256 c41 -20 68 -55 75 -98 4 -27 0 -39 -24 -66 -25 -27 -36
-32 -72 -32 -84 1 -191 73 -191 128 0 24 31 60 65 74 33 14 112 11 147 -6z"/>
</g>
</svg>
