<!DOCTYPE svg PUBLIC "-//W3C//DTD SVG 20010904//EN" "http://www.w3.org/TR/2001/REC-SVG-20010904/DTD/svg10.dtd">
<svg xmlns="http://www.w3.org/2000/svg" version="1.0" width="1400.000000pt" height="787.000000pt" viewBox="0 0 1400.000000 787.000000" preserveAspectRatio="xMidYMid meet">
<metadata>
Created by potrace 1.15, written by Peter Selinger 2001-2017
</metadata>
<g transform="translate(0.000000,787.000000) scale(0.100000,-0.100000)" fill="#000000" stroke="none">
<polygon points="6935.0,7465.0 6926.92,7453.84 6920.35,7442.43 6915.01,7429.88 6910.68,7415.29 6907.09,7397.75 6904.0,7376.36 6901.15,7350.23 6898.48,7321.84 6895.85,7296.27 6893.08,7272.71 6890.13,7251.0 6886.95,7230.98 6883.5,7212.49 6879.74,7195.36 6875.6,7179.43 6871.06,7164.53 6866.05,7150.52 6860.54,7137.21 6854.48,7124.46 6847.82,7112.1 6840.52,7099.96 6831.98,7086.78 6822.94,7072.09 6814.52,7057.36 6806.73,7042.56 6799.55,7027.67 6792.99,7012.66 6787.04,6997.49 6781.7,6982.15 6776.97,6966.61 6772.85,6950.83 6769.32,6934.8 6766.4,6918.47 6764.07,6901.84 6762.33,6884.86 6761.18,6867.51 6760.62,6849.76 6760.65,6831.59 6761.25,6812.97 6762.43,6793.87 6764.19,6774.26 6766.52,6754.11 6769.42,6733.41 6772.88,6712.11 6776.91,6690.2 6781.41,6668.01 6785.1,6649.45 6788.42,6631.9 6791.37,6615.14 6793.97,6598.94 6796.23,6583.09 6798.17,6567.35 6799.8,6551.51 6801.15,6535.35 6802.23,6518.63 6803.04,6501.14 6803.62,6482.65 6803.97,6462.93 6804.12,6441.77 6804.06,6418.94 6803.77,6395.65 6803.2,6372.81 6802.4,6350.24 6801.39,6328.28 6800.22,6307.26 6798.89,6287.5 6797.43,6269.35 6795.87,6253.13 6794.24,6239.18 6792.56,6227.83 6790.85,6219.35 6789.07,6209.86 6787.37,6197.41 6785.79,6182.38 6784.35,6165.16 6783.08,6146.13 6781.99,6125.68 6781.11,6104.2 6780.47,6082.07 6780.09,6059.68 6780.0,6037.26 6779.83,6015.18 6779.42,5994.29 6778.77,5974.44 6777.86,5955.53 6776.67,5937.41 6775.22,5919.97 6773.47,5903.07 6771.43,5886.58 6769.09,5870.38 6766.43,5854.33 6763.45,5838.32 6760.13,5822.21 6758.11,5812.92 6756.84,5806.99 6755.62,5801.09 6754.46,5795.17 6753.34,5789.19 6752.28,5783.1 6751.26,5776.86 6750.28,5770.41 6749.34,5763.71 6748.45,5756.71 6747.59,5749.36 6746.77,5741.63 6745.99,5733.45 6745.24,5724.79 6744.52,5715.59 6743.83,5705.81 6743.17,5695.4 6742.53,5684.31 6741.92,5672.5 6741.33,5659.93 6740.77,5646.53 6740.22,5632.27 6739.69,5617.09 6739.17,5600.96 6738.67,5583.82 6738.19,5565.63 6737.71,5546.34 6737.24,5525.9 6736.78,5504.26 6736.32,5481.38 6735.87,5457.21 6735.42,5431.7 6734.97,5404.81 6734.51,5376.49 6734.05,5346.69 6733.59,5315.36 6733.12,5282.46 6732.64,5247.94 6732.15,5211.76 6731.65,5173.86 6731.14,5134.19 6730.61,5092.72 6730.06,5049.39 6729.81,5028.71 6729.6,5010.64 6729.38,4992.56 6729.17,4974.48 6728.96,4956.41 6728.75,4938.33 6728.53,4920.25 6728.32,4902.18 6728.11,4884.1 6727.89,4866.02 6727.68,4847.95 6727.47,4829.87 6727.26,4811.79 6727.04,4793.71 6726.83,4775.64 6726.62,4757.56 6726.41,4739.48 6726.19,4721.41 6725.98,4703.33 6725.77,4685.25 6725.56,4667.18 6725.34,4649.1 6725.13,4631.02 6724.92,4612.95 6724.7,4594.87 6724.49,4576.79 6724.28,4558.72 6724.07,4540.64 6723.85,4522.56 6723.64,4504.49 6723.43,4486.41 6723.22,4468.33 6723.0,4450.26 6722.79,4432.18 6722.58,4414.1 6722.37,4396.03 6722.15,4377.95 6720.96,4359.98 6717.31,4342.27 6713.65,4324.57 6710.0,4306.87 6706.34,4289.16 6702.69,4271.46 6699.03,4253.75 6695.38,4236.05 6691.72,4218.34 6687.32,4196.96 6682.51,4173.98 6677.95,4152.97 6673.58,4133.7 6669.29,4115.9 6665.02,4099.32 6660.69,4083.73 6656.2,4068.86 6651.47,4054.48 6646.44,4040.32 6641.0,4026.15 6635.08,4011.71 6628.6,3996.74 6621.47,3981.01 6613.62,3964.27 6604.96,3946.25 6595.92,3927.74 6588.0,3911.49 6580.07,3895.25 6572.15,3879.0 6564.22,3862.75 6556.29,3846.5 6548.37,3830.25 6540.44,3814.01 6537.08,3796.53 6535.75,3778.5 6534.42,3760.47 6533.09,3742.44 6531.76,3724.41 6530.43,3706.38 6529.1,3688.35 6527.73,3670.78 6526.19,3652.4 6524.51,3633.23 6522.69,3613.39 6520.75,3592.97 6518.69,3572.06 6516.52,3550.77 6514.27,3529.18 6511.93,3507.41 6509.52,3485.55 6507.06,3463.7 6504.55,3441.95 6502.01,3420.41 6499.45,3399.17 6496.87,3378.33 6494.3,3357.99 6491.73,3338.25 6489.2,3319.2 6486.69,3300.95 6484.23,3283.6 6481.84,3267.23 6479.51,3251.96 6477.26,3237.88 6475.11,3225.08 6473.06,3213.66 6471.13,3203.74 6469.32,3195.39 6467.29,3187.25 6463.46,3173.37 6458.82,3157.98 6453.44,3141.29 6447.42,3123.49 6440.83,3104.77 6433.75,3085.35 6426.27,3065.41 6418.46,3045.15 6410.4,3024.78 6402.18,3004.48 6393.88,2984.46 6385.57,2964.92 6377.34,2946.05 6369.28,2928.05 6361.45,2911.12 6353.94,2895.47 6346.83,2881.27 6340.2,2868.74 6334.14,2858.08 6328.72,2849.47 6322.4,2840.91 6313.5,2830.14 6302.68,2817.95 6290.31,2804.72 6276.73,2790.8 6262.31,2776.56 6247.39,2762.37 6232.34,2748.59 6217.48,2735.56 6202.61,2722.71 6189.21,2710.61 6177.2,2699.04 6166.48,2687.79 6156.98,2676.63 6148.6,2665.36 6141.28,2653.75 6134.91,2641.6 6129.43,2628.69 6124.73,2614.8 6120.75,2599.72 6117.4,2583.23 6114.58,2565.12 6112.22,2545.18 6110.24,2523.18 6108.54,2498.91 6107.05,2472.16 6105.74,2444.88 6104.54,2424.09 6103.17,2404.35 6101.59,2385.56 6099.77,2367.66 6097.66,2350.56 6095.23,2334.19 6092.45,2318.46 6089.27,2303.31 6085.66,2288.64 6081.58,2274.4 6076.99,2260.49 6071.87,2246.84 6066.16,2233.37 6059.84,2220.0 6052.87,2206.66 6045.21,2193.27 6036.82,2179.75 6027.67,2166.02 6017.72,2152.0 6006.93,2137.62 5995.27,2122.8 5982.7,2107.46 5969.18,2091.52 5954.67,2074.9 5939.14,2057.53 5922.56,2039.34 5904.88,2020.23 5891.85,2006.18 5880.73,1993.64 5869.59,1980.52 5858.47,1966.88 5847.4,1952.76 5836.42,1938.23 5825.55,1923.34 5814.83,1908.15 5804.29,1892.7 5793.97,1877.05 5783.89,1861.26 5774.09,1845.39 5764.61,1829.47 5756.16,1814.88 5747.47,1800.03 5738.23,1784.45 5728.56,1768.3 5718.55,1751.78 5708.33,1735.06 5698.0,1718.32 5687.68,1701.75 5677.48,1685.51 5667.5,1669.79 5657.86,1654.77 5648.67,1640.62 5640.04,1627.54 5629.05,1610.98 5613.59,1587.46 5598.67,1564.63 5584.4,1542.66 5570.88,1521.72 5558.22,1501.97 5546.52,1483.58 5535.89,1466.73 5526.42,1451.58 5518.24,1438.3 5511.43,1427.05 5506.12,1418.01 5502.39,1411.34 5500.36,1407.21 5499.56,1404.57 5494.5,1395.36 5484.82,1379.75 5471.82,1359.56 5456.49,1336.18 5441.15,1312.04 5427.86,1289.47 5416.62,1268.4 5407.39,1248.74 5400.17,1230.43 5394.94,1213.39 5391.68,1197.55 5390.37,1182.82 5391.01,1169.14 5393.58,1156.43 5398.05,1144.61 5404.42,1133.61 5412.67,1123.35 5420.4,1115.74 5425.75,1110.95 5431.23,1106.51 5436.93,1102.38 5442.97,1098.58 5449.47,1095.08 5456.52,1091.86 5464.25,1088.94 5472.77,1086.28 5482.18,1083.88 5492.6,1081.73 5504.14,1079.81 5516.91,1078.13 5531.02,1076.65 5546.59,1075.38 5563.71,1074.31 5582.51,1073.41 5603.1,1072.69 5625.59,1072.12 5650.08,1071.71 5676.69,1071.43 5705.54,1071.27 5736.72,1071.24 5770.36,1071.3 5806.56,1071.46 5845.44,1071.7 5887.21,1072.02 5930.4,1072.42 5969.93,1072.8 6005.97,1073.19 6038.72,1073.58 6068.36,1074.0 6095.09,1074.46 6119.09,1074.96 6140.55,1075.52 6159.67,1076.15 6176.62,1076.86 6191.6,1077.67 6204.8,1078.58 6216.41,1079.61 6226.61,1080.77 6235.59,1082.08 6243.55,1083.53 6250.67,1085.15 6257.14,1086.95 6263.15,1088.94 6268.89,1091.12 6274.55,1093.52 6280.81,1096.39 6295.14,1103.68 6308.39,1111.42 6320.73,1119.81 6332.34,1129.03 6343.36,1139.28 6353.96,1150.75 6364.32,1163.64 6374.59,1178.14 6384.94,1194.46 6395.54,1212.77 6406.54,1233.28 6418.12,1256.18 6430.39,1281.3 6442.53,1305.81 6454.47,1329.53 6466.22,1352.47 6477.8,1374.64 6489.21,1396.07 6500.46,1416.75 6511.58,1436.72 6522.55,1455.97 6533.41,1474.54 6544.15,1492.42 6554.8,1509.63 6565.35,1526.2 6575.82,1542.13 6586.22,1557.43 6596.57,1572.13 6606.86,1586.23 6617.12,1599.75 6627.35,1612.71 6637.57,1625.11 6647.78,1636.97 6657.99,1648.32 6668.22,1659.15 6678.48,1669.49 6688.78,1679.34 6699.12,1688.73 6709.52,1697.67 6719.99,1706.17 6730.54,1714.25 6741.18,1721.91 6751.92,1729.18 6762.78,1736.07 6773.76,1742.6 6784.87,1748.77 6796.12,1754.6 6814.19,1763.29 6836.51,1773.65 6857.87,1783.16 6878.34,1791.83 6897.99,1799.66 6916.9,1806.67 6935.12,1812.86 6952.74,1818.23 6969.81,1822.79 6986.41,1826.56 7002.61,1829.53 7018.48,1831.71 7034.08,1833.11 7049.49,1833.73 7064.77,1833.59 7080.0,1832.69 7095.25,1831.03 7110.57,1828.62 7126.05,1825.47 7141.75,1821.58 7157.74,1816.96 7174.1,1811.62 7190.88,1805.57 7208.16,1798.81 7231.32,1789.19 7256.67,1778.46 7280.51,1768.16 7302.88,1758.26 7323.84,1748.74 7343.44,1739.56 7361.75,1730.7 7378.81,1722.11 7394.69,1713.77 7409.42,1705.65 7423.09,1697.72 7435.72,1689.95 7447.39,1682.3 7458.14,1674.75 7468.04,1667.26 7477.13,1659.81 7485.47,1652.36 7493.1,1644.9 7499.45,1638.11 7506.31,1629.96 7513.65,1620.54 7521.42,1609.93 7529.57,1598.19 7538.06,1585.4 7546.86,1571.65 7555.92,1557.0 7565.2,1541.53 7574.65,1525.32 7584.24,1508.44 7593.91,1490.98 7603.63,1473.0 7613.36,1454.59 7623.05,1435.81 7632.66,1416.75 7642.16,1397.47 7651.48,1378.07 7660.6,1358.6 7669.47,1339.16 7678.06,1319.81 7686.3,1300.63 7694.82,1280.21 7704.66,1257.42 7714.26,1236.59 7723.73,1217.62 7733.17,1200.36 7742.7,1184.68 7752.42,1170.47 7762.42,1157.57 7772.83,1145.88 7783.73,1135.25 7795.24,1125.55 7807.47,1116.66 7820.51,1108.45 7834.47,1100.78 7850.34,1092.53 7866.37,1084.18 7882.41,1075.83 7900.28,1074.86 7918.36,1074.7 7936.44,1074.54 7954.51,1074.38 7972.59,1074.22 7990.67,1074.06 8008.75,1073.9 8026.82,1073.74 8044.9,1073.58 8062.98,1073.42 8081.05,1073.26 8099.13,1073.1 8117.21,1072.94 8135.29,1072.78 8153.36,1072.62 8171.44,1072.46 8189.52,1072.3 8207.6,1072.14 8229.04,1071.95 8268.52,1071.68 8305.62,1071.5 8340.43,1071.41 8373.02,1071.44 8403.49,1071.59 8431.91,1071.86 8458.38,1072.28 8482.97,1072.84 8505.78,1073.57 8526.88,1074.46 8546.35,1075.53 8564.29,1076.78 8580.78,1078.24 8595.89,1079.9 8609.72,1081.78 8622.36,1083.88 8633.87,1086.23 8644.35,1088.82 8653.88,1091.66 8662.55,1094.77 8670.44,1098.16 8677.63,1101.83 8684.21,1105.8 8690.26,1110.07 8695.86,1114.66 8701.11,1119.57 8706.08,1124.82 8713.34,1134.12 8720.6,1147.7 8725.84,1163.15 8729.07,1180.1 8730.25,1198.17 8729.38,1216.99 8726.43,1236.17 8721.4,1255.34 8714.27,1274.12 8706.84,1289.08 8700.46,1300.71 8692.72,1314.26 8683.78,1329.5 8673.8,1346.2 8662.92,1364.12 8651.3,1383.03 8639.09,1402.69 8626.44,1422.86 8613.5,1443.32 8600.43,1463.82 8587.37,1484.13 8574.49,1504.02 8561.92,1523.25 8549.83,1541.58 8538.36,1558.79 8527.67,1574.63 8517.91,1588.86 8509.23,1601.27 8501.78,1611.6 8495.71,1619.62 8491.18,1625.11 8488.34,1627.82 8480.01,1639.56 8477.56,1646.38 8470.56,1658.88 8459.92,1676.02 8446.57,1696.39 8433.77,1715.27 8425.49,1727.66 8416.37,1741.63 8406.65,1756.84 8396.54,1772.96 8386.25,1789.63 8376.01,1806.53 8366.01,1823.32 8356.49,1839.66 8347.66,1855.22 8339.48,1869.45 8330.49,1884.25 8320.67,1899.83 8310.22,1915.9 8299.33,1932.17 8288.19,1948.35 8277.01,1964.14 8265.98,1979.26 8255.29,1993.42 8245.14,2006.32 8235.94,2017.47 8227.31,2028.1 8218.19,2039.84 8208.61,2052.57 8198.67,2066.19 8188.41,2080.6 8177.9,2095.69 8167.22,2111.37 8156.42,2127.52 8145.58,2144.04 8134.76,2160.84 8124.02,2177.8 8113.43,2194.82 8103.05,2211.8 8092.96,2228.64 8083.22,2245.22 8073.88,2261.46 8065.03,2277.24 8056.73,2292.45 8049.03,2307.01 8042.16,2320.7 8035.82,2334.51 8029.94,2348.63 8024.49,2363.15 8019.44,2378.19 8014.76,2393.86 8010.43,2410.26 8006.42,2427.51 8002.69,2445.7 7999.23,2464.96 7996.0,2485.38 7992.97,2507.07 7990.12,2530.15 7987.41,2554.5 7984.55,2577.5 7981.41,2598.75 7977.9,2618.39 7973.96,2636.59 7969.5,2653.5 7964.46,2669.29 7958.76,2684.12 7952.31,2698.13 7945.05,2711.49 7936.9,2724.36 7927.79,2736.9 7917.63,2749.27 7906.35,2761.62 7893.88,2774.11 7880.14,2786.9 7865.06,2800.16 7851.82,2811.4 7841.9,2820.0 7832.51,2828.4 7823.61,2836.7 7815.14,2844.99 7807.08,2853.36 7799.36,2861.89 7791.94,2870.68 7784.78,2879.82 7777.83,2889.4 7771.05,2899.51 7764.39,2910.23 7757.8,2921.67 7751.23,2933.9 7744.65,2947.02 7738.0,2961.12 7731.25,2976.29 7724.33,2992.62 7717.22,3010.2 7709.85,3029.12 7702.19,3049.47 7694.19,3071.34 7685.81,3094.82 7676.99,3120.01 7667.7,3146.98 7657.88,3175.83 7647.49,3206.65 7636.49,3239.54 7629.53,3260.41 7623.81,3277.56 7618.1,3294.71 7612.38,3311.86 7606.66,3329.01 7600.95,3346.16 7595.23,3363.31 7589.51,3380.46 7583.8,3397.61 7578.08,3414.76 7572.36,3431.91 7566.65,3449.06 7560.93,3466.21 7555.21,3483.36 7549.5,3500.51 7547.55,3518.34 7546.93,3536.4 7546.32,3554.47 7545.7,3572.54 7545.09,3590.61 7544.47,3608.67 7543.86,3626.74 7543.24,3644.81 7542.63,3662.88 7542.02,3680.94 7541.41,3699.01 7540.8,3717.08 7540.19,3735.15 7539.58,3753.22 7538.97,3771.28 7538.36,3789.35 7534.46,3806.53 7525.85,3822.42 7517.24,3838.32 7508.63,3854.21 7500.02,3870.11 7485.53,3897.21 7471.73,3923.17 7459.42,3946.56 7448.52,3967.65 7438.91,3986.71 7430.52,4004.01 7423.23,4019.81 7416.96,4034.39 7411.61,4048.01 7407.08,4060.95 7403.28,4073.46 7400.11,4085.82 7397.47,4098.29 7395.27,4111.15 7393.41,4124.66 7391.81,4139.09 7390.35,4154.71 7388.94,4171.78 7387.58,4190.33 7386.17,4209.64 7384.57,4229.6 7382.82,4249.83 7380.94,4269.94 7378.98,4289.55 7376.97,4308.28 7374.95,4325.74 7372.96,4341.54 7371.04,4355.32 7369.37,4366.88 7367.96,4379.7 7366.59,4394.64 7365.27,4411.36 7364.05,4429.53 7362.94,4448.81 7361.97,4468.88 7361.17,4489.39 7360.55,4510.01 7360.16,4530.41 7360.0,4550.25 7359.95,4567.47 7359.77,4583.68 7359.43,4599.2 7358.92,4614.18 7358.21,4628.75 7357.29,4643.08 7356.12,4657.3 7354.69,4671.56 7352.97,4686.01 7350.95,4700.79 7348.59,4716.05 7345.89,4731.94 7342.82,4748.6 7339.35,4766.18 7335.47,4784.82 7331.15,4804.68 7326.37,4825.89 7321.11,4848.61 7315.35,4872.98 7309.06,4899.14 7303.65,4921.53 7302.27,4927.95 7300.9,4934.92 7299.54,4942.46 7298.2,4950.57 7296.87,4959.28 7295.55,4968.6 7294.25,4978.54 7292.95,4989.12 7291.67,5000.35 7290.39,5012.24 7289.12,5024.81 7287.87,5038.08 7286.62,5052.06 7285.38,5066.76 7284.14,5082.2 7282.91,5098.4 7281.69,5115.36 7280.47,5133.1 7279.26,5151.63 7278.05,5170.98 7276.84,5191.15 7275.64,5212.16 7274.44,5234.03 7273.24,5256.76 7272.04,5280.38 7270.84,5304.89 7269.64,5330.31 7268.44,5356.66 7267.24,5383.95 7266.03,5412.19 7264.83,5441.41 7263.62,5471.6 7262.4,5502.8 7261.19,5535.01 7260.03,5564.77 7258.88,5592.24 7257.7,5617.92 7256.5,5641.92 7255.26,5664.36 7253.96,5685.34 7252.6,5704.98 7251.17,5723.38 7249.66,5740.65 7248.05,5756.91 7246.34,5772.27 7244.51,5786.83 7242.55,5800.7 7240.46,5814.0 7238.22,5826.84 7235.82,5839.33 7233.26,5851.57 7230.51,5863.68 7228.09,5873.89 7226.25,5881.87 7224.53,5889.68 7222.91,5897.4 7221.38,5905.11 7219.95,5912.9 7218.61,5920.84 7217.35,5929.03 7216.17,5937.55 7215.07,5946.47 7214.04,5955.89 7213.07,5965.88 7212.17,5976.54 7211.32,5987.93 7210.53,6000.15 7209.78,6013.28 7209.08,6027.39 7208.41,6042.59 7207.78,6058.94 7207.18,6076.53 7206.6,6095.45 7206.05,6115.78 7205.51,6137.6 7204.98,6160.99 7204.46,6186.04 7203.94,6212.83 7203.42,6241.44 7202.89,6271.96 7202.35,6304.47 7201.79,6339.06 7201.22,6375.8 7200.62,6414.78 7199.99,6455.79 7199.57,6486.38 7199.13,6516.28 7198.67,6545.47 7198.21,6573.92 7197.73,6601.6 7197.24,6628.5 7196.73,6654.59 7196.21,6679.85 7195.68,6704.25 7195.14,6727.77 7194.58,6750.38 7194.01,6772.06 7193.44,6792.79 7192.85,6812.55 7192.25,6831.3 7191.63,6849.03 7191.01,6865.71 7190.38,6881.32 7189.74,6895.83 7189.09,6909.22 7188.43,6921.47 7187.76,6932.55 7187.08,6942.44 7186.39,6951.11 7185.69,6958.54 7184.99,6964.71 7184.28,6969.59 7183.56,6973.16 7182.35,6976.8 7178.28,6986.87 7172.42,7000.26 7165.06,7016.32 7156.52,7034.38 7147.11,7053.79 7137.15,7073.9 7127.32,7093.25 7119.01,7109.3 7110.7,7125.35 7102.39,7141.41 7094.08,7157.46 7085.77,7173.52 7084.73,7191.41 7084.44,7209.48 7084.15,7227.56 7083.85,7245.63 7083.56,7263.71 7083.26,7281.78 7082.93,7301.46 7081.91,7333.23 7080.24,7361.75 7077.87,7387.15 7074.73,7409.58 7070.77,7429.16 7065.91,7446.03 7060.1,7460.33 7053.28,7472.19 7045.39,7481.76 7036.37,7489.16 7026.15,7494.53 7014.67,7498.02 7001.88,7499.75 6986.01,7499.74 6970.15,7496.67 6956.49,7489.08 6943.14,7475.68 7093.72,3050.3 7104.42,3039.39 7114.63,3025.64 7124.08,3009.69 7132.48,2992.16 7139.55,2973.65 7145.01,2954.8 7148.59,2936.22 7149.99,2918.53 7148.9,2897.79 7145.27,2877.73 7139.34,2858.95 7131.33,2841.6 7121.46,2825.84 7109.96,2811.83 7097.06,2799.73 7082.98,2789.7 7067.93,2781.9 7052.16,2776.48 7035.89,2773.61 7019.33,2773.45 7002.72,2776.16 6986.27,2781.89 6970.6,2790.53 6958.05,2800.43 6947.43,2812.22 6938.77,2825.8 6932.12,2841.04 6927.51,2857.85 6924.99,2876.1 6924.59,2895.69 6926.35,2916.51 6930.37,2938.59 6937.0,2962.28 6945.08,2983.91 6954.49,3003.38 6965.06,3020.56 6976.67,3035.36 6989.15,3047.64 7002.37,3057.31 7016.18,3064.25 7030.43,3068.34 7044.99,3069.48 7059.7,3067.54 7074.42,3062.42 7089.0,3054.0"/></g>
</svg>
