<!DOCTYPE svg PUBLIC "-//W3C//DTD SVG 20010904//EN" "http://www.w3.org/TR/2001/REC-SVG-20010904/DTD/svg10.dtd">
<svg xmlns="http://www.w3.org/2000/svg" version="1.0" width="220.000000pt" height="295.000000pt" viewBox="0 0 220.000000 295.000000" preserveAspectRatio="xMidYMid meet">
<metadata>
Created by potrace 1.15, written by Peter Selinger 2001-2017
</metadata>
<g transform="translate(0.000000,295.000000) scale(0.100000,-0.100000)" fill="#000000" stroke="none">
<polygon points="1012.0,2139.0 1010.24,2137.14 1008.44,2135.16 1006.61,2133.06 1004.73,2130.84 1002.83,2128.51 1000.89,2126.06 998.92,2123.51 996.92,2120.86 994.9,2118.11 992.85,2115.26 990.78,2112.32 988.68,2109.29 986.57,2106.17 984.44,2102.98 982.3,2099.7 980.14,2096.35 977.98,2092.93 975.8,2089.44 973.61,2085.88 971.42,2082.27 969.23,2078.59 967.04,2074.87 964.84,2071.09 962.65,2067.27 960.46,2063.4 958.28,2059.49 956.1,2055.55 953.94,2051.57 951.79,2047.57 949.65,2043.54 947.52,2039.49 945.42,2035.41 943.33,2031.33 941.27,2027.23 939.22,2023.13 937.21,2019.02 935.22,2014.9 933.26,2010.8 931.33,2006.69 929.43,2002.6 927.57,1998.52 925.75,1994.46 923.96,1990.41 922.22,1986.4 920.51,1982.4 918.85,1978.44 917.24,1974.52 915.68,1970.63 914.16,1966.78 912.7,1962.98 911.29,1959.22 909.94,1955.52 908.65,1951.87 907.93,1949.74 907.78,1949.17 907.62,1948.55 907.47,1947.88 907.32,1947.16 907.17,1946.39 907.02,1945.57 906.87,1944.7 906.71,1943.78 906.56,1942.81 906.41,1941.79 906.26,1940.72 906.11,1939.59 905.96,1938.42 905.81,1937.2 905.65,1935.93 905.5,1934.6 905.35,1933.23 905.2,1931.8 905.05,1930.33 904.9,1928.8 904.75,1927.23 904.6,1925.6 904.45,1923.92 904.3,1922.19 904.15,1920.41 904.0,1918.59 903.85,1916.71 903.7,1914.78 903.55,1912.79 903.41,1910.76 903.26,1908.68 903.11,1906.55 902.96,1904.36 902.81,1902.13 902.67,1899.84 902.52,1897.51 902.37,1895.12 902.22,1892.68 902.08,1890.19 901.93,1887.65 901.79,1885.06 901.64,1882.42 901.49,1879.73 901.35,1876.99 901.2,1874.19 901.06,1871.35 900.92,1868.45 900.77,1865.51 900.63,1862.51 900.48,1859.46 900.34,1856.36 900.2,1853.21 900.06,1850.01 899.91,1846.75 899.77,1843.45 899.63,1840.09 899.49,1836.69 899.35,1833.23 899.21,1829.72 899.07,1826.16 898.93,1822.55 898.79,1818.89 898.66,1815.17 898.52,1811.41 898.38,1807.59 898.24,1803.72 898.11,1799.8 897.97,1795.83 897.84,1791.81 897.7,1787.74 897.57,1783.61 897.43,1779.44 897.3,1775.21 897.16,1770.93 897.03,1766.6 896.9,1762.22 896.77,1757.78 896.64,1753.3 896.51,1748.76 896.38,1744.17 896.25,1739.53 896.12,1734.84 895.99,1730.1 895.86,1725.3 895.73,1720.45 895.61,1715.56 895.48,1710.61 895.36,1705.6 895.23,1700.55 895.11,1695.45 894.98,1690.29 894.86,1685.08 894.74,1679.82 894.62,1674.51 894.5,1669.14 894.37,1663.73 894.25,1658.26 894.14,1652.74 894.02,1647.17 893.9,1641.54 893.78,1635.87 893.67,1630.14 893.55,1624.36 893.44,1618.53 893.32,1612.64 893.21,1606.71 893.09,1600.72 892.98,1594.68 892.87,1588.59 892.76,1582.44 892.65,1576.25 892.54,1570.0 892.43,1563.7 892.32,1557.35 892.22,1550.94 892.11,1544.48 892.01,1537.97 891.9,1531.41 891.8,1524.8 891.7,1518.13 891.59,1511.41 891.49,1504.64 891.39,1497.82 891.29,1490.94 891.19,1484.02 891.1,1477.03 891.0,1470.0 890.9,1462.92 890.81,1455.78 890.71,1448.59 890.62,1441.34 890.53,1434.05 890.44,1426.7 890.34,1419.3 890.25,1411.85 890.17,1404.34 890.08,1396.78 889.99,1388.93 889.85,1379.14 889.72,1369.46 889.59,1359.9 889.46,1350.45 889.33,1341.12 889.21,1331.91 889.09,1322.8 888.97,1313.81 888.85,1304.93 888.73,1296.16 888.61,1287.5 888.49,1278.95 888.38,1270.5 888.27,1262.16 888.15,1253.93 888.04,1245.8 887.93,1237.78 887.82,1229.86 887.71,1222.04 887.6,1214.33 887.49,1206.71 887.38,1199.19 887.27,1191.78 887.16,1184.46 887.05,1177.24 886.94,1170.11 886.83,1163.08 886.72,1156.14 886.61,1149.3 886.5,1142.55 886.39,1135.9 886.27,1129.33 886.16,1122.85 886.05,1116.46 885.93,1110.17 885.81,1103.95 885.69,1097.83 885.57,1091.79 885.45,1085.84 885.33,1079.97 885.21,1074.18 885.08,1068.47 884.95,1062.85 884.82,1057.31 884.69,1051.84 884.55,1046.46 884.42,1041.15 884.28,1035.92 884.13,1030.77 883.99,1025.69 883.84,1020.68 883.69,1015.75 883.54,1010.89 883.38,1006.11 883.22,1001.39 883.06,996.74 882.9,992.17 882.73,987.66 882.55,983.22 882.38,978.84 882.2,974.53 882.01,970.29 881.83,966.11 881.64,961.99 881.44,957.93 881.24,953.94 881.04,950.0 880.83,946.13 880.61,942.31 880.4,938.55 880.17,934.85 879.95,931.21 879.71,927.62 879.48,924.08 879.23,920.6 878.99,917.16 878.73,913.79 878.48,910.46 878.21,907.18 877.94,903.95 877.67,900.77 877.39,897.63 877.1,894.54 876.81,891.5 876.51,888.5 876.2,885.55 875.89,882.64 875.57,879.77 875.25,876.94 874.92,874.15 874.58,871.4 874.23,868.69 873.88,866.01 873.52,863.38 873.16,860.78 872.79,858.21 872.41,855.68 872.02,853.18 871.62,850.71 871.22,848.28 870.81,845.87 870.39,843.5 869.97,841.15 869.53,838.83 869.09,836.54 868.64,834.28 868.18,832.04 867.71,829.82 867.24,827.63 866.75,825.46 866.26,823.31 865.76,821.19 865.25,819.08 864.73,816.99 864.2,814.92 863.66,812.87 863.11,810.84 862.56,808.82 861.99,806.81 861.41,804.82 860.83,802.84 860.23,800.88 859.63,798.92 859.01,796.98 858.39,795.04 857.75,793.12 857.1,791.2 856.45,789.29 855.78,787.38 855.1,785.48 854.41,783.59 853.71,781.69 853.0,779.8 852.28,777.92 851.55,776.03 850.81,774.14 850.05,772.25 849.29,770.36 848.51,768.47 847.72,766.57 846.92,764.67 846.11,762.76 845.28,760.85 844.44,758.93 843.59,757.0 842.73,755.06 841.86,753.12 840.97,751.16 840.08,749.19 839.16,747.21 838.24,745.21 837.3,743.2 836.35,741.18 835.39,739.14 834.42,737.08 833.43,735.01 832.42,732.92 831.41,730.81 830.38,728.67 829.34,726.52 828.28,724.34 827.21,722.15 826.13,719.92 825.03,717.68 823.92,715.41 822.79,713.11 821.65,710.78 820.49,708.43 819.32,706.04 818.14,703.63 816.94,701.19 815.73,698.71 814.5,696.2 813.25,693.66 811.99,691.09 810.72,688.47 808.78,684.49 806.07,678.84 803.44,673.26 800.88,667.74 798.41,662.29 796.01,656.9 793.7,651.58 791.46,646.31 789.31,641.12 787.23,635.98 785.23,630.91 783.31,625.89 781.47,620.94 779.72,616.06 778.04,611.23 776.44,606.46 774.92,601.76 773.48,597.11 772.13,592.52 770.85,588.0 769.65,583.53 768.53,579.12 767.5,574.77 766.54,570.47 765.67,566.24 764.87,562.06 764.16,557.94 763.53,553.88 762.98,549.87 762.51,545.92 762.12,542.03 761.81,538.19 761.59,534.4 761.44,530.67 761.38,527.0 761.4,523.38 761.5,519.81 761.68,516.3 761.94,512.84 762.29,509.43 762.72,506.08 763.23,502.78 763.82,499.53 764.49,496.33 765.25,493.18 766.09,490.08 767.01,487.04 768.02,484.04 769.1,481.1 770.27,478.2 771.53,475.36 772.86,472.56 774.28,469.81 775.78,467.11 777.37,464.46 779.03,461.85 780.79,459.3 782.62,456.79 784.54,454.32 786.54,451.91 788.63,449.54 790.8,447.21 793.05,444.93 795.39,442.7 797.81,440.51 800.31,438.36 802.9,436.26 805.58,434.2 808.33,432.19 811.18,430.22 814.1,428.29 817.11,426.41 820.21,424.56 823.39,422.76 826.66,421.0 830.01,419.28 833.44,417.61 836.96,415.97 840.57,414.37 844.26,412.82 848.03,411.3 851.89,409.82 855.84,408.38 859.87,406.98 863.99,405.62 868.19,404.3 872.48,403.01 876.31,401.91 878.01,401.43 879.89,400.96 881.93,400.5 884.13,400.04 886.5,399.59 889.01,399.15 891.68,398.71 894.49,398.29 897.44,397.87 900.52,397.46 903.74,397.06 907.09,396.66 910.55,396.28 914.14,395.91 917.84,395.54 921.65,395.18 925.56,394.84 929.58,394.5 933.69,394.18 937.9,393.86 942.19,393.56 946.56,393.26 951.02,392.98 955.54,392.71 960.14,392.45 964.8,392.2 969.53,391.97 974.31,391.74 979.14,391.53 984.02,391.33 988.95,391.15 993.91,390.98 998.91,390.82 1003.94,390.67 1008.99,390.54 1014.07,390.42 1019.16,390.32 1024.26,390.23 1029.38,390.15 1034.49,390.09 1039.61,390.05 1044.72,390.02 1049.82,390.0 1056.06,390.0 1063.05,390.02 1069.9,390.06 1076.62,390.12 1083.2,390.2 1089.66,390.3 1095.98,390.42 1102.17,390.57 1108.24,390.73 1114.19,390.92 1120.01,391.13 1125.71,391.37 1131.3,391.62 1136.76,391.91 1142.11,392.22 1147.35,392.55 1152.47,392.91 1157.49,393.29 1162.39,393.71 1167.19,394.15 1171.89,394.62 1176.48,395.11 1180.97,395.64 1185.36,396.19 1189.65,396.78 1193.85,397.39 1197.95,398.03 1201.96,398.71 1205.88,399.42 1209.71,400.16 1213.45,400.93 1217.11,401.74 1220.68,402.57 1224.17,403.45 1227.58,404.35 1230.91,405.3 1234.17,406.27 1237.35,407.29 1240.46,408.34 1243.49,409.42 1246.46,410.55 1249.35,411.71 1252.18,412.91 1254.95,414.15 1257.65,415.43 1260.3,416.74 1262.88,418.1 1265.4,419.5 1267.87,420.94 1270.29,422.42 1272.65,423.94 1274.97,425.51 1277.23,427.12 1279.45,428.77 1281.62,430.46 1283.75,432.2 1285.84,433.99 1287.88,435.82 1289.89,437.7 1291.86,439.62 1293.8,441.59 1295.7,443.6 1297.58,445.67 1299.42,447.78 1301.24,449.94 1303.03,452.15 1304.79,454.41 1306.87,457.1 1309.56,460.52 1312.05,463.79 1314.34,466.92 1316.45,469.95 1318.37,472.9 1320.11,475.79 1321.69,478.64 1323.09,481.49 1324.34,484.36 1325.42,487.26 1326.36,490.23 1327.16,493.29 1327.82,496.47 1328.34,499.79 1328.74,503.27 1329.02,506.94 1329.18,510.82 1329.22,514.94 1329.17,519.33 1329.02,524.0 1328.77,528.98 1328.43,534.3 1328.01,539.99 1327.52,546.06 1326.98,552.21 1326.74,554.95 1326.46,557.81 1326.16,560.81 1325.82,563.92 1325.46,567.15 1325.07,570.49 1324.66,573.94 1324.22,577.49 1323.75,581.13 1323.26,584.86 1322.75,588.68 1322.21,592.58 1321.65,596.55 1321.07,600.58 1320.47,604.69 1319.84,608.84 1319.2,613.05 1318.54,617.31 1317.86,621.61 1317.16,625.95 1316.45,630.31 1315.71,634.71 1314.97,639.12 1314.2,643.55 1313.43,647.98 1312.64,652.43 1311.83,656.87 1311.02,661.3 1310.19,665.72 1309.35,670.13 1308.5,674.51 1307.65,678.87 1306.78,683.19 1305.9,687.47 1305.02,691.71 1304.13,695.9 1303.24,700.04 1302.34,704.12 1301.43,708.13 1300.79,711.0 1300.39,712.88 1299.99,714.74 1299.61,716.59 1299.22,718.43 1298.84,720.25 1298.47,722.07 1298.1,723.88 1297.74,725.68 1297.38,727.47 1297.02,729.25 1296.67,731.03 1296.33,732.81 1295.99,734.58 1295.65,736.35 1295.32,738.12 1295.0,739.89 1294.67,741.66 1294.36,743.43 1294.05,745.2 1293.74,746.97 1293.43,748.75 1293.14,750.54 1292.84,752.33 1292.55,754.13 1292.26,755.94 1291.98,757.76 1291.71,759.59 1291.43,761.43 1291.16,763.28 1290.9,765.14 1290.64,767.02 1290.38,768.92 1290.13,770.83 1289.88,772.75 1289.64,774.7 1289.4,776.67 1289.16,778.65 1288.93,780.66 1288.7,782.69 1288.48,784.74 1288.25,786.81 1288.04,788.92 1287.82,791.04 1287.62,793.2 1287.41,795.38 1287.21,797.59 1287.01,799.83 1286.81,802.1 1286.62,804.41 1286.43,806.74 1286.25,809.12 1286.07,811.52 1285.89,813.96 1285.72,816.44 1285.55,818.96 1285.38,821.51 1285.22,824.11 1285.06,826.75 1284.9,829.42 1284.74,832.14 1284.59,834.91 1284.45,837.72 1284.3,840.57 1284.16,843.47 1284.02,846.42 1283.89,849.42 1283.75,852.47 1283.62,855.57 1283.5,858.71 1283.37,861.92 1283.25,865.17 1283.13,868.48 1283.02,871.85 1282.91,875.27 1282.8,878.75 1282.69,882.29 1282.59,885.89 1282.48,889.54 1282.39,893.26 1282.29,897.05 1282.19,900.89 1282.1,904.8 1282.01,908.78 1281.93,912.82 1281.84,916.93 1281.76,921.1 1281.68,925.35 1281.61,929.66 1281.53,934.05 1281.46,938.51 1281.39,943.05 1281.32,947.65 1281.25,952.33 1281.19,957.09 1281.13,961.93 1281.07,966.84 1281.01,971.84 1280.96,976.91 1280.9,982.06 1280.85,987.3 1280.8,992.62 1280.75,998.02 1280.71,1003.51 1280.66,1009.08 1280.62,1014.74 1280.58,1020.49 1280.54,1026.33 1280.5,1032.26 1280.47,1038.27 1280.43,1044.39 1280.4,1050.59 1280.37,1056.89 1280.34,1063.28 1280.31,1069.76 1280.28,1076.35 1280.26,1083.03 1280.24,1089.81 1280.21,1096.69 1280.19,1103.67 1280.17,1110.76 1280.15,1117.94 1280.14,1125.23 1280.12,1132.62 1280.11,1140.12 1280.09,1147.73 1280.08,1155.44 1280.07,1163.26 1280.06,1171.2 1280.05,1179.24 1280.04,1187.39 1280.03,1195.66 1280.03,1204.04 1280.02,1212.53 1280.01,1221.14 1280.01,1229.86 1280.01,1238.71 1280.0,1247.67 1280.0,1256.75 1280.0,1265.95 1280.0,1275.27 1280.0,1284.53 1280.0,1293.54 1280.0,1302.45 1280.0,1311.27 1280.0,1319.98 1280.0,1328.6 1280.0,1337.12 1279.99,1345.54 1279.99,1353.86 1279.99,1362.09 1279.98,1370.23 1279.98,1378.27 1279.97,1386.22 1279.96,1394.07 1279.96,1401.84 1279.95,1409.51 1279.93,1417.09 1279.92,1424.58 1279.91,1431.99 1279.89,1439.3 1279.87,1446.53 1279.85,1453.67 1279.83,1460.73 1279.81,1467.7 1279.78,1474.59 1279.76,1481.39 1279.73,1488.11 1279.7,1494.75 1279.66,1501.3 1279.62,1507.78 1279.58,1514.18 1279.54,1520.49 1279.5,1526.73 1279.45,1532.89 1279.4,1538.98 1279.34,1544.99 1279.29,1550.92 1279.23,1556.78 1279.16,1562.56 1279.1,1568.27 1279.03,1573.91 1278.95,1579.48 1278.87,1584.97 1278.79,1590.4 1278.71,1595.76 1278.62,1601.04 1278.53,1606.26 1278.43,1611.42 1278.33,1616.5 1278.22,1621.52 1278.11,1626.48 1278.0,1631.37 1277.88,1636.2 1277.76,1640.96 1277.63,1645.66 1277.49,1650.31 1277.36,1654.89 1277.21,1659.41 1277.07,1663.87 1276.91,1668.27 1276.75,1672.62 1276.59,1676.91 1276.42,1681.14 1276.25,1685.32 1276.07,1689.45 1275.88,1693.52 1275.69,1697.53 1275.49,1701.5 1275.29,1705.41 1275.08,1709.27 1274.86,1713.09 1274.64,1716.85 1274.41,1720.56 1274.18,1724.23 1273.94,1727.85 1273.69,1731.42 1273.44,1734.95 1273.18,1738.43 1272.91,1741.87 1272.63,1745.27 1272.35,1748.62 1272.06,1751.93 1271.77,1755.2 1271.46,1758.43 1271.15,1761.62 1270.84,1764.77 1270.51,1767.88 1270.18,1770.95 1269.84,1773.99 1269.49,1776.99 1269.13,1779.96 1268.77,1782.89 1268.4,1785.79 1268.02,1788.66 1267.63,1791.49 1267.23,1794.3 1266.83,1797.07 1266.41,1799.81 1265.99,1802.52 1265.56,1805.21 1265.12,1807.86 1264.67,1810.49 1264.21,1813.09 1263.75,1815.67 1263.27,1818.22 1262.78,1820.75 1262.29,1823.26 1261.79,1825.74 1261.27,1828.2 1260.75,1830.64 1260.22,1833.06 1259.68,1835.46 1259.13,1837.84 1258.56,1840.21 1257.99,1842.55 1257.41,1844.88 1256.82,1847.2 1256.22,1849.49 1255.6,1851.78 1254.98,1854.05 1254.35,1856.31 1253.7,1858.55 1253.05,1860.79 1252.38,1863.01 1251.71,1865.23 1251.02,1867.43 1250.32,1869.63 1249.61,1871.82 1248.89,1874.0 1248.16,1876.17 1247.42,1878.34 1246.66,1880.51 1245.9,1882.67 1245.12,1884.83 1244.33,1886.99 1243.53,1889.14 1242.71,1891.29 1241.89,1893.45 1241.05,1895.6 1240.2,1897.76 1239.34,1899.91 1238.46,1902.07 1237.58,1904.24 1236.68,1906.41 1235.76,1908.58 1234.84,1910.76 1233.9,1912.94 1232.95,1915.14 1231.99,1917.34 1231.01,1919.55 1230.02,1921.76 1229.02,1923.99 1228.0,1926.23 1226.97,1928.49 1225.93,1930.75 1224.87,1933.03 1223.8,1935.32 1222.72,1937.62 1221.62,1939.95 1220.51,1942.28 1219.38,1944.64 1218.24,1947.01 1217.09,1949.4 1215.92,1951.81 1214.74,1954.24 1213.54,1956.69 1212.33,1959.16 1211.1,1961.66 1209.86,1964.18 1208.6,1966.72 1207.33,1969.28 1206.05,1971.87 1204.74,1974.49 1203.43,1977.13 1202.1,1979.8 1200.75,1982.5 1199.39,1985.23 1198.01,1987.98 1196.62,1990.77 1195.21,1993.59 1193.51,1996.99 1190.34,2003.35 1187.2,2009.59 1184.09,2015.7 1181.01,2021.69 1177.97,2027.56 1174.96,2033.3 1171.98,2038.92 1169.03,2044.41 1166.12,2049.79 1163.23,2055.04 1160.38,2060.17 1157.56,2065.18 1154.77,2070.06 1152.01,2074.83 1149.28,2079.47 1146.57,2084.0 1143.9,2088.4 1141.26,2092.69 1138.65,2096.85 1136.07,2100.9 1133.51,2104.83 1130.99,2108.64 1128.49,2112.33 1126.02,2115.9 1123.58,2119.36 1121.17,2122.7 1118.79,2125.92 1116.43,2129.03 1114.1,2132.02 1111.8,2134.89 1109.52,2137.65 1107.27,2140.29 1105.05,2142.82 1102.85,2145.23 1100.68,2147.53 1098.54,2149.71 1096.42,2151.79 1094.32,2153.74 1092.26,2155.59 1090.21,2157.32 1088.19,2158.94 1086.2,2160.45 1084.23,2161.84 1082.28,2163.13 1080.36,2164.3 1078.46,2165.37 1076.59,2166.32 1074.74,2167.16 1072.91,2167.89 1071.1,2168.52 1069.32,2169.03 1067.56,2169.43 1065.82,2169.73 1064.1,2169.92 1062.41,2170.0 1060.22,2169.89 1057.63,2169.42 1054.78,2168.6 1051.72,2167.46 1048.47,2166.0 1045.05,2164.26 1041.5,2162.25 1037.86,2159.99 1034.14,2157.51 1030.38,2154.82 1026.61,2151.94 1022.85,2148.9 1019.15,2145.72 1015.52,2142.41 1012.0,2139.0"/></g>
</svg>
