<?xml version="1.0" standalone="no"?>
<!DOCTYPE svg PUBLIC "-//W3C//DTD SVG 20010904//EN"
 "http://www.w3.org/TR/2001/REC-SVG-20010904/DTD/svg10.dtd">
<svg version="1.0" xmlns="http://www.w3.org/2000/svg"
 width="220.000000pt" height="295.000000pt" viewBox="0 0 220.000000 295.000000"
 preserveAspectRatio="xMidYMid meet">
<metadata>
Created by potrace 1.15, written by Peter Selinger 2001-2017
</metadata>
<g transform="translate(0.000000,295.000000) scale(0.100000,-0.100000)"
fill="#000000" stroke="none">
<path d="M1012 2139 c-31 -32 -82 -125 -104 -189 -7 -24 -14 -208 -18 -560 -8
-581 -4 -547 -80 -703 -81 -166 -62 -249 66 -285 23 -7 102 -12 176 -12 160 0
215 14 254 66 24 30 26 40 21 96 -3 35 -14 106 -26 158 -19 89 -21 126 -21
570 0 548 0 544 -86 716 -59 119 -101 174 -132 174 -11 0 -33 -14 -50 -31z"/>
</g>
</svg>
