<?xml version="1.0" standalone="no"?>
<!DOCTYPE svg PUBLIC "-//W3C//DTD SVG 20010904//EN"
 "http://www.w3.org/TR/2001/REC-SVG-20010904/DTD/svg10.dtd">
<svg version="1.0" xmlns="http://www.w3.org/2000/svg"
 width="580.000000pt" height="450.000000pt" viewBox="0 0 580.000000 450.000000"
 preserveAspectRatio="xMidYMid meet">
<metadata>
Created by potrace 1.15, written by Peter Selinger 2001-2017
</metadata>
<g transform="translate(0.000000,450.000000) scale(0.100000,-0.100000)"
fill="#000000" stroke="none">
<path d="M2355 4160 c-111 -17 -240 -90 -361 -204 -103 -96 -159 -172 -217
-297 -25 -52 -67 -130 -94 -175 -27 -44 -57 -103 -67 -130 -26 -73 -66 -170
-101 -249 -18 -38 -37 -86 -43 -105 -16 -50 -32 -218 -33 -340 -1 -99 1 -110
36 -194 83 -203 95 -320 42 -390 -32 -41 -81 -76 -192 -136 -44 -24 -92 -51
-107 -61 -14 -11 -29 -19 -32 -19 -4 0 -24 -11 -46 -25 -22 -14 -70 -37 -107
-52 -125 -49 -177 -94 -203 -177 -41 -129 65 -397 181 -457 53 -27 124 -17
187 25 36 24 56 48 87 107 49 94 57 104 112 136 35 20 57 26 108 26 83 0 136
-29 187 -102 42 -61 60 -117 78 -246 21 -150 49 -205 175 -340 36 -38 82 -94
103 -123 129 -183 155 -209 286 -288 70 -42 193 -84 245 -84 43 0 169 -24 231
-43 131 -42 232 -46 345 -13 28 8 101 28 163 45 152 41 187 58 311 149 58 43
129 95 157 115 72 52 96 87 153 228 27 68 66 161 85 205 20 45 46 126 57 180
20 95 71 261 103 334 48 112 164 159 240 99 50 -39 59 -79 52 -228 l-7 -133
39 -37 c98 -94 259 -119 322 -51 43 46 50 97 50 352 0 320 -14 367 -144 492
-81 79 -156 113 -298 136 -130 22 -157 29 -216 59 -91 47 -169 140 -237 286
-55 117 -65 180 -65 420 0 227 -10 293 -54 386 -28 56 -83 145 -106 170 -138
146 -173 189 -250 304 -62 93 -202 244 -290 313 -40 31 -151 90 -216 114 -55
20 -79 22 -329 24 -148 1 -292 -1 -320 -6z"/>
</g>
</svg>
