<!DOCTYPE svg PUBLIC "-//W3C//DTD SVG 20010904//EN" "http://www.w3.org/TR/2001/REC-SVG-20010904/DTD/svg10.dtd">
<svg xmlns="http://www.w3.org/2000/svg" version="1.0" width="580.000000pt" height="450.000000pt" viewBox="0 0 580.000000 450.000000" preserveAspectRatio="xMidYMid meet">
<metadata>
Created by potrace 1.15, written by Peter Selinger 2001-2017
</metadata>
<g transform="translate(0.000000,450.000000) scale(0.100000,-0.100000)" fill="#000000" stroke="none">
<polygon points="2355.0,4160.0 2343.97,4158.14 2332.83,4155.91 2321.58,4153.33 2310.24,4150.39 2298.79,4147.11 2287.26,4143.47 2275.65,4139.49 2263.95,4135.16 2252.18,4130.5 2240.35,4125.5 2228.46,4120.16 2216.51,4114.5 2204.5,4108.51 2192.46,4102.2 2180.37,4095.57 2168.26,4088.62 2156.11,4081.36 2143.94,4073.79 2131.76,4065.92 2119.56,4057.74 2107.36,4049.25 2095.15,4040.48 2082.96,4031.4 2070.77,4022.04 2058.6,4012.39 2046.45,4002.46 2034.34,3992.24 2022.25,3981.75 2010.2,3970.98 1998.2,3959.94 1986.58,3949.05 1975.47,3938.46 1964.73,3928.0 1954.34,3917.65 1944.29,3907.39 1934.57,3897.2 1925.15,3887.06 1916.02,3876.93 1907.17,3866.81 1898.58,3856.67 1890.23,3846.49 1882.12,3836.25 1874.22,3825.92 1866.53,3815.49 1859.01,3804.93 1851.67,3794.22 1844.48,3783.34 1837.42,3772.27 1830.49,3760.98 1823.67,3749.46 1816.94,3737.68 1810.29,3725.62 1803.7,3713.26 1797.15,3700.58 1790.64,3687.55 1784.14,3674.16 1777.64,3660.38 1772.09,3648.9 1766.23,3637.08 1760.0,3624.73 1753.47,3611.97 1746.69,3598.93 1739.73,3585.71 1732.66,3572.44 1725.55,3559.24 1718.45,3546.23 1711.44,3533.53 1704.57,3521.26 1697.92,3509.54 1691.55,3498.49 1685.52,3488.23 1678.68,3476.88 1670.91,3463.67 1663.17,3450.04 1655.56,3436.21 1648.21,3422.42 1641.23,3408.92 1634.74,3395.94 1628.86,3383.73 1623.7,3372.51 1619.38,3362.54 1616.02,3354.04 1611.89,3342.59 1607.56,3330.77 1603.03,3318.63 1598.32,3306.22 1593.46,3293.56 1588.45,3280.69 1583.31,3267.64 1578.05,3254.45 1572.7,3241.16 1567.26,3227.79 1561.76,3214.39 1556.2,3200.98 1550.61,3187.61 1545.0,3174.3 1539.38,3161.09 1533.78,3148.01 1528.2,3135.11 1522.67,3122.41 1517.19,3109.95 1511.05,3096.55 1504.46,3081.93 1498.03,3067.09 1491.9,3052.47 1486.23,3038.48 1481.17,3025.56 1476.88,3014.12 1473.51,3004.59 1471.22,2997.45 1469.27,2990.36 1467.34,2982.2 1465.42,2973.04 1463.53,2962.93 1461.66,2951.96 1459.82,2940.18 1458.02,2927.65 1456.26,2914.45 1454.55,2900.63 1452.9,2886.27 1451.32,2871.43 1449.8,2856.17 1448.35,2840.57 1446.98,2824.67 1445.7,2808.56 1444.52,2792.29 1443.43,2775.94 1442.44,2759.55 1441.56,2743.21 1440.8,2726.98 1440.17,2710.92 1439.66,2695.1 1439.28,2679.57 1439.04,2664.42 1438.88,2646.12 1438.82,2628.33 1438.95,2612.53 1439.33,2598.39 1440.02,2585.61 1441.08,2573.85 1442.57,2562.79 1444.55,2552.1 1447.07,2541.48 1450.21,2530.59 1454.02,2519.11 1458.55,2506.72 1463.88,2493.1 1470.06,2477.92 1477.42,2460.05 1485.49,2439.83 1493.07,2420.19 1500.17,2401.13 1506.77,2382.63 1512.89,2364.69 1518.53,2347.3 1523.68,2330.44 1528.36,2314.12 1532.55,2298.31 1536.26,2283.01 1539.5,2268.21 1542.26,2253.91 1544.55,2240.09 1546.36,2226.74 1547.71,2213.85 1548.58,2201.42 1548.98,2189.44 1548.92,2177.89 1548.39,2166.77 1547.4,2156.07 1545.95,2145.78 1544.03,2135.89 1541.65,2126.39 1538.82,2117.27 1535.53,2108.52 1531.78,2100.14 1527.57,2092.11 1522.92,2084.43 1517.81,2077.08 1512.1,2069.93 1505.96,2062.87 1499.38,2055.86 1492.29,2048.86 1484.64,2041.85 1476.38,2034.78 1467.46,2027.62 1457.81,2020.32 1447.4,2012.85 1436.15,2005.18 1424.03,1997.26 1410.97,1989.07 1396.92,1980.55 1381.82,1971.68 1365.63,1962.42 1348.29,1952.73 1329.74,1942.57 1313.73,1933.84 1298.77,1925.59 1284.05,1917.42 1269.9,1909.5 1256.64,1901.98 1244.57,1895.05 1234.01,1888.87 1225.29,1883.62 1218.71,1879.47 1204.69,1869.53 1191.86,1862.16 1185.4,1859.94 1178.2,1857.12 1166.12,1850.74 1150.7,1841.67 1136.99,1833.13 1127.62,1827.67 1116.61,1821.7 1104.32,1815.39 1091.1,1808.88 1077.3,1802.35 1063.26,1795.94 1049.34,1789.83 1035.88,1784.18 1018.9,1777.36 1001.7,1770.14 985.52,1762.93 970.31,1755.7 956.04,1748.4 942.68,1741.02 930.19,1733.52 918.54,1725.88 907.69,1718.06 897.62,1710.03 888.28,1701.76 879.65,1693.22 871.69,1684.38 864.36,1675.21 857.63,1665.68 851.46,1655.76 845.83,1645.42 840.7,1634.62 836.04,1623.35 831.8,1611.56 828.3,1600.27 825.66,1589.3 823.62,1577.79 822.18,1565.78 821.31,1553.32 821.01,1540.43 821.25,1527.17 822.03,1513.58 823.31,1499.69 825.1,1485.54 827.37,1471.17 830.1,1456.63 833.29,1441.95 836.91,1427.18 840.95,1412.35 845.39,1397.5 850.22,1382.68 855.42,1367.92 860.98,1353.26 866.88,1338.75 873.1,1324.42 879.63,1310.32 886.46,1296.48 893.56,1282.95 900.92,1269.76 908.52,1256.96 916.36,1244.58 924.41,1232.66 932.66,1221.25 941.09,1210.39 949.68,1200.11 958.43,1190.46 967.3,1181.47 976.3,1173.18 985.4,1165.65 994.59,1158.89 1003.85,1152.97 1013.6,1147.71 1025.12,1142.83 1037.11,1139.02 1049.51,1136.29 1062.26,1134.61 1075.32,1133.98 1088.63,1134.38 1102.13,1135.82 1115.77,1138.27 1129.51,1141.73 1143.28,1146.18 1157.02,1151.62 1170.7,1158.03 1184.25,1165.41 1197.62,1173.75 1207.98,1180.97 1217.49,1188.34 1226.35,1196.12 1234.75,1204.5 1242.82,1213.7 1250.74,1223.92 1258.66,1235.37 1266.74,1248.24 1275.13,1262.75 1284.0,1279.09 1294.53,1299.19 1304.06,1317.04 1312.59,1332.45 1320.36,1345.71 1327.61,1357.11 1334.58,1366.95 1341.51,1375.51 1348.64,1383.08 1356.21,1389.95 1364.47,1396.42 1373.65,1402.77 1384.0,1409.29 1395.76,1416.28 1408.21,1423.14 1419.94,1428.83 1431.38,1433.41 1443.0,1436.99 1455.26,1439.65 1468.64,1441.47 1483.6,1442.56 1500.6,1442.98 1516.57,1442.8 1531.18,1441.94 1545.16,1440.37 1558.56,1438.07 1571.42,1435.02 1583.78,1431.2 1595.67,1426.59 1607.14,1421.16 1618.24,1414.9 1628.99,1407.77 1639.44,1399.77 1649.63,1390.87 1659.6,1381.05 1669.38,1370.28 1679.03,1358.55 1688.58,1345.83 1696.2,1334.8 1702.45,1325.12 1708.32,1315.41 1713.85,1305.61 1719.04,1295.63 1723.94,1285.41 1728.54,1274.89 1732.89,1263.97 1736.99,1252.61 1740.87,1240.73 1744.55,1228.25 1748.06,1215.12 1751.41,1201.25 1754.63,1186.57 1757.74,1171.03 1760.76,1154.54 1763.7,1137.04 1766.6,1118.45 1769.48,1098.71 1771.85,1082.2 1774.17,1067.16 1776.59,1052.76 1779.13,1038.94 1781.81,1025.65 1784.67,1012.86 1787.71,1000.51 1790.98,988.56 1794.49,976.95 1798.26,965.65 1802.33,954.61 1806.71,943.78 1811.43,933.11 1816.51,922.56 1821.98,912.07 1827.86,901.62 1834.18,891.14 1840.96,880.59 1848.22,869.92 1855.99,859.1 1864.3,848.06 1873.16,836.77 1882.6,825.17 1892.65,813.23 1903.33,800.89 1914.66,788.11 1926.67,774.84 1939.39,761.03 1950.44,749.21 1960.16,738.61 1970.11,727.48 1980.16,715.99 1990.18,704.32 2000.03,692.64 2009.57,681.12 2018.67,669.94 2027.19,659.27 2035.0,649.29 2041.97,640.16 2047.95,632.07 2060.6,614.16 2072.67,597.18 2084.13,581.17 2095.03,566.09 2105.41,551.89 2115.33,538.52 2124.84,525.93 2133.97,514.08 2142.79,502.92 2151.33,492.39 2159.65,482.45 2167.79,473.05 2175.8,464.14 2183.74,455.68 2191.63,447.61 2199.55,439.89 2207.53,432.47 2215.62,425.3 2223.86,418.33 2232.32,411.51 2241.03,404.79 2250.04,398.14 2259.41,391.49 2269.17,384.8 2279.38,378.02 2290.09,371.11 2301.34,364.0 2313.18,356.67 2325.65,349.05 2338.07,341.59 2349.95,334.92 2362.57,328.29 2375.83,321.76 2389.61,315.35 2403.8,309.1 2418.29,303.06 2432.96,297.26 2447.72,291.74 2462.44,286.53 2477.01,281.67 2491.33,277.21 2505.27,273.17 2518.74,269.6 2531.62,266.54 2543.79,264.02 2555.15,262.07 2565.58,260.75 2574.97,260.08 2583.26,259.93 2592.52,259.44 2603.24,258.5 2615.22,257.15 2628.3,255.43 2642.29,253.37 2657.01,251.01 2672.27,248.38 2687.91,245.52 2703.75,242.47 2719.59,239.25 2735.26,235.91 2750.59,232.48 2765.39,228.99 2779.48,225.48 2792.68,221.99 2804.82,218.56 2818.32,214.37 2833.55,209.77 2848.52,205.52 2863.25,201.62 2877.76,198.08 2892.06,194.89 2906.16,192.06 2920.08,189.57 2933.84,187.44 2947.45,185.67 2960.93,184.24 2974.29,183.17 2987.55,182.44 3000.72,182.07 3013.82,182.05 3026.87,182.37 3039.88,183.05 3052.86,184.08 3065.84,185.45 3078.82,187.17 3091.82,189.24 3104.87,191.66 3117.96,194.43 3131.13,197.54 3144.37,201.0 3156.44,204.41 3164.54,206.7 3174.24,209.42 3185.34,212.51 3197.66,215.92 3211.01,219.61 3225.22,223.53 3240.09,227.62 3255.45,231.84 3271.1,236.14 3286.86,240.46 3302.55,244.76 3317.98,249.0 3335.59,253.78 3352.17,258.38 3367.79,262.83 3382.53,267.15 3396.47,271.4 3409.69,275.6 3422.27,279.8 3434.27,284.03 3445.79,288.33 3456.9,292.74 3467.67,297.28 3478.19,302.01 3488.54,306.96 3498.78,312.15 3509.0,317.64 3519.28,323.46 3529.7,329.64 3540.33,336.23 3551.25,343.25 3562.54,350.76 3574.27,358.77 3586.53,367.34 3599.4,376.49 3612.94,386.27 3627.25,396.72 3640.06,406.19 3652.87,415.67 3665.85,425.25 3678.88,434.84 3691.83,444.37 3704.59,453.74 3717.02,462.86 3729.02,471.64 3740.46,480.0 3751.21,487.84 3761.17,495.08 3770.2,501.62 3778.18,507.39 3785.0,512.28 3794.7,519.38 3804.52,526.86 3813.73,534.26 3822.41,541.66 3830.61,549.15 3838.38,556.83 3845.8,564.78 3852.91,573.09 3859.77,581.86 3866.45,591.17 3873.01,601.11 3879.5,611.78 3885.98,623.26 3892.52,635.64 3899.16,649.02 3905.98,663.47 3913.02,679.1 3920.36,695.99 3928.04,714.23 3936.13,733.92 3942.39,749.5 3947.73,762.84 3953.29,776.58 3958.99,790.62 3964.81,804.85 3970.69,819.16 3976.59,833.44 3982.46,847.59 3988.25,861.49 3993.91,875.05 3999.41,888.15 4004.69,900.67 4009.7,912.53 4014.4,923.6 4018.75,933.78 4022.69,942.96 4026.85,952.57 4031.44,963.68 4036.13,975.71 4040.89,988.5 4045.66,1001.92 4050.39,1015.8 4055.04,1030.0 4059.55,1044.38 4063.87,1058.78 4067.97,1073.05 4071.77,1087.05 4075.24,1100.63 4078.33,1113.64 4080.98,1125.92 4083.5,1137.53 4086.29,1149.75 4089.34,1162.5 4092.62,1175.75 4096.11,1189.41 4099.81,1203.45 4103.69,1217.78 4107.72,1232.35 4111.9,1247.1 4116.21,1261.97 4120.62,1276.9 4125.12,1291.83 4129.68,1306.69 4134.29,1321.42 4138.94,1335.97 4143.6,1350.27 4148.25,1364.25 4152.88,1377.87 4157.46,1391.06 4161.98,1403.76 4166.42,1415.9 4170.76,1427.43 4174.99,1438.28 4179.07,1448.39 4183.0,1457.71 4189.15,1471.25 4196.83,1485.71 4205.27,1499.3 4214.4,1512.0 4224.16,1523.76 4234.49,1534.58 4245.33,1544.42 4256.6,1553.27 4268.25,1561.09 4280.22,1567.86 4292.43,1573.56 4304.83,1578.16 4317.34,1581.63 4329.92,1583.96 4342.49,1585.11 4354.99,1585.07 4367.35,1583.81 4379.51,1581.29 4391.42,1577.51 4402.99,1572.43 4414.18,1566.02 4424.74,1558.42 4432.78,1551.76 4440.06,1544.95 4446.6,1537.87 4452.45,1530.41 4457.61,1522.45 4462.12,1513.87 4466.01,1504.55 4469.31,1494.38 4472.03,1483.24 4474.22,1471.01 4475.88,1457.57 4477.07,1442.8 4477.79,1426.59 4478.08,1408.82 4477.96,1389.38 4477.47,1368.13 4476.62,1344.97 4475.68,1324.98 4474.95,1311.14 4474.23,1297.3 4473.5,1283.47 4472.77,1269.63 4472.04,1255.8 4471.31,1241.96 4470.59,1228.12 4469.86,1214.29 4469.13,1200.45 4477.27,1190.15 4487.32,1180.62 4497.38,1171.08 4507.43,1161.54 4519.06,1150.91 4531.29,1140.83 4543.99,1131.39 4557.1,1122.62 4570.55,1114.5 4584.3,1107.06 4598.28,1100.29 4612.43,1094.22 4626.71,1088.84 4641.05,1084.17 4655.39,1080.21 4669.68,1076.98 4683.86,1074.48 4697.88,1072.72 4711.67,1071.71 4725.18,1071.46 4738.35,1071.97 4751.13,1073.25 4763.45,1075.32 4775.26,1078.18 4786.5,1081.85 4797.12,1086.32 4807.06,1091.6 4816.25,1097.72 4824.65,1104.66 4831.48,1111.6 4836.16,1116.94 4840.54,1122.4 4844.62,1128.06 4848.42,1133.98 4851.95,1140.24 4855.21,1146.89 4858.22,1154.01 4860.98,1161.66 4863.51,1169.9 4865.82,1178.81 4867.91,1188.44 4869.79,1198.88 4871.48,1210.18 4872.98,1222.4 4874.3,1235.63 4875.46,1249.92 4876.46,1265.34 4877.32,1281.95 4878.03,1299.83 4878.62,1319.04 4879.09,1339.64 4879.45,1361.71 4879.71,1385.31 4879.88,1410.51 4879.98,1437.36 4880.0,1465.34 4879.96,1489.53 4879.85,1512.67 4879.67,1534.78 4879.39,1555.91 4879.02,1576.09 4878.53,1595.35 4877.92,1613.74 4877.18,1631.29 4876.29,1648.04 4875.25,1664.03 4874.05,1679.28 4872.67,1693.85 4871.11,1707.75 4869.35,1721.04 4867.38,1733.75 4865.19,1745.91 4862.78,1757.56 4860.13,1768.74 4857.22,1779.49 4854.06,1789.84 4850.63,1799.82 4846.91,1809.48 4842.9,1818.85 4838.59,1827.97 4833.97,1836.87 4829.02,1845.6 4823.74,1854.18 4818.11,1862.65 4812.12,1871.06 4805.77,1879.44 4799.04,1887.82 4791.92,1896.24 4784.4,1904.74 4776.48,1913.36 4768.13,1922.12 4759.35,1931.08 4750.13,1940.26 4740.46,1949.7 4730.42,1959.38 4720.38,1968.73 4710.36,1977.64 4700.32,1986.13 4690.23,1994.2 4680.06,2001.87 4669.77,2009.16 4659.35,2016.07 4648.75,2022.64 4637.94,2028.86 4626.9,2034.76 4615.58,2040.34 4603.97,2045.63 4592.03,2050.64 4579.73,2055.38 4567.03,2059.87 4553.9,2064.12 4540.33,2068.15 4526.26,2071.96 4511.67,2075.59 4496.54,2079.03 4480.82,2082.31 4464.49,2085.43 4447.52,2088.42 4427.3,2091.82 4405.43,2095.58 4385.64,2099.08 4367.72,2102.37 4351.49,2105.5 4336.75,2108.53 4323.33,2111.51 4311.04,2114.49 4299.67,2117.52 4289.05,2120.67 4278.99,2123.97 4269.29,2127.49 4259.77,2131.28 4250.23,2135.39 4240.5,2139.88 4230.37,2144.79 4219.88,2150.1 4209.95,2155.54 4200.13,2161.34 4190.4,2167.52 4180.78,2174.08 4171.26,2181.01 4161.84,2188.33 4152.52,2196.03 4143.3,2204.12 4134.18,2212.59 4125.15,2221.45 4116.22,2230.71 4107.38,2240.36 4098.63,2250.4 4089.98,2260.84 4081.42,2271.68 4072.96,2282.93 4064.58,2294.58 4056.29,2306.63 4048.09,2319.09 4039.98,2331.97 4031.96,2345.25 4024.02,2358.95 4016.17,2373.07 4008.4,2387.6 4000.71,2402.56 3993.11,2417.94 3985.59,2433.74 3980.21,2445.29 3975.28,2456.19 3970.62,2466.83 3966.22,2477.27 3962.07,2487.56 3958.17,2497.74 3954.5,2507.85 3951.07,2517.96 3947.87,2528.09 3944.88,2538.3 3942.1,2548.64 3939.53,2559.14 3937.15,2569.87 3934.96,2580.86 3932.96,2592.16 3931.13,2603.81 3929.47,2615.87 3927.97,2628.38 3926.63,2641.38 3925.43,2654.93 3924.38,2669.07 3923.45,2683.84 3922.66,2699.3 3921.98,2715.48 3921.42,2732.44 3920.96,2750.22 3920.6,2768.87 3920.33,2788.44 3920.15,2808.96 3920.04,2830.5 3920.0,2853.09 3919.97,2876.5 3919.86,2898.83 3919.66,2920.06 3919.37,2940.23 3918.98,2959.4 3918.48,2977.62 3917.87,2994.92 3917.15,3011.38 3916.3,3027.02 3915.32,3041.9 3914.2,3056.08 3912.95,3069.59 3911.54,3082.5 3909.97,3094.84 3908.25,3106.67 3906.35,3118.04 3904.29,3128.99 3902.04,3139.58 3899.6,3149.86 3896.97,3159.87 3894.14,3169.66 3891.11,3179.28 3887.86,3188.79 3884.4,3198.22 3880.71,3207.64 3876.79,3217.08 3872.63,3226.61 3868.23,3236.26 3862.91,3247.09 3856.4,3259.54 3849.28,3272.65 3841.69,3286.21 3833.73,3300.05 3825.53,3313.97 3817.2,3327.77 3808.85,3341.27 3800.61,3354.27 3792.59,3366.59 3784.9,3378.03 3777.67,3388.4 3771.0,3397.5 3765.03,3405.15 3759.54,3411.48 3745.39,3426.48 3731.97,3440.76 3719.23,3454.37 3707.14,3467.35 3695.66,3479.75 3684.75,3491.62 3674.38,3503.01 3664.5,3513.94 3655.09,3524.49 3646.1,3534.68 3637.49,3544.56 3629.23,3554.18 3621.28,3563.59 3613.6,3572.83 3606.16,3581.95 3598.9,3590.98 3591.81,3599.99 3584.84,3609.0 3577.95,3618.08 3571.1,3627.26 3564.26,3636.59 3557.39,3646.11 3550.45,3655.88 3543.41,3665.93 3536.22,3676.31 3528.85,3687.08 3521.26,3698.26 3513.41,3709.91 3506.45,3720.27 3499.91,3729.68 3492.93,3739.41 3485.52,3749.43 3477.72,3759.71 3469.55,3770.23 3461.04,3780.95 3452.21,3791.85 3443.09,3802.9 3433.7,3814.07 3424.08,3825.33 3414.25,3836.66 3404.23,3848.01 3394.06,3859.38 3383.75,3870.72 3373.34,3882.02 3362.86,3893.23 3352.32,3904.34 3341.75,3915.3 3331.19,3926.11 3320.65,3936.72 3310.17,3947.11 3299.77,3957.25 3289.47,3967.11 3279.31,3976.66 3269.31,3985.87 3259.5,3994.73 3249.9,4003.18 3240.54,4011.22 3231.44,4018.81 3222.64,4025.92 3214.97,4031.77 3206.65,4037.63 3197.18,4043.9 3186.68,4050.53 3175.29,4057.45 3163.14,4064.58 3150.34,4071.86 3137.03,4079.22 3123.33,4086.59 3109.38,4093.9 3095.29,4101.09 3081.21,4108.08 3067.24,4114.81 3053.53,4121.2 3040.19,4127.2 3027.36,4132.73 3015.16,4137.72 3003.83,4142.06 2997.08,4144.47 2990.54,4146.7 2984.1,4148.76 2977.64,4150.65 2971.06,4152.39 2964.23,4153.98 2957.05,4155.42 2949.4,4156.73 2941.17,4157.92 2932.25,4158.99 2922.53,4159.95 2911.88,4160.8 2900.21,4161.57 2887.4,4162.25 2873.33,4162.84 2857.89,4163.37 2840.97,4163.84 2822.45,4164.25 2802.23,4164.62 2780.19,4164.95 2756.22,4165.24 2730.2,4165.52 2702.03,4165.78 2672.92,4166.01 2653.74,4166.12 2634.67,4166.2 2615.76,4166.24 2597.07,4166.25 2578.64,4166.22 2560.54,4166.16 2542.82,4166.07 2525.52,4165.94 2508.72,4165.78 2492.45,4165.59 2476.78,4165.36 2461.76,4165.1 2447.44,4164.81 2433.88,4164.48 2421.14,4164.11 2409.26,4163.72 2398.31,4163.29 2388.33,4162.82 2379.39,4162.33 2371.53,4161.8 2364.8,4161.23 2359.28,4160.63 2355.0,4160.0"/></g>
</svg>
