<?xml version="1.0" standalone="no"?>
<!DOCTYPE svg PUBLIC "-//W3C//DTD SVG 20010904//EN"
 "http://www.w3.org/TR/2001/REC-SVG-20010904/DTD/svg10.dtd">
<svg version="1.0" xmlns="http://www.w3.org/2000/svg"
 width="1300.000000pt" height="714.000000pt" viewBox="0 0 1300.000000 714.000000"
 preserveAspectRatio="xMidYMid meet">
<metadata>
Created by potrace 1.15, written by Peter Selinger 2001-2017
</metadata>
<g transform="translate(0.000000,714.000000) scale(0.100000,-0.100000)"
fill="#000000" stroke="none">
<path d="M4362 5153 c-51 -10 -98 -80 -230 -341 -203 -402 -207 -408 -302
-455 l-45 -22 -1055 -5 c-1113 -6 -1096 -6 -1156 -53 -108 -83 -114 -119 -124
-822 -6 -467 -10 -573 -25 -640 -22 -108 -15 -172 30 -256 74 -139 68 -69 76
-944 4 -560 10 -801 18 -827 18 -56 55 -94 110 -112 45 -14 204 -16 1673 -16
1716 0 1687 1 1843 -45 103 -29 238 -38 523 -31 1129 26 2009 26 2761 1 245
-9 319 0 398 45 38 22 57 41 74 77 l24 48 2 880 c2 701 -1 917 -13 1060 -9
116 -12 228 -8 315 6 131 5 136 -17 170 -28 41 -91 75 -169 91 -34 7 -249 14
-565 18 l-511 6 -49 25 c-71 37 -92 84 -115 257 -11 76 -30 205 -44 286 -17
96 -26 186 -26 255 0 59 -5 125 -11 147 -15 54 -54 104 -98 123 -38 16 -42 17
-531 16 -394 0 -440 -1 -885 -12 -372 -9 -443 -13 -530 -31 -121 -25 -262 -28
-326 -6 -72 25 -129 87 -225 246 -31 52 -87 139 -124 194 -37 55 -75 116 -85
135 -84 167 -172 242 -263 223z"/>
</g>
</svg>
