<!DOCTYPE svg PUBLIC "-//W3C//DTD SVG 20010904//EN" "http://www.w3.org/TR/2001/REC-SVG-20010904/DTD/svg10.dtd">
<svg xmlns="http://www.w3.org/2000/svg" version="1.0" width="1300.000000pt" height="714.000000pt" viewBox="0 0 1300.000000 714.000000" preserveAspectRatio="xMidYMid meet">
<metadata>
Created by potrace 1.15, written by Peter Selinger 2001-2017
</metadata>
<g transform="translate(0.000000,714.000000) scale(0.100000,-0.100000)" fill="#000000" stroke="none">
<polygon points="4362.0,5153.0 4353.95,5150.9 4345.88,5147.67 4337.72,5143.22 4329.4,5137.41 4320.83,5130.14 4311.93,5121.29 4302.63,5110.75 4292.85,5098.39 4282.5,5084.11 4271.52,5067.78 4259.81,5049.3 4247.32,5028.54 4233.94,5005.39 4219.61,4979.74 4204.25,4951.47 4187.78,4920.47 4170.13,4886.61 4151.2,4849.78 4130.76,4809.55 4107.58,4763.66 4086.16,4721.34 4066.41,4682.45 4048.21,4646.8 4031.46,4614.24 4016.03,4584.6 4001.84,4557.72 3988.76,4533.42 3976.68,4511.56 3965.51,4491.96 3955.12,4474.46 3945.41,4458.89 3936.27,4445.1 3927.58,4432.9 3919.26,4422.15 3911.17,4412.67 3903.21,4404.31 3895.28,4396.89 3887.27,4390.25 3879.05,4384.23 3870.54,4378.66 3861.61,4373.38 3852.16,4368.22 3842.07,4363.02 3831.25,4357.62 3812.34,4348.37 3792.48,4338.66 3771.22,4334.93 3749.11,4334.83 3727.01,4334.73 3704.9,4334.62 3682.79,4334.52 3660.69,4334.41 3638.58,4334.31 3616.48,4334.2 3594.37,4334.1 3572.26,4333.99 3550.16,4333.89 3528.05,4333.78 3505.95,4333.68 3483.84,4333.57 3461.73,4333.47 3439.63,4333.36 3417.52,4333.26 3395.42,4333.15 3373.31,4333.05 3351.2,4332.94 3329.1,4332.84 3306.99,4332.73 3284.89,4332.63 3262.78,4332.53 3240.67,4332.42 3218.57,4332.32 3196.46,4332.21 3174.36,4332.11 3152.25,4332.0 3130.14,4331.9 3108.04,4331.79 3085.93,4331.69 3063.83,4331.58 3041.72,4331.48 3019.61,4331.37 2997.51,4331.27 2975.4,4331.16 2953.3,4331.06 2931.19,4330.95 2909.08,4330.85 2886.98,4330.74 2864.87,4330.64 2842.77,4330.53 2820.66,4330.43 2798.56,4330.32 2776.45,4330.22 2754.34,4330.12 2732.24,4330.01 2674.02,4329.7 2614.01,4329.37 2556.34,4329.06 2500.98,4328.75 2447.87,4328.44 2396.95,4328.14 2348.19,4327.83 2301.53,4327.53 2256.92,4327.22 2214.31,4326.9 2173.65,4326.58 2134.9,4326.24 2098.0,4325.89 2062.9,4325.53 2029.56,4325.15 1997.93,4324.75 1967.94,4324.33 1939.57,4323.88 1912.75,4323.41 1887.44,4322.91 1863.58,4322.38 1841.13,4321.82 1820.04,4321.23 1800.26,4320.59 1781.74,4319.92 1764.43,4319.21 1748.28,4318.45 1733.23,4317.65 1719.25,4316.8 1706.28,4315.9 1694.28,4314.94 1683.18,4313.94 1672.95,4312.87 1663.53,4311.75 1654.88,4310.57 1646.94,4309.32 1639.66,4308.01 1633.0,4306.64 1626.91,4305.19 1621.33,4303.67 1616.22,4302.08 1611.52,4300.41 1607.2,4298.66 1603.19,4296.84 1599.45,4294.93 1595.93,4292.93 1592.58,4290.85 1589.35,4288.68 1586.19,4286.42 1583.05,4284.07 1579.88,4281.62 1576.64,4279.07 1572.22,4275.63 1564.13,4269.3 1556.44,4263.08 1549.14,4256.88 1542.21,4250.63 1535.64,4244.26 1529.42,4237.7 1523.55,4230.86 1518.0,4223.67 1512.77,4216.07 1507.85,4207.97 1503.23,4199.31 1498.89,4190.01 1494.82,4179.99 1491.02,4169.18 1487.48,4157.51 1484.17,4144.91 1481.1,4131.29 1478.24,4116.6 1475.59,4100.74 1473.14,4083.65 1470.88,4065.25 1468.8,4045.48 1466.87,4024.25 1465.11,4001.49 1463.48,3977.14 1461.99,3951.1 1460.62,3923.32 1459.36,3893.71 1458.19,3862.21 1457.12,3828.74 1456.12,3793.22 1455.19,3755.58 1454.31,3715.75 1453.48,3673.65 1452.68,3629.21 1451.9,3582.36 1451.14,3533.01 1450.37,3481.11 1449.68,3430.45 1449.07,3384.71 1448.48,3341.42 1447.88,3300.51 1447.29,3261.9 1446.7,3225.51 1446.11,3191.25 1445.51,3159.05 1444.9,3128.84 1444.28,3100.52 1443.64,3074.03 1442.98,3049.28 1442.3,3026.19 1441.6,3004.69 1440.86,2984.69 1440.1,2966.12 1439.29,2948.9 1438.45,2932.94 1437.57,2918.17 1436.64,2904.51 1435.67,2891.88 1434.64,2880.2 1433.56,2869.39 1432.42,2859.37 1431.22,2850.06 1429.95,2841.39 1428.62,2833.27 1427.22,2825.63 1425.74,2818.38 1422.31,2801.24 1418.05,2775.9 1415.05,2752.06 1413.34,2729.5 1412.97,2708.0 1413.95,2687.33 1416.33,2667.27 1420.13,2647.59 1425.38,2628.07 1432.12,2608.48 1440.38,2588.6 1450.18,2568.2 1457.83,2553.71 1462.69,2544.73 1467.31,2536.29 1471.69,2528.3 1475.84,2520.67 1479.76,2513.32 1483.47,2506.17 1486.96,2499.13 1490.25,2492.11 1493.35,2485.03 1496.25,2477.81 1498.97,2470.35 1501.52,2462.57 1503.89,2454.38 1506.11,2445.71 1508.17,2436.47 1510.08,2426.56 1511.85,2415.91 1513.48,2404.43 1514.99,2392.03 1516.38,2378.63 1517.66,2364.14 1518.83,2348.48 1519.9,2331.56 1520.87,2313.3 1521.77,2293.61 1522.58,2272.4 1523.32,2249.6 1524.0,2225.1 1524.62,2198.84 1525.19,2170.72 1525.72,2140.66 1526.21,2108.57 1526.67,2074.37 1527.1,2037.97 1527.52,1999.28 1527.94,1958.23 1528.35,1914.72 1528.76,1868.67 1529.19,1820.0 1529.64,1768.61 1530.11,1714.43 1530.62,1657.37 1531.09,1602.08 1531.42,1558.27 1531.76,1515.82 1532.1,1474.7 1532.45,1434.9 1532.82,1396.43 1533.19,1359.25 1533.56,1323.37 1533.95,1288.77 1534.35,1255.43 1534.75,1223.35 1535.16,1192.51 1535.59,1162.91 1536.02,1134.52 1536.46,1107.35 1536.9,1081.37 1537.36,1056.57 1537.82,1032.94 1538.3,1010.48 1538.78,989.16 1539.27,968.98 1539.77,949.93 1540.27,931.99 1540.79,915.15 1541.31,899.4 1541.85,884.72 1542.39,871.11 1542.94,858.56 1543.5,847.04 1544.06,836.55 1544.64,827.09 1545.22,818.62 1545.82,811.16 1546.42,804.67 1547.03,799.15 1547.65,794.6 1548.27,790.98 1548.91,788.31 1556.03,769.24 1566.15,749.23 1578.33,731.25 1592.54,715.34 1608.79,701.51 1627.05,689.8 1647.3,680.24 1659.84,675.74 1661.74,675.2 1663.79,674.67 1666.0,674.15 1668.39,673.65 1670.97,673.15 1673.76,672.67 1676.78,672.2 1680.03,671.74 1683.55,671.29 1687.34,670.86 1691.43,670.43 1695.82,670.02 1700.54,669.61 1705.61,669.22 1711.03,668.84 1716.82,668.47 1723.01,668.11 1729.6,667.75 1736.62,667.41 1744.08,667.08 1752.0,666.76 1760.39,666.45 1769.28,666.14 1778.67,665.85 1788.58,665.57 1799.03,665.29 1810.05,665.02 1821.63,664.77 1833.81,664.52 1846.59,664.28 1859.99,664.05 1874.04,663.82 1888.74,663.61 1904.11,663.4 1920.17,663.2 1936.94,663.01 1954.43,662.82 1972.66,662.64 1991.64,662.47 2011.39,662.31 2031.94,662.15 2053.29,662.0 2075.46,661.86 2098.47,661.73 2122.33,661.6 2147.06,661.47 2172.68,661.35 2199.21,661.24 2226.65,661.14 2255.04,661.04 2284.38,660.94 2314.68,660.86 2345.98,660.77 2378.27,660.69 2411.59,660.62 2445.94,660.55 2481.35,660.49 2517.83,660.43 2555.39,660.38 2594.05,660.33 2633.84,660.28 2674.76,660.24 2716.83,660.2 2760.07,660.17 2804.49,660.13 2850.12,660.11 2896.96,660.08 2945.04,660.06 2994.37,660.05 3044.97,660.03 3096.86,660.02 3150.04,660.01 3204.54,660.01 3260.38,660.0 3317.57,660.0 3377.88,660.0 3437.64,660.0 3495.94,660.0 3552.79,660.0 3608.21,660.0 3662.23,660.0 3714.87,659.99 3766.14,659.99 3816.06,659.98 3864.65,659.96 3911.94,659.95 3957.94,659.93 4002.68,659.9 4046.17,659.87 4088.43,659.83 4129.48,659.78 4169.35,659.73 4208.05,659.67 4245.6,659.61 4282.02,659.53 4317.34,659.45 4351.56,659.36 4384.72,659.25 4416.83,659.14 4447.92,659.01 4477.99,658.88 4507.07,658.73 4535.19,658.57 4562.36,658.4 4588.6,658.21 4613.92,658.01 4638.36,657.8 4661.93,657.57 4684.65,657.32 4706.54,657.06 4727.62,656.79 4747.91,656.49 4767.43,656.18 4786.2,655.85 4804.24,655.51 4821.57,655.14 4838.2,654.76 4854.17,654.35 4869.48,653.93 4884.17,653.48 4898.24,653.02 4911.72,652.53 4924.63,652.02 4936.99,651.48 4948.81,650.93 4960.12,650.34 4970.94,649.74 4981.29,649.11 4991.19,648.46 5000.65,647.78 5009.7,647.07 5018.36,646.34 5026.65,645.58 5034.58,644.79 5042.18,643.97 5049.46,643.13 5056.45,642.25 5063.17,641.35 5069.63,640.41 5075.86,639.45 5081.88,638.45 5087.7,637.43 5093.35,636.37 5098.84,635.28 5104.2,634.15 5109.44,632.99 5114.59,631.8 5119.66,630.57 5124.68,629.31 5129.66,628.01 5134.63,626.68 5139.6,625.31 5144.6,623.9 5149.64,622.46 5154.74,620.97 5159.93,619.45 5165.22,617.89 5170.63,616.29 5177.76,614.23 5191.02,610.72 5204.67,607.42 5218.79,604.33 5233.41,601.45 5248.59,598.77 5264.38,596.29 5280.85,594.02 5298.03,591.94 5315.99,590.07 5334.76,588.39 5354.42,586.9 5375.01,585.6 5396.58,584.5 5419.18,583.58 5442.88,582.85 5467.71,582.31 5493.74,581.95 5521.01,581.77 5549.58,581.77 5579.51,581.94 5610.83,582.3 5643.62,582.83 5677.91,583.53 5709.77,584.27 5736.79,584.89 5763.72,585.49 5790.56,586.09 5817.3,586.67 5843.95,587.25 5870.5,587.81 5896.96,588.37 5923.33,588.91 5949.6,589.45 5975.78,589.97 6001.87,590.49 6027.87,590.99 6053.78,591.49 6079.59,591.97 6105.32,592.45 6130.96,592.91 6156.5,593.37 6181.96,593.82 6207.33,594.25 6232.61,594.68 6257.8,595.09 6282.91,595.5 6307.92,595.89 6332.85,596.28 6357.7,596.66 6382.45,597.02 6407.13,597.38 6431.71,597.73 6456.21,598.06 6480.63,598.39 6504.96,598.71 6529.21,599.01 6553.37,599.31 6577.45,599.6 6601.45,599.87 6625.36,600.14 6649.19,600.4 6672.94,600.64 6696.61,600.88 6720.2,601.11 6743.71,601.33 6767.14,601.54 6790.48,601.73 6813.75,601.92 6836.94,602.1 6860.05,602.27 6883.08,602.43 6906.03,602.58 6928.91,602.71 6951.71,602.84 6974.43,602.96 6997.07,603.07 7019.64,603.17 7042.13,603.26 7064.55,603.34 7086.89,603.41 7109.16,603.47 7131.35,603.52 7153.47,603.56 7175.52,603.59 7197.49,603.61 7219.39,603.62 7241.21,603.63 7262.97,603.62 7284.65,603.6 7306.26,603.57 7327.8,603.53 7349.27,603.49 7370.67,603.43 7392.0,603.36 7413.26,603.28 7434.45,603.2 7455.58,603.1 7476.63,602.99 7497.62,602.88 7518.53,602.75 7539.38,602.62 7560.17,602.47 7580.89,602.32 7601.54,602.15 7622.12,601.98 7642.64,601.79 7663.1,601.6 7683.49,601.39 7703.81,601.18 7724.08,600.96 7744.27,600.72 7764.41,600.48 7784.48,600.23 7804.49,599.97 7824.44,599.69 7844.33,599.41 7864.15,599.12 7883.92,598.82 7903.62,598.51 7923.26,598.19 7942.85,597.86 7962.37,597.52 7981.84,597.17 8001.24,596.81 8020.59,596.44 8039.88,596.06 8059.11,595.67 8078.29,595.28 8097.41,594.87 8116.47,594.45 8135.47,594.02 8154.42,593.59 8173.32,593.14 8192.16,592.68 8210.94,592.22 8229.67,591.74 8248.35,591.26 8266.97,590.76 8285.54,590.26 8304.06,589.74 8322.53,589.22 8340.94,588.69 8359.3,588.15 8377.61,587.59 8395.87,587.03 8414.08,586.46 8432.24,585.88 8450.35,585.29 8479.46,584.28 8516.48,583.14 8550.72,582.36 8582.34,581.93 8611.52,581.89 8638.43,582.25 8663.23,583.03 8686.11,584.24 8707.22,585.9 8726.75,588.03 8744.86,590.65 8761.71,593.77 8777.49,597.41 8792.36,601.59 8806.5,606.33 8820.07,611.64 8833.24,617.55 8846.19,624.06 8860.68,632.16 8880.95,645.34 8897.5,658.94 8911.2,673.97 8922.9,691.44 8933.36,711.71 8943.24,731.48 8953.13,751.26 8955.04,772.92 8955.09,795.03 8955.14,817.13 8955.19,839.24 8955.24,861.35 8955.29,883.45 8955.34,905.56 8955.39,927.66 8955.44,949.77 8955.49,971.88 8955.54,993.98 8955.59,1016.09 8955.64,1038.19 8955.69,1060.3 8955.74,1082.41 8955.79,1104.51 8955.84,1126.62 8955.89,1148.73 8955.95,1170.83 8956.0,1192.94 8956.05,1215.04 8956.1,1237.15 8956.15,1259.26 8956.2,1281.36 8956.25,1303.47 8956.3,1325.58 8956.35,1347.68 8956.4,1369.79 8956.45,1391.89 8956.5,1414.0 8956.55,1436.11 8956.6,1458.21 8956.65,1480.32 8956.7,1502.42 8956.75,1524.53 8956.8,1546.64 8956.85,1568.74 8956.9,1590.85 8956.95,1612.96 8957.0,1635.12 8957.12,1678.34 8957.22,1720.31 8957.32,1761.06 8957.39,1800.61 8957.46,1838.99 8957.51,1876.22 8957.54,1912.31 8957.56,1947.3 8957.57,1981.2 8957.56,2014.04 8957.54,2045.83 8957.5,2076.61 8957.44,2106.4 8957.37,2135.2 8957.29,2163.06 8957.18,2189.99 8957.06,2216.01 8956.93,2241.15 8956.77,2265.43 8956.6,2288.87 8956.42,2311.49 8956.21,2333.31 8955.99,2354.37 8955.74,2374.67 8955.48,2394.25 8955.21,2413.12 8954.91,2431.31 8954.59,2448.84 8954.26,2465.74 8953.9,2482.01 8953.53,2497.7 8953.14,2512.81 8952.72,2527.38 8952.29,2541.42 8951.84,2554.96 8951.36,2568.01 8950.86,2580.61 8950.35,2592.78 8949.81,2604.52 8949.25,2615.88 8948.67,2626.87 8948.06,2637.52 8947.44,2647.83 8946.79,2657.85 8946.12,2667.59 8945.43,2677.07 8944.71,2686.32 8943.93,2695.97 8942.13,2720.29 8940.51,2744.46 8939.07,2768.42 8937.82,2792.13 8936.75,2815.54 8935.87,2838.62 8935.18,2861.32 8934.68,2883.59 8934.37,2905.4 8934.26,2926.69 8934.35,2947.44 8934.64,2967.58 8935.12,2987.09 8935.82,3005.91 8937.56,3045.21 8938.83,3081.14 8939.12,3108.29 8938.27,3128.55 8936.09,3143.81 8932.41,3155.98 8927.08,3166.94 8919.9,3178.6 8909.53,3192.12 8896.53,3205.14 8881.19,3217.45 8863.68,3228.96 8844.18,3239.56 8822.84,3249.17 8799.85,3257.69 8775.38,3265.03 8749.94,3271.01 8745.1,3271.83 8738.63,3272.65 8730.56,3273.47 8720.92,3274.28 8709.73,3275.09 8697.02,3275.9 8682.83,3276.7 8667.18,3277.49 8650.1,3278.27 8631.62,3279.04 8611.76,3279.8 8590.56,3280.55 8568.05,3281.29 8544.25,3282.01 8519.19,3282.72 8492.9,3283.41 8465.42,3284.09 8436.76,3284.74 8406.95,3285.38 8376.04,3286.0 8344.03,3286.59 8310.97,3287.16 8276.88,3287.71 8241.8,3288.23 8205.74,3288.73 8175.35,3289.11 8153.25,3289.37 8131.14,3289.63 8109.04,3289.89 8086.93,3290.15 8064.83,3290.41 8042.72,3290.67 8020.62,3290.93 7998.51,3291.19 7976.41,3291.45 7954.3,3291.71 7932.2,3291.97 7910.09,3292.23 7887.99,3292.49 7865.89,3292.75 7843.78,3293.01 7821.68,3293.27 7799.57,3293.53 7777.47,3293.79 7755.36,3294.04 7733.26,3294.3 7711.15,3294.56 7689.05,3294.82 7667.71,3298.21 7648.02,3308.25 7628.33,3318.3 7612.3,3327.06 7598.46,3336.1 7586.06,3346.01 7574.98,3357.09 7565.07,3369.63 7556.22,3383.92 7548.29,3400.26 7541.14,3418.94 7534.65,3440.25 7528.69,3464.48 7523.12,3491.93 7517.81,3522.9 7512.64,3557.66 7508.73,3585.73 7505.96,3604.84 7502.95,3625.4 7499.75,3647.15 7496.39,3669.81 7492.9,3693.11 7489.33,3716.79 7485.7,3740.57 7482.05,3764.18 7478.42,3787.35 7474.84,3809.82 7471.34,3831.3 7467.96,3851.54 7464.28,3872.87 7460.21,3897.41 7456.5,3921.61 7453.15,3945.4 7450.18,3968.73 7447.57,3991.54 7445.35,4013.77 7443.5,4035.36 7442.04,4056.26 7440.97,4076.41 7440.29,4095.76 7440.01,4114.24 7439.8,4139.15 7439.0,4165.97 7437.67,4191.89 7435.9,4215.88 7433.76,4236.93 7431.33,4254.0 7428.3,4267.45 7420.59,4289.18 7410.53,4310.01 7398.39,4329.52 7384.48,4347.3 7369.08,4362.95 7352.48,4376.05 7334.96,4386.2 7327.4,4389.5 7322.93,4391.3 7318.42,4392.96 7313.63,4394.47 7308.36,4395.85 7302.37,4397.1 7295.45,4398.23 7287.38,4399.24 7277.92,4400.14 7266.86,4400.94 7253.98,4401.63 7239.05,4402.23 7221.85,4402.74 7202.17,4403.16 7179.76,4403.51 7154.42,4403.79 7125.92,4403.99 7094.04,4404.14 7058.56,4404.23 7019.25,4404.27 6975.89,4404.27 6928.25,4404.22 6876.13,4404.14 6819.29,4404.04 6780.25,4404.0 6752.22,4403.99 6725.37,4403.98 6699.63,4403.97 6674.94,4403.94 6651.22,4403.91 6628.41,4403.87 6606.44,4403.83 6585.23,4403.77 6564.72,4403.7 6544.84,4403.62 6525.51,4403.52 6506.67,4403.41 6488.25,4403.29 6470.18,4403.15 6452.38,4403.0 6434.79,4402.83 6417.33,4402.64 6399.95,4402.43 6382.56,4402.21 6365.1,4401.96 6347.51,4401.69 6329.69,4401.4 6311.6,4401.09 6293.16,4400.75 6274.3,4400.39 6254.94,4400.01 6235.03,4399.59 6214.48,4399.15 6193.24,4398.69 6171.22,4398.19 6148.37,4397.66 6124.6,4397.11 6099.86,4396.52 6074.07,4395.9 6047.16,4395.25 6019.06,4394.56 5989.7,4393.84 5959.01,4393.09 5926.92,4392.29 5885.95,4391.29 5843.0,4390.22 5802.95,4389.19 5765.66,4388.19 5730.99,4387.21 5698.82,4386.25 5669.0,4385.29 5641.4,4384.33 5615.87,4383.35 5592.28,4382.36 5570.5,4381.34 5550.39,4380.29 5531.81,4379.19 5514.63,4378.04 5498.7,4376.83 5483.89,4375.55 5470.07,4374.2 5457.1,4372.76 5444.83,4371.23 5433.14,4369.6 5421.88,4367.86 5410.93,4366.0 5400.13,4364.01 5389.37,4361.89 5370.35,4358.1 5345.46,4353.71 5320.31,4349.93 5295.07,4346.76 5269.94,4344.21 5245.07,4342.28 5220.65,4340.98 5196.85,4340.31 5173.86,4340.28 5151.84,4340.89 5130.98,4342.15 5111.46,4344.07 5093.44,4346.65 5077.1,4349.89 5062.63,4353.8 5048.91,4358.79 5035.26,4364.9 5021.83,4372.11 5008.54,4380.54 4995.3,4390.28 4982.01,4401.42 4968.6,4414.07 4954.97,4428.33 4941.03,4444.29 4926.69,4462.06 4911.87,4481.73 4896.47,4503.4 4880.41,4527.17 4863.59,4553.15 4845.93,4581.42 4830.77,4606.4 4820.76,4622.88 4809.68,4640.82 4797.76,4659.85 4785.25,4679.63 4772.38,4699.8 4759.37,4720.0 4746.46,4739.87 4733.89,4759.06 4721.88,4777.22 4710.68,4793.99 4695.61,4816.6 4680.57,4839.63 4666.3,4861.87 4653.28,4882.55 4641.96,4900.9 4632.82,4916.17 4626.3,4927.58 4614.15,4951.01 4598.98,4978.57 4583.72,5004.15 4568.37,5027.75 4552.95,5049.36 4537.45,5068.99 4521.86,5086.63 4506.2,5102.27 4490.47,5115.92 4474.66,5127.57 4458.77,5137.23 4442.82,5144.88 4426.79,5150.52 4410.69,5154.16 4394.53,5155.79 4378.3,5155.4 4362.0,5153.0"/></g>
</svg>
