<?xml version="1.0" standalone="no"?>
<!DOCTYPE svg PUBLIC "-//W3C//DTD SVG 20010904//EN"
 "http://www.w3.org/TR/2001/REC-SVG-20010904/DTD/svg10.dtd">
<svg version="1.0" xmlns="http://www.w3.org/2000/svg"
 width="1300.000000pt" height="592.000000pt" viewBox="0 0 1300.000000 592.000000"
 preserveAspectRatio="xMidYMid meet">
<metadata>
Created by potrace 1.15, written by Peter Selinger 2001-2017
</metadata>
<g transform="translate(0.000000,592.000000) scale(0.100000,-0.100000)"
fill="#000000" stroke="none">
<path d="M9850 4776 c-30 -8 -92 -22 -136 -32 l-81 -18 -107 27 c-177 45 -279
33 -388 -48 -89 -65 -137 -154 -169 -310 -25 -126 -104 -239 -234 -334 -90
-65 -83 -65 -705 -71 -556 -6 -566 -6 -629 -28 -35 -13 -86 -34 -112 -47 -90
-46 -116 -44 -234 14 l-104 52 -128 6 c-160 7 -251 -7 -342 -51 -115 -56 -147
-61 -323 -49 -145 10 -160 13 -238 47 -157 70 -317 69 -466 0 -75 -35 -85 -37
-209 -41 -139 -5 -179 1 -325 52 -49 17 -113 29 -185 35 -169 13 -156 3 -225
180 -67 169 -117 242 -195 283 -60 31 -237 30 -360 -2 -116 -30 -155 -25 -281
35 -211 100 -332 134 -473 134 -102 0 -187 -15 -276 -48 -27 -11 -77 -22 -110
-26 -70 -8 -131 -35 -166 -73 -14 -16 -46 -62 -72 -103 -25 -41 -74 -106 -108
-145 -56 -65 -86 -116 -152 -266 -34 -76 -89 -120 -260 -209 -192 -99 -244
-131 -367 -224 -144 -109 -181 -148 -228 -241 -65 -126 -82 -140 -222 -185
-51 -17 -110 -43 -131 -58 -40 -28 -92 -106 -115 -169 -21 -60 -18 -203 7
-276 43 -129 87 -184 233 -293 97 -72 93 -68 140 -129 111 -142 198 -203 328
-229 70 -15 534 -16 4782 -16 4513 0 4706 1 4759 18 71 24 99 48 183 159 126
167 174 293 174 455 0 97 -20 184 -57 248 -14 25 -37 64 -51 88 -34 59 -42 97
-52 247 -11 170 -35 365 -60 495 -11 58 -20 127 -20 155 -1 74 -16 129 -65
235 -24 52 -51 116 -60 141 -21 57 -48 89 -105 121 -74 43 -144 59 -230 52
-50 -4 -102 0 -155 10 -122 24 -179 21 -252 -13 -90 -43 -111 -43 -147 -5 -22
25 -57 117 -72 192 -9 45 18 112 57 137 40 26 56 54 38 66 -71 46 -412 82
-519 55z m-156 -396 c41 -15 74 -103 96 -260 10 -72 5 -96 -26 -127 -41 -42
-127 22 -153 112 -8 28 -15 93 -15 146 -1 82 2 100 18 118 21 23 41 26 80 11z
m-5247 -432 c38 -17 44 -28 25 -48 -27 -28 -58 -40 -101 -40 -59 0 -91 15 -91
43 0 46 103 73 167 45z m5485 -213 c14 -4 37 -18 50 -32 21 -22 23 -34 23
-116 -1 -68 -5 -101 -18 -125 -20 -36 -70 -72 -102 -72 -36 0 -86 39 -105 83
-29 68 -30 188 -2 225 19 25 88 53 112 47 8 -2 27 -7 42 -10z m-5534 -117 c18
-18 14 -74 -8 -118 -25 -50 -33 -54 -56 -29 -27 30 -26 123 1 143 24 19 47 20
63 4z m4576 2 c47 -17 177 -121 211 -168 47 -66 69 -146 55 -208 -15 -65 -38
-112 -58 -116 -10 -2 -56 9 -105 24 -48 15 -94 28 -102 28 -36 0 -124 50 -151
86 -26 33 -29 47 -33 121 -5 123 4 167 43 208 28 29 40 35 74 35 22 0 52 -4
66 -10z m-1017 -39 c7 -9 13 -37 13 -62 0 -42 -3 -47 -26 -53 -15 -4 -28 -6
-29 -4 -1 2 -10 17 -19 35 -19 37 -20 66 -5 94 12 23 45 18 66 -10z m-3587
-213 c0 -7 10 -23 23 -34 61 -58 88 -187 48 -230 -32 -35 -73 -47 -117 -35
-72 19 -153 107 -139 149 3 10 38 47 78 82 39 36 74 68 75 72 6 13 32 9 32 -4z
m2683 -100 c12 -6 48 -33 79 -59 32 -27 78 -60 102 -74 24 -14 47 -33 50 -42
15 -39 -69 -99 -169 -121 -33 -7 -210 -10 -525 -9 -541 2 -496 -5 -616 95 -64
53 -73 57 -124 58 -87 3 -94 4 -86 11 3 4 40 6 81 4 41 -1 75 2 75 7 0 16 96
42 190 51 110 11 203 -2 315 -44 43 -15 111 -30 175 -36 179 -19 280 13 355
110 25 32 54 56 73 60 2 1 13 -4 25 -11z"/>
<path d="M10910 4620 c-9 -17 -6 -25 14 -45 53 -53 136 -13 85 41 -29 31 -83
33 -99 4z"/>
</g>
</svg>
