<!DOCTYPE svg PUBLIC "-//W3C//DTD SVG 20010904//EN" "http://www.w3.org/TR/2001/REC-SVG-20010904/DTD/svg10.dtd">
<svg xmlns="http://www.w3.org/2000/svg" version="1.0" width="1300.000000pt" height="592.000000pt" viewBox="0 0 1300.000000 592.000000" preserveAspectRatio="xMidYMid meet">
<metadata>
Created by potrace 1.15, written by Peter Selinger 2001-2017
</metadata>
<g transform="translate(0.000000,592.000000) scale(0.100000,-0.100000)" fill="#000000" stroke="none">
<polygon points="9850.0,4776.0 9823.33,4769.29 9789.68,4761.31 9753.28,4752.94 9718.38,4745.0 9685.49,4737.66 9652.51,4730.34 9619.62,4729.38 9586.86,4737.64 9554.1,4745.91 9519.77,4754.57 9477.63,4764.25 9438.26,4771.53 9401.39,4776.36 9366.73,4778.71 9334.01,4778.54 9302.95,4775.8 9273.25,4770.45 9244.65,4762.45 9216.85,4751.76 9189.59,4738.34 9162.57,4722.15 9135.73,4703.33 9112.06,4684.35 9090.4,4663.89 9070.63,4641.74 9052.62,4617.69 9036.25,4591.53 9021.41,4563.05 9007.96,4532.04 8995.79,4498.3 8984.78,4461.6 8974.8,4421.75 8966.6,4383.67 8958.69,4353.54 8948.67,4323.95 8936.55,4294.9 8922.35,4266.42 8906.06,4238.51 8887.71,4211.2 8867.3,4184.51 8844.83,4158.44 8820.33,4133.02 8793.8,4108.25 8765.24,4084.16 8734.87,4060.9 8722.75,4052.17 8711.47,4044.25 8700.56,4037.11 8689.58,4030.69 8678.06,4024.96 8665.57,4019.87 8651.64,4015.37 8635.82,4011.43 8617.67,4007.99 8596.73,4005.02 8572.54,4002.47 8544.65,4000.28 8512.62,3998.44 8475.98,3996.87 8434.29,3995.55 8387.1,3994.43 8333.94,3993.45 8274.38,3992.59 8207.95,3991.8 8134.2,3991.02 8052.68,3990.22 7966.62,3989.32 7888.52,3988.46 7818.85,3987.66 7757.05,3986.89 7702.57,3986.14 7654.87,3985.36 7613.4,3984.54 7577.59,3983.64 7546.9,3982.65 7520.79,3981.54 7498.69,3980.28 7480.06,3978.85 7464.35,3977.22 7451.0,3975.37 7439.46,3973.26 7429.19,3970.87 7419.63,3968.19 7410.24,3965.18 7399.4,3961.41 7367.13,3948.91 7333.0,3934.87 7302.32,3921.37 7272.93,3906.98 7241.89,3893.4 7214.52,3885.29 7188.47,3882.78 7161.4,3885.98 7130.98,3895.03 7094.87,3910.03 7052.33,3930.33 7022.12,3945.44 6991.9,3960.55 6961.68,3975.66 6929.18,3982.02 6895.43,3983.6 6861.68,3985.19 6827.94,3986.77 6784.78,3988.3 6743.28,3988.69 6704.96,3987.81 6669.43,3985.62 6636.33,3982.07 6605.28,3977.1 6575.9,3970.67 6547.84,3962.74 6520.71,3953.24 6494.13,3942.14 6464.02,3927.82 6433.35,3913.81 6405.69,3902.63 6379.58,3894.07 6353.62,3887.92 6326.37,3883.97 6296.41,3881.99 6262.31,3881.78 6222.65,3883.12 6176.0,3885.8 6121.7,3889.57 6076.63,3893.22 6041.39,3897.05 6012.93,3901.69 5988.2,3907.72 5964.15,3915.75 5937.71,3926.37 5906.18,3939.97 5873.05,3952.79 5839.86,3963.52 5806.66,3972.17 5773.47,3978.73 5740.32,3983.23 5707.23,3985.65 5674.25,3986.02 5641.39,3984.33 5608.69,3980.6 5576.17,3974.82 5543.86,3967.01 5511.8,3957.17 5480.01,3945.31 5447.99,3931.2 5418.06,3917.8 5392.86,3908.32 5368.25,3901.95 5340.09,3897.87 5304.23,3895.29 5256.54,3893.38 5213.06,3892.02 5177.47,3891.57 5145.7,3892.19 5116.45,3894.09 5088.44,3897.49 5060.36,3902.6 5030.93,3909.64 4998.84,3918.82 4962.81,3930.36 4921.53,3944.47 4893.29,3953.36 4863.02,3961.04 4830.34,3967.7 4795.49,3973.29 4758.71,3977.78 4715.87,3981.44 4672.8,3984.79 4639.06,3988.59 4612.89,3994.27 4592.49,4003.23 4576.11,4016.89 4561.96,4036.66 4548.27,4063.96 4533.25,4100.19 4515.14,4146.77 4495.68,4195.26 4477.33,4237.63 4459.5,4275.27 4441.96,4308.53 4424.45,4337.73 4406.75,4363.23 4388.61,4385.37 4369.79,4404.48 4350.05,4420.92 4329.15,4435.02 4308.66,4445.98 4287.15,4453.18 4260.74,4458.74 4230.22,4462.67 4196.42,4464.96 4160.14,4465.63 4122.22,4464.68 4083.45,4462.11 4044.66,4457.93 4006.66,4452.14 3970.27,4444.75 3933.37,4435.61 3898.78,4428.3 3867.98,4424.08 3839.47,4423.14 3811.72,4425.66 3783.21,4431.84 3752.43,4441.85 3717.85,4455.88 3677.96,4474.12 3635.83,4493.82 3596.04,4511.72 3558.35,4527.91 3522.56,4542.43 3488.46,4555.36 3455.84,4566.74 3424.49,4576.65 3394.21,4585.14 3364.78,4592.27 3336.01,4598.11 3307.67,4602.71 3279.56,4606.14 3251.47,4608.45 3223.19,4609.71 3192.81,4609.97 3157.11,4609.02 3122.61,4606.74 3089.09,4603.1 3056.34,4598.06 3024.14,4591.6 2992.28,4583.68 2960.52,4574.27 2928.67,4563.35 2899.53,4553.41 2864.74,4544.69 2829.68,4538.06 2794.84,4533.13 2758.71,4524.99 2725.32,4513.49 2695.31,4498.94 2669.3,4481.61 2648.34,4462.24 2633.26,4442.9 2613.34,4414.88 2591.36,4382.24 2572.03,4352.02 2554.43,4325.63 2533.84,4296.82 2511.79,4267.56 2489.8,4239.78 2469.39,4215.45 2451.76,4194.38 2435.54,4173.45 2420.22,4151.75 2405.32,4128.4 2390.34,4102.49 2374.79,4073.12 2358.17,4039.4 2340.0,4000.43 2319.78,3955.31 2307.65,3929.95 2295.27,3909.47 2280.62,3890.04 2263.11,3871.2 2242.21,3852.5 2217.36,3833.49 2187.98,3813.72 2153.54,3792.74 2113.46,3770.09 2067.2,3745.33 2022.59,3722.19 1983.57,3701.77 1948.62,3683.17 1917.14,3666.0 1888.5,3649.89 1862.1,3634.48 1837.32,3619.39 1813.56,3604.26 1790.21,3588.72 1766.64,3572.38 1742.27,3554.89 1716.46,3535.87 1687.93,3514.43 1647.86,3483.7 1613.56,3456.43 1584.29,3431.86 1559.35,3409.23 1538.01,3387.79 1519.57,3366.77 1503.3,3345.42 1488.48,3322.97 1474.41,3298.67 1459.53,3270.22 1439.63,3232.88 1421.72,3202.58 1404.39,3178.15 1386.2,3158.37 1365.72,3142.05 1341.52,3128.01 1312.17,3115.04 1276.24,3101.94 1234.15,3088.02 1197.33,3074.45 1162.03,3059.71 1131.84,3045.35 1110.36,3032.95 1090.46,3016.37 1069.25,2993.1 1048.16,2965.06 1028.28,2933.98 1010.68,2901.53 996.43,2869.44 988.62,2843.57 983.7,2813.8 980.86,2779.66 980.06,2742.76 981.29,2704.74 984.52,2667.23 989.74,2631.84 996.92,2600.2 1007.02,2569.46 1018.7,2538.53 1031.07,2510.25 1044.54,2484.1 1059.53,2459.55 1076.46,2436.06 1095.75,2413.12 1117.81,2390.18 1143.06,2366.72 1171.93,2342.22 1204.82,2316.13 1244.29,2286.37 1283.73,2256.96 1310.36,2236.13 1329.19,2219.23 1345.22,2201.62 1363.47,2178.67 1388.65,2146.56 1415.2,2114.8 1441.11,2086.11 1466.62,2060.32 1491.95,2037.29 1517.31,2016.85 1542.95,1998.85 1569.08,1983.14 1595.92,1969.57 1623.71,1957.98 1652.67,1948.22 1683.01,1940.12 1702.6,1935.87 1704.19,1935.56 1705.92,1935.25 1707.77,1934.94 1709.77,1934.64 1711.92,1934.34 1714.22,1934.05 1716.69,1933.76 1719.33,1933.48 1722.15,1933.19 1725.15,1932.92 1728.35,1932.64 1731.74,1932.37 1735.34,1932.11 1739.16,1931.84 1743.2,1931.58 1747.46,1931.33 1751.97,1931.08 1756.71,1930.83 1761.7,1930.59 1766.96,1930.35 1772.47,1930.11 1778.26,1929.88 1784.32,1929.65 1790.68,1929.42 1797.32,1929.2 1804.27,1928.98 1811.52,1928.77 1819.08,1928.56 1826.97,1928.35 1835.19,1928.14 1843.74,1927.94 1852.64,1927.74 1861.88,1927.55 1871.49,1927.36 1881.45,1927.17 1891.79,1926.98 1902.51,1926.8 1913.62,1926.62 1925.12,1926.45 1937.02,1926.28 1949.32,1926.11 1962.05,1925.94 1975.19,1925.78 1988.76,1925.62 2002.77,1925.46 2017.22,1925.3 2032.13,1925.15 2047.49,1925.0 2063.32,1924.86 2079.61,1924.72 2096.39,1924.58 2113.66,1924.44 2131.42,1924.3 2149.68,1924.17 2168.44,1924.04 2187.73,1923.92 2207.53,1923.79 2227.87,1923.67 2248.74,1923.55 2270.15,1923.44 2292.12,1923.32 2314.64,1923.21 2337.73,1923.1 2361.4,1923.0 2385.64,1922.89 2410.47,1922.79 2435.89,1922.69 2461.92,1922.6 2488.55,1922.5 2515.8,1922.41 2543.67,1922.32 2572.18,1922.23 2601.31,1922.15 2631.1,1922.06 2661.53,1921.98 2692.63,1921.9 2724.39,1921.83 2756.82,1921.75 2789.93,1921.68 2823.73,1921.61 2858.23,1921.54 2893.42,1921.47 2929.33,1921.41 2965.95,1921.34 3003.29,1921.28 3041.37,1921.22 3080.18,1921.17 3119.74,1921.11 3160.05,1921.06 3201.12,1921.01 3242.95,1920.95 3285.56,1920.91 3328.95,1920.86 3373.12,1920.81 3418.09,1920.77 3463.87,1920.73 3510.45,1920.69 3557.85,1920.65 3606.07,1920.61 3655.13,1920.57 3705.02,1920.54 3755.75,1920.5 3807.34,1920.47 3859.79,1920.44 3913.1,1920.41 3967.29,1920.38 4022.36,1920.36 4078.32,1920.33 4135.17,1920.31 4192.93,1920.28 4251.59,1920.26 4311.18,1920.24 4371.68,1920.22 4433.12,1920.2 4495.5,1920.18 4558.82,1920.17 4623.09,1920.15 4688.32,1920.14 4754.53,1920.12 4821.7,1920.11 4889.86,1920.1 4959.0,1920.09 5029.14,1920.08 5100.29,1920.07 5172.44,1920.06 5245.61,1920.05 5319.81,1920.04 5395.03,1920.04 5471.3,1920.03 5548.61,1920.02 5626.97,1920.02 5706.4,1920.02 5786.89,1920.01 5868.46,1920.01 5951.11,1920.01 6034.84,1920.0 6119.68,1920.0 6205.61,1920.0 6292.66,1920.0 6380.83,1920.0 6470.12,1920.0 6564.8,1920.0 6659.15,1920.0 6752.22,1920.0 6844.0,1920.0 6934.51,1920.0 7023.76,1920.01 7111.76,1920.01 7198.51,1920.01 7284.02,1920.02 7368.31,1920.02 7451.38,1920.02 7533.25,1920.03 7613.91,1920.04 7693.38,1920.04 7771.67,1920.05 7848.79,1920.06 7924.74,1920.07 7999.54,1920.08 8073.2,1920.09 8145.71,1920.1 8217.1,1920.11 8287.37,1920.13 8356.53,1920.14 8424.59,1920.16 8491.55,1920.18 8557.44,1920.19 8622.25,1920.21 8685.99,1920.23 8748.68,1920.25 8810.32,1920.28 8870.92,1920.3 8930.49,1920.33 8989.05,1920.35 9046.59,1920.38 9103.13,1920.41 9158.67,1920.44 9213.23,1920.47 9266.82,1920.51 9319.44,1920.54 9371.1,1920.58 9421.81,1920.62 9471.59,1920.66 9520.43,1920.7 9568.35,1920.74 9615.36,1920.79 9661.46,1920.83 9706.67,1920.88 9751.0,1920.93 9794.45,1920.99 9837.02,1921.04 9878.75,1921.1 9919.62,1921.15 9959.65,1921.21 9998.84,1921.28 10037.22,1921.34 10074.78,1921.41 10111.54,1921.47 10147.5,1921.54 10182.67,1921.62 10217.06,1921.69 10250.69,1921.77 10283.55,1921.85 10315.67,1921.93 10347.04,1922.01 10377.68,1922.1 10407.59,1922.19 10436.79,1922.28 10465.29,1922.37 10493.08,1922.47 10520.19,1922.57 10546.61,1922.67 10572.37,1922.77 10597.47,1922.88 10621.91,1922.98 10645.71,1923.1 10668.87,1923.21 10691.41,1923.33 10713.33,1923.45 10734.65,1923.57 10755.36,1923.69 10775.49,1923.82 10795.03,1923.95 10814.01,1924.09 10832.42,1924.22 10850.27,1924.36 10867.58,1924.51 10884.36,1924.65 10900.61,1924.8 10916.34,1924.96 10931.56,1925.11 10946.28,1925.27 10960.51,1925.43 10974.26,1925.6 10987.53,1925.76 11000.34,1925.94 11012.7,1926.11 11024.61,1926.29 11036.08,1926.47 11047.12,1926.66 11057.75,1926.85 11067.96,1927.04 11077.77,1927.23 11087.19,1927.43 11096.23,1927.64 11104.89,1927.84 11113.19,1928.05 11121.13,1928.27 11128.72,1928.49 11135.97,1928.71 11142.9,1928.93 11149.5,1929.16 11155.79,1929.4 11161.78,1929.63 11167.48,1929.87 11172.89,1930.12 11178.02,1930.37 11182.89,1930.62 11187.5,1930.88 11191.86,1931.14 11195.98,1931.41 11199.87,1931.67 11203.54,1931.95 11206.99,1932.23 11210.24,1932.51 11213.29,1932.79 11216.16,1933.09 11218.86,1933.38 11221.38,1933.68 11223.74,1933.98 11225.96,1934.29 11228.03,1934.61 11229.97,1934.92 11231.79,1935.24 11233.49,1935.57 11235.09,1935.9 11236.59,1936.24 11238.0,1936.58 11239.34,1936.92 11240.6,1937.27 11241.81,1937.63 11242.96,1937.99 11269.03,1947.68 11292.77,1959.0 11314.66,1972.93 11336.23,1990.8 11358.99,2013.95 11384.45,2043.71 11414.12,2081.4 11442.09,2118.69 11465.35,2151.54 11486.54,2183.5 11505.72,2214.7 11522.94,2245.29 11538.26,2275.42 11551.73,2305.23 11563.43,2334.87 11573.39,2364.49 11581.68,2394.21 11588.35,2424.21 11593.46,2454.61 11597.07,2485.56 11599.23,2517.21 11600.0,2549.7 11599.11,2587.08 11596.19,2623.62 11591.29,2658.79 11584.43,2692.41 11575.67,2724.29 11565.03,2754.28 11552.57,2782.18 11538.33,2808.27 11521.0,2838.35 11502.92,2869.32 11488.01,2895.04 11476.56,2917.38 11467.34,2939.93 11459.95,2964.54 11454.01,2993.06 11449.13,3027.36 11444.91,3069.27 11440.97,3120.67 11438.22,3161.21 11435.55,3196.47 11432.57,3232.12 11429.29,3268.0 11425.74,3303.94 11421.93,3339.77 11417.9,3375.32 11413.66,3410.43 11409.23,3444.93 11404.65,3478.64 11399.92,3511.41 11395.08,3543.06 11390.14,3573.43 11385.13,3602.35 11380.07,3629.65 11373.31,3668.07 11367.5,3706.63 11363.09,3742.01 11360.5,3771.09 11359.75,3795.75 11357.85,3824.84 11353.95,3853.27 11347.73,3882.1 11338.88,3912.44 11327.09,3945.37 11312.05,3981.98 11293.78,4022.64 11277.69,4058.37 11262.17,4094.06 11248.58,4126.45 11238.27,4152.25 11227.75,4179.09 11212.49,4208.4 11193.79,4233.39 11170.39,4255.34 11141.05,4275.57 11109.01,4293.53 11078.05,4307.97 11047.01,4319.31 11015.56,4327.62 10983.34,4332.96 10950.04,4335.4 10915.3,4335.01 10881.23,4332.87 10848.13,4332.62 10814.56,4334.43 10780.59,4338.19 10746.27,4343.76 10701.7,4351.8 10662.29,4357.1 10627.44,4359.51 10596.05,4358.98 10567.01,4355.44 10539.25,4348.84 10511.66,4339.14 10474.89,4322.51 10431.94,4304.93 10400.84,4298.19 10377.06,4302.01 10356.02,4316.12 10339.89,4334.14 10327.41,4356.34 10314.18,4385.91 10301.07,4420.64 10288.94,4458.31 10278.67,4496.72 10272.4,4531.21 10275.33,4564.45 10286.33,4598.29 10303.94,4628.79 10326.66,4652.01 10361.64,4679.92 10376.31,4706.66 10365.61,4723.07 10347.32,4731.71 10323.37,4739.99 10294.55,4747.84 10261.65,4755.18 10225.46,4761.91 10186.8,4767.96 10146.44,4773.24 10105.18,4777.67 10063.83,4781.17 10023.16,4783.65 9983.99,4785.02 9947.1,4785.21 9913.29,4784.13 9883.36,4781.7 9858.09,4777.83 9702.99,4375.46 9716.78,4363.24 9729.85,4344.93 9742.17,4320.58 9753.71,4290.22 9764.43,4253.91 9774.31,4211.67 9783.32,4163.54 9791.28,4110.37 9794.65,4067.5 9791.27,4036.4 9780.13,4012.02 9760.92,3990.11 9738.38,3980.19 9712.1,3983.3 9684.39,3997.69 9657.53,4021.62 9633.83,4053.33 9615.57,4091.08 9607.45,4120.1 9602.62,4150.43 9598.83,4186.56 9596.51,4224.93 9595.84,4270.5 9596.91,4317.89 9601.32,4346.47 9610.22,4364.41 9631.08,4383.23 9659.53,4389.02 4452.45,3945.5 4481.53,3923.7 4471.28,3899.25 4445.45,3878.42 4416.08,3865.65 4381.86,3860.27 4336.43,3862.1 4301.45,3871.95 4282.9,3889.53 4281.66,3912.97 4297.08,3933.37 4324.95,3948.6 4360.67,3957.52 4399.66,3958.95 4437.33,3951.72 9952.25,3725.84 9980.81,3704.25 9994.92,3686.28 10002.08,3663.51 10004.7,3625.41 10004.65,3569.36 10002.52,3526.53 9998.23,3494.57 9991.09,3470.57 9976.18,3445.98 9950.47,3420.11 9920.54,3400.32 9891.55,3390.46 9864.39,3393.62 9835.31,3408.29 9807.99,3431.59 9786.21,3460.64 9772.95,3492.23 9764.22,3527.75 9759.1,3565.88 9757.63,3604.08 9759.8,3639.83 9765.65,3670.6 9775.2,3693.86 9795.31,3713.53 9828.98,3731.79 9864.71,3743.63 9891.31,3744.67 9924.24,3736.64 4406.6,3601.6 4409.09,3570.23 4402.6,3532.78 4386.26,3492.63 4363.66,3458.9 4343.54,3461.69 4324.44,3486.6 4315.64,3521.48 4314.91,3560.53 4322.12,3594.82 4339.04,3617.04 4372.07,3629.19 8974.88,3619.68 8996.27,3609.21 9023.2,3592.4 9053.6,3570.92 9085.4,3546.43 9116.53,3520.6 9144.92,3495.1 9168.5,3471.59 9185.33,3451.54 9205.02,3420.4 9220.98,3387.99 9232.96,3355.0 9240.73,3322.11 9244.06,3290.01 9242.7,3259.39 9234.32,3221.61 9220.51,3180.23 9205.19,3149.33 9189.44,3131.34 9174.46,3128.01 9146.98,3132.97 9107.56,3143.05 9062.42,3156.51 9020.12,3169.06 8988.3,3177.56 8970.98,3180.19 8943.88,3186.94 8911.01,3201.45 8877.07,3221.06 8846.79,3243.09 8824.86,3264.87 8808.49,3288.33 8798.92,3312.37 8793.81,3345.34 8790.68,3395.27 8789.75,3445.34 8791.22,3486.03 8795.46,3519.04 8802.81,3546.03 8813.62,3568.69 8828.25,3588.68 8853.6,3613.53 8879.55,3627.27 8912.95,3629.94 8949.45,3626.39 7958.75,3578.33 7967.58,3548.18 7969.8,3504.03 7961.83,3473.84 7930.1,3462.75 7911.36,3468.44 7891.78,3505.75 7881.39,3540.23 7883.14,3571.15 7896.95,3598.81 7924.97,3604.22 7955.76,3582.61 4384.61,3342.19 4409.63,3315.43 4429.37,3284.48 4444.59,3249.77 4454.83,3213.57 4459.61,3178.17 4458.43,3145.86 4450.83,3118.91 4434.0,3096.85 4406.23,3076.71 4375.58,3066.16 4342.7,3065.32 4308.69,3074.0 4275.03,3091.11 4243.48,3114.46 4216.36,3141.45 4196.04,3169.5 4184.85,3196.01 4185.06,3218.18 4195.8,3233.74 4219.18,3258.95 4250.94,3289.25 4287.11,3322.25 4317.79,3350.88 4335.73,3368.82 4355.18,3379.87 7058.55,3264.82 7082.56,3248.1 7113.91,3223.84 7143.91,3199.18 7173.29,3176.45 7202.71,3155.3 7228.01,3138.6 7258.84,3118.49 7281.98,3096.81 7285.39,3078.88 7276.55,3058.58 7257.15,3037.55 7228.92,3017.01 7193.56,2998.19 7152.82,2982.32 7114.04,2971.81 7105.37,2970.52 7093.14,2969.33 7077.35,2968.24 7058.02,2967.25 7035.15,2966.36 7008.76,2965.57 6978.86,2964.88 6945.45,2964.29 6908.54,2963.8 6868.15,2963.41 6824.28,2963.11 6776.94,2962.92 6726.14,2962.82 6671.9,2962.83 6614.22,2962.93 6540.7,2963.17 6465.52,2963.38 6399.03,2963.61 6340.58,2963.96 6289.51,2964.52 6245.17,2965.39 6206.89,2966.69 6174.02,2968.5 6145.9,2970.94 6121.88,2974.1 6101.28,2978.09 6083.47,2983.0 6067.78,2988.95 6053.54,2996.02 6040.12,3004.32 6026.84,3013.96 6013.04,3025.03 5998.08,3037.64 5981.3,3051.88 5949.4,3078.05 5919.13,3099.97 5894.96,3111.13 5868.92,3115.3 5815.53,3117.26 5770.58,3120.11 5761.79,3124.57 5773.0,3129.72 5807.75,3131.76 5856.97,3130.82 5901.14,3132.57 5919.97,3137.75 5927.17,3146.47 5948.02,3156.2 5979.73,3166.12 6019.47,3175.44 6064.42,3183.38 6111.27,3189.13 6145.43,3191.74 6178.71,3192.72 6211.38,3192.03 6243.69,3189.65 6275.88,3185.53 6308.2,3179.64 6340.92,3171.95 6374.28,3162.42 6408.53,3151.02 6438.63,3140.51 6467.8,3132.22 6500.53,3124.49 6535.64,3117.68 6571.96,3112.15 6610.61,3107.92 6654.51,3104.69 6695.17,3103.8 6732.78,3105.31 6767.54,3109.29 6799.67,3115.78 6829.36,3124.83 6856.8,3136.5 6882.21,3150.85 6905.78,3167.93 6927.72,3187.8 6948.22,3210.5 6972.77,3239.72 7000.03,3264.43 7024.19,3277.97 7053.0,3268.0"/><path d="M10910 4620 c-9 -17 -6 -25 14 -45 53 -53 136 -13 85 41 -29 31 -83 33 -99 4z"/>
</g>
</svg>
