<?xml version="1.0" standalone="no"?>
<!DOCTYPE svg PUBLIC "-//W3C//DTD SVG 20010904//EN"
 "http://www.w3.org/TR/2001/REC-SVG-20010904/DTD/svg10.dtd">
<svg version="1.0" xmlns="http://www.w3.org/2000/svg"
 width="1500.000000pt" height="1500.000000pt" viewBox="0 0 1500.000000 1500.000000"
 preserveAspectRatio="xMidYMid meet">
<metadata>
Created by potrace 1.15, written by Peter Selinger 2001-2017
</metadata>
<g transform="translate(0.000000,1500.000000) scale(0.100000,-0.100000)"
fill="#000000" stroke="none">
<path d="M2705 8420 c-72 -10 -213 -54 -276 -85 -66 -34 -116 -95 -170 -209
-79 -168 -84 -194 -84 -411 1 -143 5 -213 19 -282 11 -53 16 -107 12 -126 -21
-113 -183 -207 -357 -207 -91 0 -173 -19 -367 -84 -115 -39 -202 -76 -292
-125 -219 -120 -475 -273 -557 -333 -29 -21 -55 -38 -58 -38 -17 0 -149 -97
-169 -124 -80 -106 -76 -208 11 -323 37 -49 142 -126 453 -336 110 -75 228
-140 285 -158 29 -9 180 -14 545 -19 l505 -6 115 -34 115 -33 705 -7 c614 -6
713 -9 770 -24 36 -9 115 -26 175 -37 107 -19 138 -20 1290 -14 1448 8 1689 8
1975 4 l225 -4 140 35 140 35 1095 0 1095 0 120 -34 c149 -43 252 -46 390 -12
138 34 243 51 320 51 64 0 128 13 275 56 31 9 124 19 215 24 199 11 219 14
460 80 17 5 65 18 108 29 44 12 111 32 150 45 40 13 119 38 177 56 117 36 321
103 450 149 47 16 131 39 188 51 158 33 357 105 434 158 24 16 100 86 168 154
69 68 150 144 180 168 101 81 395 379 429 434 80 132 131 345 131 543 0 134
-15 220 -47 271 -39 62 -211 268 -265 316 -69 63 -114 96 -323 232 -184 121
-207 132 -294 145 -77 11 -162 -2 -281 -43 -128 -45 -215 -65 -325 -78 -55 -6
-145 -24 -200 -40 -74 -21 -140 -31 -252 -39 -157 -11 -228 -28 -323 -77 -89
-46 -185 -74 -287 -85 -56 -6 -151 -24 -210 -41 -107 -30 -110 -31 -438 -38
-320 -7 -333 -8 -420 -35 -49 -15 -115 -31 -145 -35 -30 -5 -307 -10 -615 -11
-308 -1 -688 -5 -845 -10 -260 -7 -294 -10 -390 -35 -88 -22 -127 -27 -240
-27 -92 0 -157 5 -203 17 -86 20 -187 21 -257 0 -45 -13 -138 -17 -505 -24
l-450 -7 -120 -34 -120 -34 -1315 0 c-1406 0 -1340 -2 -1412 47 -16 11 -60 65
-99 121 -39 56 -87 125 -108 154 -36 49 -51 88 -81 206 -19 71 -59 120 -127
153 l-58 29 -360 2 c-198 0 -387 -3 -420 -7z"/>
</g>
</svg>
