<!DOCTYPE svg PUBLIC "-//W3C//DTD SVG 20010904//EN" "http://www.w3.org/TR/2001/REC-SVG-20010904/DTD/svg10.dtd">
<svg xmlns="http://www.w3.org/2000/svg" version="1.0" width="1500.000000pt" height="1500.000000pt" viewBox="0 0 1500.000000 1500.000000" preserveAspectRatio="xMidYMid meet">
<metadata>
Created by potrace 1.15, written by Peter Selinger 2001-2017
</metadata>
<g transform="translate(0.000000,1500.000000) scale(0.100000,-0.100000)" fill="#000000" stroke="none">
<polygon points="2705.0,8420.0 2680.16,8415.77 2651.76,8409.61 2620.84,8401.85 2588.41,8392.82 2555.52,8382.84 2523.17,8372.25 2492.4,8361.37 2464.24,8350.53 2439.71,8340.06 2418.29,8329.16 2397.4,8315.75 2377.45,8300.01 2358.27,8281.75 2339.71,8260.75 2321.58,8236.8 2303.74,8209.67 2286.02,8179.17 2268.24,8145.07 2251.05,8109.04 2236.25,8076.87 2223.49,8047.97 2212.63,8021.63 2203.51,7997.09 2196.0,7973.64 2189.92,7950.53 2185.13,7927.03 2181.49,7902.42 2178.83,7875.95 2177.0,7846.89 2175.86,7814.52 2175.25,7778.09 2175.02,7736.88 2175.2,7691.84 2175.76,7650.53 2176.61,7613.48 2177.8,7580.15 2179.39,7549.99 2181.41,7522.48 2183.94,7497.06 2187.01,7473.21 2190.69,7450.39 2195.7,7424.53 2202.05,7387.07 2206.02,7352.9 2207.37,7324.99 2205.78,7305.82 2199.27,7282.78 2189.01,7260.43 2175.24,7238.93 2158.23,7218.42 2138.23,7199.04 2115.49,7180.96 2090.26,7164.3 2062.79,7149.23 2033.35,7135.89 2002.18,7124.43 1969.54,7114.98 1935.68,7107.71 1900.86,7102.76 1865.32,7100.27 1837.05,7099.89 1815.21,7099.07 1793.13,7097.37 1770.44,7094.72 1746.75,7091.04 1721.68,7086.23 1694.87,7080.21 1665.92,7072.89 1634.46,7064.2 1600.11,7054.05 1562.49,7042.35 1521.23,7029.01 1477.76,7014.56 1445.65,7003.41 1414.9,6992.28 1385.34,6981.11 1356.8,6969.81 1329.14,6958.32 1302.18,6946.57 1275.76,6934.47 1249.71,6921.95 1223.88,6908.95 1198.09,6895.38 1168.72,6879.3 1137.42,6861.95 1105.84,6844.3 1074.13,6826.42 1042.41,6808.39 1010.81,6790.3 979.47,6772.21 948.52,6754.2 918.08,6736.36 888.29,6718.77 859.28,6701.49 831.17,6684.61 804.1,6668.21 778.21,6652.37 753.61,6637.15 730.45,6622.65 708.85,6608.94 688.94,6596.09 670.86,6584.19 654.73,6573.31 640.69,6563.54 619.11,6548.08 588.25,6527.26 574.26,6519.95 559.25,6513.41 534.32,6498.01 503.57,6476.79 471.13,6452.77 441.11,6428.97 417.6,6408.41 402.49,6391.27 384.29,6363.92 369.85,6336.67 359.15,6309.46 352.2,6282.22 348.99,6254.88 349.52,6227.38 353.77,6199.66 361.76,6171.64 373.48,6143.26 388.91,6114.47 408.06,6085.18 420.74,6068.24 428.09,6059.73 436.84,6050.57 447.1,6040.66 459.02,6029.91 472.72,6018.23 488.32,6005.5 505.97,5991.64 525.78,5976.54 547.9,5960.1 572.44,5942.24 599.53,5922.83 629.32,5901.8 661.92,5879.04 697.46,5854.45 736.09,5827.94 777.92,5799.4 823.08,5768.73 871.04,5736.29 901.98,5715.62 932.98,5695.66 963.72,5676.58 993.86,5658.58 1023.06,5641.82 1050.99,5626.49 1077.31,5612.77 1101.68,5600.83 1123.78,5590.87 1143.26,5583.05 1156.62,5578.54 1163.36,5577.09 1172.5,5575.71 1184.15,5574.4 1198.4,5573.14 1215.34,5571.95 1235.07,5570.8 1257.69,5569.71 1283.29,5568.66 1311.97,5567.65 1343.82,5566.67 1378.94,5565.73 1417.44,5564.82 1459.39,5563.92 1504.9,5563.05 1554.07,5562.19 1606.98,5561.35 1663.74,5560.51 1712.03,5559.86 1742.48,5559.5 1772.94,5559.13 1803.4,5558.77 1833.85,5558.41 1864.31,5558.05 1894.77,5557.69 1925.22,5557.32 1955.68,5556.96 1986.14,5556.6 2016.59,5556.24 2047.05,5555.88 2077.51,5555.51 2107.96,5555.15 2138.42,5554.79 2168.88,5554.43 2199.33,5554.07 2228.77,5546.97 2257.98,5538.34 2287.19,5529.7 2316.4,5521.06 2345.67,5512.63 2374.95,5504.23 2404.22,5495.83 2433.5,5487.43 2463.9,5486.71 2494.36,5486.41 2524.81,5486.11 2555.27,5485.81 2585.73,5485.5 2616.18,5485.2 2646.64,5484.9 2677.1,5484.6 2707.56,5484.29 2738.01,5483.99 2768.47,5483.69 2798.93,5483.39 2829.39,5483.08 2859.84,5482.78 2890.3,5482.48 2920.76,5482.18 2951.21,5481.87 2981.67,5481.57 3012.13,5481.27 3042.59,5480.97 3073.04,5480.66 3103.5,5480.36 3133.96,5480.06 3196.79,5479.44 3263.44,5478.76 3325.58,5478.1 3383.38,5477.45 3437.03,5476.81 3486.7,5476.17 3532.56,5475.52 3574.78,5474.87 3613.56,5474.2 3649.04,5473.51 3681.43,5472.79 3710.87,5472.04 3737.57,5471.26 3761.68,5470.43 3783.38,5469.55 3802.85,5468.62 3820.26,5467.63 3835.79,5466.58 3849.61,5465.45 3861.9,5464.25 3872.83,5462.96 3882.58,5461.59 3891.32,5460.13 3899.23,5458.56 3906.48,5456.9 3919.81,5453.6 3944.61,5447.85 3974.16,5441.32 4006.63,5434.44 4040.16,5427.61 4072.94,5421.24 4089.61,5418.19 4096.96,5416.91 4104.21,5415.69 4111.46,5414.53 4118.79,5413.42 4126.3,5412.37 4134.09,5411.38 4142.25,5410.44 4150.88,5409.55 4160.06,5408.72 4169.89,5407.94 4180.48,5407.21 4191.9,5406.53 4204.26,5405.9 4217.66,5405.31 4232.17,5404.78 4247.91,5404.29 4264.96,5403.85 4283.42,5403.45 4303.38,5403.1 4324.93,5402.79 4348.18,5402.52 4373.21,5402.29 4400.13,5402.1 4429.01,5401.96 4459.97,5401.85 4493.08,5401.78 4528.46,5401.74 4566.19,5401.75 4606.36,5401.78 4649.07,5401.86 4694.42,5401.96 4742.49,5402.1 4793.39,5402.27 4847.2,5402.47 4904.03,5402.71 4963.97,5402.97 5027.1,5403.26 5093.53,5403.57 5163.35,5403.92 5236.65,5404.29 5313.53,5404.68 5390.55,5405.09 5456.29,5405.45 5520.34,5405.8 5582.73,5406.14 5643.48,5406.47 5702.63,5406.78 5760.21,5407.09 5816.23,5407.38 5870.73,5407.67 5923.73,5407.94 5975.27,5408.21 6025.36,5408.46 6074.04,5408.7 6121.34,5408.93 6167.28,5409.15 6211.89,5409.37 6255.19,5409.57 6297.22,5409.76 6338.01,5409.94 6377.57,5410.11 6415.94,5410.27 6453.15,5410.43 6489.21,5410.57 6524.17,5410.7 6558.05,5410.83 6590.87,5410.94 6622.66,5411.05 6653.46,5411.14 6683.28,5411.23 6712.16,5411.31 6740.12,5411.38 6767.19,5411.44 6793.4,5411.49 6818.78,5411.53 6843.35,5411.57 6867.14,5411.6 6890.17,5411.61 6912.49,5411.63 6934.1,5411.63 6955.05,5411.62 6975.36,5411.61 6995.05,5411.59 7014.16,5411.56 7032.71,5411.52 7050.72,5411.47 7068.24,5411.42 7085.28,5411.36 7101.86,5411.29 7118.03,5411.22 7133.81,5411.14 7149.21,5411.05 7164.28,5410.95 7179.04,5410.85 7193.52,5410.74 7207.74,5410.62 7221.73,5410.5 7235.52,5410.37 7249.14,5410.24 7262.61,5410.09 7275.97,5409.95 7289.23,5409.79 7302.44,5409.63 7315.6,5409.46 7328.76,5409.29 7341.94,5409.11 7361.88,5408.79 7392.33,5408.25 7422.79,5407.71 7453.24,5407.16 7483.69,5406.62 7514.15,5406.08 7544.6,5405.54 7575.05,5405.01 7604.6,5412.4 7634.15,5419.79 7663.7,5427.18 7693.25,5434.56 7722.8,5441.95 7752.35,5449.34 7781.9,5456.73 7811.45,5464.11 7841.0,5471.5 7871.03,5475.0 7901.49,5475.0 7931.94,5475.0 7962.4,5475.0 7992.86,5475.0 8023.32,5475.0 8053.78,5475.0 8084.24,5475.0 8114.7,5475.0 8145.16,5475.0 8175.61,5475.0 8206.07,5475.0 8236.53,5475.0 8266.99,5475.0 8297.45,5475.0 8327.91,5475.0 8358.37,5475.0 8388.83,5475.0 8419.28,5475.0 8449.74,5475.0 8480.2,5475.0 8510.66,5475.0 8541.12,5475.0 8571.58,5475.0 8602.04,5475.0 8632.5,5475.0 8662.95,5475.0 8693.41,5475.0 8723.87,5475.0 8754.33,5475.0 8784.79,5475.0 8815.25,5475.0 8845.71,5475.0 8876.17,5475.0 8906.62,5475.0 8937.08,5475.0 8967.54,5475.0 8998.0,5475.0 9028.46,5475.0 9058.92,5475.0 9089.38,5475.0 9119.84,5475.0 9150.29,5475.0 9180.75,5475.0 9211.21,5475.0 9241.67,5475.0 9272.13,5475.0 9302.59,5475.0 9333.05,5475.0 9363.51,5475.0 9393.96,5475.0 9424.42,5475.0 9454.88,5475.0 9485.34,5475.0 9515.8,5475.0 9546.26,5475.0 9576.72,5475.0 9607.18,5475.0 9637.63,5475.0 9668.09,5475.0 9698.55,5475.0 9729.01,5475.0 9759.47,5475.0 9789.93,5475.0 9820.39,5475.0 9850.85,5475.0 9881.3,5475.0 9911.76,5475.0 9942.22,5475.0 9972.68,5475.0 10003.14,5475.0 10033.6,5475.0 10063.34,5469.8 10092.64,5461.5 10121.95,5453.2 10151.25,5444.9 10183.05,5435.93 10215.91,5427.46 10247.47,5420.4 10277.96,5414.74 10307.59,5410.47 10336.6,5407.59 10365.19,5406.09 10393.6,5405.96 10422.04,5407.19 10450.74,5409.77 10479.92,5413.7 10509.8,5418.96 10540.6,5425.56 10575.87,5434.07 10612.9,5442.7 10648.22,5450.44 10681.87,5457.27 10713.86,5463.21 10744.22,5468.25 10772.97,5472.39 10800.15,5475.64 10825.77,5477.99 10849.86,5479.44 10872.44,5479.99 10893.4,5480.37 10914.8,5481.76 10937.38,5484.31 10961.79,5488.14 10988.63,5493.38 11018.56,5500.17 11052.19,5508.63 11090.17,5518.89 11133.11,5531.09 11159.8,5538.44 11180.51,5542.31 11206.84,5546.12 11237.7,5549.8 11272.04,5553.22 11308.77,5556.3 11346.85,5558.94 11384.86,5561.11 11419.39,5563.11 11450.38,5565.09 11478.5,5567.16 11504.41,5569.45 11528.76,5572.06 11552.22,5575.11 11575.45,5578.73 11599.1,5583.02 11623.84,5588.11 11650.32,5594.11 11679.2,5601.14 11711.15,5609.32 11746.83,5618.77 11786.88,5629.59 11827.19,5640.64 11848.92,5646.73 11879.44,5654.98 11914.38,5664.19 11945.76,5672.52 11975.36,5680.95 12006.86,5690.22 12038.0,5699.67 12066.54,5708.63 12089.91,5716.24 12114.23,5724.06 12142.73,5733.14 12173.82,5742.99 12205.9,5753.1 12237.4,5762.96 12265.44,5771.68 12289.51,5779.16 12315.4,5787.3 12342.88,5796.03 12371.68,5805.26 12401.54,5814.91 12432.2,5824.88 12463.41,5835.12 12494.91,5845.52 12526.43,5856.0 12557.74,5866.49 12588.55,5876.9 12618.63,5887.15 12647.7,5897.15 12675.52,5906.83 12701.82,5916.09 12726.03,5924.28 12753.37,5932.68 12783.67,5941.42 12815.47,5950.09 12847.31,5958.26 12877.72,5965.53 12906.65,5971.84 12938.5,5979.09 12971.06,5987.22 13004.06,5996.14 13037.2,6005.74 13070.22,6015.94 13102.84,6026.62 13134.79,6037.69 13165.78,6049.05 13195.53,6060.61 13223.79,6072.26 13250.25,6083.91 13274.65,6095.46 13296.72,6106.8 13316.17,6117.85 13332.47,6128.31 13344.97,6137.74 13362.13,6152.1 13383.11,6170.6 13407.04,6192.45 13433.06,6216.83 13460.31,6242.95 13487.95,6270.01 13514.49,6296.23 13540.83,6321.83 13567.15,6347.1 13592.75,6371.36 13616.9,6393.93 13638.89,6414.12 13658.0,6431.27 13673.52,6444.68 13687.49,6456.11 13705.22,6471.2 13725.34,6489.02 13747.5,6509.23 13771.37,6531.49 13796.61,6555.46 13822.89,6580.79 13849.86,6607.14 13877.19,6634.17 13904.55,6661.53 13931.59,6688.9 13957.99,6715.92 13983.4,6742.25 14007.49,6767.55 14029.91,6791.48 14050.34,6813.69 14068.44,6833.85 14083.87,6851.61 14096.29,6866.64 14105.37,6878.58 14114.33,6892.98 14126.8,6915.6 14138.74,6939.5 14150.12,6964.6 14160.93,6990.8 14171.13,7018.01 14180.72,7046.16 14189.67,7075.13 14197.96,7104.85 14205.57,7135.22 14212.48,7166.16 14218.66,7197.57 14224.1,7229.36 14228.78,7261.44 14232.67,7293.73 14235.76,7326.12 14238.03,7358.54 14239.44,7390.88 14239.99,7423.07 14239.58,7464.3 14238.08,7503.67 14235.47,7539.77 14231.73,7572.72 14226.86,7602.61 14220.83,7629.55 14213.62,7653.63 14205.23,7674.97 14195.64,7693.66 14185.4,7709.49 14171.85,7728.47 14155.02,7750.88 14135.51,7776.0 14113.91,7803.1 14090.85,7831.44 14066.91,7860.31 14042.71,7888.97 14018.85,7916.7 13995.94,7942.78 13974.57,7966.46 13955.36,7987.03 13938.9,8003.76 13925.02,8016.72 13909.62,8030.55 13894.47,8043.75 13879.05,8056.68 13862.87,8069.7 13845.42,8083.16 13826.18,8097.42 13804.67,8112.84 13780.37,8129.77 13752.77,8148.58 13721.38,8169.61 13685.69,8193.23 13645.19,8219.79 13599.15,8249.85 13553.18,8279.91 13514.21,8304.97 13481.19,8325.56 13453.06,8342.19 13428.78,8355.4 13407.3,8365.7 13387.56,8373.61 13368.53,8379.66 13349.14,8384.38 13328.35,8388.27 13305.07,8391.8 13280.09,8394.09 13254.34,8394.72 13227.63,8393.67 13199.78,8390.9 13170.59,8386.39 13139.89,8380.1 13107.48,8372.02 13073.18,8362.1 13036.81,8350.33 13002.05,8338.35 12969.56,8327.64 12938.57,8318.02 12908.81,8309.41 12879.97,8301.73 12851.78,8294.9 12823.95,8288.84 12796.18,8283.46 12768.18,8278.69 12739.68,8274.45 12710.37,8270.64 12683.36,8267.28 12653.84,8262.74 12622.19,8257.09 12589.8,8250.64 12558.06,8243.64 12528.37,8236.39 12501.88,8229.12 12475.71,8222.17 12449.61,8216.05 12423.03,8210.68 12395.42,8205.96 12366.23,8201.8 12334.91,8198.11 12300.92,8194.8 12263.7,8191.78 12222.86,8188.72 12184.87,8185.26 12150.3,8181.3 12118.64,8176.72 12089.39,8171.41 12062.06,8165.24 12036.16,8158.1 12011.18,8149.87 11986.64,8140.44 11962.03,8129.69 11936.85,8117.5 11910.05,8104.05 11882.52,8091.45 11854.56,8079.94 11826.19,8069.52 11797.41,8060.18 11768.23,8051.92 11738.66,8044.73 11708.7,8038.6 11678.35,8033.53 11647.64,8029.51 11621.11,8026.32 11592.06,8022.01 11560.67,8016.65 11528.24,8010.48 11496.06,8003.72 11465.43,7996.59 11437.63,7989.32 11415.78,7983.18 11396.77,7978.0 11379.19,7973.52 11362.21,7969.68 11344.96,7966.4 11326.61,7963.62 11306.3,7961.26 11283.19,7959.27 11256.44,7957.56 11225.2,7956.07 11188.62,7954.73 11145.85,7953.48 11096.05,7952.23 11038.37,7950.93 10972.6,7949.51 10911.1,7948.12 10858.0,7946.83 10812.47,7945.56 10773.63,7944.23 10740.66,7942.78 10712.68,7941.14 10688.85,7939.22 10668.31,7936.97 10650.21,7934.31 10633.7,7931.17 10617.92,7927.47 10602.02,7923.15 10585.15,7918.13 10561.37,7910.93 10528.69,7901.83 10495.65,7893.44 10464.97,7886.42 10439.33,7881.43 10427.06,7879.6 10418.92,7878.86 10407.38,7878.12 10392.61,7877.39 10374.76,7876.67 10354.0,7875.97 10330.47,7875.28 10304.34,7874.61 10275.77,7873.96 10244.9,7873.34 10211.9,7872.74 10176.93,7872.18 10140.14,7871.64 10101.69,7871.15 10061.73,7870.69 10020.43,7870.28 9977.94,7869.91 9934.43,7869.59 9890.03,7869.32 9844.92,7869.11 9803.52,7868.96 9769.78,7868.83 9735.59,7868.68 9701.03,7868.51 9666.18,7868.32 9631.14,7868.1 9595.97,7867.87 9560.77,7867.61 9525.62,7867.34 9490.6,7867.05 9455.79,7866.73 9421.27,7866.41 9387.14,7866.06 9353.47,7865.7 9320.34,7865.32 9287.84,7864.93 9256.05,7864.52 9225.05,7864.1 9194.93,7863.66 9165.77,7863.21 9137.65,7862.75 9110.66,7862.28 9084.87,7861.79 9060.38,7861.3 9037.25,7860.79 9015.59,7860.27 8995.46,7859.75 8976.95,7859.22 8935.21,7858.05 8883.15,7856.53 8837.95,7855.04 8798.82,7853.51 8764.95,7851.86 8735.53,7850.01 8709.75,7847.91 8686.81,7845.47 8665.9,7842.61 8646.22,7839.28 8626.95,7835.4 8607.29,7830.88 8586.43,7825.67 8557.59,7818.52 8528.89,7812.07 8502.34,7806.97 8476.46,7803.11 8449.79,7800.32 8420.88,7798.47 8388.24,7797.42 8350.43,7797.02 8310.12,7797.19 8273.32,7798.06 8239.86,7799.66 8209.55,7802.04 8182.26,7805.24 8157.81,7809.3 8135.6,7814.32 8104.73,7820.5 8073.09,7825.08 8041.12,7828.03 8009.27,7829.32 7977.99,7828.92 7947.72,7826.8 7918.9,7822.94 7891.99,7817.31 7875.58,7812.79 7866.22,7810.64 7855.37,7808.66 7842.73,7806.83 7828.0,7805.14 7810.89,7803.58 7791.11,7802.12 7768.35,7800.76 7742.33,7799.48 7712.75,7798.26 7679.31,7797.08 7641.71,7795.94 7599.67,7794.81 7552.88,7793.67 7501.05,7792.53 7443.89,7791.35 7381.1,7790.12 7347.36,7789.57 7316.91,7789.1 7286.45,7788.62 7256.0,7788.15 7225.54,7787.68 7195.09,7787.2 7164.63,7786.73 7134.17,7786.25 7103.72,7785.78 7073.26,7785.31 7042.81,7784.83 7012.35,7784.36 6981.9,7783.89 6951.44,7783.41 6921.14,7781.91 6891.84,7773.6 6862.53,7765.3 6833.23,7757.0 6803.92,7748.69 6774.61,7740.39 6745.31,7732.09 6716.0,7723.78 6686.7,7715.48 6656.31,7715.0 6625.85,7715.0 6595.39,7715.0 6564.93,7715.0 6534.47,7715.0 6504.01,7715.0 6473.55,7715.0 6443.1,7715.0 6412.64,7715.0 6382.18,7715.0 6351.72,7715.0 6321.26,7715.0 6290.8,7715.0 6260.34,7715.0 6229.88,7715.0 6199.43,7715.0 6168.97,7715.0 6138.51,7715.0 6108.05,7715.0 6077.59,7715.0 6047.13,7715.0 6016.67,7715.0 5986.21,7715.0 5955.76,7715.0 5925.3,7715.0 5894.84,7715.0 5864.38,7715.0 5833.92,7715.0 5803.46,7715.0 5773.0,7715.0 5742.54,7715.0 5712.09,7715.0 5681.63,7715.0 5651.17,7715.0 5620.71,7715.0 5590.25,7715.0 5559.79,7715.0 5529.33,7715.0 5498.87,7715.0 5468.42,7715.0 5437.96,7715.0 5407.5,7715.0 5377.04,7715.0 5301.64,7715.0 5216.26,7714.99 5134.77,7714.99 5057.08,7714.99 4983.09,7714.99 4912.71,7715.01 4845.84,7715.04 4782.38,7715.08 4722.25,7715.14 4665.35,7715.22 4611.57,7715.33 4560.84,7715.47 4513.04,7715.64 4468.09,7715.84 4425.89,7716.08 4386.34,7716.36 4349.35,7716.69 4314.83,7717.06 4282.68,7717.48 4252.8,7717.96 4225.1,7718.49 4199.48,7719.08 4175.85,7719.74 4154.11,7720.46 4134.17,7721.25 4115.93,7722.11 4099.3,7723.05 4084.18,7724.07 4070.47,7725.16 4058.09,7726.34 4046.93,7727.61 4036.91,7728.98 4027.91,7730.43 4019.86,7731.98 4012.65,7733.64 4006.19,7735.39 4000.39,7737.25 3995.14,7739.23 3990.36,7741.31 3985.95,7743.51 3981.81,7745.84 3977.84,7748.28 3973.96,7750.85 3970.07,7753.54 3966.06,7756.37 3961.86,7759.34 3956.64,7762.99 3943.61,7775.19 3925.89,7795.08 3904.94,7820.85 3882.2,7850.7 3859.13,7882.82 3839.61,7910.84 3819.61,7939.54 3800.02,7967.59 3781.77,7993.64 3765.76,8016.34 3752.92,8034.35 3739.66,8053.19 3727.5,8073.04 3716.7,8094.24 3706.69,8118.16 3696.94,8146.16 3686.88,8179.59 3675.97,8219.83 3665.45,8258.36 3654.18,8287.06 3639.96,8313.04 3622.63,8336.42 3602.06,8357.32 3578.13,8375.86 3550.68,8392.14 3522.8,8406.1 3495.55,8419.72 3466.34,8425.1 3435.88,8425.27 3405.43,8425.44 3374.97,8425.61 3344.51,8425.78 3314.05,8425.95 3283.59,8426.12 3253.13,8426.29 3222.68,8426.46 3192.22,8426.63 3161.76,8426.8 3131.3,8426.96 3090.96,8426.97 3048.56,8426.85 3007.04,8426.65 2966.75,8426.36 2928.01,8426.0 2891.17,8425.56 2856.56,8425.06 2824.52,8424.49 2795.38,8423.86 2769.48,8423.18 2747.16,8422.45 2728.75,8421.67 2714.58,8420.85 2705.0,8420.0"/></g>
</svg>
