<?xml version="1.0" standalone="no"?>
<!DOCTYPE svg PUBLIC "-//W3C//DTD SVG 20010904//EN"
 "http://www.w3.org/TR/2001/REC-SVG-20010904/DTD/svg10.dtd">
<svg version="1.0" xmlns="http://www.w3.org/2000/svg"
 width="1920.000000pt" height="1080.000000pt" viewBox="0 0 1920.000000 1080.000000"
 preserveAspectRatio="xMidYMid meet">
<metadata>
Created by potrace 1.15, written by Peter Selinger 2001-2017
</metadata>
<g transform="translate(0.000000,1080.000000) scale(0.100000,-0.100000)"
fill="#000000" stroke="none">
<path d="M8905 9940 c-73 -10 -90 -15 -234 -75 -102 -42 -120 -46 -175 -42
-33 2 -87 11 -119 20 -32 10 -69 17 -82 17 -13 0 -71 -22 -127 -49 -126 -59
-163 -69 -303 -81 -84 -7 -140 -18 -231 -48 -66 -22 -147 -45 -180 -52 -80
-15 -105 -23 -279 -87 -151 -55 -195 -75 -295 -131 -30 -17 -93 -43 -140 -58
-68 -21 -424 -193 -465 -224 -5 -4 -66 -29 -135 -54 -69 -26 -168 -71 -220
-100 -52 -29 -127 -70 -166 -90 -40 -21 -108 -70 -152 -110 -74 -67 -98 -81
-207 -124 -53 -21 -124 -72 -156 -114 -15 -18 -57 -71 -94 -118 -37 -46 -81
-105 -98 -130 -41 -61 -102 -135 -159 -192 -25 -26 -70 -90 -99 -140 -28 -51
-70 -118 -93 -148 -23 -30 -71 -100 -108 -155 -75 -114 -90 -131 -171 -199
-89 -75 -199 -254 -233 -376 -8 -30 -19 -103 -24 -162 -6 -78 -18 -131 -41
-195 -37 -104 -112 -331 -128 -388 -6 -22 -16 -86 -21 -142 -6 -56 -22 -135
-36 -175 -76 -223 -99 -392 -89 -653 5 -141 3 -203 -9 -284 -25 -167 -18 -337
20 -481 8 -30 21 -144 29 -252 16 -216 28 -280 75 -408 50 -133 58 -168 63
-280 7 -151 54 -283 176 -490 78 -131 82 -168 42 -385 -11 -61 0 -128 26 -164
31 -41 112 -100 191 -138 85 -40 101 -65 81 -125 -6 -20 -18 -39 -25 -42 -21
-8 -17 -50 7 -79 21 -28 100 -57 153 -57 46 0 131 -34 179 -71 62 -48 168
-171 236 -274 53 -81 106 -135 232 -240 29 -24 159 -109 228 -150 83 -49 286
-181 488 -317 175 -118 302 -190 429 -246 29 -13 89 -50 133 -83 116 -86 227
-138 356 -168 83 -19 102 -30 150 -91 74 -95 90 -103 312 -160 170 -43 354
-60 768 -69 391 -8 415 -6 539 38 70 25 101 26 221 6 50 -8 123 -16 163 -16
66 -1 82 3 155 39 120 58 161 64 397 60 l205 -3 100 -45 100 -45 550 -3 c324
-2 584 1 632 7 95 12 148 36 213 96 100 95 169 128 293 140 42 3 100 13 129
21 73 19 115 18 184 -7 45 -16 83 -22 159 -22 120 0 149 10 225 82 61 57 107
84 260 148 165 70 217 84 360 99 36 3 79 12 95 19 17 6 75 57 131 112 121 122
159 143 251 144 125 1 128 2 165 81 26 56 41 75 74 94 22 13 50 24 62 24 35 0
156 42 170 58 7 9 12 44 12 84 0 94 17 122 152 259 63 63 129 136 148 164 19
27 40 56 47 65 14 17 39 50 131 172 34 46 92 119 128 163 104 127 240 374 289
524 20 62 155 331 207 411 54 84 68 136 68 253 0 145 12 198 113 483 18 53 28
109 36 224 7 85 15 158 18 163 3 4 9 88 14 185 22 433 22 449 0 618 -15 112
-21 217 -21 345 -1 258 -18 382 -75 549 -59 171 -70 210 -95 345 -22 115 -39
167 -88 275 -32 72 -50 129 -82 265 -15 65 -44 137 -105 262 -47 94 -85 175
-85 179 0 14 -201 359 -247 424 -58 82 -91 123 -197 244 -70 81 -99 124 -160
244 -80 157 -104 187 -215 263 -35 24 -73 51 -85 59 -202 140 -266 206 -341
354 -29 55 -88 102 -161 126 -87 29 -120 54 -175 135 -106 154 -291 327 -364
341 -34 6 -66 -9 -120 -58 -10 -10 -37 -24 -59 -30 -42 -13 -39 -14 -304 83
-30 11 -100 27 -155 35 -246 37 -267 42 -376 93 -130 62 -175 71 -355 71 -77
0 -177 5 -221 10 -79 10 -113 15 -310 44 -138 21 -186 20 -290 -9 -135 -38
-207 -36 -341 11 -106 37 -113 39 -249 40 -77 0 -172 6 -212 14 -64 12 -78 11
-140 -5 -100 -27 -161 -29 -213 -10 -34 13 -97 19 -250 25 -113 5 -232 10
-265 13 -33 3 -87 2 -120 -3z"/>
</g>
</svg>
