<!DOCTYPE svg PUBLIC "-//W3C//DTD SVG 20010904//EN" "http://www.w3.org/TR/2001/REC-SVG-20010904/DTD/svg10.dtd">
<svg xmlns="http://www.w3.org/2000/svg" version="1.0" width="1920.000000pt" height="1080.000000pt" viewBox="0 0 1920.000000 1080.000000" preserveAspectRatio="xMidYMid meet">
<metadata>
Created by potrace 1.15, written by Peter Selinger 2001-2017
</metadata>
<g transform="translate(0.000000,1080.000000) scale(0.100000,-0.100000)" fill="#000000" stroke="none">
<polygon points="8905.0,9940.0 8877.4,9935.97 8853.33,9931.56 8829.87,9925.82 8804.1,9917.77 8773.1,9906.48 8733.95,9890.97 8683.74,9870.3 8631.19,9848.89 8592.39,9834.51 8562.79,9826.04 8537.59,9822.28 8512.01,9822.05 8482.51,9824.09 8447.82,9828.5 8411.5,9834.9 8379.4,9842.34 8340.71,9852.71 8306.81,9859.02 8288.83,9859.16 8265.06,9852.03 8230.82,9838.96 8190.53,9821.56 8149.68,9802.48 8114.1,9786.47 8082.63,9773.32 8053.81,9762.66 8026.2,9754.09 7998.32,9747.23 7968.74,9741.7 7935.99,9737.1 7898.62,9733.05 7857.33,9729.34 7823.09,9725.87 7790.98,9721.57 7759.84,9716.17 7728.55,9709.4 7695.97,9700.98 7660.96,9690.65 7623.41,9678.5 7585.74,9666.53 7548.05,9655.15 7512.61,9644.99 7481.72,9636.67 7457.67,9630.8 7432.69,9625.9 7408.8,9620.85 7385.89,9615.29 7362.01,9608.61 7335.21,9600.22 7303.54,9589.5 7265.05,9575.87 7217.8,9558.71 7163.58,9538.83 7120.65,9522.97 7083.46,9508.83 7050.86,9495.91 7021.68,9483.71 6994.77,9471.71 6968.98,9459.42 6943.15,9446.34 6916.13,9431.96 6886.76,9415.78 6861.28,9402.26 6831.01,9388.44 6796.7,9374.33 6761.69,9361.29 6734.9,9352.33 6715.43,9345.01 6689.8,9334.41 6659.07,9321.04 6624.28,9305.39 6586.48,9287.99 6546.72,9269.33 6506.04,9249.92 6465.49,9230.28 6426.12,9210.9 6388.98,9192.3 6355.11,9174.98 6325.57,9159.45 6301.39,9146.22 6283.64,9135.8 6273.71,9129.17 6257.79,9121.78 6227.93,9109.44 6187.85,9093.79 6141.28,9076.47 6110.01,9064.28 6076.93,9050.57 6042.82,9035.75 6009.0,9020.41 5976.76,9005.16 5947.42,8990.58 5922.27,8977.26 5893.06,8961.04 5860.64,8943.19 5827.69,8925.22 5796.3,8908.28 5768.57,8893.56 5745.48,8881.35 5719.6,8865.61 5690.75,8846.14 5660.8,8824.3 5631.62,8801.4 5605.08,8778.78 5576.78,8753.59 5551.52,8732.63 5527.97,8715.39 5503.9,8700.51 5477.05,8686.62 5445.18,8672.37 5406.05,8656.38 5373.21,8642.21 5342.71,8625.28 5312.12,8605.03 5283.28,8582.72 5258.03,8559.61 5238.51,8537.41 5224.19,8519.83 5203.9,8494.46 5179.86,8464.17 5154.31,8431.82 5129.95,8401.08 5105.85,8370.0 5082.97,8339.74 5063.21,8312.92 5048.46,8292.13 5031.55,8267.72 5011.99,8241.11 4990.87,8213.91 4968.57,8186.57 4945.44,8159.55 4921.86,8133.32 4898.21,8108.34 4878.85,8087.85 4859.9,8064.2 4838.86,8035.38 4817.43,8003.83 4797.32,7972.02 4779.69,7941.36 4760.8,7909.03 4740.98,7876.69 4721.7,7846.71 4704.45,7821.47 4690.29,7802.43 4673.87,7779.81 4654.37,7752.11 4633.05,7721.3 4611.21,7689.32 4590.11,7658.13 4564.13,7619.01 4541.74,7586.38 4522.29,7559.86 4504.12,7537.52 4485.58,7517.42 4465.05,7497.63 4440.87,7476.24 4413.43,7452.94 4392.59,7433.4 4371.32,7410.71 4349.87,7385.32 4328.52,7357.64 4307.52,7328.13 4287.13,7297.2 4267.6,7265.29 4249.21,7232.82 4232.2,7200.24 4216.85,7167.98 4203.4,7136.45 4192.12,7106.11 4183.52,7078.18 4178.16,7053.42 4172.55,7020.83 4167.18,6983.52 4162.55,6944.59 4159.03,6906.23 4155.06,6869.35 4149.84,6835.44 4143.23,6803.44 4135.07,6772.26 4125.21,6740.83 4114.68,6710.78 4104.05,6680.29 4092.31,6646.13 4079.82,6609.32 4066.9,6570.89 4053.91,6531.88 4041.18,6493.31 4029.04,6456.22 4017.85,6421.62 4007.95,6390.55 3999.66,6364.05 3993.34,6343.13 3988.73,6325.58 3983.49,6297.86 3977.97,6261.91 3972.91,6221.78 3968.91,6183.45 3963.92,6148.3 3957.38,6111.46 3949.81,6075.53 3941.7,6043.09 3933.35,6016.08 3922.07,5982.07 3911.61,5948.8 3901.97,5916.14 3893.12,5883.97 3885.05,5852.17 3877.74,5820.63 3871.17,5789.23 3865.34,5757.84 3860.21,5726.34 3855.78,5694.62 3852.03,5662.56 3848.94,5630.03 3846.49,5596.92 3844.68,5563.1 3843.48,5528.46 3842.88,5492.88 3842.85,5456.23 3843.39,5418.4 3844.48,5379.27 3846.03,5333.66 3847.12,5289.97 3847.55,5251.45 3847.29,5217.06 3846.31,5185.81 3844.59,5156.66 3842.08,5128.59 3838.75,5100.6 3834.37,5069.79 3829.86,5034.41 3826.3,4999.02 3823.7,4963.67 3822.04,4928.45 3821.32,4893.39 3821.55,4858.57 3822.72,4824.05 3824.84,4789.88 3827.88,4756.13 3831.87,4722.86 3836.79,4690.13 3842.64,4658.01 3849.41,4626.54 3856.45,4598.24 3859.99,4580.61 3863.91,4555.35 3868.07,4523.76 3872.3,4487.17 3876.47,4446.9 3880.44,4404.27 3884.05,4360.59 3887.77,4311.67 3891.61,4265.39 3895.51,4224.03 3899.6,4186.87 3904.01,4153.19 3908.87,4122.27 3914.3,4093.41 3920.44,4065.88 3927.41,4038.97 3935.34,4011.96 3944.37,3984.14 3954.62,3954.8 3968.78,3916.47 3983.15,3876.68 3994.57,3842.48 4003.45,3812.13 4010.16,3783.88 4015.09,3756.01 4018.64,3726.75 4021.19,3694.39 4023.1,3657.92 4025.05,3628.75 4028.08,3599.89 4032.24,3571.19 4037.58,3542.5 4044.18,3513.66 4052.07,3484.52 4061.33,3454.92 4072.0,3424.71 4084.16,3393.74 4097.84,3361.84 4113.12,3328.87 4130.05,3294.67 4148.68,3259.09 4169.07,3221.97 4191.29,3183.15 4211.66,3148.39 4227.91,3118.97 4241.11,3091.93 4251.39,3066.28 4258.86,3040.98 4263.62,3015.04 4265.79,2987.41 4265.48,2957.1 4262.8,2923.09 4257.87,2884.35 4250.79,2839.87 4241.67,2788.64 4237.08,2750.22 4237.74,2713.26 4243.08,2678.33 4252.75,2647.24 4266.42,2621.81 4282.65,2603.0 4304.12,2582.78 4329.98,2561.69 4359.31,2540.44 4391.16,2519.71 4424.61,2500.22 4459.08,2482.49 4501.76,2459.92 4529.48,2438.5 4543.81,2415.82 4546.35,2389.47 4538.67,2356.92 4521.21,2322.44 4503.75,2306.35 4502.16,2274.84 4519.95,2238.29 4539.5,2220.58 4568.92,2204.73 4604.44,2191.65 4641.74,2182.9 4675.88,2179.98 4703.71,2176.57 4736.08,2167.98 4770.54,2155.19 4804.63,2139.22 4835.9,2121.07 4859.68,2103.68 4879.07,2086.83 4900.25,2066.64 4922.79,2043.58 4946.29,2018.14 4970.33,1990.79 4994.5,1962.0 5018.4,1932.26 5041.61,1902.04 5063.71,1871.81 5084.3,1842.06 5101.33,1816.65 5117.93,1793.58 5135.35,1771.32 5154.04,1749.38 5174.48,1727.26 5197.13,1704.46 5222.46,1680.49 5250.92,1654.85 5282.98,1627.04 5319.11,1596.58 5335.37,1584.01 5357.96,1568.03 5386.32,1548.73 5418.55,1527.33 5452.74,1505.08 5486.99,1483.21 5519.39,1462.97 5548.03,1445.58 5564.21,1435.91 5582.3,1424.87 5602.59,1412.3 5624.92,1398.3 5649.16,1382.96 5675.15,1366.38 5702.74,1348.65 5731.8,1329.88 5762.17,1310.15 5793.7,1289.57 5826.25,1268.22 5859.67,1246.21 5893.82,1223.63 5928.54,1200.58 5963.7,1177.15 5999.13,1153.44 6034.71,1129.54 6070.31,1105.71 6104.68,1083.1 6137.86,1061.69 6169.94,1041.42 6201.03,1022.24 6231.21,1004.07 6260.58,986.87 6289.24,970.58 6317.27,955.13 6344.78,940.46 6371.86,926.53 6398.6,913.26 6425.1,900.6 6451.46,888.48 6475.3,877.55 6501.17,863.44 6531.64,845.02 6563.8,824.02 6594.75,802.16 6624.54,780.56 6654.31,760.34 6684.02,741.54 6713.77,724.12 6743.63,708.05 6773.7,693.26 6804.06,679.72 6834.8,667.38 6866.02,656.19 6897.79,646.11 6930.21,637.09 6966.35,628.35 7004.32,618.11 7033.29,606.66 7057.02,591.63 7079.27,570.7 7103.8,541.52 7123.86,516.24 7141.82,495.31 7159.29,477.7 7177.62,462.72 7198.14,449.68 7222.22,437.89 7251.18,426.65 7286.37,415.27 7329.15,403.07 7380.85,389.33 7425.93,377.77 7448.69,372.33 7471.77,367.19 7495.28,362.32 7519.33,357.74 7544.04,353.41 7569.53,349.34 7595.89,345.52 7623.25,341.93 7651.71,338.57 7681.39,335.42 7712.4,332.49 7744.86,329.75 7778.87,327.2 7814.54,324.84 7852.0,322.64 7891.35,320.6 7932.69,318.72 7976.16,316.98 8021.85,315.37 8069.89,313.89 8120.37,312.52 8173.42,311.26 8240.43,309.89 8303.52,308.73 8359.17,307.89 8408.07,307.42 8450.91,307.37 8488.39,307.78 8521.19,308.7 8550.02,310.19 8575.58,312.28 8598.54,315.02 8619.62,318.47 8639.5,322.67 8658.88,327.67 8678.45,333.51 8698.91,340.24 8720.95,347.92 8750.02,357.67 8777.22,364.58 8804.06,368.27 8833.25,368.81 8867.5,366.26 8909.52,360.67 8954.65,353.5 8989.63,348.65 9026.65,344.37 9062.66,341.09 9094.61,339.25 9127.48,338.88 9159.09,340.42 9186.42,345.56 9215.47,355.82 9252.23,372.72 9285.0,388.44 9311.85,400.42 9337.06,410.45 9361.61,418.69 9386.48,425.3 9412.63,430.41 9441.06,434.18 9472.71,436.76 9508.59,438.3 9549.64,438.94 9596.86,438.84 9651.21,438.15 9689.07,437.57 9723.25,437.07 9757.42,436.57 9791.6,436.07 9825.77,435.57 9859.95,435.07 9891.56,423.05 9922.73,409.02 9953.9,395.0 9985.07,380.97 10016.23,366.94 10047.4,352.92 10079.88,344.92 10114.06,344.73 10148.24,344.55 10182.42,344.36 10216.6,344.17 10250.78,343.99 10284.95,343.8 10319.13,343.61 10353.31,343.43 10387.49,343.24 10421.67,343.05 10455.85,342.87 10490.03,342.68 10524.2,342.5 10558.38,342.31 10592.56,342.12 10632.99,341.89 10684.54,341.64 10734.78,341.48 10783.57,341.39 10830.76,341.39 10876.23,341.47 10919.82,341.63 10961.4,341.86 11000.82,342.16 11037.96,342.54 11072.65,342.99 11104.78,343.5 11134.19,344.08 11160.74,344.73 11184.3,345.44 11204.72,346.2 11221.87,347.03 11235.6,347.91 11245.78,348.85 11279.9,353.95 11314.68,361.51 11346.05,371.34 11374.96,383.86 11402.37,399.48 11429.22,418.65 11456.48,441.78 11486.26,469.13 11514.94,493.28 11542.71,514.01 11570.13,531.58 11597.75,546.25 11626.14,558.29 11655.86,567.97 11687.46,575.56 11721.5,581.32 11757.82,585.37 11793.75,589.33 11830.73,595.05 11863.93,601.57 11894.29,609.08 11929.91,616.15 11962.12,619.07 11993.03,617.67 12024.74,611.82 12059.33,601.37 12089.06,591.54 12117.5,584.73 12148.72,580.18 12185.29,577.68 12229.78,577.01 12273.53,577.86 12309.34,580.73 12339.35,586.43 12365.71,595.76 12390.56,609.53 12416.04,628.55 12444.3,653.63 12466.64,674.1 12486.86,691.0 12507.86,706.64 12530.72,721.62 12556.5,736.52 12586.27,751.93 12621.12,768.44 12662.1,786.64 12710.24,807.1 12752.63,824.86 12790.32,840.09 12824.24,853.05 12855.33,864.0 12884.49,873.21 12912.65,880.91 12940.74,887.39 12969.69,892.88 13000.4,897.66 13033.82,901.98 13070.84,906.07 13109.96,911.19 13145.21,918.63 13166.96,925.81 13183.05,936.03 13206.4,954.56 13235.02,979.51 13266.92,1008.97 13301.07,1042.1 13338.73,1079.11 13371.28,1109.04 13399.94,1132.62 13425.93,1150.56 13450.48,1163.59 13474.79,1172.43 13500.1,1177.8 13527.62,1180.43 13568.25,1181.2 13615.23,1182.6 13647.65,1187.0 13669.91,1196.58 13686.41,1213.55 13701.54,1240.11 13720.14,1279.03 13739.05,1312.73 13758.1,1335.79 13781.09,1353.09 13815.09,1370.58 13845.17,1379.83 13870.99,1383.02 13908.28,1392.58 13949.48,1406.01 13986.8,1420.58 14012.44,1433.54 14022.38,1447.75 14028.04,1480.09 14030.0,1523.78 14030.85,1552.36 14033.77,1577.64 14039.58,1601.0 14049.07,1623.83 14063.04,1647.54 14082.31,1673.5 14107.67,1703.12 14139.93,1737.77 14179.88,1778.85 14209.86,1809.3 14238.49,1839.26 14265.38,1868.28 14289.43,1895.13 14309.54,1918.6 14324.58,1937.46 14341.86,1961.76 14364.39,1993.05 14377.92,2011.13 14385.94,2021.14 14397.11,2035.52 14412.77,2055.99 14434.24,2084.3 14462.85,2122.15 14499.93,2171.3 14522.82,2201.77 14543.66,2228.94 14566.17,2257.8 14589.12,2286.82 14611.27,2314.5 14631.38,2339.34 14649.42,2361.82 14667.84,2386.2 14686.64,2412.5 14705.71,2440.46 14724.91,2469.86 14744.1,2500.45 14763.16,2531.99 14781.96,2564.25 14800.36,2596.98 14818.22,2629.94 14835.43,2662.9 14851.85,2695.61 14867.35,2727.83 14881.79,2759.33 14895.04,2789.87 14906.98,2819.2 14917.47,2847.08 14925.8,2871.42 14932.66,2889.53 14942.76,2913.35 14955.6,2941.9 14970.7,2974.21 14987.58,3009.32 15005.75,3046.25 15024.72,3084.03 15044.01,3121.68 15063.14,3158.25 15081.62,3192.76 15098.96,3224.23 15114.68,3251.71 15128.3,3274.21 15145.42,3301.62 15161.72,3331.07 15174.65,3359.43 15184.51,3387.93 15191.65,3417.8 15196.4,3450.25 15199.07,3486.51 15199.99,3527.81 15200.15,3558.37 15200.76,3585.19 15201.99,3610.6 15203.99,3635.22 15206.9,3659.67 15210.87,3684.59 15216.05,3710.58 15222.58,3738.28 15230.62,3768.31 15240.32,3801.29 15251.82,3837.85 15265.26,3878.61 15280.81,3924.19 15298.6,3975.21 15315.19,4022.57 15322.5,4047.16 15328.89,4073.61 15334.47,4103.05 15339.37,4136.63 15343.7,4175.48 15347.6,4220.75 15351.74,4272.08 15356.19,4319.68 15360.37,4359.24 15363.96,4387.74 15366.63,4402.13 15368.54,4409.99 15370.87,4431.34 15373.53,4464.39 15376.38,4506.65 15379.27,4555.61 15382.37,4614.99 15385.66,4680.2 15388.54,4738.58 15391.03,4790.71 15393.11,4837.17 15394.79,4878.52 15396.06,4915.35 15396.94,4948.23 15397.41,4977.73 15397.48,5004.43 15397.15,5028.9 15396.41,5051.73 15395.28,5073.47 15393.74,5094.72 15391.8,5116.05 15389.45,5138.02 15386.71,5161.22 15383.56,5186.22 15379.83,5214.87 15375.78,5247.82 15372.24,5280.57 15369.18,5313.31 15366.6,5346.2 15364.47,5379.43 15362.77,5413.16 15361.5,5447.57 15360.62,5482.83 15360.13,5519.11 15359.97,5557.95 15359.54,5603.54 15358.72,5646.39 15357.46,5686.73 15355.73,5724.83 15353.51,5760.91 15350.75,5795.22 15347.43,5828.02 15343.51,5859.55 15338.96,5890.05 15333.74,5919.76 15327.82,5948.94 15321.17,5977.82 15313.76,6006.66 15305.54,6035.69 15296.5,6065.17 15286.59,6095.34 15271.59,6139.02 15257.94,6179.36 15246.3,6214.7 15236.37,6246.21 15227.82,6275.08 15220.32,6302.5 15213.55,6329.66 15207.19,6357.74 15200.92,6387.93 15194.41,6421.42 15187.2,6459.45 15179.62,6496.1 15171.96,6529.09 15163.86,6559.59 15154.95,6588.76 15144.86,6617.8 15133.24,6647.86 15119.71,6680.12 15103.92,6715.76 15091.98,6743.19 15081.62,6768.92 15071.94,6795.27 15062.63,6823.3 15053.38,6854.04 15043.86,6888.55 15033.78,6927.88 15022.82,6973.08 15015.51,7003.08 15008.37,7027.83 14999.67,7054.04 14989.21,7082.21 14976.81,7112.82 14962.28,7146.36 14945.43,7183.32 14926.06,7224.19 14903.46,7270.19 14881.19,7315.5 14861.85,7355.57 14846.34,7388.44 14835.53,7412.13 14830.33,7424.67 14828.67,7430.18 14822.29,7443.58 14811.28,7464.52 14796.35,7491.76 14778.24,7524.07 14757.66,7560.22 14735.33,7598.95 14711.97,7639.05 14688.3,7679.27 14665.05,7718.37 14642.92,7755.13 14622.66,7788.29 14604.96,7816.63 14590.56,7838.91 14577.06,7858.38 14559.28,7883.14 14542.27,7906.22 14525.29,7928.55 14507.56,7951.08 14488.33,7974.74 14466.84,8000.48 14442.32,8029.22 14414.03,8061.91 14382.67,8097.86 14360.12,8124.52 14340.13,8149.32 14322.0,8173.36 14305.04,8197.73 14288.55,8223.54 14271.83,8251.88 14254.19,8283.85 14234.93,8320.55 14212.94,8363.45 14192.2,8402.69 14173.44,8436.05 14155.84,8464.53 14138.56,8489.14 14120.76,8510.88 14101.62,8530.77 14080.31,8549.81 14055.99,8569.0 14027.83,8589.35 13994.66,8612.27 13961.27,8635.52 13935.13,8653.76 13908.05,8672.5 13870.01,8699.49 13835.45,8724.83 13804.08,8748.81 13775.61,8771.75 13749.76,8793.93 13726.23,8815.67 13704.74,8837.27 13685.0,8859.03 13666.72,8881.25 13649.61,8904.23 13633.39,8928.27 13617.76,8953.68 13602.43,8980.76 13587.13,9009.82 13571.02,9036.7 13550.69,9061.52 13526.33,9084.33 13498.38,9104.73 13467.23,9122.35 13433.33,9136.78 13396.9,9149.6 13365.4,9163.04 13338.55,9178.07 13314.78,9195.94 13292.54,9217.87 13270.27,9245.1 13246.75,9278.26 13223.98,9309.79 13199.43,9341.47 13173.46,9372.98 13146.42,9403.98 13118.67,9434.14 13090.56,9463.13 13062.44,9490.62 13034.68,9516.28 13007.64,9539.77 12981.66,9560.77 12957.1,9578.94 12934.31,9593.95 12913.66,9605.47 12895.5,9613.16 12876.54,9617.05 12851.07,9614.6 12823.42,9602.85 12791.4,9580.63 12759.39,9553.25 12729.09,9536.33 12701.55,9526.62 12689.76,9523.4 12677.98,9521.84 12663.91,9522.59 12645.24,9526.27 12619.68,9533.52 12584.94,9544.96 12538.71,9561.23 12478.7,9582.96 12402.62,9610.77 12377.88,9618.59 12345.79,9626.86 12309.14,9634.96 12271.21,9642.14 12225.68,9649.21 12169.12,9657.84 12121.26,9665.41 12080.83,9672.25 12046.56,9678.66 12017.19,9684.96 11991.43,9691.47 11968.03,9698.52 11945.71,9706.4 11923.2,9715.45 11899.23,9725.97 11872.53,9738.28 11838.43,9754.2 11807.32,9767.78 11778.57,9779.0 11751.09,9788.1 11723.83,9795.27 11695.71,9800.74 11665.67,9804.72 11632.63,9807.42 11595.52,9809.05 11553.29,9809.84 11508.14,9810.02 11470.62,9810.5 11431.94,9811.56 11393.84,9813.09 11358.07,9814.98 11326.37,9817.13 11300.49,9819.41 11276.55,9822.35 11253.36,9825.37 11230.55,9828.42 11206.51,9831.73 11179.61,9835.54 11148.22,9840.06 11110.74,9845.52 11065.52,9852.15 11010.95,9860.18 10958.1,9867.97 10916.91,9873.34 10880.87,9876.82 10848.58,9878.36 10818.66,9877.91 10789.72,9875.4 10760.37,9870.78 10729.22,9863.99 10694.89,9854.97 10656.88,9844.95 10621.79,9837.27 10588.92,9831.96 10557.57,9829.04 10527.02,9828.55 10496.56,9830.5 10465.49,9834.93 10433.11,9841.87 10398.69,9851.34 10361.55,9863.38 10322.71,9876.85 10291.02,9887.25 10264.06,9894.76 10238.5,9899.86 10211.03,9903.06 10178.32,9904.84 10137.05,9905.7 10091.2,9906.06 10052.42,9906.83 10013.33,9908.38 9975.76,9910.64 9941.52,9913.48 9912.43,9916.82 9886.5,9921.21 9849.43,9926.92 9820.36,9927.92 9791.08,9924.03 9753.39,9915.1 9708.83,9904.15 9669.37,9896.83 9634.33,9893.06 9603.0,9892.73 9574.68,9895.77 9548.64,9902.06 9530.25,9908.29 9512.08,9912.77 9489.19,9916.64 9460.68,9920.02 9425.63,9923.01 9383.12,9925.71 9332.25,9928.24 9277.7,9930.54 9233.97,9932.47 9191.16,9934.36 9150.44,9936.19 9113.0,9937.94 9080.01,9939.57 9052.66,9941.08 9032.11,9942.42 9009.18,9944.07 8973.92,9944.65 8937.26,9943.29 8905.0,9940.0"/></g>
</svg>
