<?xml version="1.0" standalone="no"?>
<!DOCTYPE svg PUBLIC "-//W3C//DTD SVG 20010904//EN"
 "http://www.w3.org/TR/2001/REC-SVG-20010904/DTD/svg10.dtd">
<svg version="1.0" xmlns="http://www.w3.org/2000/svg"
 width="660.000000pt" height="440.000000pt" viewBox="0 0 660.000000 440.000000"
 preserveAspectRatio="xMidYMid meet">
<metadata>
Created by potrace 1.15, written by Peter Selinger 2001-2017
</metadata>
<g transform="translate(0.000000,440.000000) scale(0.100000,-0.100000)"
fill="#000000" stroke="none">
<path d="M3111 3220 c-53 -24 -105 -65 -191 -146 -36 -34 -90 -83 -120 -108
-30 -26 -134 -127 -230 -225 -96 -98 -195 -193 -220 -211 -25 -19 -77 -63
-115 -99 -39 -36 -118 -107 -175 -158 -58 -50 -114 -99 -125 -110 -11 -10 -63
-51 -116 -90 -53 -40 -111 -89 -130 -110 -19 -21 -66 -65 -104 -98 -39 -32
-126 -113 -195 -180 -322 -310 -395 -379 -498 -464 -174 -144 -252 -239 -252
-308 0 -32 6 -42 33 -60 68 -46 112 -48 1092 -48 801 0 947 2 1130 18 116 10
255 25 310 35 152 25 363 21 495 -9 98 -22 125 -24 395 -24 271 0 297 2 400
25 108 24 119 24 710 30 530 4 604 7 637 22 36 16 54 46 49 82 -6 40 -50 92
-166 195 -28 24 -72 65 -100 91 -213 198 -315 287 -415 362 -63 47 -155 125
-205 173 -49 47 -144 129 -210 180 -66 52 -151 124 -190 160 -99 95 -165 152
-281 241 -94 73 -199 162 -248 209 -32 30 -136 117 -180 150 -47 34 -119 97
-201 174 -81 77 -244 207 -332 266 -65 43 -79 48 -140 52 -54 3 -77 0 -112
-17z"/>
</g>
</svg>
