<!DOCTYPE svg PUBLIC "-//W3C//DTD SVG 20010904//EN" "http://www.w3.org/TR/2001/REC-SVG-20010904/DTD/svg10.dtd">
<svg xmlns="http://www.w3.org/2000/svg" version="1.0" width="660.000000pt" height="440.000000pt" viewBox="0 0 660.000000 440.000000" preserveAspectRatio="xMidYMid meet">
<metadata>
Created by potrace 1.15, written by Peter Selinger 2001-2017
</metadata>
<g transform="translate(0.000000,440.000000) scale(0.100000,-0.100000)" fill="#000000" stroke="none">
<polygon points="3111.0,3220.0 3103.03,3216.26 3095.05,3212.24 3087.03,3207.93 3078.94,3203.32 3070.77,3198.38 3062.47,3193.09 3054.04,3187.44 3045.43,3181.42 3036.62,3175.0 3027.6,3168.16 3018.32,3160.9 3008.77,3153.18 2998.91,3145.0 2988.73,3136.34 2978.18,3127.18 2967.26,3117.5 2955.93,3107.29 2944.16,3096.52 2931.93,3085.18 2919.51,3073.54 2911.09,3065.62 2902.17,3057.3 2892.87,3048.69 2883.29,3039.86 2873.53,3030.94 2863.7,3022.0 2853.9,3013.16 2844.25,3004.51 2834.85,2996.14 2825.81,2988.17 2817.22,2980.68 2809.21,2973.78 2801.87,2967.56 2797.37,2963.7 2793.23,2960.0 2788.51,2955.71 2783.23,2950.85 2777.42,2945.44 2771.11,2939.52 2764.32,2933.1 2757.07,2926.21 2749.4,2918.88 2741.33,2911.12 2732.88,2902.98 2724.09,2894.46 2714.98,2885.6 2705.57,2876.41 2695.89,2866.94 2685.97,2857.19 2675.83,2847.2 2665.5,2836.99 2655.01,2826.58 2644.38,2816.0 2633.64,2805.28 2622.82,2794.44 2611.93,2783.5 2601.02,2772.49 2590.09,2761.44 2579.19,2750.36 2568.23,2739.2 2556.79,2727.55 2545.34,2715.96 2533.94,2704.46 2522.59,2693.08 2511.34,2681.84 2500.2,2670.77 2489.22,2659.9 2478.41,2649.26 2467.82,2638.87 2457.46,2628.77 2447.36,2618.97 2437.56,2609.52 2428.08,2600.43 2418.95,2591.74 2410.21,2583.46 2401.87,2575.64 2393.98,2568.3 2386.55,2561.46 2379.62,2555.15 2373.21,2549.4 2367.36,2544.25 2362.1,2539.71 2357.44,2535.81 2353.43,2532.59 2350.08,2530.06 2343.72,2525.15 2336.36,2519.31 2328.21,2512.71 2319.41,2505.46 2310.07,2497.65 2300.32,2489.39 2290.29,2480.78 2280.09,2471.91 2269.86,2462.88 2259.72,2453.81 2249.79,2444.78 2240.21,2435.9 2232.32,2428.53 2225.74,2422.48 2218.6,2415.95 2210.95,2408.97 2202.84,2401.59 2194.32,2393.85 2185.45,2385.81 2176.26,2377.5 2166.81,2368.96 2157.16,2360.25 2147.35,2351.41 2137.44,2342.48 2127.46,2333.51 2117.48,2324.54 2107.55,2315.61 2097.7,2306.78 2088.01,2298.08 2078.51,2289.57 2069.25,2281.28 2060.29,2273.26 2047.81,2262.48 2035.36,2251.72 2023.17,2241.15 2011.34,2230.87 1999.96,2220.96 1989.14,2211.5 1978.98,2202.59 1969.57,2194.3 1961.01,2186.72 1953.41,2179.94 1946.86,2174.05 1941.46,2169.12 1937.31,2165.25 1934.37,2162.44 1930.49,2159.09 1925.11,2154.61 1918.34,2149.12 1910.34,2142.72 1901.23,2135.52 1891.15,2127.63 1880.24,2119.17 1868.62,2110.25 1856.43,2100.97 1843.82,2091.45 1830.9,2081.8 1817.99,2072.23 1806.62,2063.56 1795.21,2054.71 1783.84,2045.75 1772.61,2036.76 1761.62,2027.82 1750.96,2019.02 1740.73,2010.43 1731.01,2002.13 1721.91,1994.21 1713.52,1986.73 1705.93,1979.79 1699.24,1973.45 1693.55,1967.81 1688.93,1962.92 1683.5,1957.09 1677.01,1950.4 1669.58,1942.97 1661.35,1934.93 1652.46,1926.39 1643.04,1917.48 1633.23,1908.33 1623.16,1899.06 1612.96,1889.79 1602.77,1880.65 1592.74,1871.76 1583.86,1864.07 1578.11,1859.26 1571.8,1853.89 1564.98,1847.98 1557.68,1841.58 1549.94,1834.72 1541.79,1827.43 1533.28,1819.75 1524.44,1811.72 1515.31,1803.38 1505.92,1794.75 1496.32,1785.87 1486.54,1776.79 1476.62,1767.53 1466.6,1758.14 1456.52,1748.64 1446.4,1739.08 1436.3,1729.49 1426.24,1719.9 1416.27,1710.36 1406.43,1700.89 1396.74,1691.53 1385.0,1680.19 1368.19,1664.01 1351.84,1648.27 1335.94,1632.97 1320.48,1618.1 1305.46,1603.65 1290.85,1589.61 1276.66,1575.98 1262.88,1562.74 1249.49,1549.88 1236.48,1537.4 1223.85,1525.29 1211.59,1513.54 1199.68,1502.14 1188.12,1491.08 1176.9,1480.36 1166.01,1469.96 1155.43,1459.87 1145.17,1450.1 1135.2,1440.62 1125.53,1431.43 1116.14,1422.53 1107.02,1413.89 1098.16,1405.52 1089.56,1397.41 1081.2,1389.54 1073.08,1381.91 1065.18,1374.51 1057.49,1367.34 1050.01,1360.37 1042.73,1353.6 1035.64,1347.04 1028.72,1340.65 1021.98,1334.45 1015.39,1328.41 1008.95,1322.53 1002.65,1316.8 996.48,1311.22 990.43,1305.77 984.5,1300.45 978.67,1295.24 972.93,1290.14 967.27,1285.14 961.69,1280.23 956.17,1275.4 950.71,1270.64 945.3,1265.95 939.92,1261.32 934.57,1256.73 929.23,1252.18 923.91,1247.66 918.58,1243.16 913.25,1238.67 907.89,1234.19 902.5,1229.7 897.08,1225.2 890.89,1220.08 875.64,1207.37 860.9,1194.91 846.66,1182.71 832.93,1170.76 819.69,1159.05 806.95,1147.59 794.71,1136.36 782.95,1125.37 771.68,1114.61 760.9,1104.07 750.6,1093.76 740.77,1083.68 731.43,1073.8 722.55,1064.14 714.15,1054.69 706.21,1045.45 698.74,1036.41 691.73,1027.56 685.18,1018.91 679.08,1010.46 673.44,1002.18 668.25,994.1 663.51,986.19 659.21,978.46 655.35,970.9 651.93,963.52 648.95,956.29 646.4,949.23 644.28,942.33 642.59,935.58 641.33,928.99 640.48,922.54 640.06,916.23 640.12,905.77 641.31,892.96 644.1,882.57 648.9,873.78 656.13,865.76 666.2,857.69 674.03,852.31 676.26,850.82 678.49,849.36 680.72,847.93 682.96,846.54 685.22,845.17 687.5,843.83 689.81,842.53 692.16,841.25 694.56,840.01 697.02,838.79 699.54,837.6 702.13,836.44 704.8,835.3 707.55,834.2 710.4,833.12 713.35,832.07 716.41,831.04 719.58,830.04 722.89,829.07 726.32,828.12 729.89,827.2 733.61,826.3 737.49,825.42 741.53,824.58 745.74,823.75 750.13,822.95 754.71,822.17 759.48,821.41 764.45,820.68 769.63,819.97 775.03,819.28 780.66,818.61 786.51,817.96 792.61,817.33 798.96,816.73 805.56,816.14 812.42,815.58 819.56,815.03 826.97,814.5 834.67,813.99 842.66,813.5 850.96,813.03 859.57,812.58 868.49,812.14 877.74,811.72 887.32,811.31 897.24,810.93 907.51,810.56 918.14,810.2 929.13,809.86 940.49,809.54 952.23,809.22 964.36,808.93 976.88,808.65 989.8,808.38 1003.13,808.12 1016.88,807.88 1031.06,807.65 1045.67,807.44 1060.72,807.23 1076.21,807.04 1092.17,806.86 1108.59,806.69 1125.47,806.53 1142.84,806.38 1160.7,806.24 1179.05,806.11 1197.9,805.99 1217.26,805.87 1237.14,805.77 1257.54,805.68 1278.48,805.59 1299.96,805.51 1321.99,805.44 1344.57,805.37 1367.72,805.31 1391.44,805.26 1415.74,805.21 1440.62,805.17 1466.1,805.14 1492.18,805.11 1518.88,805.08 1546.19,805.06 1574.12,805.04 1602.69,805.03 1631.9,805.02 1661.76,805.01 1692.28,805.0 1723.46,805.0 1755.31,805.0 1782.91,805.0 1808.11,805.0 1832.87,805.01 1857.2,805.01 1881.09,805.02 1904.56,805.03 1927.6,805.04 1950.23,805.05 1972.45,805.06 1994.26,805.08 2015.66,805.1 2036.68,805.12 2057.3,805.14 2077.53,805.17 2097.38,805.2 2116.86,805.23 2135.97,805.26 2154.71,805.3 2173.09,805.34 2191.11,805.38 2208.78,805.43 2226.11,805.47 2243.1,805.53 2259.75,805.58 2276.07,805.64 2292.07,805.71 2307.75,805.77 2323.11,805.84 2338.17,805.92 2352.92,805.99 2367.37,806.08 2381.52,806.16 2395.39,806.25 2408.97,806.35 2422.27,806.45 2435.3,806.55 2448.07,806.66 2460.56,806.77 2472.8,806.89 2484.79,807.01 2496.52,807.14 2508.02,807.27 2519.27,807.4 2530.29,807.55 2541.09,807.69 2551.66,807.85 2562.01,808.0 2572.15,808.17 2582.09,808.34 2591.82,808.51 2601.35,808.69 2610.69,808.88 2619.85,809.07 2628.82,809.27 2637.61,809.47 2646.24,809.69 2654.7,809.9 2662.99,810.13 2671.13,810.36 2679.12,810.59 2686.96,810.84 2694.66,811.09 2702.22,811.34 2709.66,811.61 2716.96,811.88 2724.15,812.16 2731.22,812.44 2738.18,812.73 2745.04,813.03 2751.79,813.34 2758.45,813.65 2765.02,813.98 2771.5,814.31 2777.91,814.65 2784.24,814.99 2790.5,815.35 2796.69,815.71 2802.83,816.08 2808.91,816.46 2814.94,816.84 2820.93,817.24 2826.88,817.64 2832.79,818.05 2838.68,818.47 2844.54,818.9 2850.38,819.34 2856.21,819.79 2862.03,820.25 2867.85,820.71 2873.67,821.19 2879.5,821.67 2885.33,822.17 2891.19,822.67 2899.76,823.41 2913.42,824.61 2927.25,825.85 2941.19,827.13 2955.22,828.45 2969.29,829.79 2983.37,831.16 2997.41,832.55 3011.39,833.96 3025.27,835.38 3039.0,836.82 3052.55,838.27 3065.88,839.73 3078.95,841.18 3091.74,842.63 3104.19,844.08 3116.27,845.52 3127.95,846.95 3139.19,848.36 3149.94,849.75 3160.18,851.12 3169.86,852.47 3178.94,853.78 3187.4,855.06 3195.19,856.31 3202.27,857.51 3211.51,859.05 3222.83,860.76 3234.34,862.37 3246.03,863.88 3257.89,865.29 3269.9,866.59 3282.05,867.8 3294.33,868.9 3306.74,869.9 3319.25,870.8 3331.85,871.6 3344.54,872.3 3357.3,872.9 3370.12,873.39 3382.99,873.79 3395.89,874.09 3408.82,874.3 3421.76,874.4 3434.7,874.4 3447.62,874.31 3460.53,874.12 3473.39,873.83 3486.21,873.44 3498.97,872.95 3511.65,872.37 3524.26,871.69 3536.76,870.92 3549.16,870.05 3561.44,869.08 3573.59,868.02 3585.6,866.86 3597.45,865.61 3609.13,864.26 3620.63,862.81 3631.94,861.28 3643.05,859.65 3653.94,857.92 3664.61,856.1 3675.04,854.19 3685.21,852.19 3695.12,850.09 3704.42,848.01 3713.03,846.11 3721.31,844.31 3729.34,842.62 3737.16,841.02 3744.82,839.53 3752.38,838.13 3759.89,836.82 3767.4,835.6 3774.97,834.47 3782.66,833.42 3790.51,832.45 3798.58,831.56 3806.92,830.73 3815.59,829.98 3824.64,829.3 3834.12,828.68 3844.09,828.12 3854.59,827.62 3865.7,827.18 3877.45,826.79 3889.9,826.44 3903.1,826.14 3917.12,825.89 3931.99,825.67 3947.78,825.49 3964.54,825.35 3982.33,825.23 4001.18,825.14 4021.17,825.08 4042.34,825.03 4064.75,825.01 4088.45,825.0 4112.61,825.0 4135.5,825.02 4157.15,825.05 4177.61,825.1 4196.94,825.18 4215.18,825.28 4232.39,825.41 4248.62,825.57 4263.92,825.76 4278.35,826.0 4291.96,826.27 4304.8,826.59 4316.93,826.96 4328.39,827.37 4339.25,827.85 4349.55,828.37 4359.35,828.96 4368.7,829.61 4377.65,830.33 4386.25,831.12 4394.57,831.98 4402.64,832.91 4410.53,833.92 4418.29,835.02 4425.97,836.2 4433.61,837.47 4441.29,838.83 4449.04,840.28 4456.93,841.83 4465.0,843.48 4473.3,845.24 4481.9,847.1 4490.83,849.07 4498.0,850.67 4503.34,851.85 4508.55,852.99 4513.65,854.09 4518.64,855.15 4523.56,856.18 4528.42,857.17 4533.24,858.12 4538.05,859.04 4542.86,859.93 4547.69,860.78 4552.56,861.59 4557.5,862.38 4562.51,863.14 4567.63,863.87 4572.88,864.56 4578.26,865.23 4583.81,865.88 4589.54,866.49 4595.48,867.09 4601.63,867.65 4608.03,868.2 4614.69,868.72 4621.64,869.22 4628.88,869.7 4636.45,870.16 4644.36,870.6 4652.64,871.02 4661.3,871.42 4670.36,871.81 4679.84,872.18 4689.76,872.54 4700.15,872.89 4711.02,873.22 4722.4,873.54 4734.29,873.85 4746.73,874.14 4759.73,874.43 4773.31,874.71 4787.5,874.99 4802.31,875.25 4817.76,875.52 4833.88,875.77 4850.67,876.02 4868.18,876.27 4886.4,876.52 4905.36,876.76 4925.09,877.01 4945.6,877.25 4966.92,877.5 4989.05,877.75 5012.03,878.0 5035.88,878.26 5060.6,878.52 5086.23,878.79 5112.78,879.06 5140.27,879.34 5168.73,879.63 5198.17,879.93 5228.01,880.18 5256.93,880.4 5284.89,880.62 5311.92,880.85 5338.02,881.07 5363.23,881.29 5387.54,881.52 5410.99,881.75 5433.59,881.97 5455.35,882.2 5476.29,882.44 5496.44,882.67 5515.79,882.92 5534.38,883.16 5552.22,883.41 5569.33,883.67 5585.72,883.93 5601.41,884.2 5616.42,884.48 5630.77,884.76 5644.46,885.06 5657.53,885.36 5669.98,885.67 5681.83,885.99 5693.1,886.32 5703.81,886.67 5713.97,887.02 5723.61,887.39 5732.73,887.77 5741.36,888.16 5749.5,888.57 5757.19,888.99 5764.43,889.42 5771.24,889.87 5777.65,890.34 5783.66,890.82 5789.29,891.32 5794.56,891.84 5799.5,892.37 5804.1,892.92 5808.4,893.5 5812.41,894.09 5816.14,894.7 5819.61,895.33 5822.84,895.99 5825.85,896.66 5828.66,897.36 5831.27,898.08 5833.71,898.82 5836.0,899.59 5838.14,900.38 5840.17,901.2 5842.59,902.27 5854.44,908.51 5864.75,915.83 5873.47,924.15 5880.56,933.39 5885.97,943.47 5889.65,954.32 5891.55,965.85 5891.63,977.99 5890.49,986.94 5889.14,992.71 5887.25,998.68 5884.81,1004.86 5881.81,1011.28 5878.22,1017.97 5874.01,1024.95 5869.17,1032.23 5863.68,1039.86 5857.52,1047.84 5850.67,1056.2 5843.09,1064.97 5834.79,1074.18 5825.73,1083.83 5815.89,1093.97 5805.25,1104.61 5793.8,1115.77 5781.51,1127.48 5768.36,1139.77 5754.32,1152.65 5739.39,1166.15 5724.32,1179.58 5716.37,1186.48 5707.81,1194.05 5698.76,1202.15 5689.36,1210.64 5679.76,1219.39 5670.1,1228.25 5660.5,1237.09 5651.11,1245.77 5642.07,1254.15 5633.51,1262.1 5625.57,1269.47 5612.16,1281.93 5598.56,1294.54 5585.28,1306.85 5572.29,1318.86 5559.6,1330.58 5547.2,1342.01 5535.08,1353.16 5523.23,1364.04 5511.65,1374.65 5500.33,1385.0 5489.26,1395.09 5478.43,1404.93 5467.85,1414.53 5457.5,1423.89 5447.37,1433.02 5437.46,1441.92 5427.77,1450.6 5418.27,1459.07 5408.98,1467.34 5399.87,1475.4 5390.95,1483.26 5382.2,1490.94 5373.63,1498.43 5365.21,1505.75 5356.95,1512.89 5348.84,1519.87 5340.88,1526.69 5333.04,1533.36 5325.34,1539.88 5317.75,1546.26 5310.28,1552.51 5302.92,1558.62 5295.66,1564.62 5288.49,1570.49 5281.4,1576.26 5274.4,1581.92 5267.46,1587.48 5260.6,1592.95 5253.79,1598.34 5247.03,1603.64 5240.32,1608.87 5233.64,1614.03 5227.0,1619.13 5220.38,1624.17 5213.77,1629.17 5206.32,1634.76 5197.48,1641.46 5188.34,1648.49 5178.94,1655.81 5169.33,1663.4 5159.53,1671.22 5149.59,1679.24 5139.55,1687.41 5129.44,1695.72 5119.31,1704.12 5109.2,1712.59 5099.14,1721.08 5089.17,1729.56 5079.33,1738.01 5069.67,1746.39 5060.21,1754.65 5051.01,1762.78 5042.09,1770.73 5033.5,1778.48 5025.28,1785.99 5017.47,1793.22 5010.1,1800.14 5003.26,1806.66 4996.44,1813.13 4989.13,1819.96 4981.38,1827.11 4973.22,1834.56 4964.7,1842.27 4955.84,1850.21 4946.7,1858.34 4937.3,1866.64 4927.68,1875.06 4917.88,1883.57 4907.95,1892.15 4897.9,1900.75 4887.8,1909.35 4877.66,1917.92 4867.53,1926.41 4857.46,1934.79 4847.46,1943.04 4837.59,1951.12 4827.88,1958.99 4818.37,1966.63 4809.09,1973.99 4800.09,1981.05 4790.93,1988.21 4781.05,1996.06 4770.97,2004.14 4760.72,2012.41 4750.36,2020.83 4739.92,2029.36 4729.46,2037.97 4719.02,2046.61 4708.64,2055.25 4698.37,2063.85 4688.26,2072.37 4678.34,2080.76 4668.67,2089.0 4659.29,2097.04 4650.25,2104.84 4641.59,2112.36 4633.35,2119.57 4625.58,2126.43 4618.33,2132.9 4611.64,2138.93 4605.55,2144.49 4596.31,2153.32 4586.88,2162.31 4577.63,2171.08 4568.54,2179.66 4559.59,2188.05 4550.77,2196.26 4542.06,2204.32 4533.44,2212.23 4524.89,2220.02 4516.4,2227.7 4507.95,2235.27 4499.53,2242.77 4491.1,2250.19 4482.66,2257.56 4474.2,2264.89 4465.68,2272.2 4457.1,2279.49 4448.44,2286.79 4439.68,2294.11 4430.8,2301.46 4421.79,2308.86 4412.62,2316.32 4403.28,2323.87 4393.76,2331.5 4384.03,2339.24 4374.08,2347.1 4363.9,2355.1 4353.45,2363.25 4342.73,2371.57 4331.72,2380.06 4320.69,2388.58 4310.09,2396.85 4299.43,2405.24 4288.73,2413.72 4278.01,2422.27 4267.28,2430.88 4256.58,2439.52 4245.91,2448.19 4235.31,2456.86 4224.78,2465.51 4214.36,2474.12 4204.06,2482.68 4193.91,2491.17 4183.92,2499.58 4174.12,2507.87 4164.53,2516.04 4155.17,2524.06 4146.05,2531.93 4137.2,2539.61 4128.65,2547.1 4120.41,2554.37 4112.49,2561.41 4104.94,2568.19 4097.76,2574.71 4090.97,2580.94 4084.6,2586.86 4078.67,2592.45 4073.25,2597.56 4067.17,2603.09 4060.1,2609.4 4052.16,2616.39 4043.44,2623.96 4034.07,2632.04 4024.15,2640.52 4013.79,2649.31 4003.1,2658.33 3992.18,2667.47 3981.15,2676.66 3970.12,2685.79 3959.19,2694.77 3948.48,2703.52 3938.1,2711.93 3928.14,2719.93 3918.73,2727.41 3909.97,2734.29 3901.98,2740.47 3894.9,2745.8 3888.28,2750.68 3881.35,2755.91 3874.13,2761.49 3866.63,2767.4 3858.85,2773.64 3850.8,2780.19 3842.5,2787.05 3833.95,2794.21 3825.15,2801.66 3816.12,2809.39 3806.87,2817.4 3797.4,2825.67 3787.72,2834.21 3777.85,2842.99 3767.78,2852.01 3757.53,2861.26 3747.11,2870.73 3736.53,2880.42 3725.78,2890.32 3714.89,2900.41 3703.86,2910.7 3693.57,2920.35 3686.39,2927.1 3678.83,2934.08 3670.92,2941.29 3662.68,2948.69 3654.14,2956.28 3645.31,2964.04 3636.22,2971.95 3626.88,2980.0 3617.33,2988.16 3607.58,2996.42 3597.65,3004.76 3587.56,3013.17 3577.34,3021.62 3567.01,3030.11 3556.59,3038.61 3546.1,3047.11 3535.57,3055.59 3525.01,3064.03 3514.44,3072.42 3503.9,3080.73 3493.39,3088.96 3482.95,3097.08 3472.59,3105.08 3462.33,3112.94 3452.2,3120.64 3442.22,3128.17 3432.41,3135.5 3422.79,3142.63 3413.38,3149.53 3404.21,3156.19 3395.3,3162.59 3386.66,3168.71 3378.33,3174.54 3370.31,3180.05 3362.26,3185.49 3347.74,3194.99 3334.85,3203.16 3323.29,3210.12 3312.77,3215.97 3302.99,3220.83 3293.64,3224.81 3284.45,3228.03 3275.1,3230.58 3265.3,3232.6 3254.75,3234.18 3243.17,3235.45 3230.25,3236.5 3214.93,3237.41 3199.73,3237.94 3186.15,3237.98 3173.89,3237.48 3162.63,3236.38 3152.09,3234.64 3141.96,3232.18 3131.94,3228.96 3121.72,3224.92 3111.0,3220.0"/></g>
</svg>
