<?xml version="1.0" standalone="no"?>
<!DOCTYPE svg PUBLIC "-//W3C//DTD SVG 20010904//EN"
 "http://www.w3.org/TR/2001/REC-SVG-20010904/DTD/svg10.dtd">
<svg version="1.0" xmlns="http://www.w3.org/2000/svg"
 width="1024.000000pt" height="767.000000pt" viewBox="0 0 1024.000000 767.000000"
 preserveAspectRatio="xMidYMid meet">
<metadata>
Created by potrace 1.15, written by Peter Selinger 2001-2017
</metadata>
<g transform="translate(0.000000,767.000000) scale(0.100000,-0.100000)"
fill="#000000" stroke="none">
<path d="M1245 4541 c-48 -29 -58 -45 -170 -268 -108 -215 -129 -245 -203
-285 -18 -9 -41 -32 -52 -50 -26 -43 -27 -137 -2 -181 17 -32 91 -138 102
-147 19 -17 73 -95 97 -141 27 -54 27 -55 37 -369 16 -473 14 -589 -14 -685
-49 -176 -21 -270 95 -322 38 -17 170 -18 2775 -23 l2735 -6 130 -27 c126 -26
140 -26 470 -26 260 0 359 3 420 15 230 43 244 44 796 44 584 0 592 1 651 57
35 33 44 91 25 158 -57 205 -76 279 -85 340 -56 371 -56 394 17 582 28 72 57
167 65 210 8 43 22 113 31 156 13 59 16 114 13 216 -3 132 -4 139 -32 182 -32
48 -134 169 -153 182 -7 4 -18 13 -25 20 -7 7 -33 29 -59 49 -40 33 -89 107
-89 136 0 24 -52 72 -78 72 -39 -1 -100 -32 -157 -80 -70 -60 -119 -79 -240
-92 -135 -15 -182 -6 -335 67 -63 30 -137 59 -165 65 -64 15 -173 4 -470 -45
-115 -19 -212 -19 -312 0 -104 20 -126 19 -246 -9 l-102 -24 -370 10 c-386 11
-416 11 -735 5 -309 -7 -511 -16 -568 -27 -56 -10 -165 0 -231 21 -21 7 -68 9
-135 4 -55 -4 -139 -6 -186 -5 -207 6 -261 4 -352 -13 -54 -9 -128 -17 -165
-17 -38 0 -97 -7 -133 -15 -215 -49 -208 -48 -332 -21 -62 14 -158 35 -213 45
-55 11 -127 27 -160 36 -102 29 -172 18 -295 -43 -73 -37 -126 -56 -173 -63
-41 -6 -199 -9 -400 -7 l-332 3 -140 34 c-293 71 -292 71 -340 175 -42 91 -81
126 -138 126 -23 0 -55 -8 -72 -19z"/>
</g>
</svg>
