<!DOCTYPE svg PUBLIC "-//W3C//DTD SVG 20010904//EN" "http://www.w3.org/TR/2001/REC-SVG-20010904/DTD/svg10.dtd">
<svg xmlns="http://www.w3.org/2000/svg" version="1.0" width="1024.000000pt" height="767.000000pt" viewBox="0 0 1024.000000 767.000000" preserveAspectRatio="xMidYMid meet">
<metadata>
Created by potrace 1.15, written by Peter Selinger 2001-2017
</metadata>
<g transform="translate(0.000000,767.000000) scale(0.100000,-0.100000)" fill="#000000" stroke="none">
<polygon points="1245.0,4541.0 1236.23,4535.54 1228.17,4530.06 1220.6,4524.21 1213.31,4517.64 1206.07,4510.02 1198.66,4500.99 1190.88,4490.21 1182.49,4477.35 1173.27,4462.04 1163.02,4443.96 1151.51,4422.75 1138.52,4398.08 1123.83,4369.59 1107.22,4336.95 1088.47,4299.8 1068.61,4260.29 1051.35,4226.16 1035.6,4195.42 1021.21,4167.84 1008.02,4143.19 995.86,4121.26 984.57,4101.81 974.0,4084.62 963.98,4069.48 954.35,4056.15 944.95,4044.42 935.62,4034.05 926.2,4024.83 916.53,4016.53 906.45,4008.93 895.8,4001.8 884.41,3994.92 872.14,3988.07 856.15,3977.62 840.02,3963.02 826.04,3946.82 816.41,3931.42 809.55,3914.18 804.51,3894.4 801.29,3872.89 799.92,3850.45 800.38,3827.88 802.7,3805.99 806.88,3785.58 812.92,3767.44 820.19,3753.03 829.35,3737.77 841.56,3718.75 855.73,3697.49 870.78,3675.55 885.63,3654.47 899.19,3635.79 910.39,3621.05 918.13,3611.8 924.65,3605.38 934.36,3594.11 946.0,3579.14 958.91,3561.41 972.41,3541.9 985.85,3521.54 998.54,3501.3 1009.83,3482.14 1018.09,3466.83 1022.18,3458.53 1025.84,3450.73 1029.08,3443.08 1031.96,3435.2 1034.51,3426.73 1036.76,3417.32 1038.75,3406.58 1040.52,3394.17 1042.1,3379.71 1043.53,3362.84 1044.86,3343.2 1046.1,3320.42 1047.31,3294.14 1048.52,3263.98 1049.77,3229.6 1051.08,3190.62 1052.51,3146.69 1054.07,3097.9 1055.45,3056.55 1056.73,3017.06 1057.92,2979.36 1059.0,2943.42 1059.98,2909.16 1060.86,2876.55 1061.64,2845.52 1062.31,2816.03 1062.87,2788.01 1063.33,2761.41 1063.67,2736.19 1063.91,2712.28 1064.03,2689.63 1064.04,2668.19 1063.94,2647.9 1063.72,2628.72 1063.38,2610.58 1062.93,2593.43 1062.35,2577.22 1061.66,2561.9 1060.84,2547.41 1059.9,2533.69 1058.84,2520.7 1057.65,2508.38 1056.33,2496.67 1054.88,2485.52 1053.31,2474.88 1051.6,2464.69 1049.76,2454.91 1047.79,2445.47 1045.68,2436.32 1043.44,2427.4 1041.06,2418.68 1035.6,2398.63 1029.04,2371.25 1023.89,2345.28 1020.15,2320.69 1017.84,2297.44 1016.96,2275.49 1017.54,2254.79 1019.58,2235.31 1023.08,2217.01 1028.07,2199.86 1034.55,2183.8 1042.54,2168.8 1052.04,2154.82 1063.06,2141.83 1075.62,2129.78 1089.73,2118.63 1105.4,2108.34 1122.63,2098.87 1135.28,2092.87 1136.15,2092.5 1137.06,2092.13 1138.02,2091.77 1139.02,2091.41 1140.08,2091.06 1141.2,2090.71 1142.39,2090.37 1143.65,2090.04 1144.99,2089.7 1146.42,2089.37 1147.93,2089.05 1149.54,2088.73 1151.26,2088.42 1153.08,2088.11 1155.02,2087.81 1157.07,2087.51 1159.25,2087.21 1161.56,2086.92 1164.01,2086.63 1166.6,2086.35 1169.34,2086.07 1172.23,2085.8 1175.28,2085.53 1178.5,2085.26 1181.88,2085.0 1185.45,2084.74 1189.2,2084.49 1193.13,2084.24 1197.26,2083.99 1201.59,2083.75 1206.13,2083.51 1210.88,2083.28 1215.84,2083.05 1221.03,2082.82 1226.45,2082.6 1232.1,2082.38 1238.0,2082.16 1244.14,2081.95 1250.53,2081.74 1257.18,2081.53 1264.09,2081.33 1271.27,2081.13 1278.73,2080.93 1286.47,2080.74 1294.49,2080.54 1302.81,2080.36 1311.42,2080.17 1320.34,2079.99 1329.57,2079.81 1339.11,2079.64 1348.98,2079.46 1359.17,2079.29 1369.7,2079.13 1380.56,2078.96 1391.77,2078.8 1403.33,2078.64 1415.24,2078.48 1427.52,2078.33 1440.16,2078.18 1453.18,2078.03 1466.57,2077.88 1480.35,2077.73 1494.52,2077.59 1509.09,2077.45 1524.06,2077.31 1539.44,2077.17 1555.23,2077.04 1571.44,2076.91 1588.07,2076.78 1605.14,2076.65 1622.64,2076.52 1640.59,2076.39 1658.98,2076.27 1677.83,2076.15 1697.13,2076.03 1716.91,2075.91 1737.15,2075.79 1757.87,2075.68 1779.07,2075.56 1800.77,2075.45 1822.95,2075.34 1845.64,2075.23 1868.83,2075.12 1892.54,2075.01 1916.76,2074.91 1941.5,2074.8 1966.78,2074.7 1992.58,2074.59 2018.93,2074.49 2045.83,2074.39 2073.28,2074.29 2101.28,2074.19 2129.85,2074.09 2158.99,2073.99 2188.7,2073.9 2219.0,2073.8 2249.88,2073.7 2281.35,2073.61 2313.42,2073.51 2346.1,2073.42 2379.38,2073.32 2413.28,2073.23 2447.81,2073.13 2482.96,2073.04 2518.74,2072.95 2555.16,2072.85 2592.22,2072.76 2629.94,2072.67 2668.31,2072.57 2707.34,2072.48 2747.04,2072.39 2787.42,2072.29 2828.47,2072.2 2870.21,2072.11 2912.64,2072.01 2955.76,2071.92 2999.59,2071.82 3044.12,2071.73 3089.37,2071.63 3135.34,2071.53 3182.03,2071.44 3229.45,2071.34 3277.61,2071.24 3326.51,2071.14 3376.17,2071.04 3426.57,2070.94 3477.73,2070.84 3529.66,2070.74 3582.37,2070.63 3635.84,2070.53 3690.11,2070.42 3745.16,2070.32 3801.0,2070.21 3857.65,2070.1 3911.81,2070.0 3932.33,2069.95 3952.86,2069.91 3973.39,2069.86 3993.91,2069.82 4014.44,2069.77 4034.96,2069.73 4055.49,2069.68 4076.02,2069.64 4096.54,2069.59 4117.07,2069.55 4137.59,2069.5 4158.12,2069.46 4178.64,2069.41 4199.17,2069.37 4219.7,2069.32 4240.22,2069.28 4260.75,2069.23 4281.27,2069.19 4301.8,2069.14 4322.32,2069.1 4342.85,2069.05 4363.38,2069.01 4383.9,2068.96 4404.43,2068.92 4424.95,2068.87 4445.48,2068.83 4466.01,2068.78 4486.53,2068.74 4507.06,2068.69 4527.58,2068.65 4548.11,2068.6 4568.63,2068.56 4589.16,2068.51 4609.69,2068.47 4630.21,2068.42 4650.74,2068.37 4671.26,2068.33 4691.79,2068.28 4712.31,2068.24 4732.84,2068.19 4753.37,2068.15 4773.89,2068.1 4794.42,2068.06 4814.94,2068.01 4835.47,2067.97 4855.99,2067.92 4876.52,2067.88 4897.05,2067.83 4917.57,2067.79 4938.1,2067.74 4958.62,2067.7 4979.15,2067.65 4999.68,2067.61 5020.2,2067.56 5040.73,2067.52 5061.25,2067.47 5081.78,2067.43 5102.3,2067.38 5122.83,2067.34 5143.36,2067.29 5163.88,2067.25 5184.41,2067.2 5204.93,2067.16 5225.46,2067.11 5245.98,2067.07 5266.51,2067.02 5287.04,2066.98 5307.56,2066.93 5328.09,2066.89 5348.61,2066.84 5369.14,2066.8 5389.66,2066.75 5410.19,2066.71 5430.72,2066.66 5451.24,2066.62 5471.77,2066.57 5492.29,2066.53 5512.82,2066.48 5533.35,2066.44 5553.87,2066.39 5574.4,2066.35 5594.92,2066.3 5615.45,2066.26 5635.97,2066.21 5656.5,2066.17 5677.03,2066.12 5697.55,2066.08 5718.08,2066.03 5738.6,2065.99 5759.13,2065.94 5779.65,2065.9 5800.18,2065.85 5820.71,2065.81 5841.23,2065.76 5861.76,2065.72 5882.28,2065.67 5902.81,2065.63 5923.34,2065.58 5943.86,2065.54 5964.39,2065.49 5984.91,2065.45 6005.44,2065.4 6025.96,2065.36 6046.49,2065.31 6067.02,2065.27 6087.54,2065.22 6108.07,2065.18 6128.59,2065.13 6149.12,2065.09 6169.64,2065.04 6190.17,2065.0 6210.7,2064.95 6231.22,2064.91 6251.75,2064.86 6272.27,2064.82 6292.8,2064.77 6313.32,2064.73 6333.85,2064.68 6354.38,2064.64 6374.9,2064.59 6395.43,2064.55 6415.95,2064.5 6436.48,2064.46 6457.01,2064.41 6477.53,2064.37 6498.06,2064.32 6518.58,2064.28 6539.11,2064.23 6559.63,2064.19 6580.16,2064.14 6600.69,2064.1 6621.21,2064.05 6641.74,2064.01 6661.9,2060.49 6682.0,2056.32 6702.1,2052.14 6722.19,2047.97 6742.29,2043.79 6762.39,2039.62 6781.04,2035.76 6796.46,2032.62 6810.9,2029.75 6824.57,2027.15 6837.68,2024.81 6850.45,2022.7 6863.08,2020.82 6875.78,2019.15 6888.77,2017.68 6902.26,2016.4 6916.46,2015.3 6931.58,2014.35 6947.83,2013.56 6965.43,2012.9 6984.58,2012.37 7005.5,2011.95 7028.39,2011.62 7053.48,2011.38 7080.96,2011.21 7111.06,2011.1 7143.98,2011.04 7179.93,2011.01 7219.13,2011.0 7259.43,2011.0 7295.49,2011.04 7329.37,2011.13 7361.16,2011.27 7390.93,2011.47 7418.79,2011.73 7444.8,2012.05 7469.06,2012.45 7491.66,2012.92 7512.67,2013.46 7532.19,2014.09 7550.3,2014.8 7567.08,2015.61 7582.63,2016.51 7597.03,2017.51 7610.35,2018.61 7622.7,2019.82 7634.15,2021.14 7644.8,2022.57 7654.71,2024.13 7664.0,2025.8 7680.41,2028.88 7697.03,2031.96 7712.93,2034.89 7728.21,2037.67 7742.92,2040.29 7757.16,2042.77 7770.99,2045.11 7784.49,2047.31 7797.75,2049.37 7810.83,2051.31 7823.81,2053.12 7836.77,2054.81 7849.79,2056.39 7862.94,2057.85 7876.31,2059.2 7889.96,2060.45 7903.97,2061.6 7918.42,2062.65 7933.39,2063.61 7948.96,2064.49 7965.19,2065.28 7982.17,2065.99 7999.98,2066.62 8018.68,2067.19 8038.36,2067.69 8059.1,2068.12 8080.97,2068.5 8104.04,2068.82 8128.4,2069.1 8154.12,2069.33 8181.27,2069.51 8209.94,2069.66 8240.2,2069.77 8272.13,2069.86 8305.8,2069.92 8341.3,2069.96 8378.69,2069.99 8418.05,2070.0 8459.47,2070.0 8511.68,2070.0 8561.12,2070.02 8607.47,2070.07 8650.85,2070.14 8691.38,2070.27 8729.15,2070.44 8764.28,2070.68 8796.89,2070.99 8827.08,2071.38 8854.96,2071.86 8880.65,2072.45 8904.25,2073.14 8925.89,2073.95 8945.66,2074.9 8963.68,2075.98 8980.06,2077.22 8994.92,2078.61 9008.36,2080.17 9020.49,2081.9 9031.42,2083.83 9041.28,2085.95 9050.16,2088.27 9058.17,2090.81 9065.44,2093.58 9072.07,2096.58 9078.17,2099.83 9083.85,2103.33 9089.22,2107.1 9094.4,2111.14 9099.49,2115.46 9104.61,2120.07 9109.87,2124.98 9119.35,2134.74 9129.59,2149.2 9137.46,2165.61 9142.95,2183.8 9146.03,2203.6 9146.68,2224.83 9144.89,2247.31 9140.62,2270.88 9132.87,2299.85 9123.57,2333.44 9114.99,2364.54 9107.12,2393.29 9099.91,2419.83 9093.33,2444.31 9087.36,2466.86 9081.94,2487.63 9077.06,2506.76 9072.68,2524.4 9068.76,2540.67 9065.27,2555.74 9062.18,2569.73 9059.45,2582.79 9057.05,2595.07 9054.94,2606.7 9053.1,2617.82 9050.07,2637.81 9044.59,2674.29 9039.52,2708.43 9034.87,2740.38 9030.63,2770.25 9026.81,2798.17 9023.42,2824.27 9020.45,2848.68 9017.92,2871.52 9015.83,2892.93 9014.18,2913.03 9012.97,2931.94 9012.22,2949.8 9011.92,2966.74 9012.08,2982.87 9012.7,2998.34 9013.79,3013.25 9015.35,3027.76 9017.39,3041.97 9019.9,3056.02 9022.9,3070.04 9026.39,3084.15 9030.37,3098.48 9034.85,3113.17 9039.83,3128.32 9045.32,3144.09 9051.31,3160.58 9057.82,3177.93 9064.85,3196.27 9072.46,3216.0 9080.29,3237.1 9088.02,3258.88 9095.55,3280.97 9102.75,3302.99 9109.53,3324.6 9115.78,3345.42 9121.39,3365.09 9126.26,3383.25 9130.28,3399.52 9133.33,3413.54 9136.38,3429.66 9140.1,3449.05 9144.17,3469.95 9148.46,3491.64 9152.82,3513.45 9157.1,3534.66 9161.18,3554.59 9164.9,3572.53 9168.34,3589.21 9171.26,3605.93 9173.68,3622.95 9175.63,3640.52 9177.12,3658.9 9178.18,3678.36 9178.82,3699.14 9179.07,3721.52 9178.94,3745.75 9178.45,3772.09 9177.62,3805.6 9176.66,3841.32 9175.53,3869.88 9174.01,3892.51 9171.85,3910.49 9168.85,3925.06 9164.77,3937.48 9159.39,3949.0 9152.47,3960.87 9143.98,3973.99 9133.6,3988.57 9120.83,4005.55 9106.24,4024.23 9090.44,4043.92 9074.0,4063.91 9057.52,4083.52 9041.59,4102.05 9026.79,4118.8 9013.7,4133.08 9002.93,4144.2 8995.05,4151.44 8983.07,4159.85 8967.59,4173.4 8957.77,4182.29 8942.13,4195.53 8922.84,4211.17 8904.02,4226.28 8888.68,4241.34 8873.4,4258.89 8858.83,4277.93 8845.66,4297.47 8834.54,4316.52 8826.14,4334.09 8821.13,4349.2 8819.6,4361.89 8812.36,4378.01 8798.3,4395.57 8780.32,4411.86 8761.34,4424.2 8744.27,4429.89 8730.04,4428.87 8714.5,4425.45 8697.65,4419.87 8679.73,4412.26 8660.98,4402.73 8641.64,4391.4 8621.94,4378.39 8602.11,4363.81 8582.82,4348.14 8566.81,4334.98 8551.27,4323.22 8535.93,4312.74 8520.52,4303.46 8504.78,4295.27 8488.44,4288.07 8471.23,4281.76 8452.88,4276.24 8433.13,4271.4 8411.71,4267.15 8388.35,4263.39 8362.78,4260.02 8336.64,4257.09 8314.25,4254.89 8293.37,4253.25 8273.77,4252.23 8255.19,4251.87 8237.41,4252.23 8220.19,4253.34 8203.3,4255.27 8186.48,4258.06 8169.5,4261.76 8152.14,4266.42 8134.14,4272.09 8115.27,4278.82 8095.29,4286.65 8073.97,4295.63 8051.06,4305.82 8026.33,4317.26 8001.62,4328.95 7979.23,4339.2 7956.68,4349.08 7934.5,4358.4 7913.23,4366.95 7893.39,4374.52 7875.52,4380.92 7860.13,4385.94 7847.76,4389.37 7838.79,4391.34 7829.8,4392.93 7820.18,4394.21 7809.87,4395.18 7798.78,4395.84 7786.87,4396.18 7774.04,4396.19 7760.24,4395.87 7745.4,4395.22 7729.44,4394.22 7712.3,4392.87 7693.9,4391.16 7674.18,4389.09 7653.07,4386.66 7630.49,4383.85 7606.39,4380.67 7580.68,4377.1 7553.29,4373.14 7524.17,4368.78 7493.23,4364.03 7460.42,4358.86 7425.65,4353.28 7388.86,4347.28 7360.71,4342.72 7338.64,4339.55 7316.97,4336.86 7295.67,4334.66 7274.71,4332.95 7254.04,4331.73 7233.64,4331.0 7213.47,4330.75 7193.49,4330.99 7173.67,4331.72 7153.96,4332.94 7134.35,4334.65 7114.79,4336.84 7095.24,4339.52 7075.68,4342.69 7054.12,4346.69 7031.02,4350.9 7010.45,4354.22 6991.79,4356.64 6974.45,4358.14 6957.82,4358.69 6941.29,4358.29 6924.27,4356.9 6906.15,4354.5 6886.32,4351.09 6864.19,4346.63 6839.14,4341.11 6812.74,4335.0 6792.76,4330.3 6772.78,4325.6 6752.8,4320.89 6732.82,4316.19 6712.78,4312.06 6692.26,4312.61 6671.74,4313.17 6651.23,4313.72 6630.71,4314.28 6610.19,4314.83 6589.67,4315.39 6569.15,4315.94 6548.63,4316.5 6528.12,4317.05 6507.6,4317.61 6487.08,4318.16 6466.56,4318.71 6446.04,4319.27 6425.52,4319.82 6405.01,4320.38 6384.49,4320.93 6363.97,4321.49 6342.56,4322.07 6311.17,4322.96 6281.35,4323.8 6253.03,4324.59 6226.11,4325.34 6200.51,4326.03 6176.15,4326.67 6152.94,4327.27 6130.8,4327.82 6109.65,4328.32 6089.39,4328.78 6069.96,4329.2 6051.25,4329.57 6033.2,4329.89 6015.71,4330.18 5998.69,4330.42 5982.07,4330.62 5965.77,4330.77 5949.69,4330.89 5933.75,4330.97 5917.87,4331.01 5901.97,4331.01 5885.95,4330.97 5869.74,4330.9 5853.25,4330.79 5836.4,4330.64 5819.11,4330.46 5801.28,4330.25 5782.83,4330.0 5763.69,4329.72 5743.76,4329.4 5722.96,4329.06 5701.21,4328.68 5678.42,4328.27 5654.52,4327.83 5629.4,4327.36 5601.33,4326.8 5568.52,4326.03 5536.56,4325.25 5505.46,4324.45 5475.23,4323.63 5445.89,4322.8 5417.43,4321.95 5389.88,4321.09 5363.24,4320.21 5337.53,4319.31 5312.75,4318.4 5288.92,4317.48 5266.04,4316.54 5244.13,4315.58 5223.2,4314.61 5203.25,4313.62 5184.31,4312.61 5166.37,4311.6 5149.46,4310.56 5133.58,4309.51 5118.74,4308.44 5104.95,4307.36 5092.22,4306.26 5080.57,4305.15 5070.01,4304.02 5060.54,4302.88 5052.17,4301.72 5044.93,4300.54 5033.61,4298.7 5016.51,4297.01 4997.55,4296.19 4977.14,4296.2 4955.65,4297.02 4933.49,4298.59 4911.04,4300.88 4888.69,4303.86 4866.83,4307.5 4845.86,4311.74 4826.16,4316.56 4809.37,4321.52 4797.48,4324.23 4782.18,4326.2 4763.57,4327.4 4741.78,4327.78 4716.94,4327.29 4689.18,4325.91 4665.53,4324.28 4645.42,4323.12 4624.01,4322.11 4601.85,4321.28 4579.46,4320.61 4557.37,4320.13 4536.13,4319.84 4516.24,4319.75 4498.26,4319.86 4472.66,4320.49 4439.51,4321.38 4409.13,4322.08 4381.29,4322.61 4355.78,4322.94 4332.36,4323.07 4310.81,4323.0 4290.92,4322.71 4272.45,4322.2 4255.18,4321.45 4238.88,4320.46 4223.34,4319.23 4208.33,4317.73 4193.62,4315.98 4179.0,4313.94 4164.22,4311.63 4149.09,4309.03 4132.11,4306.03 4110.86,4302.8 4088.6,4299.75 4066.0,4296.98 4043.68,4294.57 4022.31,4292.58 4002.52,4291.11 3984.97,4290.23 3969.4,4289.98 3950.14,4289.33 3929.07,4287.84 3907.13,4285.66 3885.27,4282.9 3864.44,4279.71 3845.59,4276.2 3814.73,4269.24 3780.94,4261.58 3751.28,4254.98 3725.28,4249.39 3702.44,4244.8 3682.31,4241.16 3664.4,4238.45 3648.24,4236.63 3633.34,4235.68 3619.25,4235.55 3605.47,4236.21 3591.54,4237.64 3576.98,4239.8 3561.31,4242.66 3544.06,4246.19 3524.75,4250.35 3504.06,4254.89 3485.33,4259.09 3465.25,4263.55 3444.19,4268.19 3422.53,4272.91 3400.66,4277.62 3378.93,4282.23 3357.74,4286.65 3337.47,4290.79 3318.47,4294.56 3301.15,4297.87 3282.02,4301.62 3260.03,4306.18 3237.5,4310.99 3215.1,4315.89 3193.48,4320.75 3173.31,4325.43 3155.23,4329.79 3139.91,4333.68 3122.39,4338.42 3102.78,4343.02 3083.79,4346.52 3065.25,4348.9 3047.02,4350.13 3028.95,4350.21 3010.87,4349.12 2992.65,4346.83 2974.11,4343.34 2955.12,4338.61 2935.52,4332.64 2915.16,4325.4 2893.89,4316.88 2871.54,4307.06 2847.98,4295.92 2823.95,4284.0 2801.29,4273.2 2779.92,4263.65 2759.71,4255.3 2740.57,4248.11 2722.36,4242.01 2704.99,4236.96 2688.32,4232.92 2672.25,4229.83 2662.39,4228.4 2653.97,4227.53 2643.81,4226.71 2631.96,4225.95 2618.48,4225.24 2603.43,4224.58 2586.88,4223.98 2568.88,4223.44 2549.49,4222.95 2528.78,4222.53 2506.79,4222.17 2483.6,4221.88 2459.27,4221.65 2433.84,4221.49 2407.39,4221.4 2379.96,4221.38 2351.63,4221.44 2322.46,4221.57 2292.49,4221.77 2263.55,4222.03 2243.03,4222.22 2222.5,4222.4 2201.98,4222.59 2181.45,4222.77 2160.93,4222.96 2140.4,4223.14 2119.88,4223.33 2099.35,4223.51 2078.83,4223.7 2058.3,4223.89 2037.78,4224.07 2017.25,4224.26 1996.73,4224.44 1976.2,4224.63 1955.68,4224.81 1935.15,4225.0 1915.2,4229.81 1895.26,4234.65 1875.31,4239.5 1855.36,4244.34 1835.42,4249.18 1815.47,4254.03 1795.53,4258.87 1753.52,4269.06 1715.17,4278.45 1680.86,4286.99 1650.33,4294.85 1623.29,4302.15 1599.48,4309.04 1578.63,4315.65 1560.45,4322.12 1544.69,4328.59 1531.06,4335.21 1519.29,4342.1 1509.12,4349.42 1500.27,4357.29 1492.47,4365.85 1485.44,4375.25 1478.91,4385.63 1472.61,4397.12 1466.28,4409.86 1459.63,4423.99 1450.47,4443.63 1437.56,4468.84 1424.66,4490.65 1411.62,4509.2 1398.32,4524.63 1384.6,4537.09 1370.33,4546.7 1355.37,4553.61 1339.58,4557.95 1322.82,4559.87 1303.71,4559.24 1282.31,4555.51 1261.77,4549.23 1245.0,4541.0"/></g>
</svg>
