<!DOCTYPE svg PUBLIC "-//W3C//DTD SVG 20010904//EN" "http://www.w3.org/TR/2001/REC-SVG-20010904/DTD/svg10.dtd">
<svg xmlns="http://www.w3.org/2000/svg" version="1.0" width="1024.000000pt" height="768.000000pt" viewBox="0 0 1024.000000 768.000000" preserveAspectRatio="xMidYMid meet">
<metadata>
Created by potrace 1.15, written by Peter Selinger 2001-2017
</metadata>
<g transform="translate(0.000000,768.000000) scale(0.100000,-0.100000)" fill="#000000" stroke="none">
<polygon points="9559.0,5171.0 9541.01,5164.68 9523.93,5157.32 9507.16,5148.56 9490.09,5138.05 9472.1,5125.42 9452.61,5110.33 9433.73,5094.81 9418.34,5082.57 9403.04,5071.21 9387.65,5060.62 9372.02,5050.74 9355.97,5041.48 9339.34,5032.76 9321.95,5024.5 9303.63,5016.61 9284.22,5009.02 9263.55,5001.65 9241.45,4994.4 9217.74,4987.21 9192.27,4979.99 9168.43,4973.6 9159.37,4971.48 9149.46,4969.5 9138.58,4967.66 9126.6,4965.95 9113.39,4964.34 9098.85,4962.84 9082.83,4961.44 9065.21,4960.12 9045.88,4958.87 9024.7,4957.69 9001.56,4956.56 8976.32,4955.48 8948.86,4954.43 8919.07,4953.4 8886.8,4952.39 8851.95,4951.39 8814.38,4950.37 8786.55,4949.65 8765.4,4949.09 8744.25,4948.54 8723.1,4947.98 8701.95,4947.43 8680.79,4946.87 8659.64,4946.32 8638.49,4945.76 8617.34,4945.21 8596.19,4944.65 8575.04,4944.1 8553.88,4943.54 8532.73,4942.99 8511.58,4942.43 8490.64,4940.61 8470.49,4934.16 8450.34,4927.71 8430.19,4921.26 8410.03,4914.81 8389.9,4908.32 8369.8,4901.69 8349.71,4895.05 8329.62,4888.42 8309.52,4881.79 8289.14,4876.89 8267.98,4876.52 8246.83,4876.14 8225.67,4875.76 8204.51,4875.38 8183.36,4875.0 8162.2,4874.62 8141.05,4874.24 8119.89,4873.86 8098.74,4873.48 8077.58,4873.11 8056.42,4872.73 8035.27,4872.35 8014.11,4871.97 7992.96,4871.59 7971.8,4871.21 7950.65,4870.8 7929.49,4870.36 7908.34,4869.92 7887.18,4869.48 7866.03,4869.04 7844.87,4868.59 7823.72,4868.15 7802.57,4867.71 7781.41,4867.27 7760.26,4866.83 7739.1,4866.38 7717.95,4865.94 7696.79,4865.5 7675.64,4865.06 7654.48,4864.62 7633.33,4864.17 7612.74,4860.21 7592.53,4853.96 7572.31,4847.72 7552.1,4841.47 7531.88,4835.22 7511.66,4829.0 7491.39,4822.92 7471.13,4816.84 7450.86,4810.76 7430.59,4804.68 7410.33,4798.6 7389.4,4796.72 7368.25,4796.34 7347.09,4795.96 7325.94,4795.58 7304.78,4795.2 7283.62,4794.82 7262.47,4794.44 7241.31,4794.06 7220.16,4793.68 7199.0,4793.3 7177.85,4792.92 7156.69,4792.54 7135.54,4792.16 7114.38,4791.78 7093.22,4791.4 7072.07,4791.02 7050.91,4790.64 7029.76,4790.26 7004.62,4789.82 6970.88,4789.17 6938.09,4788.48 6906.32,4787.73 6875.64,4786.94 6846.12,4786.11 6817.82,4785.25 6790.82,4784.35 6765.19,4783.42 6741.0,4782.48 6718.31,4781.51 6697.19,4780.53 6677.72,4779.54 6659.96,4778.55 6643.99,4777.56 6629.86,4776.57 6617.66,4775.58 6607.45,4774.62 6599.3,4773.66 6593.27,4772.73 6587.08,4771.1 6572.31,4766.54 6558.47,4762.23 6545.46,4758.17 6533.17,4754.34 6521.5,4750.75 6510.35,4747.38 6499.6,4744.23 6489.16,4741.29 6478.92,4738.55 6468.78,4736.01 6458.63,4733.65 6448.37,4731.48 6437.9,4729.48 6427.1,4727.65 6415.88,4725.97 6404.13,4724.45 6391.75,4723.08 6378.63,4721.84 6364.67,4720.74 6349.77,4719.75 6333.81,4718.89 6316.7,4718.13 6298.33,4717.48 6278.6,4716.92 6257.41,4716.44 6234.64,4716.05 6210.19,4715.73 6183.97,4715.48 6155.86,4715.29 6125.77,4715.14 6093.58,4715.05 6059.19,4714.98 6022.51,4714.95 5983.41,4714.95 5941.81,4714.95 5897.6,4714.97 5850.66,4714.99 5800.9,4715.0 5750.11,4715.0 5702.13,4715.02 5656.75,4715.04 5613.89,4715.09 5573.46,4715.15 5535.39,4715.24 5499.59,4715.35 5465.97,4715.48 5434.46,4715.64 5404.96,4715.83 5377.4,4716.05 5351.7,4716.31 5327.76,4716.6 5305.51,4716.93 5284.87,4717.29 5265.74,4717.7 5248.05,4718.16 5231.72,4718.66 5216.65,4719.21 5202.78,4719.81 5190.0,4720.46 5178.25,4721.16 5167.43,4721.92 5157.47,4722.75 5148.28,4723.63 5139.78,4724.57 5131.88,4725.58 5124.5,4726.66 5117.57,4727.8 5110.98,4729.02 5104.67,4730.31 5098.54,4731.67 5091.26,4733.41 5069.32,4738.17 5047.42,4742.09 5025.62,4745.18 5003.93,4747.43 4982.42,4748.83 4961.12,4749.39 4940.07,4749.09 4919.31,4747.94 4898.89,4745.94 4878.84,4743.07 4859.21,4739.34 4840.45,4734.88 4827.62,4732.26 4811.35,4729.35 4792.23,4726.25 4770.84,4723.06 4747.77,4719.88 4723.6,4716.81 4698.93,4713.95 4674.33,4711.41 4650.46,4709.29 4627.57,4707.13 4605.39,4704.66 4583.84,4701.87 4562.81,4698.74 4542.24,4695.26 4522.02,4691.41 4502.07,4687.19 4482.31,4682.57 4462.63,4677.55 4442.96,4672.11 4423.07,4666.23 4402.79,4660.19 4382.51,4654.14 4362.24,4648.1 4341.96,4642.05 4321.54,4636.97 4300.38,4636.79 4279.22,4636.6 4258.06,4636.42 4236.9,4636.24 4215.74,4636.05 4194.59,4635.87 4173.43,4635.68 4152.27,4635.5 4131.11,4635.32 4109.95,4635.13 4088.8,4634.95 4067.64,4634.77 4046.48,4634.58 4025.32,4634.4 4004.16,4634.22 3983.0,4634.03 3961.85,4633.85 3940.69,4633.67 3919.53,4633.48 3898.37,4633.3 3877.21,4633.11 3848.03,4632.83 3807.13,4632.41 3768.53,4632.04 3732.13,4631.72 3697.83,4631.45 3665.53,4631.25 3635.13,4631.11 3606.52,4631.04 3579.6,4631.05 3554.28,4631.15 3530.45,4631.33 3508.01,4631.6 3486.87,4631.97 3466.91,4632.45 3448.04,4633.03 3430.16,4633.73 3413.17,4634.54 3396.97,4635.48 3381.45,4636.55 3366.51,4637.75 3352.06,4639.1 3337.99,4640.58 3324.21,4642.22 3310.6,4644.01 3297.08,4645.96 3283.53,4648.08 3269.86,4650.37 3255.97,4652.84 3241.76,4655.48 3227.12,4658.32 3211.96,4661.34 3196.17,4664.56 3179.65,4667.98 3164.06,4671.16 3149.43,4673.69 3133.4,4676.05 3116.08,4678.24 3097.58,4680.25 3078.01,4682.09 3057.47,4683.75 3036.06,4685.24 3013.89,4686.54 2991.06,4687.67 2967.69,4688.62 2943.88,4689.39 2919.72,4689.97 2895.34,4690.37 2870.83,4690.58 2846.3,4690.61 2821.86,4690.46 2797.6,4690.11 2773.65,4689.57 2750.09,4688.85 2727.04,4687.93 2704.61,4686.82 2682.89,4685.52 2662.0,4684.02 2642.03,4682.33 2623.11,4680.44 2605.32,4678.35 2588.78,4676.06 2570.09,4673.05 2549.36,4669.93 2528.98,4667.23 2508.86,4664.94 2488.91,4663.06 2469.05,4661.57 2449.18,4660.49 2429.22,4659.8 2409.07,4659.5 2388.65,4659.58 2367.87,4660.05 2346.63,4660.89 2324.85,4662.1 2302.43,4663.68 2279.3,4665.62 2255.35,4667.93 2231.71,4670.38 2209.07,4672.7 2186.81,4674.93 2164.92,4677.09 2143.38,4679.16 2122.14,4681.16 2101.21,4683.07 2080.54,4684.91 2060.11,4686.67 2039.92,4688.35 2019.92,4689.96 2000.09,4691.5 1980.42,4692.96 1960.88,4694.35 1941.44,4695.67 1922.08,4696.91 1902.78,4698.09 1883.52,4699.2 1864.27,4700.23 1845.0,4701.21 1825.7,4702.11 1806.34,4702.95 1786.9,4703.72 1767.35,4704.43 1747.67,4705.08 1727.84,4705.66 1707.83,4706.19 1687.62,4706.65 1667.19,4707.05 1646.51,4707.4 1625.56,4707.68 1604.31,4707.91 1582.75,4708.09 1560.85,4708.21 1538.58,4708.27 1515.92,4708.28 1492.85,4708.24 1469.34,4708.14 1445.38,4708.0 1420.93,4707.8 1395.98,4707.56 1370.49,4707.26 1345.53,4706.95 1324.38,4706.73 1303.22,4706.5 1282.06,4706.28 1260.9,4706.05 1239.74,4705.82 1218.59,4705.6 1197.43,4705.37 1176.27,4705.15 1155.11,4704.92 1133.95,4704.7 1112.8,4704.47 1091.64,4704.24 1070.48,4704.02 1049.32,4703.79 1028.17,4703.57 1007.01,4703.34 985.85,4703.12 965.21,4699.77 945.11,4693.15 925.02,4686.53 904.92,4679.91 886.06,4673.76 869.23,4668.82 850.3,4663.75 829.74,4658.65 808.01,4653.63 785.6,4648.8 762.97,4644.26 740.6,4640.12 718.95,4636.48 698.49,4633.47 672.15,4629.92 646.12,4625.85 621.92,4621.35 599.46,4616.34 578.6,4610.72 559.23,4604.42 541.21,4597.36 524.45,4589.44 508.8,4580.6 494.16,4570.74 480.4,4559.77 467.4,4547.63 455.04,4534.22 443.2,4519.47 431.76,4503.28 420.6,4485.58 409.6,4466.28 398.64,4445.29 387.59,4422.54 378.12,4401.57 369.89,4381.44 362.5,4361.26 355.96,4341.04 350.25,4320.76 345.39,4300.44 341.37,4280.07 338.19,4259.65 335.85,4239.18 334.36,4218.66 333.72,4198.08 333.92,4177.46 334.96,4156.77 336.86,4136.04 339.6,4115.25 343.19,4094.4 347.63,4073.5 352.92,4052.54 359.07,4031.52 366.06,4010.44 370.53,3997.6 374.74,3985.34 379.77,3970.67 385.54,3953.85 391.94,3935.16 398.89,3914.86 406.28,3893.22 414.03,3870.49 422.03,3846.94 430.19,3822.84 438.42,3798.45 446.63,3774.04 454.71,3749.86 464.31,3721.27 473.83,3693.28 483.08,3666.45 491.92,3641.15 500.21,3617.74 507.82,3596.59 514.6,3578.07 520.42,3562.56 525.14,3550.41 528.61,3542.01 530.94,3537.33 534.73,3531.05 540.6,3521.71 548.35,3509.56 557.83,3494.86 568.86,3477.85 581.28,3458.78 594.91,3437.92 609.58,3415.52 625.12,3391.82 641.35,3367.09 658.12,3341.56 674.93,3316.05 691.13,3291.5 706.98,3267.36 722.31,3243.87 736.98,3221.26 750.84,3199.78 763.73,3179.67 775.51,3161.17 786.02,3144.53 795.1,3129.98 802.61,3117.76 808.39,3108.12 812.3,3101.3 817.95,3090.99 827.11,3075.23 838.37,3056.61 850.93,3036.38 864.01,3015.83 877.79,2995.03 892.4,2974.92 906.01,2958.48 919.55,2944.85 933.95,2933.2 950.16,2922.68 969.12,2912.44 988.19,2903.07 1007.18,2893.75 1026.31,2884.99 1047.47,2884.82 1068.62,2884.65 1089.78,2884.48 1110.94,2884.31 1132.1,2884.14 1153.26,2883.97 1174.42,2883.8 1195.57,2883.63 1216.73,2883.46 1237.89,2883.29 1259.05,2883.12 1280.21,2882.94 1301.37,2882.77 1322.53,2882.6 1343.68,2882.43 1364.84,2882.26 1386.0,2882.09 1407.16,2881.92 1428.32,2881.75 1449.48,2881.58 1470.63,2881.41 1491.79,2881.24 1512.95,2881.07 1534.11,2880.9 1555.27,2880.73 1576.43,2880.56 1597.58,2880.39 1618.74,2880.22 1639.9,2880.05 1661.06,2879.88 1682.22,2879.71 1703.38,2879.54 1724.53,2879.37 1745.69,2879.2 1766.85,2879.03 1798.48,2878.79 1831.65,2878.52 1864.49,2878.25 1896.96,2877.96 1929.03,2877.66 1960.67,2877.35 1991.84,2877.03 2022.51,2876.71 2052.65,2876.37 2082.22,2876.03 2111.19,2875.67 2139.53,2875.32 2167.2,2874.95 2194.18,2874.58 2220.42,2874.21 2245.9,2873.83 2270.57,2873.44 2294.42,2873.06 2317.4,2872.67 2339.48,2872.28 2360.63,2871.88 2380.81,2871.49 2400.0,2871.1 2418.15,2870.71 2435.25,2870.31 2451.24,2869.92 2466.1,2869.54 2479.8,2869.15 2492.31,2868.77 2503.58,2868.4 2513.59,2868.02 2522.3,2867.66 2529.68,2867.3 2535.7,2866.94 2540.32,2866.6 2543.52,2866.26 2547.64,2865.36 2563.58,2861.1 2584.03,2855.24 2606.93,2848.46 2630.21,2841.45 2650.47,2835.82 2672.08,2830.06 2694.47,2824.17 2716.07,2818.52 2735.35,2813.5 2745.37,2810.92 2746.46,2810.74 2747.82,2810.55 2749.45,2810.37 2751.35,2810.19 2753.52,2810.01 2755.96,2809.83 2758.68,2809.66 2761.67,2809.48 2764.94,2809.31 2768.49,2809.14 2772.31,2808.97 2776.42,2808.8 2780.81,2808.64 2785.48,2808.48 2790.44,2808.32 2795.68,2808.16 2801.21,2808.0 2807.02,2807.84 2813.13,2807.69 2819.52,2807.53 2826.21,2807.38 2833.19,2807.23 2840.46,2807.09 2848.03,2806.94 2855.89,2806.8 2864.05,2806.65 2872.51,2806.51 2881.28,2806.38 2890.34,2806.24 2899.7,2806.1 2909.37,2805.97 2919.34,2805.84 2929.62,2805.71 2940.21,2805.58 2951.1,2805.45 2962.31,2805.32 2973.83,2805.2 2985.65,2805.08 2997.8,2804.96 3010.25,2804.84 3023.03,2804.72 3036.12,2804.6 3049.53,2804.49 3063.25,2804.38 3077.3,2804.27 3091.67,2804.16 3106.37,2804.05 3121.39,2803.94 3136.73,2803.84 3152.41,2803.73 3168.41,2803.63 3184.74,2803.53 3201.4,2803.43 3218.39,2803.33 3235.71,2803.24 3253.37,2803.15 3271.37,2803.05 3289.7,2802.96 3308.37,2802.87 3327.38,2802.78 3346.73,2802.7 3366.43,2802.61 3386.46,2802.53 3406.84,2802.45 3427.56,2802.37 3448.64,2802.29 3470.06,2802.21 3491.82,2802.13 3513.94,2802.06 3536.41,2801.98 3559.24,2801.91 3582.41,2801.84 3605.95,2801.77 3629.83,2801.71 3654.08,2801.64 3678.69,2801.57 3703.65,2801.51 3728.98,2801.45 3754.67,2801.39 3780.72,2801.33 3807.14,2801.27 3833.93,2801.21 3861.08,2801.16 3888.6,2801.11 3916.49,2801.05 3944.75,2801.0 3973.39,2800.95 4002.4,2800.9 4031.78,2800.86 4061.54,2800.81 4091.68,2800.77 4122.19,2800.72 4153.09,2800.68 4184.36,2800.64 4216.02,2800.6 4248.06,2800.56 4280.49,2800.53 4313.3,2800.49 4346.5,2800.46 4380.09,2800.43 4414.07,2800.39 4448.44,2800.36 4483.2,2800.34 4518.35,2800.31 4553.9,2800.28 4589.84,2800.26 4626.18,2800.23 4662.92,2800.21 4700.06,2800.19 4737.6,2800.17 4775.54,2800.15 4813.89,2800.13 4852.64,2800.11 4891.79,2800.1 4931.35,2800.08 4971.32,2800.07 5011.7,2800.06 5052.49,2800.05 5093.69,2800.04 5135.3,2800.03 5177.33,2800.02 5219.77,2800.01 5262.63,2800.01 5305.91,2800.01 5349.6,2800.0 5393.72,2800.0 5438.26,2800.0 5493.71,2800.0 5549.67,2800.0 5604.82,2800.0 5659.18,2800.0 5712.75,2800.01 5765.54,2800.01 5817.55,2800.01 5868.79,2800.01 5919.26,2800.02 5968.97,2800.02 6017.93,2800.03 6066.14,2800.04 6113.61,2800.04 6160.34,2800.05 6206.34,2800.06 6251.61,2800.07 6296.17,2800.08 6340.02,2800.09 6383.15,2800.11 6425.59,2800.12 6467.33,2800.14 6508.38,2800.15 6548.75,2800.17 6588.44,2800.19 6627.46,2800.21 6665.81,2800.23 6703.5,2800.25 6740.54,2800.28 6776.93,2800.3 6812.68,2800.33 6847.79,2800.36 6882.26,2800.39 6916.12,2800.42 6949.35,2800.45 6981.98,2800.49 7013.99,2800.52 7045.41,2800.56 7076.22,2800.6 7106.45,2800.64 7136.1,2800.69 7165.16,2800.73 7193.66,2800.78 7221.59,2800.83 7248.95,2800.88 7275.77,2800.93 7302.03,2800.99 7327.76,2801.04 7352.94,2801.1 7377.59,2801.17 7401.72,2801.23 7425.33,2801.29 7448.43,2801.36 7471.02,2801.43 7493.11,2801.51 7514.7,2801.58 7535.8,2801.66 7556.42,2801.74 7576.56,2801.82 7596.22,2801.91 7615.42,2801.99 7634.16,2802.08 7652.45,2802.18 7670.29,2802.27 7687.68,2802.37 7704.64,2802.47 7721.16,2802.58 7737.26,2802.68 7752.94,2802.79 7768.21,2802.9 7783.07,2803.02 7797.52,2803.14 7811.58,2803.26 7825.25,2803.38 7838.54,2803.51 7851.45,2803.64 7863.98,2803.77 7876.15,2803.91 7887.96,2804.05 7899.41,2804.2 7910.52,2804.34 7921.28,2804.49 7931.7,2804.65 7941.8,2804.8 7951.56,2804.96 7961.01,2805.13 7970.14,2805.29 7978.97,2805.46 7987.49,2805.64 7995.72,2805.82 8003.65,2806.0 8011.3,2806.19 8018.68,2806.37 8025.78,2806.57 8032.61,2806.76 8039.18,2806.97 8045.5,2807.17 8051.57,2807.38 8057.39,2807.59 8062.98,2807.81 8068.33,2808.03 8073.46,2808.25 8078.37,2808.48 8083.07,2808.72 8087.55,2808.95 8091.84,2809.2 8095.93,2809.44 8099.82,2809.69 8103.54,2809.95 8107.07,2810.2 8110.43,2810.47 8113.62,2810.74 8116.66,2811.01 8119.53,2811.29 8122.26,2811.57 8124.84,2811.85 8127.29,2812.14 8129.6,2812.44 8131.79,2812.74 8133.86,2813.04 8135.81,2813.35 8137.66,2813.67 8139.4,2813.99 8141.05,2814.31 8142.6,2814.64 8144.07,2814.98 8145.46,2815.31 8146.78,2815.66 8148.46,2816.14 8166.66,2822.05 8184.23,2828.58 8201.37,2835.86 8218.3,2844.02 8235.22,2853.2 8252.35,2863.53 8269.89,2875.15 8288.05,2888.19 8307.04,2902.79 8327.07,2919.08 8344.15,2933.54 8356.78,2943.85 8371.71,2955.48 8388.44,2968.13 8406.51,2981.45 8425.44,2995.13 8444.76,3008.83 8463.98,3022.24 8482.63,3035.02 8496.26,3044.2 8506.82,3051.43 8517.37,3058.82 8527.96,3066.42 8538.61,3074.27 8549.38,3082.41 8560.32,3090.88 8571.47,3099.72 8582.88,3108.99 8594.58,3118.7 8606.63,3128.92 8619.07,3139.67 8631.95,3151.0 8645.3,3162.95 8659.18,3175.57 8673.63,3188.89 8688.7,3202.95 8704.43,3217.8 8720.86,3233.47 8738.04,3250.02 8756.02,3267.48 8774.84,3285.88 8794.54,3305.28 8815.18,3325.71 8836.79,3347.22 8859.42,3369.84 8883.11,3393.63 8907.92,3418.61 8933.89,3444.83 8961.9,3473.19 8988.48,3500.14 9013.22,3525.28 9036.21,3548.7 9057.55,3570.53 9077.34,3590.87 9095.67,3609.83 9112.65,3627.52 9128.37,3644.06 9142.93,3659.55 9156.42,3674.1 9168.95,3687.83 9180.6,3700.85 9191.48,3713.26 9201.69,3725.17 9211.32,3736.71 9220.47,3747.97 9229.23,3759.07 9237.71,3770.12 9245.99,3781.23 9254.19,3792.51 9262.39,3804.06 9270.7,3816.01 9279.21,3828.46 9288.01,3841.52 9300.0,3859.04 9313.1,3877.77 9326.72,3896.87 9340.57,3915.96 9354.38,3934.65 9367.87,3952.53 9380.74,3969.23 9392.73,3984.35 9403.55,3997.49 9413.02,4008.59 9423.24,4021.08 9434.81,4035.66 9447.42,4051.93 9460.79,4069.49 9474.61,4087.95 9488.59,4106.91 9502.43,4125.97 9515.83,4144.74 9528.48,4162.81 9543.19,4183.91 9558.43,4205.37 9573.42,4226.06 9587.68,4245.37 9600.75,4262.66 9612.16,4277.31 9621.45,4288.7 9629.13,4297.26 9639.82,4309.07 9651.07,4322.19 9662.82,4336.51 9675.0,4351.94 9687.54,4368.38 9700.39,4385.72 9713.49,4403.86 9726.75,4422.69 9740.13,4442.12 9753.56,4462.05 9766.98,4482.37 9780.31,4502.98 9793.51,4523.77 9806.5,4544.65 9819.21,4565.52 9831.6,4586.27 9843.59,4606.79 9855.11,4627.0 9866.12,4646.78 9876.53,4666.04 9886.29,4684.67 9895.34,4702.56 9903.61,4719.63 9911.03,4735.76 9917.54,4750.86 9923.09,4764.81 9931.76,4789.19 9941.85,4819.22 9950.55,4847.22 9957.82,4873.28 9963.63,4897.52 9967.94,4920.05 9970.72,4940.97 9971.94,4960.39 9971.56,4978.42 9969.55,4995.17 9965.87,5010.74 9960.5,5025.24 9953.39,5038.78 9944.51,5051.47 9933.84,5063.42 9921.32,5074.73 9906.94,5085.51 9890.66,5095.86 9872.44,5105.91 9852.25,5115.75 9830.05,5125.49 9805.93,5135.21 9781.65,5144.24 9757.45,5152.26 9733.51,5159.24 9710.0,5165.16 9687.1,5169.99 9665.0,5173.7 9643.87,5176.27 9623.89,5177.66 9605.23,5177.86 9588.08,5176.84 9572.61,5174.56 9559.0,5171.0"/></g>
</svg>
