<?xml version="1.0" standalone="no"?>
<!DOCTYPE svg PUBLIC "-//W3C//DTD SVG 20010904//EN"
 "http://www.w3.org/TR/2001/REC-SVG-20010904/DTD/svg10.dtd">
<svg version="1.0" xmlns="http://www.w3.org/2000/svg"
 width="1024.000000pt" height="768.000000pt" viewBox="0 0 1024.000000 768.000000"
 preserveAspectRatio="xMidYMid meet">
<metadata>
Created by potrace 1.15, written by Peter Selinger 2001-2017
</metadata>
<g transform="translate(0.000000,768.000000) scale(0.100000,-0.100000)"
fill="#000000" stroke="none">
<path d="M9559 5171 c-41 -13 -71 -31 -119 -71 -74 -62 -137 -91 -270 -126
-50 -13 -136 -18 -370 -24 l-305 -8 -100 -32 -100 -33 -335 -6 -335 -7 -110
-34 -110 -33 -390 -7 c-231 -4 -404 -12 -425 -18 -199 -61 -136 -57 -810 -57
-552 0 -622 2 -687 18 -88 21 -176 22 -252 2 -31 -7 -113 -19 -182 -25 -87 -7
-157 -20 -230 -42 l-104 -31 -461 -4 c-472 -5 -503 -3 -694 37 -123 25 -446
28 -588 5 -113 -19 -205 -20 -337 -6 -326 34 -525 43 -895 38 l-375 -4 -85
-28 c-47 -15 -134 -34 -195 -42 -182 -23 -239 -63 -310 -216 -62 -134 -68
-271 -17 -412 13 -38 53 -154 87 -256 34 -102 68 -196 75 -210 7 -13 70 -109
139 -214 69 -104 134 -206 144 -225 10 -19 37 -63 60 -98 34 -50 53 -68 97
-90 l55 -27 745 -6 c410 -3 759 -9 775 -13 17 -4 57 -16 90 -26 33 -9 83 -22
110 -29 36 -8 794 -11 2698 -11 2433 0 2653 1 2705 16 66 20 116 49 192 114
30 26 98 75 150 110 102 68 192 150 449 410 242 245 275 281 350 393 38 56 92
129 121 162 28 33 82 105 120 160 38 55 82 114 97 130 91 96 257 361 298 475
83 232 63 294 -116 364 -98 39 -199 54 -250 37z"/>
</g>
</svg>
