<!DOCTYPE svg PUBLIC "-//W3C//DTD SVG 20010904//EN" "http://www.w3.org/TR/2001/REC-SVG-20010904/DTD/svg10.dtd">
<svg xmlns="http://www.w3.org/2000/svg" version="1.0" width="1164.000000pt" height="1390.000000pt" viewBox="0 0 1164.000000 1390.000000" preserveAspectRatio="xMidYMid meet">
<metadata>
Created by potrace 1.15, written by Peter Selinger 2001-2017
</metadata>
<g transform="translate(0.000000,1390.000000) scale(0.100000,-0.100000)" fill="#000000" stroke="none">
<polygon points="6030.0,12374.0 6003.31,12369.45 5962.39,12365.57 5911.9,12362.47 5856.5,12360.26 5800.85,12359.06 5749.6,12358.97 5707.42,12360.11 5678.98,12362.59 5666.45,12366.45 5647.35,12367.6 5616.9,12364.54 5577.24,12357.69 5530.5,12347.52 5478.84,12334.45 5424.37,12318.94 5367.72,12300.97 5310.66,12281.8 5262.0,12264.54 5220.49,12248.65 5184.86,12233.6 5153.83,12218.83 5126.14,12203.82 5100.54,12188.02 5079.03,12172.94 5054.58,12153.1 5025.84,12127.86 4993.89,12098.28 4959.76,12065.43 4924.49,12030.38 4889.14,11994.2 4854.76,11957.96 4822.39,11922.71 4793.07,11889.54 4767.85,11859.5 4747.79,11833.68 4724.77,11801.53 4698.51,11766.61 4671.73,11733.1 4644.38,11700.96 4616.4,11670.13 4587.72,11640.57 4558.27,11612.21 4528.0,11585.02 4496.83,11558.94 4464.71,11533.93 4431.57,11509.93 4382.58,11474.98 4339.2,11441.19 4306.77,11411.34 4283.78,11383.42 4268.73,11355.39 4260.11,11325.24 4256.43,11290.93 4256.27,11260.11 4258.64,11236.31 4264.79,11210.7 4276.31,11178.73 4294.78,11135.88 4321.8,11077.62 4356.82,11003.75 4388.31,10936.93 4414.91,10879.73 4437.07,10830.96 4455.28,10789.43 4470.02,10753.96 4481.75,10723.35 4490.96,10696.42 4498.12,10671.97 4503.7,10648.83 4508.19,10625.79 4514.2,10587.99 4522.38,10546.74 4532.75,10512.55 4547.21,10480.92 4567.66,10447.39 4595.98,10407.48 4622.33,10370.75 4646.9,10332.65 4671.1,10291.6 4694.32,10248.9 4715.92,10205.87 4735.28,10163.81 4751.79,10124.03 4764.83,10087.84 4773.76,10056.54 4777.97,10031.45 4777.51,9985.53 4763.6,9953.31 4739.59,9923.08 4715.55,9903.22 4684.04,9889.16 4639.52,9878.78 4581.5,9870.51 4546.35,9864.59 4504.44,9856.19 4459.86,9846.19 4416.73,9835.49 4376.06,9824.71 4331.63,9814.34 4287.07,9805.3 4246.81,9798.43 4213.08,9794.39 4170.79,9790.16 4124.84,9784.8 4077.22,9778.6 4029.93,9771.83 3984.95,9764.78 3944.29,9757.71 3909.93,9750.93 3883.36,9744.56 3849.95,9735.51 3812.92,9725.28 3773.05,9714.11 3731.16,9702.22 3688.05,9689.83 3644.52,9677.16 3602.91,9664.93 3563.21,9654.53 3519.49,9644.55 3476.62,9635.93 3439.45,9629.66 3401.6,9623.24 3358.58,9613.94 3315.13,9602.92 3275.97,9591.31 3227.72,9575.93 3183.17,9562.54 3142.87,9551.45 3105.28,9542.35 3068.85,9534.91 3032.04,9528.79 2993.29,9523.68 2952.11,9519.39 2910.2,9515.43 2865.15,9510.84 2821.13,9506.06 2782.34,9501.54 2756.26,9498.55 2727.11,9496.5 2690.52,9494.77 2648.05,9493.36 2601.25,9492.29 2551.69,9491.53 2500.93,9491.11 2445.76,9491.17 2377.93,9491.59 2321.8,9491.18 2276.9,9489.9 2242.81,9487.73 2219.06,9484.65 2204.58,9480.44 2177.82,9465.78 2139.16,9440.57 2098.08,9411.43 2068.32,9390.39 2042.45,9374.17 2016.54,9361.41 1986.67,9350.72 1948.89,9340.71 1899.28,9330.0 1833.9,9317.23 1757.52,9302.83 1707.2,9294.89 1675.63,9293.67 1651.59,9298.63 1624.63,9308.97 1593.36,9326.31 1558.94,9352.3 1523.02,9385.99 1493.09,9418.59 1470.91,9448.85 1455.54,9479.57 1446.04,9513.51 1441.45,9553.46 1440.84,9602.19 1443.21,9664.01 1442.95,9714.93 1437.75,9747.18 1428.03,9767.61 1414.34,9781.46 1386.79,9794.27 1334.04,9810.89 1256.44,9831.74 1209.97,9834.45 1202.03,9819.31 1194.09,9776.23 1176.83,9722.05 1152.54,9688.76 1125.61,9683.09 1093.38,9711.27 1070.8,9749.44 1061.36,9779.83 1033.55,9816.52 998.67,9845.57 965.5,9856.14 932.54,9852.67 900.99,9837.19 872.2,9811.41 847.5,9777.02 828.22,9735.73 815.71,9689.22 811.3,9639.2 814.58,9597.31 822.53,9561.32 835.07,9525.7 852.08,9490.64 873.39,9456.32 898.89,9422.92 928.43,9390.64 961.87,9359.65 999.07,9330.15 1035.85,9304.4 1070.83,9278.33 1105.85,9250.08 1136.4,9223.2 1166.83,9191.64 1192.12,9157.83 1205.24,9126.67 1205.95,9096.04 1193.97,9063.81 1169.05,9027.83 1130.94,8985.98 1090.55,8947.08 1050.85,8914.79 1011.29,8888.48 972.16,8868.25 933.77,8854.15 896.38,8846.27 860.28,8844.68 825.77,8849.45 793.13,8860.65 762.26,8878.66 728.3,8905.94 698.45,8935.05 655.48,8983.1 619.15,9013.39 590.76,9021.58 566.99,9009.14 547.78,8980.89 538.27,8940.98 536.45,8893.96 542.5,8850.29 557.28,8817.71 582.28,8788.68 615.08,8763.21 653.4,8742.54 694.97,8727.92 737.5,8720.61 780.51,8718.26 821.35,8708.76 858.16,8691.7 890.25,8667.92 916.93,8638.23 937.52,8603.47 951.33,8564.46 957.68,8522.04 955.75,8476.03 946.61,8400.03 942.59,8350.81 944.01,8319.62 951.19,8297.74 964.83,8276.02 986.27,8252.09 1014.13,8230.94 1050.14,8211.59 1096.03,8193.07 1153.76,8174.19 1206.76,8156.47 1247.65,8139.81 1278.5,8122.17 1301.39,8101.5 1318.38,8075.79 1331.53,8042.99 1342.92,8001.08 1353.71,7952.45 1364.54,7912.24 1378.33,7874.73 1395.5,7839.07 1416.51,7804.42 1441.78,7769.91 1470.9,7735.59 1499.22,7702.53 1528.03,7667.3 1553.2,7634.87 1575.63,7604.34 1603.69,7567.94 1628.99,7537.48 1651.31,7516.07 1675.72,7503.32 1704.98,7500.38 1742.56,7507.47 1791.97,7524.82 1855.76,7552.25 1905.99,7576.06 1948.68,7598.59 1984.88,7620.48 2015.6,7642.38 2041.88,7664.95 2064.75,7688.82 2090.93,7719.14 2122.22,7752.25 2156.02,7785.26 2190.73,7816.76 2224.76,7845.33 2256.5,7869.56 2284.36,7888.03 2311.8,7901.84 2341.3,7913.01 2373.84,7920.63 2416.41,7926.06 2476.0,7930.61 2537.55,7934.71 2586.14,7939.07 2614.36,7942.9 2626.1,7946.98 2657.61,7956.31 2706.39,7969.69 2764.15,7984.85 2806.55,7996.28 2851.22,8008.28 2895.39,8020.11 2936.31,8031.04 2971.21,8040.34 3002.33,8048.26 3041.41,8056.66 3085.09,8064.8 3129.72,8071.99 3171.67,8077.56 3214.28,8082.59 3257.53,8089.43 3298.69,8097.93 3337.77,8108.13 3374.76,8120.1 3411.9,8132.71 3453.99,8146.51 3496.62,8160.14 3535.02,8172.02 3564.84,8180.67 3591.64,8187.8 3618.87,8194.19 3649.02,8200.28 3684.59,8206.51 3728.06,8213.32 3781.93,8221.14 3848.68,8230.41 3902.86,8238.32 3945.08,8246.39 3986.51,8256.12 4026.55,8267.37 4064.58,8280.01 4116.81,8298.96 4168.81,8313.72 4210.86,8319.33 4244.99,8315.64 4273.25,8302.53 4297.66,8279.86 4315.79,8253.84 4326.69,8228.33 4334.16,8198.5 4338.22,8164.43 4338.89,8126.23 4336.19,8084.01 4330.16,8037.86 4320.79,7987.88 4308.13,7934.18 4293.03,7879.73 4284.42,7846.93 4276.98,7811.08 4270.66,7771.39 4265.43,7727.09 4261.26,7677.42 4257.63,7624.34 4253.22,7572.97 4248.38,7527.2 4243.59,7491.56 4237.07,7460.72 4223.39,7399.82 4214.59,7351.55 4210.47,7312.61 4210.86,7279.7 4215.55,7249.52 4224.37,7218.77 4239.0,7181.38 4258.34,7141.79 4275.32,7113.41 4288.45,7089.3 4299.11,7064.51 4307.73,7036.91 4314.73,7004.36 4320.53,6964.73 4325.55,6915.88 4330.21,6855.67 4334.94,6781.97 4339.87,6710.06 4344.81,6649.7 4350.08,6599.29 4356.0,6557.24 4362.88,6521.98 4371.05,6491.94 4380.81,6465.54 4392.49,6441.2 4406.55,6417.13 4429.98,6386.79 4458.79,6360.45 4492.36,6338.43 4530.08,6321.07 4571.32,6308.69 4615.47,6301.62 4658.14,6299.83 4699.32,6296.29 4748.77,6289.23 4798.44,6280.09 4840.28,6270.33 4866.26,6261.4 4899.22,6245.1 4932.27,6230.56 4955.61,6217.87 4986.02,6199.74 5022.03,6177.17 5062.18,6151.16 5105.0,6122.72 5149.02,6092.83 5192.78,6062.51 5234.82,6032.76 5273.66,6004.57 5307.85,5978.94 5335.91,5956.88 5356.39,5939.39 5391.2,5905.61 5429.45,5866.98 5464.66,5829.73 5496.88,5793.78 5526.2,5759.0 5552.68,5725.29 5576.41,5692.56 5597.45,5660.7 5615.88,5629.6 5631.78,5599.15 5645.21,5569.27 5656.25,5539.83 5664.51,5512.72 5670.9,5482.86 5677.45,5442.13 5683.57,5394.78 5688.71,5345.05 5693.02,5296.56 5698.37,5247.97 5704.37,5202.42 5710.44,5163.8 5716.0,5136.01 5721.89,5108.41 5728.67,5069.76 5735.56,5024.1 5741.77,4975.48 5747.38,4924.18 5753.95,4874.07 5761.11,4831.8 5769.46,4795.07 5779.6,4761.56 5793.88,4723.92 5810.11,4679.08 5822.09,4639.2 5830.12,4602.14 5834.5,4565.78 5835.54,4527.98 5833.54,4486.61 5829.01,4441.72 5825.26,4398.68 5823.15,4353.19 5822.69,4310.03 5823.87,4273.94 5829.17,4205.03 5833.33,4145.05 5836.09,4095.15 5837.46,4053.46 5837.45,4018.12 5836.07,3987.27 5833.32,3959.03 5829.22,3931.55 5823.46,3901.52 5817.04,3863.35 5812.37,3822.87 5809.43,3780.73 5808.2,3737.59 5808.66,3694.12 5810.79,3650.98 5814.56,3608.82 5819.95,3568.31 5825.07,3526.39 5827.6,3481.66 5827.08,3440.87 5821.78,3383.29 5816.64,3322.28 5813.4,3272.44 5812.03,3231.88 5812.45,3198.69 5814.63,3170.99 5818.5,3146.89 5822.07,3128.67 5824.98,3106.18 5827.8,3077.12 5830.49,3042.33 5833.01,3002.67 5835.34,2959.01 5837.43,2912.18 5839.26,2863.05 5840.78,2812.47 5841.96,2761.29 5842.78,2710.38 5843.18,2660.58 5843.14,2612.76 5842.54,2565.8 5840.94,2524.33 5837.83,2487.28 5832.7,2451.08 5825.03,2412.18 5814.32,2366.99 5802.88,2323.04 5792.23,2282.7 5781.58,2242.35 5777.4,2201.23 5778.11,2159.51 5778.81,2117.79 5779.52,2076.07 5780.22,2034.35 5780.93,1992.63 5781.63,1950.91 5782.34,1909.19 5783.08,1864.09 5784.43,1774.19 5786.03,1697.42 5788.0,1632.59 5790.49,1578.5 5793.65,1533.97 5797.61,1497.8 5802.51,1468.78 5808.5,1445.74 5815.72,1427.46 5824.3,1412.76 5834.4,1400.44 5850.2,1386.61 5882.77,1368.83 5923.86,1354.09 5968.62,1343.96 6012.2,1340.01 6036.89,1338.44 6073.08,1333.84 6118.08,1326.79 6168.1,1317.87 6222.68,1307.06 6290.52,1294.49 6343.84,1287.06 6385.31,1284.9 6417.62,1288.15 6443.46,1296.94 6465.5,1311.4 6483.75,1329.25 6497.03,1349.08 6506.8,1374.93 6513.88,1410.47 6519.1,1459.36 6523.29,1525.29 6526.38,1591.84 6527.88,1638.6 6527.88,1677.04 6526.05,1711.37 6522.05,1745.83 6515.55,1784.63 6506.21,1831.99 6497.85,1873.11 6489.55,1914.0 6481.24,1954.89 6480.0,1996.49 6480.0,2038.22 6480.0,2079.95 6480.0,2121.67 6480.0,2163.4 6480.0,2205.12 6480.0,2246.85 6480.0,2288.57 6480.0,2330.3 6480.0,2372.03 6480.0,2413.75 6480.0,2455.48 6480.0,2497.2 6480.0,2538.93 6480.0,2580.65 6479.96,2639.17 6479.83,2697.81 6479.61,2755.33 6479.31,2811.48 6478.93,2866.05 6478.47,2918.81 6477.95,2969.52 6477.36,3017.95 6476.72,3063.88 6476.01,3107.07 6475.25,3147.31 6474.45,3184.35 6473.6,3217.97 6472.71,3247.94 6471.78,3274.04 6470.83,3296.02 6469.85,3313.66 6468.72,3328.14 6467.0,3352.1 6465.36,3382.31 6463.83,3417.93 6462.43,3458.12 6461.18,3502.05 6460.1,3548.87 6459.22,3597.75 6458.57,3647.85 6458.15,3698.32 6458.0,3748.33 6457.9,3805.08 6457.57,3858.69 6457.0,3908.93 6456.17,3955.91 6455.07,3999.73 6453.69,4040.49 6452.0,4078.28 6449.99,4113.21 6447.66,4145.38 6444.97,4174.89 6440.77,4213.95 6435.83,4267.14 6433.35,4310.08 6433.28,4346.38 6435.57,4379.66 6440.39,4415.73 6445.48,4460.97 6448.36,4505.88 6449.07,4549.75 6447.66,4591.86 6444.15,4631.5 6438.59,4667.97 6431.11,4702.9 6425.44,4740.44 6422.7,4779.45 6422.84,4819.6 6425.81,4860.61 6431.55,4902.15 6440.01,4943.92 6451.15,4985.63 6464.9,5026.95 6481.23,5067.6 6500.06,5107.25 6521.24,5145.4 6537.82,5172.49 6557.93,5204.49 6581.01,5240.57 6606.54,5279.93 6633.96,5321.76 6662.73,5365.27 6692.32,5409.63 6722.16,5454.05 6751.73,5497.72 6780.48,5539.82 6807.86,5579.56 6833.34,5616.12 6856.36,5648.7 6876.39,5676.49 6892.89,5698.68 6905.3,5714.47 6915.89,5726.51 6936.97,5750.74 6965.21,5783.8 6997.07,5821.84 7028.02,5859.55 7057.73,5893.85 7089.37,5927.83 7120.39,5958.79 7148.26,5984.03 7174.55,6004.44 7208.28,6030.61 7243.28,6058.86 7274.57,6085.39 7304.38,6111.0 7335.19,6135.79 7365.98,6158.87 7397.15,6180.44 7429.05,6200.67 7462.06,6219.76 7496.56,6237.89 7532.91,6255.25 7571.49,6272.02 7612.67,6288.39 7656.83,6304.54 7704.33,6320.67 7758.43,6338.4 7808.06,6356.05 7849.3,6372.93 7884.02,6390.1 7914.1,6408.65 7941.41,6429.65 7967.82,6454.19 7995.45,6483.59 8026.18,6519.42 8050.96,6553.07 8070.49,6586.14 8085.44,6620.19 8096.51,6656.8 8104.38,6697.54 8109.74,6743.98 8113.58,6784.12 8118.05,6828.25 8122.68,6872.98 8126.95,6914.04 8131.93,6960.63 8135.3,7010.54 8133.84,7031.36 8132.22,7045.03 8130.64,7074.9 8129.14,7118.11 8127.75,7171.81 8126.5,7233.15 8125.31,7309.84 8123.99,7378.41 8122.19,7428.71 8119.42,7465.32 8115.21,7492.82 8109.08,7515.79 8100.56,7538.82 8082.3,7583.25 8061.95,7634.91 8046.13,7679.0 8034.4,7717.31 8026.3,7751.64 8021.39,7783.79 8019.21,7815.54 8019.63,7855.8 8024.92,7901.23 8035.2,7944.64 8050.06,7985.22 8069.1,8022.15 8091.91,8054.62 8118.09,8081.82 8146.07,8102.21 8171.95,8111.61 8207.59,8117.46 8250.31,8119.75 8297.46,8118.47 8346.38,8113.64 8394.42,8105.25 8415.2,8101.36 8438.33,8098.43 8467.64,8095.57 8503.04,8092.79 8544.49,8090.08 8591.9,8087.46 8645.21,8084.9 8704.34,8082.43 8769.24,8080.03 8827.47,8078.27 8884.34,8076.35 8939.69,8074.26 8993.22,8072.04 9044.66,8069.69 9093.71,8067.24 9140.1,8064.71 9183.53,8062.12 9223.74,8059.48 9260.43,8056.82 9293.32,8054.16 9322.12,8051.52 9346.56,8048.91 9366.35,8046.35 9384.2,8043.54 9407.72,8040.29 9435.71,8036.95 9467.73,8033.56 9503.36,8030.13 9542.18,8026.71 9583.76,8023.3 9627.68,8019.96 9673.5,8016.69 9720.81,8013.54 9769.17,8010.52 9818.15,8007.67 9867.35,8005.02 9916.32,8002.59 9964.64,8000.4 10011.89,7998.5 10057.63,7996.91 10101.45,7995.65 10151.27,7994.55 10213.07,7993.42 10267.9,7992.71 10316.62,7992.45 10360.1,7992.64 10399.19,7993.3 10434.76,7994.46 10467.66,7996.13 10498.75,7998.32 10528.9,8001.05 10562.44,8004.75 10621.51,8012.48 10669.78,8021.08 10709.19,8031.58 10741.69,8045.03 10769.25,8062.45 10793.81,8084.88 10817.32,8113.36 10841.74,8148.93 10858.2,8175.81 10875.44,8206.19 10894.44,8241.31 10914.65,8280.1 10935.57,8321.5 10956.66,8364.43 10977.39,8407.83 10997.24,8450.64 11015.67,8491.77 11032.17,8530.18 11046.2,8564.78 11062.21,8607.73 11078.64,8654.18 11091.13,8693.11 11100.54,8727.96 11107.76,8762.17 11113.68,8799.17 11119.11,8841.75 11124.44,8872.47 11132.5,8911.79 11142.58,8956.13 11153.99,9001.91 11166.38,9046.86 11180.63,9101.58 11191.29,9152.22 11198.37,9198.65 11201.88,9240.71 11201.84,9278.26 11198.27,9311.18 11191.17,9339.31 11179.2,9365.18 11160.2,9393.44 11135.37,9422.84 11105.7,9452.58 11072.18,9481.84 11035.78,9509.82 10997.5,9535.71 10958.31,9558.7 10919.2,9577.99 10879.65,9593.47 10841.8,9605.19 10805.33,9612.96 10768.58,9616.83 10729.92,9616.86 10687.68,9613.13 10640.23,9605.7 10581.21,9593.8 10530.91,9584.81 10495.49,9582.07 10464.76,9584.88 10429.38,9592.57 10398.27,9604.17 10368.7,9624.04 10331.19,9658.12 10282.93,9705.28 10250.73,9730.84 10223.87,9739.27 10193.67,9739.57 10165.41,9734.61 10132.68,9723.65 10094.32,9706.15 10049.15,9681.58 9996.76,9649.91 9949.4,9622.13 9908.79,9601.4 9873.06,9586.84 9840.32,9577.62 9808.41,9572.85 9772.36,9571.4 9739.54,9574.93 9706.46,9584.67 9669.58,9601.82 9625.4,9627.61 9576.32,9659.38 9533.85,9686.86 9497.07,9709.71 9472.43,9723.78 9443.46,9735.36 9408.25,9743.19 9368.04,9747.1 9323.78,9747.05 9276.42,9743.02 9226.92,9734.98 9173.69,9725.88 9129.9,9722.06 9092.55,9723.97 9058.62,9732.06 9025.1,9746.8 8988.98,9768.62 8949.37,9794.48 8909.69,9818.08 8878.42,9834.48 8853.12,9843.02 8820.93,9848.64 8782.72,9851.42 8739.51,9851.36 8692.27,9848.46 8642.02,9842.71 8588.45,9833.91 8536.14,9825.67 8493.32,9821.78 8456.45,9822.45 8422.01,9827.87 8386.47,9838.26 8346.94,9853.06 8303.52,9867.62 8261.62,9879.5 8225.38,9886.47 8181.12,9896.18 8142.61,9910.26 8108.6,9929.35 8078.06,9953.16 8049.7,9972.48 8019.54,9985.61 7983.54,9993.55 7937.7,9997.34 7877.99,9998.0 7823.95,9997.44 7785.53,9999.14 7754.09,10004.7 7721.0,10015.7 7677.61,10033.73 7636.11,10050.86 7600.14,10064.5 7566.26,10075.78 7532.59,10085.13 7497.24,10092.98 7458.32,10099.74 7413.94,10105.85 7362.22,10111.72 7291.57,10118.76 7224.46,10127.01 7179.44,10135.95 7152.93,10146.58 7141.33,10159.85 7140.76,10175.86 7147.65,10193.38 7163.0,10214.05 7188.38,10239.35 7225.36,10270.79 7275.51,10309.85 7341.27,10358.78 7409.05,10409.17 7466.25,10452.35 7513.84,10489.27 7552.75,10520.87 7583.94,10548.09 7608.34,10571.89 7626.92,10593.19 7640.62,10612.95 7650.38,10632.11 7657.15,10651.61 7661.88,10672.4 7664.84,10691.75 7665.96,10717.46 7666.05,10755.14 7665.21,10801.83 7663.57,10854.61 7661.21,10910.56 7657.73,10973.4 7654.05,11025.59 7649.93,11068.6 7645.09,11104.93 7639.22,11137.1 7632.03,11167.61 7623.2,11199.38 7614.42,11234.29 7607.05,11270.87 7600.96,11310.33 7596.01,11353.93 7592.03,11402.89 7587.62,11467.86 7582.7,11519.18 7576.41,11554.92 7567.28,11582.48 7553.86,11609.26 7536.61,11637.04 7515.38,11662.74 7489.95,11686.53 7460.12,11708.55 7425.68,11728.97 7386.41,11747.95 7342.12,11765.63 7292.58,11782.19 7236.3,11798.11 7176.8,11814.08 7124.83,11828.39 7079.33,11841.5 7039.22,11853.86 7003.43,11865.92 6970.89,11878.13 6940.53,11890.94 6911.27,11904.81 6882.04,11920.17 6851.77,11937.49 6819.39,11957.2 6783.83,11979.77 6744.28,12005.47 6710.79,12026.45 6673.19,12048.73 6633.71,12071.06 6594.57,12092.16 6558.0,12110.79 6524.08,12126.74 6481.95,12147.12 6445.02,12166.96 6411.89,12187.26 6381.18,12209.0 6351.51,12233.18 6321.5,12260.79 6289.76,12292.82 6254.88,12328.74 6221.9,12356.52 6189.75,12375.41 6156.46,12386.0 6120.05,12388.89 6078.56,12384.69 6030.0,12374.0"/></g>
</svg>
