<?xml version="1.0" standalone="no"?>
<!DOCTYPE svg PUBLIC "-//W3C//DTD SVG 20010904//EN"
 "http://www.w3.org/TR/2001/REC-SVG-20010904/DTD/svg10.dtd">
<svg version="1.0" xmlns="http://www.w3.org/2000/svg"
 width="1164.000000pt" height="1390.000000pt" viewBox="0 0 1164.000000 1390.000000"
 preserveAspectRatio="xMidYMid meet">
<metadata>
Created by potrace 1.15, written by Peter Selinger 2001-2017
</metadata>
<g transform="translate(0.000000,1390.000000) scale(0.100000,-0.100000)"
fill="#000000" stroke="none">
<path d="M6030 12374 c-52 -14 -340 -21 -360 -9 -19 12 -159 -17 -290 -60
-159 -52 -225 -80 -287 -122 -72 -48 -289 -269 -350 -356 -94 -134 -196 -238
-320 -323 -141 -99 -166 -134 -167 -229 0 -55 8 -76 86 -240 132 -278 154
-333 168 -420 15 -102 26 -127 93 -217 79 -106 170 -297 175 -367 3 -49 0 -60
-25 -92 -33 -43 -61 -55 -168 -68 -44 -6 -127 -24 -185 -40 -58 -16 -139 -32
-180 -36 -105 -9 -276 -34 -335 -50 -71 -19 -177 -49 -275 -78 -47 -14 -122
-30 -168 -37 -46 -6 -122 -24 -170 -40 -136 -44 -201 -59 -313 -70 -57 -5
-142 -14 -189 -20 -47 -6 -186 -9 -310 -9 -155 2 -234 -1 -254 -10 -16 -6 -62
-36 -103 -66 -84 -61 -92 -64 -286 -101 -136 -26 -140 -26 -185 -8 -30 11 -69
39 -108 79 -76 77 -88 116 -82 252 4 74 1 104 -10 124 -14 25 -23 29 -151 65
-53 14 -84 13 -79 -3 1 -4 -4 -31 -11 -60 -13 -53 -38 -86 -62 -81 -19 4 -59
53 -59 73 0 25 -47 81 -80 95 -89 37 -188 -90 -178 -230 8 -111 84 -221 210
-306 40 -27 96 -72 125 -101 85 -87 82 -129 -22 -233 -127 -130 -260 -169
-356 -106 -24 16 -57 45 -74 65 -77 92 -108 103 -141 54 -22 -33 -24 -125 -4
-163 31 -60 123 -110 203 -110 128 0 220 -110 203 -242 -19 -151 -19 -161 6
-198 29 -42 75 -69 170 -99 174 -54 187 -67 219 -216 18 -88 51 -152 116 -225
32 -36 76 -90 97 -120 22 -30 53 -70 70 -88 44 -47 81 -43 219 19 115 52 173
91 217 144 63 76 173 173 227 200 50 24 75 29 185 36 70 4 131 10 136 13 5 3
69 21 143 40 74 20 175 47 224 60 50 13 140 29 200 35 73 8 138 22 195 43 47
16 121 40 165 53 79 23 117 30 330 59 71 10 143 28 203 51 134 51 185 46 231
-20 45 -66 39 -198 -15 -382 -17 -57 -28 -125 -34 -225 -5 -78 -14 -162 -20
-185 -36 -150 -38 -190 -14 -259 9 -26 27 -65 41 -87 46 -73 54 -114 68 -346
15 -233 26 -291 71 -363 46 -73 138 -118 244 -118 53 0 192 -25 217 -39 10 -6
36 -18 58 -27 66 -29 376 -241 435 -298 176 -169 269 -297 303 -418 9 -29 21
-114 27 -188 6 -74 18 -161 26 -194 8 -32 22 -118 29 -191 11 -99 21 -151 43
-206 47 -119 55 -173 42 -289 -7 -55 -9 -135 -6 -178 18 -226 18 -278 1 -363
-21 -99 -22 -233 -5 -341 7 -43 10 -104 6 -140 -17 -175 -18 -236 -6 -288 13
-59 25 -347 23 -545 -1 -100 -6 -140 -33 -245 l-33 -125 6 -355 c5 -382 12
-434 59 -477 32 -28 112 -53 172 -53 27 0 117 -14 199 -31 169 -34 215 -33
260 9 37 35 44 70 52 242 6 132 5 156 -19 273 l-26 128 0 622 c0 355 -5 674
-11 742 -6 66 -11 257 -11 425 0 208 -4 349 -15 443 -12 110 -13 154 -4 213
15 101 13 206 -4 279 -33 137 0 316 86 460 81 135 351 535 390 576 17 19 67
77 110 130 43 53 106 118 141 144 35 26 89 69 120 97 127 110 238 170 445 236
151 49 196 75 267 154 81 89 106 146 116 265 5 54 14 138 19 187 6 49 8 93 5
97 -3 5 -6 109 -8 231 -3 216 -4 225 -30 288 -60 144 -77 203 -77 280 -1 116
50 225 125 271 39 24 160 25 256 3 43 -9 169 -17 370 -24 284 -8 534 -23 605
-35 114 -19 507 -45 755 -50 232 -5 323 -3 426 9 182 21 218 39 289 150 53 84
165 313 207 426 46 124 55 159 67 261 6 41 26 132 46 201 41 143 48 249 22
308 -35 78 -168 188 -282 234 -99 39 -163 43 -294 16 -99 -21 -117 -22 -167
-11 -49 11 -65 22 -126 82 -65 65 -72 69 -114 69 -44 0 -101 -24 -199 -85 -90
-56 -141 -77 -195 -82 -74 -7 -111 6 -218 76 -48 32 -102 66 -120 75 -52 27
-145 31 -245 11 -122 -24 -164 -17 -246 39 -37 25 -85 53 -106 62 -50 21 -158
21 -275 0 -120 -22 -160 -20 -242 13 -40 15 -95 32 -123 36 -63 9 -108 27
-147 60 -53 45 -89 54 -210 53 -111 -2 -115 -1 -208 39 -117 49 -168 61 -340
78 -151 14 -190 25 -190 53 0 33 40 72 184 178 299 221 326 248 340 339 4 22
2 126 -3 230 -8 156 -15 206 -36 278 -18 63 -28 127 -34 226 -8 124 -12 145
-37 190 -45 85 -139 141 -306 186 -286 76 -318 89 -503 210 -60 39 -157 93
-215 119 -113 52 -165 89 -248 177 -83 90 -133 104 -252 73z"/>
</g>
</svg>
