<!DOCTYPE svg PUBLIC "-//W3C//DTD SVG 20010904//EN" "http://www.w3.org/TR/2001/REC-SVG-20010904/DTD/svg10.dtd">
<svg xmlns="http://www.w3.org/2000/svg" version="1.0" width="3840.000000pt" height="2525.000000pt" viewBox="0 0 3840.000000 2525.000000" preserveAspectRatio="xMidYMid meet">
<metadata>
Created by potrace 1.15, written by Peter Selinger 2001-2017
</metadata>
<g transform="translate(0.000000,2525.000000) scale(0.100000,-0.100000)" fill="#000000" stroke="none">
<polygon points="19425.0,17691.0 19340.99,17662.8 19261.91,17619.64 19169.68,17547.59 19046.2,17432.77 18886.43,17274.83 18764.02,17156.92 18671.17,17073.98 18598.52,17017.46 18510.94,16955.57 18409.54,16879.99 18296.29,16794.16 18136.83,16686.38 17984.67,16581.54 17904.2,16522.37 17837.3,16464.62 17732.63,16361.66 17651.73,16265.44 17580.35,16159.8 17513.07,16074.77 17401.44,15956.42 17316.7,15858.27 17245.05,15756.54 17170.28,15632.09 17102.61,15505.9 17042.18,15379.85 16991.91,15260.33 16948.49,15134.99 16912.57,15009.66 16896.68,14899.68 16887.01,14746.51 16871.91,14605.97 16850.67,14493.99 16838.76,14391.31 16836.93,14225.1 16840.2,14055.83 16849.93,13936.55 16870.75,13795.03 16851.61,13685.82 16735.49,13661.97 16635.46,13722.49 16480.25,13823.64 16349.53,13896.09 16244.31,13926.99 16145.0,13917.69 16032.0,13869.52 15881.63,13781.19 15765.38,13703.02 15688.71,13626.47 15599.25,13524.23 15502.43,13421.15 15409.72,13311.74 15350.38,13209.64 15312.56,13092.42 15283.89,12948.19 15244.26,12795.21 15205.09,12684.46 15128.01,12592.08 15052.22,12485.32 15085.95,12375.6 15179.4,12255.6 15220.46,12157.76 15229.95,12004.97 15223.49,11818.12 15190.98,11728.91 15128.63,11677.13 14975.84,11660.86 14791.22,11652.13 14681.5,11636.32 14530.32,11597.41 14388.85,11562.47 14291.22,11545.16 14160.5,11518.13 14029.23,11489.65 13909.25,11469.05 13762.94,11440.46 13620.6,11409.81 13496.59,11374.27 13404.56,11293.06 13378.52,11196.37 13377.32,10981.55 13377.93,10752.46 13378.52,10527.91 13379.06,10308.06 13379.58,10093.1 13380.05,9883.2 13380.49,9678.54 13380.9,9479.3 13381.27,9285.65 13381.6,9097.77 13381.9,8915.84 13382.16,8740.04 13382.38,8570.54 13382.57,8407.52 13382.71,8251.15 13382.83,8101.63 13382.9,7959.11 13382.94,7823.79 13382.93,7695.83 13382.89,7575.41 13382.82,7462.72 13382.7,7357.93 13382.54,7261.21 13382.35,7172.74 13382.12,7092.71 13381.85,7021.28 13381.54,6958.64 13381.18,6904.96 13380.79,6860.42 13380.36,6825.19 13379.89,6799.46 13379.38,6783.41 13370.94,6733.89 13317.09,6643.28 13207.95,6599.03 13044.19,6595.95 12890.06,6627.51 12810.39,6710.32 12795.07,6840.85 12790.45,6974.89 12784.88,7156.13 12783.39,7328.99 12791.12,7444.14 12810.79,7533.56 12848.55,7643.82 12862.08,7766.81 12819.91,7898.37 12785.38,8017.21 12769.31,8171.14 12756.44,8251.12 12748.14,8330.88 12739.96,8454.11 12732.5,8611.9 12726.37,8795.32 12721.87,9001.15 12725.48,9153.35 12742.99,9256.35 12780.95,9357.99 12797.13,9479.31 12747.67,9613.82 12718.78,9732.0 12715.86,9786.65 12712.64,9888.97 12709.31,10027.11 12706.07,10189.24 12703.11,10363.49 12700.63,10538.03 12698.83,10701.01 12697.9,10840.57 12698.03,10949.32 12713.32,11076.61 12757.87,11220.85 12760.88,11323.06 12706.68,11472.9 12663.68,11601.43 12658.12,11730.27 12695.36,11853.71 12718.49,11958.44 12678.42,12095.83 12602.43,12261.77 12526.67,12351.53 12415.95,12402.08 12287.46,12414.78 12178.59,12367.56 12081.03,12259.84 12013.67,12134.23 11968.15,12005.22 11969.51,11898.22 12014.05,11741.37 12018.74,11610.52 11976.8,11495.34 11923.86,11375.24 11935.26,11255.02 11990.19,11117.55 12005.88,10986.26 12008.49,10843.17 12007.05,10680.66 11997.86,10551.46 11980.46,10443.93 11966.57,10370.04 11957.87,10255.77 11950.98,10067.7 11944.43,9839.84 11934.69,9711.9 11913.04,9628.94 11871.43,9526.12 11857.61,9401.12 11893.15,9275.17 11915.94,9208.75 11929.4,9133.12 11935.21,9021.84 11935.03,8848.5 11930.81,8599.93 11928.27,8465.84 11925.73,8331.74 11923.19,8197.65 11903.96,8065.86 11864.89,7924.75 11827.62,7808.41 11827.95,7684.67 11878.49,7552.4 11903.64,7451.9 11900.98,7310.89 11888.91,7156.56 11878.82,7012.43 11871.15,6884.77 11857.37,6716.28 11819.31,6633.08 11720.63,6560.96 11581.32,6532.18 11471.02,6537.46 11326.68,6544.67 11158.0,6552.06 11004.4,6561.94 10913.54,6571.56 10805.45,6576.12 10657.38,6571.19 10502.86,6558.36 10368.85,6538.99 10242.96,6532.88 10115.36,6539.33 9969.7,6540.66 9780.6,6536.94 9617.91,6535.92 9500.55,6539.34 9411.24,6547.46 9297.92,6562.23 9165.34,6560.86 9023.42,6558.21 8910.92,6568.87 8759.2,6580.97 8621.9,6597.61 8521.59,6667.63 8486.91,6744.5 8481.05,6825.44 8475.78,6966.22 8471.2,7165.3 8465.87,7459.37 8460.85,7725.73 8456.61,7937.79 8452.92,8102.96 8449.54,8228.65 8446.26,8322.3 8442.82,8391.31 8439.02,8443.1 8434.6,8485.1 8427.6,8537.36 8418.11,8666.0 8431.29,8787.1 8468.29,8934.78 8517.85,9059.12 8592.41,9198.91 8609.01,9297.24 8560.64,9404.47 8469.29,9509.09 8424.74,9574.3 8403.42,9667.47 8395.88,9834.68 8392.97,10073.53 8389.4,10246.82 8385.01,10337.34 8382.21,10365.98 8380.28,10451.2 8378.94,10587.15 8378.37,10762.54 8378.78,10966.05 8379.74,11247.5 8381.43,11464.17 8385.4,11608.66 8393.15,11701.93 8406.2,11764.99 8426.08,11818.81 8465.1,11914.98 8471.34,12026.31 8405.89,12153.37 8352.77,12234.59 8324.05,12304.2 8310.03,12404.06 8305.43,12569.39 8305.01,12812.39 8305.43,12982.93 8306.26,13137.79 8307.24,13259.58 8308.44,13349.78 8300.12,13483.24 8266.59,13613.42 8247.62,13721.83 8242.23,13845.66 8244.2,14015.85 8250.61,14169.96 8259.95,14274.68 8267.41,14395.57 8251.55,14560.86 8257.97,14694.11 8301.03,14797.17 8366.43,14919.56 8394.11,15049.58 8371.2,15173.35 8294.69,15293.05 8232.66,15407.25 8220.17,15544.75 8231.91,15702.05 8256.76,15812.82 8331.15,15914.77 8398.9,16026.88 8353.26,16140.07 8275.85,16247.77 8204.78,16375.44 8124.86,16525.27 8053.57,16636.18 7991.0,16698.72 7875.32,16777.55 7752.49,16845.94 7641.07,16872.37 7532.31,16841.61 7406.7,16748.22 7301.7,16640.42 7234.07,16531.56 7172.94,16397.34 7103.45,16299.37 7016.83,16171.75 7041.73,16075.6 7142.43,15953.4 7195.74,15856.98 7215.94,15718.85 7206.29,15575.53 7163.63,15461.01 7064.45,15342.45 6995.31,15231.9 6985.61,15129.82 7007.16,15053.67 7101.0,14872.19 7133.8,14785.71 7151.86,14678.76 7156.85,14534.01 7150.76,14339.47 7145.97,14206.63 7142.11,14061.37 7139.59,13926.82 7138.64,13764.54 7136.09,13580.02 7131.11,13421.63 7123.74,13290.18 7114.01,13186.5 7101.95,13111.39 7082.88,13024.41 7076.91,12900.2 7078.06,12691.66 7068.99,12530.27 7045.41,12413.5 7003.97,12324.38 6935.03,12227.9 6900.67,12106.06 6910.64,11972.31 6974.49,11848.0 7029.65,11756.13 7048.7,11692.06 7056.03,11576.33 7054.95,11365.61 7050.61,11141.26 7045.28,10990.35 7037.11,10879.63 7024.35,10783.69 7012.22,10709.76 7005.67,10629.9 6999.85,10505.68 6994.38,10332.95 6988.59,10093.17 6982.26,9843.48 6973.35,9687.76 6956.65,9595.99 6926.94,9538.15 6879.01,9484.23 6790.91,9367.79 6782.59,9271.46 6837.27,9168.53 6913.88,9062.46 6942.38,9005.88 6960.33,8930.23 6969.65,8816.61 6972.24,8646.11 6970.0,8399.85 6965.8,8134.7 6961.4,7972.19 6954.79,7877.7 6943.83,7812.59 6927.07,7727.71 6919.99,7612.94 6919.04,7414.59 6917.35,7233.92 6912.92,7065.9 6906.28,6921.07 6897.93,6809.96 6888.37,6743.12 6834.91,6643.37 6709.78,6546.56 6640.62,6461.39 6613.52,6382.47 6602.08,6258.8 6600.04,6041.72 6602.89,5870.16 6613.27,5771.65 6634.7,5651.87 6639.23,5511.49 6615.82,5403.12 6565.39,5257.31 6563.9,5128.1 6628.29,5027.62 6714.03,4972.93 6755.78,4960.21 6819.7,4951.39 6919.21,4945.91 7067.71,4943.24 7278.6,4942.82 7566.27,4944.14 7849.42,4946.15 8037.23,4948.39 8152.92,4951.62 8219.71,4956.62 8260.83,4964.17 8335.56,4983.28 8448.25,5000.3 8591.1,5008.57 8761.74,5009.64 8878.83,5005.84 8985.97,4992.84 9139.17,4964.14 9236.59,4948.58 9350.6,4942.86 9535.67,4940.22 9730.46,4939.36 9879.67,4939.04 9955.26,4938.99 9996.92,4938.74 10086.52,4938.94 10216.13,4939.53 10377.84,4940.45 10563.73,4941.65 10768.27,4943.07 11005.21,4944.84 11212.55,4947.27 11391.17,4950.36 11541.94,4954.1 11665.74,4958.5 11763.45,4963.56 11835.94,4969.28 11884.09,4975.65 11954.33,4988.54 12102.52,4997.67 12230.82,4972.44 12320.7,4953.31 12446.75,4948.34 12672.53,4950.09 12811.89,4955.87 12904.4,4972.15 13019.96,4996.96 13152.89,5004.63 13306.87,5002.1 13436.01,4990.83 13570.58,4976.74 13697.99,4994.18 13841.57,5006.37 13980.09,5006.19 14093.07,4993.03 14232.93,4982.49 14376.25,4976.86 14452.14,4963.18 14489.63,4957.92 14550.56,4953.99 14646.76,4951.07 14790.06,4948.86 14992.29,4947.06 15265.28,4945.36 15472.7,4944.02 15648.14,4942.73 15815.35,4941.38 15969.45,4940.01 16105.58,4938.63 16218.87,4937.28 16304.45,4935.99 16376.2,4934.4 16523.14,4934.45 16652.66,4938.62 16757.44,4945.89 16900.35,4954.13 17049.51,4960.92 17198.34,4969.64 17326.03,4982.64 17472.23,5004.66 17579.97,5001.53 17696.21,4969.6 17748.68,4952.27 17817.2,4941.29 17922.85,4935.46 18086.7,4933.59 18329.82,4934.46 18524.82,4936.23 18682.87,4938.26 18836.83,4940.59 18978.85,4943.13 19101.08,4945.74 19195.68,4948.34 19364.05,4955.55 19483.15,4967.06 19579.5,4989.12 19709.06,5009.8 19838.17,5004.9 19974.3,4976.13 20112.78,4948.3 20172.26,4940.41 20194.76,4939.43 20229.25,4938.53 20275.34,4937.71 20332.61,4936.98 20400.69,4936.33 20479.17,4935.76 20567.66,4935.27 20665.76,4934.86 20773.07,4934.53 20889.19,4934.27 21013.74,4934.1 21146.31,4934.0 21286.5,4933.98 21433.92,4934.04 21588.18,4934.17 21748.87,4934.38 21915.6,4934.67 22087.97,4935.02 22265.59,4935.46 22448.05,4935.96 22634.97,4936.54 22825.95,4937.19 23020.58,4937.91 23218.48,4938.7 23419.24,4939.57 23622.47,4940.5 23827.77,4941.5 23967.02,4942.16 24060.01,4942.4 24169.07,4942.59 24292.19,4942.71 24427.36,4942.79 24572.56,4942.8 24725.78,4942.77 24884.99,4942.69 25048.18,4942.57 25213.34,4942.4 25378.44,4942.19 25541.48,4941.94 25700.44,4941.66 25853.3,4941.35 25998.04,4941.0 26132.65,4940.63 26255.11,4940.23 26363.41,4939.8 26455.53,4939.36 26534.41,4938.81 26638.5,4938.03 26762.9,4937.38 26901.7,4936.85 27048.98,4936.45 27198.85,4936.18 27345.39,4936.03 27472.01,4936.0 27582.18,4936.0 27705.79,4936.0 27839.81,4936.0 27981.2,4936.0 28126.92,4936.0 28273.94,4936.0 28419.23,4936.0 28559.75,4936.0 28692.47,4936.0 28827.5,4936.04 28972.61,4936.21 29121.88,4936.5 29271.72,4936.91 29418.52,4937.4 29558.69,4937.96 29688.63,4938.58 29804.72,4939.23 29903.38,4939.91 30026.07,4941.21 30140.77,4942.33 30246.75,4943.2 30349.91,4943.82 30456.16,4944.23 30571.41,4944.46 30701.57,4944.52 30852.56,4944.45 31030.27,4944.26 31238.82,4943.99 31376.33,4943.66 31488.14,4943.36 31586.48,4943.04 31683.57,4942.63 31791.65,4942.1 31922.93,4941.36 32089.65,4940.38 32304.03,4939.1 32543.93,4938.41 32714.07,4939.42 32823.76,4942.2 32884.56,4946.81 32970.21,4986.44 33020.03,5088.26 33024.64,5157.88 33028.19,5279.69 33030.66,5438.89 33032.06,5620.66 33032.38,5810.19 33031.6,5992.68 33029.72,6153.31 33026.73,6277.27 33022.64,6349.75 32988.86,6436.04 32902.67,6536.24 32785.39,6630.23 32733.81,6715.84 32724.68,6784.29 32716.01,6899.61 32708.37,7047.34 32702.37,7212.98 32698.57,7382.08 32697.58,7540.16 32698.99,7715.41 32692.97,7835.66 32674.59,7936.3 32657.39,8033.96 32647.13,8130.92 32641.83,8256.12 32639.51,8438.5 32638.53,8694.74 32641.06,8879.0 32651.45,8990.53 32674.0,9064.01 32713.16,9134.26 32802.91,9289.63 32827.48,9376.7 32802.7,9492.77 32692.04,9582.74 32633.26,9657.28 32613.91,9790.78 32606.12,9963.71 32595.14,10109.17 32582.1,10229.28 32574.55,10297.21 32567.27,10391.65 32560.37,10508.42 32554.02,10643.02 32548.38,10790.96 32543.59,10947.76 32539.84,11108.93 32537.27,11269.96 32536.05,11426.38 32536.37,11612.2 32542.57,11770.23 32562.93,11872.83 32605.72,11963.24 32673.28,12086.1 32698.45,12204.09 32663.88,12315.95 32568.07,12439.61 32495.64,12547.24 32480.03,12642.15 32464.84,12812.34 32453.36,12954.58 32439.05,13095.72 32426.55,13193.22 32418.82,13258.96 32412.15,13333.97 32406.07,13427.71 32400.12,13549.64 32393.82,13709.2 32386.71,13915.86 32378.8,14162.51 32374.17,14351.6 32372.44,14519.92 32373.55,14664.4 32377.45,14781.96 32384.06,14869.53 32400.31,14955.22 32451.86,15072.24 32510.41,15192.03 32514.08,15297.76 32459.49,15420.21 32359.68,15569.84 32308.27,15684.54 32305.72,15807.29 32332.7,15948.02 32386.69,16054.68 32491.31,16190.86 32529.07,16300.87 32474.5,16385.85 32361.52,16504.85 32283.73,16643.61 32211.09,16789.24 32161.56,16859.24 32070.77,16943.02 31946.79,17019.16 31822.24,17060.8 31713.82,17061.08 31624.91,17022.04 31502.28,16913.15 31369.1,16776.61 31310.85,16690.96 31262.27,16570.87 31201.98,16453.72 31120.98,16348.08 31045.44,16228.89 31054.89,16132.95 31157.53,16016.99 31221.83,15917.99 31261.34,15773.0 31265.37,15646.76 31226.07,15527.99 31136.04,15392.4 31072.31,15276.08 31067.94,15160.14 31114.72,15048.24 31195.13,14917.11 31220.51,14839.15 31233.47,14728.46 31236.25,14575.16 31230.55,14404.64 31228.11,14329.96 31225.64,14227.08 31223.21,14100.94 31220.91,13956.52 31218.8,13798.76 31216.94,13632.63 31215.42,13463.08 31213.92,13274.57 31211.89,13086.27 31209.5,12916.0 31206.89,12770.84 31204.2,12657.89 31201.58,12584.24 31192.12,12509.74 31144.45,12395.28 31053.03,12283.03 30993.28,12175.78 31001.27,12034.73 31068.53,11914.35 31119.83,11809.47 31145.1,11701.37 31153.42,11553.62 31154.18,11450.53 31154.07,11362.95 31153.55,11246.27 31152.67,11106.38 31151.49,10949.15 31150.07,10780.47 31148.45,10606.22 31145.8,10368.22 31142.85,10157.91 31139.76,9999.51 31136.37,9886.38 31132.51,9811.87 31128.01,9769.34 31090.74,9664.0 31019.42,9556.35 30948.63,9434.91 30937.2,9299.05 30979.94,9171.13 31039.34,9076.6 31097.08,8940.13 31125.0,8809.07 31125.0,8674.95 31125.0,8540.84 31125.0,8406.72 31125.0,8272.6 31125.0,8138.48 31125.0,8004.37 31125.0,7870.25 31124.97,7601.53 31124.73,7329.43 31124.09,7126.01 31122.85,6980.35 31120.85,6881.56 31117.89,6818.72 31113.78,6780.91 31108.34,6757.22 31071.48,6670.67 30984.36,6573.11 30863.81,6523.84 30816.2,6518.3 30761.1,6516.49 30679.36,6514.9 30573.78,6513.52 30447.17,6512.34 30302.32,6511.36 30142.05,6510.59 29969.14,6510.01 29786.41,6509.62 29596.65,6509.42 29402.68,6509.41 29207.28,6509.59 29013.27,6509.95 28823.44,6510.48 28640.6,6511.19 28467.55,6512.07 28307.09,6513.13 28162.03,6514.35 28035.17,6515.73 27929.3,6517.27 27847.24,6518.97 27791.78,6520.83 27765.73,6522.83 27674.75,6567.05 27618.3,6661.96 27591.24,6831.52 27582.11,6992.15 27579.89,7144.36 27584.04,7287.65 27594.38,7416.76 27610.71,7526.4 27634.99,7643.05 27632.93,7769.96 27598.83,7895.21 27573.62,8007.11 27558.17,8137.29 27548.09,8308.41 27537.51,8462.92 27527.9,8537.08 27518.95,8658.31 27511.08,8833.61 27505.65,9028.38 27509.96,9153.11 27526.47,9249.43 27557.95,9367.9 27558.2,9468.78 27500.61,9619.93 27481.33,9674.21 27466.42,9740.33 27455.31,9826.97 27447.4,9942.76 27442.1,10096.37 27438.84,10296.46 27437.02,10551.69 27436.2,10839.17 27437.02,11014.61 27440.58,11111.54 27448.03,11164.53 27467.36,11230.84 27494.21,11360.36 27465.23,11465.71 27389.46,11613.6 27376.26,11731.88 27409.52,11855.67 27449.06,11976.27 27413.05,12098.22 27329.71,12249.31 27248.02,12341.38 27137.02,12401.21 27005.02,12417.62 26888.91,12370.28 26806.76,12286.61 26743.58,12173.92 26679.33,12014.18 26670.87,11900.63 26717.67,11765.23 26739.47,11640.93 26703.84,11521.31 26635.1,11385.79 26637.17,11275.84 26695.56,11157.02 26725.21,11074.45 26737.24,10954.52 26739.0,10747.48 26738.47,10635.08 26737.04,10499.48 26734.88,10353.29 26732.17,10209.11 26728.15,10035.11 26721.58,9839.08 26709.24,9727.21 26684.07,9650.36 26634.37,9548.81 26615.15,9421.04 26650.28,9298.3 26705.94,9174.7 26720.72,9050.62 26717.26,8890.88 26703.04,8835.62 26690.49,8720.38 26682.29,8556.74 26679.92,8356.47 26676.52,8165.86 26667.12,8034.7 26650.41,7944.85 26610.94,7830.0 26599.67,7711.45 26638.69,7596.93 26663.91,7525.71 26678.59,7442.1 26684.31,7323.46 26682.62,7147.12 26675.26,6895.09 26663.17,6707.47 26637.41,6617.36 26575.29,6565.64 26446.27,6581.05 26311.02,6636.51 26172.63,6684.31 26097.58,6773.71 26084.23,6863.39 26079.95,6997.98 26079.92,7163.73 26083.86,7328.99 26091.47,7462.13 26105.36,7583.48 26098.87,7709.04 26091.52,7799.25 26086.04,7928.61 26082.64,8081.72 26081.5,8243.19 26082.81,8397.61 26086.77,8529.6 26096.08,8677.69 26093.95,8793.59 26087.55,8844.2 26083.17,8932.79 26078.93,9061.72 26075.02,9219.94 26071.61,9396.41 26068.87,9580.08 26066.98,9759.92 26066.12,9924.87 26066.45,10063.9 26068.16,10165.97 26072.03,10248.51 26072.1,10378.51 26064.5,10526.87 26059.35,10676.37 26062.69,10795.16 26068.47,10951.69 26067.06,11098.89 26058.62,11207.12 26024.21,11315.35 25949.73,11394.45 25816.14,11446.05 25637.8,11484.13 25531.2,11509.54 25404.29,11538.15 25272.91,11557.47 25138.37,11580.52 25026.91,11599.6 24893.6,11617.76 24746.48,11634.11 24596.13,11649.98 24433.82,11674.83 24302.55,11701.24 24230.48,11734.39 24178.91,11820.62 24160.56,11980.5 24165.78,12165.35 24191.32,12281.07 24261.22,12369.35 24356.87,12482.76 24365.3,12588.8 24282.28,12714.26 24205.4,12835.76 24167.65,12948.66 24140.79,13080.16 24094.69,13204.78 24025.62,13324.11 23949.06,13413.72 23840.45,13522.25 23727.89,13624.13 23639.45,13691.59 23525.35,13770.0 23395.8,13853.67 23270.58,13903.99 23151.28,13915.71 23031.18,13890.08 22929.29,13840.32 22821.21,13742.66 22690.27,13619.78 22579.29,13538.41 22498.4,13532.57 22467.02,13626.51 22468.27,13739.35 22478.42,13889.49 22495.79,14052.47 22517.27,14203.83 22530.23,14325.28 22534.77,14456.27 22533.89,14635.97 22523.01,14746.42 22492.85,14870.34 22467.51,14982.18 22439.52,15085.31 22394.22,15223.56 22336.3,15382.77 22282.28,15513.23 22225.24,15619.99 22163.94,15721.68 22088.56,15848.16 22030.77,15939.34 21966.04,16022.53 21872.35,16124.38 21734.57,16264.49 21621.17,16373.06 21529.97,16450.18 21435.74,16518.29 21322.64,16603.92 21219.41,16688.23 21117.42,16761.1 21010.22,16843.31 20909.65,16932.81 20810.93,17021.35 20707.58,17105.11 20602.74,17184.55 20493.73,17271.91 20384.81,17357.06 20277.68,17433.09 20156.9,17526.82 20077.39,17594.6 19966.28,17664.38 19865.01,17693.47 19702.37,17705.21 19521.62,17706.76 19425.0,17691.0"/></g>
</svg>
