<?xml version="1.0" standalone="no"?>
<!DOCTYPE svg PUBLIC "-//W3C//DTD SVG 20010904//EN"
 "http://www.w3.org/TR/2001/REC-SVG-20010904/DTD/svg10.dtd">
<svg version="1.0" xmlns="http://www.w3.org/2000/svg"
 width="3840.000000pt" height="2525.000000pt" viewBox="0 0 3840.000000 2525.000000"
 preserveAspectRatio="xMidYMid meet">
<metadata>
Created by potrace 1.15, written by Peter Selinger 2001-2017
</metadata>
<g transform="translate(0.000000,2525.000000) scale(0.100000,-0.100000)"
fill="#000000" stroke="none">
<path d="M19425 17691 c-146 -40 -206 -84 -500 -378 -167 -166 -258 -248 -330
-298 -84 -58 -132 -94 -280 -207 -5 -5 -59 -42 -120 -82 -241 -164 -280 -192
-334 -240 -110 -98 -187 -183 -241 -266 -68 -105 -74 -112 -185 -228 -108
-113 -154 -173 -234 -307 -100 -168 -191 -362 -238 -505 -59 -182 -63 -201
-73 -385 -5 -99 -17 -200 -32 -265 -20 -93 -22 -129 -21 -320 1 -164 6 -243
22 -332 15 -90 17 -126 9 -155 -18 -68 -74 -91 -141 -57 -18 9 -89 54 -159
101 -312 206 -365 209 -641 42 -159 -97 -179 -112 -254 -201 -39 -46 -103
-117 -143 -158 -159 -164 -200 -242 -235 -446 -20 -114 -71 -290 -95 -329 -10
-16 -46 -57 -79 -90 -97 -95 -95 -143 9 -266 91 -108 100 -139 100 -338 0
-171 -8 -215 -46 -261 -43 -51 -57 -54 -259 -61 -175 -7 -201 -10 -325 -43
-167 -45 -239 -62 -310 -71 -30 -4 -89 -16 -130 -27 -41 -11 -118 -27 -170
-35 -103 -16 -339 -64 -435 -89 -83 -22 -128 -53 -155 -110 -21 -42 -23 -61
-23 -188 7 -2505 8 -4273 2 -4318 -4 -31 -13 -69 -21 -84 -41 -84 -154 -116
-334 -96 -121 13 -155 29 -197 88 l-28 41 -11 319 c-11 356 -7 413 44 549 44
118 43 177 -6 289 -33 77 -40 106 -47 197 -5 59 -14 127 -19 151 -13 51 -29
331 -36 661 -7 267 0 331 47 440 40 95 39 143 -7 243 -26 55 -39 102 -45 154
-8 66 -23 953 -21 1210 0 77 6 112 30 185 17 50 33 105 37 123 8 41 -9 118
-46 197 -49 109 -62 157 -62 240 0 69 4 90 31 152 46 102 43 131 -25 297 -69
167 -112 219 -208 255 -160 60 -264 26 -369 -122 -54 -76 -116 -223 -123 -291
-4 -40 2 -71 27 -146 48 -142 43 -243 -17 -341 -67 -111 -69 -168 -11 -305
l42 -99 4 -210 c4 -217 -6 -343 -33 -455 -12 -48 -19 -150 -25 -390 -9 -345
-8 -335 -67 -474 -38 -87 -36 -166 5 -268 51 -126 53 -157 43 -678 l-9 -475
-30 -115 c-17 -63 -40 -140 -51 -170 -32 -83 -28 -146 14 -242 56 -127 58
-148 41 -363 -9 -104 -20 -268 -25 -363 -8 -153 -11 -178 -33 -220 -46 -89
-171 -141 -311 -128 -40 3 -175 10 -302 15 -126 5 -262 15 -301 21 -86 15
-373 1 -524 -26 -75 -13 -118 -15 -205 -8 -60 4 -182 6 -270 4 -322 -8 -439
-5 -545 12 -82 13 -128 15 -213 9 -60 -5 -139 -5 -180 0 -39 5 -130 13 -202
18 -71 5 -149 14 -173 21 -51 16 -106 72 -122 127 -8 25 -15 199 -20 508 -20
1091 -22 1156 -40 1285 -21 147 -16 217 29 382 19 72 44 133 74 185 61 103 77
144 77 193 0 57 -32 113 -110 196 -102 108 -102 108 -106 516 -2 186 -6 344
-10 350 -4 7 -7 308 -5 669 2 717 1 702 61 840 58 130 51 178 -44 317 -92 135
-91 131 -91 617 0 231 2 474 3 540 2 88 -1 136 -13 180 -52 188 -55 220 -52
455 2 124 9 266 17 315 11 77 11 108 -1 210 -18 145 -10 217 29 289 16 28 42
76 59 106 41 73 56 152 42 227 -13 69 -28 100 -86 175 -67 88 -83 134 -83 242
0 121 18 252 40 296 10 19 43 63 74 98 88 99 88 138 -4 252 -37 45 -86 127
-126 207 -70 142 -146 265 -185 299 -44 39 -156 113 -234 154 -147 78 -238 53
-413 -114 -77 -73 -117 -132 -160 -233 -44 -105 -60 -129 -129 -207 -63 -71
-82 -120 -63 -166 7 -17 42 -63 77 -103 36 -39 73 -88 83 -108 30 -58 45 -195
32 -289 -15 -104 -38 -150 -118 -235 -87 -93 -107 -133 -108 -216 -1 -70 -8
-53 110 -277 58 -111 70 -225 55 -537 -6 -137 -11 -349 -12 -470 0 -410 -14
-679 -41 -780 -21 -82 -23 -108 -20 -285 4 -310 -18 -421 -104 -527 -55 -67
-74 -118 -74 -203 0 -95 9 -126 62 -212 24 -38 50 -82 59 -96 36 -61 39 -112
33 -465 -6 -342 -11 -422 -38 -572 -11 -56 -18 -230 -26 -578 -13 -583 -9
-565 -115 -677 -78 -83 -95 -115 -95 -178 0 -51 14 -77 111 -207 82 -110 87
-157 78 -765 -6 -400 -8 -443 -28 -530 -20 -85 -22 -121 -22 -345 1 -328 -14
-657 -32 -717 -20 -65 -49 -102 -117 -148 -77 -52 -103 -77 -125 -120 -39 -75
-45 -127 -45 -390 0 -219 3 -268 21 -345 22 -100 26 -222 9 -287 -6 -24 -26
-79 -43 -123 -64 -162 -28 -273 114 -346 69 -35 162 -39 844 -35 629 4 663 5
730 24 106 31 220 42 435 42 196 -1 215 -3 470 -54 57 -11 154 -15 400 -16
179 -1 348 -1 375 -1 28 -1 388 1 800 4 722 4 1073 16 1144 36 18 6 77 13 130
16 85 6 107 4 196 -21 97 -26 107 -27 348 -25 233 2 256 4 355 29 92 23 128
26 262 27 96 0 197 -6 265 -17 99 -15 118 -15 195 -1 135 23 316 28 418 10 48
-9 137 -15 197 -15 72 0 132 -5 175 -16 57 -15 161 -17 890 -21 454 -3 913 -7
1020 -10 107 -3 254 0 325 5 72 6 229 15 350 20 143 5 268 16 358 31 125 21
143 21 205 9 37 -7 82 -19 100 -27 95 -40 149 -42 723 -38 305 3 667 9 804 14
219 8 262 13 345 35 135 37 249 36 395 -3 61 -16 155 -34 210 -40 87 -10 1826
-9 3760 1 479 2 2149 0 2590 -3 198 -2 614 -3 925 -3 311 0 891 0 1290 0 399
0 932 2 1185 4 446 5 573 5 1320 4 419 -1 421 -1 1085 -5 397 -2 538 1 577 10
68 17 107 59 122 133 17 80 18 1219 2 1278 -24 84 -76 151 -167 213 -61 41
-102 88 -118 135 -20 55 -42 579 -38 882 3 171 0 231 -13 295 -41 199 -44 233
-46 644 -2 470 -1 482 74 605 96 156 109 184 115 248 7 78 -10 109 -85 163
-122 87 -124 93 -133 340 -4 110 -17 265 -28 345 -24 168 -47 808 -46 1275 0
328 5 353 97 504 100 166 88 263 -52 416 -46 51 -75 93 -86 124 -9 28 -21 134
-30 261 -8 118 -24 283 -36 365 -21 153 -28 282 -49 950 -13 394 -9 690 10
785 15 74 27 104 70 176 92 152 81 224 -60 424 -95 134 -110 187 -91 323 19
132 40 181 125 282 90 109 112 164 85 218 -6 12 -48 58 -93 103 -55 53 -91 98
-108 135 -112 238 -120 252 -181 314 -120 120 -291 196 -406 179 -76 -11 -117
-39 -250 -172 -147 -146 -157 -161 -195 -262 -46 -121 -85 -190 -154 -269 -69
-80 -92 -122 -92 -171 0 -45 20 -77 94 -149 71 -69 95 -117 123 -246 30 -139
4 -235 -97 -370 -82 -110 -95 -139 -94 -220 0 -76 9 -99 76 -198 22 -32 48
-78 59 -102 33 -75 43 -223 30 -490 -6 -132 -13 -585 -16 -1008 -3 -422 -10
-803 -15 -846 -11 -98 -35 -150 -104 -226 -30 -33 -67 -82 -81 -108 -24 -43
-27 -57 -23 -121 3 -62 8 -81 37 -127 111 -176 124 -224 125 -489 1 -107 -2
-526 -6 -930 -6 -561 -11 -749 -21 -796 -15 -67 -53 -142 -97 -195 -17 -18
-44 -61 -62 -94 -28 -52 -32 -70 -32 -135 0 -61 5 -86 27 -135 15 -32 34 -66
42 -75 29 -33 75 -130 97 -206 l23 -79 0 -1020 c0 -977 -1 -1022 -19 -1075
-23 -67 -39 -94 -85 -143 -48 -52 -96 -75 -181 -87 -113 -16 -3015 -13 -3075
3 -122 33 -159 102 -175 325 -21 282 -9 570 31 724 26 104 24 176 -7 273 -41
128 -54 217 -64 425 -5 107 -13 218 -19 245 -6 28 -15 172 -20 321 -11 283 -7
338 29 464 38 134 37 139 -39 319 -51 120 -61 265 -64 937 -2 569 -2 569 21
644 53 173 52 186 -31 339 -49 92 -52 99 -51 171 0 65 5 86 37 153 52 111 50
137 -20 276 -71 139 -123 200 -208 242 -126 62 -239 49 -328 -38 -59 -57 -88
-105 -145 -242 -58 -138 -59 -176 -9 -297 55 -136 50 -202 -26 -332 -68 -118
-68 -156 0 -280 58 -105 63 -136 62 -442 0 -151 -4 -437 -9 -635 -9 -395 -9
-394 -76 -526 -34 -66 -38 -82 -39 -149 0 -68 4 -82 37 -145 61 -114 69 -147
69 -282 0 -68 -2 -127 -6 -132 -19 -33 -35 -239 -35 -481 0 -296 -10 -409 -41
-490 -55 -141 -55 -188 -6 -300 55 -124 59 -189 44 -660 -8 -272 -17 -322 -68
-365 -45 -37 -101 -34 -197 11 -42 20 -115 47 -162 60 -104 28 -142 63 -159
143 -18 83 -14 573 5 704 13 92 14 122 3 205 -18 141 -24 673 -9 877 10 130
10 183 1 225 -15 72 -33 1230 -21 1396 5 79 4 181 -4 295 -6 97 -9 216 -5 269
12 166 10 380 -5 452 -32 147 -96 197 -311 240 -142 29 -161 33 -245 56 -41
11 -117 25 -168 31 -52 7 -137 20 -191 31 -111 22 -281 44 -456 60 -145 13
-388 56 -424 74 -77 41 -101 114 -101 316 0 143 14 230 45 277 10 15 44 52 76
81 66 61 89 103 89 160 0 49 -11 70 -79 155 -66 84 -107 162 -121 235 -7 31
-18 87 -25 124 -18 86 -70 196 -128 274 -67 88 -285 296 -369 350 -40 26 -102
69 -138 95 -203 147 -351 171 -530 88 -52 -24 -86 -51 -175 -143 -108 -110
-234 -206 -272 -206 -31 0 -52 22 -62 68 -14 64 5 344 37 552 22 145 27 208
27 370 0 178 -2 204 -26 295 -14 55 -31 127 -38 160 -13 71 -62 224 -125 392
-50 134 -79 196 -136 288 -20 33 -69 115 -109 182 -87 149 -122 191 -342 413
-129 130 -203 194 -283 250 -60 41 -143 104 -185 140 -42 36 -101 82 -131 102
-82 54 -167 122 -240 191 -85 81 -167 149 -265 222 -44 32 -118 91 -165 130
-47 39 -121 95 -165 125 -65 43 -181 134 -205 160 -14 15 -89 70 -122 88 -76
43 -135 53 -323 58 -155 4 -190 2 -250 -15z"/>
</g>
</svg>
