<?xml version="1.0" standalone="no"?>
<!DOCTYPE svg PUBLIC "-//W3C//DTD SVG 20010904//EN"
 "http://www.w3.org/TR/2001/REC-SVG-20010904/DTD/svg10.dtd">
<svg version="1.0" xmlns="http://www.w3.org/2000/svg"
 width="1000.000000pt" height="660.000000pt" viewBox="0 0 1000.000000 660.000000"
 preserveAspectRatio="xMidYMid meet">
<metadata>
Created by potrace 1.15, written by Peter Selinger 2001-2017
</metadata>
<g transform="translate(0.000000,660.000000) scale(0.100000,-0.100000)"
fill="#000000" stroke="none">
<path d="M3845 5780 c-27 -4 -93 -20 -145 -35 -78 -22 -115 -27 -210 -27 -100
-1 -130 4 -230 32 -101 28 -127 31 -210 28 -75 -3 -105 -8 -140 -27 -102 -52
-118 -111 -71 -259 38 -119 39 -178 7 -303 -14 -52 -30 -143 -37 -204 -13
-121 -33 -171 -96 -241 -153 -171 -173 -200 -173 -258 0 -36 5 -52 48 -146 47
-105 52 -139 62 -370 5 -124 14 -258 19 -297 7 -49 7 -97 0 -145 -5 -40 -14
-190 -19 -333 -6 -193 -13 -273 -25 -310 -44 -135 -47 -158 -54 -450 -8 -279
-9 -293 -36 -374 -15 -46 -35 -120 -44 -166 -19 -87 -47 -144 -106 -215 -20
-24 -47 -63 -62 -87 -28 -48 -28 -75 -3 -273 8 -59 10 -147 6 -232 -6 -154
-19 -199 -83 -294 -47 -70 -74 -119 -107 -197 -39 -90 -60 -112 -181 -193
-159 -105 -199 -155 -176 -217 22 -57 46 -61 481 -68 450 -7 476 -11 542 -80
l37 -39 749 0 750 0 5 27 c3 16 16 55 28 88 18 47 24 87 27 185 5 156 -5 205
-74 346 -77 158 -84 207 -83 544 0 291 0 287 58 515 12 46 21 112 21 155 0 42
11 130 26 200 25 119 26 130 14 220 -11 85 -11 102 5 160 23 83 67 177 98 212
48 52 252 210 309 239 136 69 346 118 454 105 74 -8 128 -28 274 -99 275 -133
351 -200 421 -372 22 -55 24 -74 25 -220 0 -147 2 -168 30 -260 l29 -100 0
-580 0 -580 -35 -105 -35 -105 0 -205 c0 -198 1 -207 26 -270 15 -36 29 -73
33 -82 5 -17 42 -18 591 -18 l586 0 37 39 c56 59 110 71 337 78 210 6 322 -4
429 -38 69 -22 70 -22 105 -3 46 25 67 63 87 159 14 66 14 90 4 159 -21 147
-55 228 -158 380 -36 52 -66 109 -74 140 -15 60 -18 374 -4 507 7 71 6 95 -8
137 -15 44 -74 145 -95 162 -41 33 -113 161 -132 232 -6 24 -15 179 -19 348
-6 273 -9 313 -29 380 -40 133 -50 210 -50 376 -1 173 -9 232 -47 364 -39 134
-42 248 -10 396 21 93 26 146 26 235 -1 129 1 138 63 269 62 129 81 192 74
241 -7 51 -33 80 -119 130 -90 53 -125 84 -165 146 -51 80 -63 149 -63 366 0
166 3 199 26 295 38 160 34 198 -24 249 -35 32 -77 38 -237 37 -112 0 -154 -5
-210 -22 -119 -36 -158 -37 -265 -6 l-95 28 -1330 2 c-731 1 -1352 -2 -1380
-6z"/>
</g>
</svg>
