<!DOCTYPE svg PUBLIC "-//W3C//DTD SVG 20010904//EN" "http://www.w3.org/TR/2001/REC-SVG-20010904/DTD/svg10.dtd">
<svg xmlns="http://www.w3.org/2000/svg" version="1.0" width="1000.000000pt" height="660.000000pt" viewBox="0 0 1000.000000 660.000000" preserveAspectRatio="xMidYMid meet">
<metadata>
Created by potrace 1.15, written by Peter Selinger 2001-2017
</metadata>
<g transform="translate(0.000000,660.000000) scale(0.100000,-0.100000)" fill="#000000" stroke="none">
<polygon points="3845.0,5780.0 3826.33,5776.63 3801.67,5771.28 3773.01,5764.46 3742.4,5756.66 3711.83,5748.36 3682.53,5740.18 3655.85,5733.39 3631.24,5728.08 3607.4,5724.07 3583.03,5721.22 3556.83,5719.36 3527.49,5718.34 3493.71,5718.0 3460.29,5717.91 3431.59,5718.43 3406.14,5719.78 3382.53,5722.12 3359.37,5725.62 3335.27,5730.46 3308.85,5736.8 3278.7,5744.81 3243.09,5754.64 3210.15,5763.26 3182.26,5769.72 3157.72,5774.26 3134.78,5777.14 3111.73,5778.61 3086.85,5778.91 3058.4,5778.29 3020.88,5776.58 2988.27,5773.9 2961.93,5769.9 2939.74,5764.07 2919.58,5755.9 2896.1,5743.57 2872.57,5728.82 2853.15,5713.16 2837.73,5696.22 2826.22,5677.64 2818.5,5657.03 2814.47,5634.03 2814.04,5608.28 2817.09,5579.39 2823.53,5547.01 2833.24,5510.75 2844.1,5475.66 2852.49,5446.36 2859.13,5419.11 2864.04,5393.38 2867.22,5368.62 2868.71,5344.29 2868.52,5319.86 2866.66,5294.77 2863.15,5268.49 2858.01,5240.47 2851.25,5210.17 2844.03,5181.49 2838.32,5157.58 2832.61,5130.85 2827.05,5102.27 2821.8,5072.81 2817.01,5043.45 2812.85,5015.17 2809.46,4988.95 2805.4,4954.82 2800.5,4922.62 2794.69,4893.9 2787.74,4868.06 2779.39,4844.47 2769.4,4822.51 2757.53,4801.57 2743.53,4781.03 2727.16,4760.28 2703.55,4733.42 2667.89,4693.29 2637.74,4658.79 2612.64,4629.24 2592.16,4603.96 2575.82,4582.27 2563.2,4563.49 2553.84,4546.94 2547.29,4531.95 2543.11,4517.83 2540.83,4503.91 2540.03,4489.5 2540.36,4472.12 2542.51,4454.9 2547.6,4435.61 2556.73,4410.93 2571.03,4377.54 2589.56,4336.5 2599.01,4314.82 2607.24,4294.7 2614.36,4275.49 2620.48,4256.59 2625.72,4237.36 2630.18,4217.17 2633.97,4195.4 2637.2,4171.43 2639.98,4144.62 2642.43,4114.36 2644.65,4080.01 2646.74,4040.95 2648.83,3996.56 2650.66,3954.18 2652.23,3919.41 2653.95,3884.86 2655.78,3851.03 2657.69,3818.42 2659.64,3787.55 2661.58,3758.9 2663.48,3732.99 2665.3,3710.32 2667.0,3691.39 2668.55,3676.7 2671.37,3654.02 2673.56,3626.34 2674.25,3598.8 2673.42,3571.37 2671.07,3544.01 2668.47,3523.5 2667.09,3509.6 2665.59,3491.75 2663.98,3470.33 2662.3,3445.75 2660.58,3418.4 2658.85,3388.68 2657.12,3357.0 2655.43,3323.74 2653.8,3289.32 2652.27,3254.12 2650.86,3218.54 2649.46,3177.93 2647.81,3130.95 2646.1,3088.9 2644.31,3051.5 2642.4,3018.46 2640.38,2989.47 2638.23,2964.25 2635.92,2942.51 2633.44,2923.95 2630.77,2908.27 2627.9,2895.19 2624.52,2883.54 2617.02,2860.27 2610.35,2838.93 2604.46,2819.01 2599.29,2800.0 2594.79,2781.39 2590.88,2762.68 2587.51,2743.35 2584.62,2722.89 2582.15,2700.8 2580.04,2676.57 2578.23,2649.68 2576.65,2619.63 2575.26,2585.9 2573.98,2548.0 2572.77,2505.4 2571.55,2457.6 2570.04,2401.78 2568.48,2349.1 2567.02,2303.72 2565.58,2264.85 2564.1,2231.72 2562.48,2203.54 2560.66,2179.54 2558.55,2158.93 2556.08,2140.93 2553.17,2124.75 2549.74,2109.62 2545.71,2094.76 2541.02,2079.38 2535.57,2062.71 2528.2,2039.36 2520.28,2012.51 2512.35,1983.97 2504.81,1955.15 2498.04,1927.44 2492.46,1902.23 2486.39,1875.19 2478.92,1847.93 2470.42,1822.35 2460.7,1798.06 2449.55,1774.67 2436.79,1751.78 2422.22,1729.01 2405.65,1705.97 2386.87,1682.26 2370.04,1661.05 2352.61,1637.19 2336.14,1613.25 2322.69,1592.47 2315.23,1578.62 2309.41,1564.84 2305.22,1550.0 2302.63,1532.97 2301.62,1512.62 2302.19,1487.83 2304.31,1457.45 2307.97,1420.35 2313.14,1375.42 2319.81,1321.51 2322.54,1298.38 2324.64,1274.07 2326.24,1247.95 2327.32,1220.32 2327.9,1191.51 2327.97,1161.85 2327.52,1131.66 2326.57,1101.26 2325.04,1065.71 2322.98,1029.78 2320.3,997.96 2316.82,969.58 2312.35,943.98 2306.7,920.48 2299.7,898.43 2291.16,877.15 2280.89,855.98 2268.71,834.25 2254.43,811.29 2237.97,786.47 2221.96,761.96 2207.4,738.63 2193.99,715.92 2181.43,693.28 2169.44,670.16 2157.74,645.98 2146.02,620.19 2134.05,592.53 2122.64,567.54 2111.48,545.88 2099.81,526.71 2086.88,509.23 2071.92,492.63 2054.19,476.09 2032.92,458.79 2007.37,439.92 1976.76,418.68 1938.67,393.12 1899.99,366.47 1867.0,342.17 1839.43,319.92 1817.02,299.41 1799.51,280.31 1786.65,262.33 1778.15,245.14 1773.77,228.44 1773.24,211.9 1776.31,195.22 1780.88,182.28 1784.77,173.84 1789.31,166.27 1794.9,159.51 1801.96,153.53 1810.89,148.24 1822.1,143.61 1835.98,139.58 1852.95,136.09 1873.42,133.08 1897.78,130.5 1926.45,128.29 1959.83,126.41 1998.33,124.78 2042.35,123.36 2092.3,122.1 2148.59,120.93 2211.61,119.8 2279.63,118.69 2341.28,117.68 2397.21,116.64 2447.73,115.53 2493.18,114.31 2533.89,112.93 2570.19,111.32 2602.42,109.46 2630.91,107.28 2655.99,104.74 2678.0,101.8 2697.25,98.39 2714.1,94.48 2728.87,90.02 2741.88,84.95 2753.49,79.22 2764.0,72.8 2773.77,65.62 2783.12,57.65 2792.38,48.83 2801.89,39.11 2820.8,19.18 2840.19,0.0 2867.81,0.0 2895.44,0.0 2923.06,0.0 2950.68,0.0 2978.31,0.0 3005.93,0.0 3033.56,0.0 3061.18,0.0 3088.8,0.0 3116.43,0.0 3144.05,0.0 3171.68,0.0 3199.3,0.0 3226.92,0.0 3254.55,0.0 3282.17,0.0 3309.8,0.0 3337.42,0.0 3365.04,0.0 3392.67,0.0 3420.29,0.0 3447.92,0.0 3475.54,0.0 3503.16,0.0 3530.79,0.0 3558.41,0.0 3586.04,0.0 3613.66,0.0 3641.28,0.0 3668.91,0.0 3696.53,0.0 3724.16,0.0 3751.78,0.0 3779.4,0.0 3807.03,0.0 3834.65,0.0 3862.28,0.0 3889.9,0.0 3917.52,0.0 3945.15,0.0 3972.77,0.0 4000.4,0.0 4028.02,0.0 4055.65,0.0 4083.27,0.0 4110.89,0.0 4138.52,0.0 4166.14,0.0 4193.77,0.0 4221.39,0.0 4249.01,0.0 4276.64,0.0 4304.26,0.0 4331.89,0.0 4341.92,21.15 4346.62,41.68 4354.67,67.84 4364.94,98.04 4374.34,124.04 4380.9,144.51 4386.15,165.85 4390.26,189.31 4393.41,216.12 4395.76,247.51 4397.49,284.74 4398.62,322.13 4399.09,354.17 4398.83,383.32 4397.72,410.09 4395.64,435.04 4392.47,458.72 4388.09,481.66 4382.39,504.4 4375.24,527.49 4366.51,551.48 4356.1,576.89 4343.88,604.29 4329.73,634.21 4316.98,660.51 4306.67,682.38 4297.31,703.12 4288.87,723.02 4281.3,742.36 4274.54,761.44 4268.56,780.55 4263.32,799.97 4258.76,820.0 4254.84,840.92 4251.52,863.03 4248.75,886.62 4246.48,911.97 4244.67,939.38 4243.28,969.14 4242.25,1001.53 4241.55,1036.85 4241.13,1075.39 4240.94,1117.43 4240.94,1163.27 4241.0,1210.51 4241.03,1252.3 4241.13,1289.79 4241.36,1323.46 4241.76,1353.78 4242.4,1381.23 4243.33,1406.26 4244.58,1429.37 4246.23,1451.01 4248.31,1471.66 4250.88,1491.79 4254.0,1511.87 4257.71,1532.38 4262.07,1553.78 4267.13,1576.56 4272.93,1601.17 4279.54,1628.09 4287.0,1657.79 4295.37,1690.75 4302.69,1720.17 4308.29,1747.68 4313.02,1776.65 4316.68,1805.68 4319.07,1833.35 4320.0,1858.26 4320.51,1878.0 4322.16,1901.56 4324.83,1928.38 4328.43,1957.5 4332.83,1987.92 4337.95,2018.67 4343.66,2048.76 4351.31,2085.42 4358.23,2120.07 4363.14,2148.18 4366.16,2171.91 4367.41,2193.42 4367.02,2214.85 4365.11,2238.36 4361.82,2266.11 4357.12,2302.86 4353.63,2335.71 4352.3,2361.76 4353.27,2384.27 4356.71,2406.51 4362.75,2431.72 4371.2,2461.03 4381.16,2490.89 4392.31,2520.49 4404.29,2549.15 4416.79,2576.19 4429.46,2600.92 4441.99,2622.67 4454.03,2640.74 4465.21,2654.36 4478.49,2667.47 4495.66,2683.15 4516.08,2700.9 4539.12,2720.23 4564.13,2740.65 4590.47,2761.65 4617.5,2782.74 4644.6,2803.42 4671.1,2823.21 4696.38,2841.59 4719.8,2858.09 4740.72,2872.19 4758.5,2883.41 4772.98,2891.5 4797.71,2903.41 4823.74,2914.86 4850.87,2925.79 4878.88,2936.15 4907.55,2945.89 4936.68,2954.97 4966.05,2963.32 4995.44,2970.9 5024.65,2977.66 5053.45,2983.54 5081.65,2988.5 5109.01,2992.49 5135.34,2995.45 5160.41,2997.33 5184.02,2998.08 5205.95,2997.66 5225.98,2996.0 5246.47,2993.39 5266.46,2989.94 5286.51,2985.45 5307.19,2979.74 5329.05,2972.6 5352.65,2963.84 5378.58,2953.27 5407.38,2940.68 5439.62,2925.88 5475.86,2908.68 5515.3,2889.57 5552.29,2871.29 5586.73,2853.75 5618.76,2836.86 5648.49,2820.48 5676.06,2804.52 5701.59,2788.86 5725.21,2773.38 5747.04,2757.99 5767.2,2742.55 5785.84,2726.98 5803.06,2711.15 5818.99,2694.95 5833.77,2678.27 5847.51,2661.0 5860.34,2643.02 5872.4,2624.24 5883.79,2604.53 5894.66,2583.78 5905.12,2561.88 5915.3,2538.73 5924.37,2516.43 5930.93,2498.21 5935.96,2480.64 5939.67,2461.86 5942.29,2440.01 5944.03,2413.25 5945.11,2379.72 5945.73,2337.55 5946.01,2289.02 5946.19,2249.31 5946.73,2216.08 5947.79,2187.95 5949.55,2163.57 5952.16,2141.56 5955.79,2120.56 5960.62,2099.2 5966.8,2076.11 5974.5,2049.94 5982.36,2023.06 5990.06,1996.53 5997.75,1970.0 6005.0,1943.41 6005.0,1915.78 6005.0,1888.16 6005.0,1860.53 6005.0,1832.91 6005.0,1805.28 6005.0,1777.66 6005.0,1750.04 6005.0,1722.41 6005.0,1694.79 6005.0,1667.16 6005.0,1639.54 6005.0,1611.92 6005.0,1584.29 6005.0,1556.67 6005.0,1529.04 6005.0,1501.42 6005.0,1473.8 6005.0,1446.17 6005.0,1418.55 6005.0,1390.92 6005.0,1363.3 6005.0,1335.68 6005.0,1308.05 6005.0,1280.43 6005.0,1252.8 6005.0,1225.18 6005.0,1197.56 6005.0,1169.93 6005.0,1142.31 6005.0,1114.68 6005.0,1087.06 6005.0,1059.44 6005.0,1031.81 6005.0,1004.19 6005.0,976.56 6005.0,948.94 6005.0,921.32 6005.0,893.69 6005.0,866.07 6005.0,838.44 6005.0,810.82 6004.43,783.29 5995.69,757.08 5986.96,730.87 5978.22,704.67 5969.49,678.46 5960.75,652.26 5952.02,626.05 5943.28,599.84 5935.0,573.56 5935.0,545.94 5935.0,518.31 5935.0,490.69 5935.0,463.07 5935.0,435.44 5935.0,407.82 5935.0,380.19 5935.02,334.37 5935.18,286.42 5935.64,247.6 5936.54,216.39 5938.01,191.3 5940.21,170.83 5943.26,153.46 5947.33,137.69 5952.54,122.03 5959.04,104.96 5971.06,75.41 5983.07,45.2 5991.65,23.62 5994.44,16.76 5995.73,14.61 5997.88,12.64 6001.17,10.86 6005.89,9.25 6012.33,7.81 6020.79,6.53 6031.53,5.39 6044.87,4.4 6061.08,3.53 6080.44,2.78 6103.26,2.15 6129.82,1.62 6160.4,1.18 6195.3,0.83 6234.79,0.56 6279.18,0.35 6328.75,0.2 6383.78,0.1 6444.57,0.04 6511.4,0.01 6584.56,0.0 6612.47,0.0 6640.09,0.0 6667.71,0.0 6695.34,0.0 6722.96,0.0 6750.59,0.0 6778.21,0.0 6805.84,0.0 6833.46,0.0 6861.08,0.0 6888.71,0.0 6916.33,0.0 6943.96,0.0 6971.58,0.0 6999.2,0.0 7026.83,0.0 7054.45,0.0 7082.08,0.0 7109.7,0.0 7137.32,0.0 7164.95,0.0 7185.85,15.65 7204.86,35.69 7218.92,49.9 7232.34,61.49 7246.59,71.6 7262.17,80.34 7279.56,87.83 7299.26,94.19 7321.77,99.53 7347.57,103.98 7377.17,107.65 7411.04,110.67 7449.69,113.14 7493.6,115.2 7543.28,116.95 7582.8,117.93 7619.66,118.49 7654.41,118.63 7687.19,118.35 7718.15,117.63 7747.44,116.45 7775.2,114.81 7801.57,112.69 7826.71,110.08 7850.75,106.96 7873.84,103.34 7896.13,99.18 7917.76,94.48 7938.87,89.23 7959.62,83.42 7988.44,74.41 8023.3,64.4 8045.06,62.31 8063.35,67.86 8085.12,79.49 8102.95,92.2 8118.14,107.71 8131.14,126.89 8142.42,150.59 8152.43,179.67 8161.62,215.0 8169.35,251.37 8174.14,279.43 8176.63,304.02 8176.93,327.83 8175.16,353.52 8171.45,383.77 8166.97,414.18 8162.3,441.54 8157.11,467.56 8151.32,492.48 8144.83,516.55 8137.52,540.01 8129.31,563.09 8120.1,586.04 8109.79,609.1 8098.28,632.51 8085.48,656.5 8071.27,681.32 8055.58,707.21 8038.29,734.41 8019.31,763.15 8000.27,791.43 7983.09,818.9 7967.81,845.68 7954.96,870.79 7945.02,893.25 7938.51,912.09 7935.92,924.37 7933.77,939.98 7931.85,959.3 7930.15,981.93 7928.68,1007.43 7927.45,1035.39 7926.46,1065.39 7925.72,1097.0 7925.23,1129.82 7924.99,1163.41 7925.01,1197.36 7925.3,1231.24 7925.86,1264.64 7926.7,1297.14 7927.82,1328.32 7929.22,1357.76 7930.91,1385.03 7932.89,1409.72 7935.85,1440.84 7938.0,1473.78 7937.89,1500.14 7935.28,1523.02 7929.93,1545.5 7922.2,1568.12 7910.86,1593.25 7896.16,1621.77 7879.63,1651.04 7862.82,1678.39 7847.26,1701.18 7834.51,1716.75 7822.4,1727.83 7807.92,1744.19 7792.37,1764.92 7776.32,1789.05 7760.28,1815.57 7744.82,1843.52 7730.48,1871.91 7717.8,1899.74 7707.32,1926.04 7699.59,1949.83 7697.67,1959.1 7696.11,1971.36 7694.48,1987.89 7692.81,2008.34 7691.12,2032.36 7689.43,2059.61 7687.78,2089.73 7686.17,2122.37 7684.64,2157.18 7683.2,2193.83 7681.89,2231.95 7680.73,2271.2 7679.64,2316.23 7678.4,2369.94 7677.19,2417.11 7675.97,2458.31 7674.7,2494.14 7673.33,2525.18 7671.81,2552.03 7670.11,2575.28 7668.17,2595.51 7665.94,2613.31 7663.39,2629.28 7660.47,2643.99 7657.13,2658.05 7653.33,2672.04 7647.23,2692.68 7639.4,2720.1 7632.45,2746.23 7626.34,2771.4 7621.01,2795.95 7616.43,2820.21 7612.55,2844.5 7609.31,2869.17 7606.68,2894.53 7604.61,2920.93 7603.06,2948.69 7601.97,2978.15 7601.31,3009.64 7601.02,3043.48 7600.8,3080.43 7600.27,3115.24 7599.4,3146.98 7598.14,3176.14 7596.44,3203.18 7594.23,3228.57 7591.45,3252.79 7588.06,3276.3 7583.98,3299.59 7579.17,3323.11 7573.56,3347.36 7567.09,3372.78 7559.72,3399.87 7551.61,3428.35 7544.37,3455.64 7538.15,3482.49 7532.95,3509.03 7528.78,3535.34 7525.62,3561.54 7523.47,3587.73 7522.34,3614.02 7522.23,3640.51 7523.12,3667.32 7525.02,3694.54 7527.92,3722.28 7531.83,3750.65 7536.75,3779.76 7542.66,3809.71 7549.43,3840.84 7555.17,3869.77 7559.8,3896.74 7563.42,3922.46 7566.13,3947.66 7568.04,3973.06 7569.25,3999.38 7569.87,4027.34 7569.94,4058.93 7569.87,4092.47 7570.36,4120.71 7571.75,4145.03 7574.37,4166.83 7578.53,4187.48 7584.57,4208.38 7592.81,4230.91 7603.57,4256.44 7617.19,4286.38 7634.08,4322.25 7652.57,4361.66 7668.17,4396.83 7681.01,4428.18 7691.22,4456.1 7698.93,4480.98 7704.28,4503.23 7707.38,4523.22 7708.37,4541.37 7707.39,4558.07 7703.48,4578.88 7696.16,4598.77 7684.74,4617.26 7668.38,4635.24 7646.24,4653.59 7617.48,4673.18 7582.37,4694.33 7552.12,4712.84 7526.14,4730.03 7503.74,4746.5 7484.24,4762.87 7466.95,4779.73 7451.18,4797.7 7436.25,4817.38 7421.86,4838.79 7411.4,4856.25 7402.11,4873.76 7393.95,4891.71 7386.85,4910.46 7380.75,4930.41 7375.57,4951.91 7371.26,4975.35 7367.76,5001.09 7364.99,5029.53 7362.9,5061.02 7361.43,5095.95 7360.5,5134.69 7360.06,5177.62 7360.02,5223.29 7360.21,5263.48 7360.67,5298.14 7361.49,5328.23 7362.75,5354.69 7364.53,5378.45 7366.91,5400.48 7369.98,5421.7 7373.81,5443.06 7378.49,5465.52 7384.1,5490.02 7393.56,5530.74 7402.06,5571.71 7407.74,5606.37 7410.5,5635.61 7410.27,5660.33 7406.96,5681.43 7400.5,5699.8 7390.81,5716.34 7377.8,5731.95 7361.61,5747.36 7349.3,5757.16 7335.48,5765.14 7319.18,5771.47 7299.44,5776.32 7275.32,5779.84 7245.85,5782.19 7210.09,5783.55 7167.07,5784.08 7117.79,5783.99 7078.48,5783.63 7045.0,5782.65 7016.23,5780.96 6991.06,5778.46 6968.37,5775.07 6947.05,5770.69 6925.99,5765.23 6897.72,5756.86 6865.74,5747.99 6837.35,5741.29 6811.61,5736.72 6787.57,5734.27 6764.3,5733.92 6740.84,5735.66 6716.26,5739.45 6689.61,5745.29 6659.95,5753.16 6631.71,5761.39 6605.21,5769.2 6578.71,5777.01 6552.1,5784.0 6524.48,5784.05 6496.85,5784.09 6469.23,5784.13 6441.6,5784.17 6413.98,5784.21 6386.36,5784.25 6358.73,5784.3 6331.11,5784.34 6303.48,5784.38 6275.86,5784.42 6248.24,5784.46 6220.61,5784.5 6192.99,5784.54 6165.36,5784.59 6137.74,5784.63 6110.12,5784.67 6082.49,5784.71 6054.87,5784.75 6027.24,5784.79 5999.62,5784.84 5971.99,5784.88 5944.37,5784.92 5916.75,5784.96 5889.12,5785.0 5861.5,5785.04 5833.87,5785.08 5806.25,5785.13 5778.63,5785.17 5751.0,5785.21 5723.38,5785.25 5695.75,5785.29 5668.13,5785.33 5640.51,5785.38 5612.88,5785.42 5585.26,5785.46 5557.63,5785.5 5530.01,5785.54 5502.39,5785.58 5474.76,5785.62 5447.14,5785.67 5419.51,5785.71 5391.89,5785.75 5364.27,5785.79 5336.64,5785.83 5309.02,5785.87 5281.39,5785.92 5253.77,5785.96 5226.15,5786.0 5183.05,5786.05 5139.57,5786.1 5096.39,5786.14 5053.55,5786.16 5011.06,5786.18 4968.96,5786.19 4927.25,5786.19 4885.98,5786.19 4845.15,5786.17 4804.8,5786.14 4764.94,5786.11 4725.6,5786.07 4686.8,5786.02 4648.57,5785.97 4610.93,5785.9 4573.89,5785.83 4537.5,5785.75 4501.76,5785.67 4466.71,5785.57 4432.36,5785.47 4398.74,5785.37 4365.87,5785.26 4333.77,5785.14 4302.47,5785.01 4272.0,5784.88 4242.37,5784.74 4213.6,5784.6 4185.73,5784.45 4158.77,5784.29 4132.75,5784.13 4107.69,5783.96 4083.62,5783.79 4060.55,5783.62 4038.51,5783.44 4017.52,5783.25 3997.62,5783.06 3978.81,5782.87 3961.12,5782.67 3944.59,5782.46 3929.22,5782.26 3915.04,5782.05 3902.09,5781.83 3890.37,5781.61 3879.91,5781.39 3870.74,5781.17 3862.88,5780.94 3856.35,5780.71 3851.18,5780.48 3847.39,5780.24 3845.0,5780.0"/></g>
</svg>
