<?xml version="1.0" standalone="no"?>
<!DOCTYPE svg PUBLIC "-//W3C//DTD SVG 20010904//EN"
 "http://www.w3.org/TR/2001/REC-SVG-20010904/DTD/svg10.dtd">
<svg version="1.0" xmlns="http://www.w3.org/2000/svg"
 width="1400.000000pt" height="787.000000pt" viewBox="0 0 1400.000000 787.000000"
 preserveAspectRatio="xMidYMid meet">
<metadata>
Created by potrace 1.15, written by Peter Selinger 2001-2017
</metadata>
<g transform="translate(0.000000,787.000000) scale(0.100000,-0.100000)"
fill="#000000" stroke="none">
<path d="M6935 7465 c-22 -28 -28 -50 -35 -127 -12 -132 -26 -188 -64 -245
-78 -119 -94 -238 -55 -423 19 -93 24 -142 23 -260 -1 -80 -7 -165 -13 -190
-6 -25 -11 -105 -11 -178 0 -96 -6 -157 -21 -225 -19 -86 -21 -138 -29 -772
l-8 -680 -32 -155 c-28 -137 -39 -170 -92 -278 l-60 -123 -9 -122 c-12 -158
-46 -440 -61 -497 -22 -87 -108 -297 -141 -343 -18 -25 -67 -75 -109 -111 -93
-79 -104 -107 -112 -286 -10 -198 -36 -253 -206 -435 -48 -51 -98 -121 -138
-190 -35 -61 -92 -153 -127 -205 -74 -112 -135 -209 -135 -214 0 -3 -18 -31
-39 -63 -78 -117 -90 -181 -43 -225 47 -45 89 -49 467 -46 332 3 352 4 395 24
61 29 91 64 140 164 146 301 247 432 381 497 187 90 272 98 414 39 159 -66
235 -107 278 -151 46 -46 140 -215 199 -358 45 -109 79 -154 144 -187 l48 -25
339 -3 c377 -3 441 4 485 55 29 34 30 103 1 158 -38 73 -209 338 -221 343 -5
2 -8 8 -8 12 0 5 -20 37 -44 72 -24 35 -65 101 -91 148 -27 47 -75 117 -107
155 -53 63 -143 203 -190 294 -31 60 -47 123 -59 231 -15 143 -38 188 -132
267 -97 82 -117 122 -223 440 l-86 258 -5 147 -5 148 -39 72 c-99 185 -102
194 -111 312 -4 61 -12 141 -18 178 -5 37 -10 122 -10 190 0 120 -8 171 -56
368 -16 69 -29 243 -43 620 -7 184 -14 256 -32 330 -21 89 -22 126 -29 585 -4
297 -10 502 -17 520 -6 17 -30 68 -54 115 l-44 85 -2 123 c-3 154 -24 202 -89
202 -26 0 -39 -7 -59 -35z m154 -4411 c31 -22 61 -89 61 -137 0 -106 -99 -177
-177 -128 -42 26 -58 80 -43 148 25 108 96 161 159 117z"/>
</g>
</svg>
