<!DOCTYPE svg PUBLIC "-//W3C//DTD SVG 20010904//EN" "http://www.w3.org/TR/2001/REC-SVG-20010904/DTD/svg10.dtd">
<svg xmlns="http://www.w3.org/2000/svg" version="1.0" width="1400.000000pt" height="787.000000pt" viewBox="0 0 1400.000000 787.000000" preserveAspectRatio="xMidYMid meet">
<metadata>
Created by potrace 1.15, written by Peter Selinger 2001-2017
</metadata>
<g transform="translate(0.000000,787.000000) scale(0.100000,-0.100000)" fill="#000000" stroke="none">
<polygon points="6964.0,7554.0 6947.11,7544.24 6930.09,7532.3 6915.42,7520.2 6907.54,7512.27 6902.83,7506.37 6899.15,7499.74 6896.44,7491.36 6894.65,7480.24 6893.73,7465.39 6893.62,7445.8 6894.27,7420.49 6895.64,7388.45 6897.67,7348.69 6899.88,7305.79 6901.44,7270.1 6902.48,7238.63 6902.91,7211.02 6902.65,7186.94 6901.6,7166.02 6899.69,7147.94 6896.82,7132.33 6892.91,7118.86 6887.87,7107.17 6881.61,7096.92 6874.05,7087.75 6865.11,7079.34 6854.69,7071.31 6842.7,7063.34 6824.33,7052.02 6804.62,7038.49 6794.95,7027.1 6792.84,7013.67 6795.8,6994.01 6797.12,6985.69 6798.14,6976.31 6799.02,6965.18 6799.75,6952.29 6800.34,6937.66 6800.78,6921.32 6801.06,6903.27 6801.19,6883.53 6801.17,6862.12 6800.99,6839.05 6800.64,6814.33 6800.14,6787.99 6799.48,6760.04 6798.64,6730.49 6797.9,6705.72 6798.01,6691.37 6798.7,6674.9 6799.93,6656.63 6801.64,6636.91 6803.79,6616.07 6806.33,6594.45 6809.21,6572.39 6812.38,6550.23 6815.8,6528.3 6819.42,6506.95 6823.18,6486.5 6827.05,6467.31 6830.97,6449.7 6834.9,6434.02 6840.96,6411.58 6845.25,6391.53 6846.49,6375.28 6844.67,6359.83 6839.8,6342.19 6832.8,6321.85 6826.87,6301.13 6822.51,6280.78 6820.22,6263.46 6819.4,6248.6 6816.1,6229.61 6810.68,6209.21 6804.25,6191.19 6799.56,6178.14 6795.86,6164.39 6793.13,6149.7 6791.38,6133.8 6790.6,6116.44 6790.78,6097.37 6791.92,6076.34 6794.01,6053.09 6797.04,6027.37 6801.01,5998.92 6805.28,5971.78 6807.81,5950.76 6808.42,5933.88 6806.92,5919.15 6803.12,5904.59 6796.85,5888.21 6787.92,5868.02 6781.79,5854.68 6776.82,5843.57 6772.61,5833.29 6769.1,5823.3 6766.27,5813.07 6764.06,5802.06 6762.45,5789.71 6761.39,5775.5 6760.85,5758.89 6760.79,5739.33 6761.16,5716.28 6761.92,5689.22 6763.05,5657.58 6764.5,5620.84 6766.17,5579.55 6767.37,5545.88 6768.23,5516.43 6768.72,5490.79 6768.82,5468.54 6768.5,5449.29 6767.75,5432.62 6766.52,5418.13 6764.81,5405.41 6762.59,5394.05 6759.82,5383.64 6755.25,5369.89 6750.34,5349.5 6747.57,5328.86 6747.15,5310.43 6748.48,5295.52 6748.27,5277.58 6746.33,5257.03 6742.75,5236.19 6738.1,5217.65 6734.9,5201.81 6733.5,5186.61 6733.98,5170.44 6736.4,5151.69 6740.86,5128.76 6747.27,5100.47 6752.8,5074.8 6756.43,5053.91 6758.19,5036.27 6758.12,5020.36 6756.28,5004.68 6752.7,4987.7 6749.44,4973.38 6747.07,4958.51 6744.87,4940.67 6742.95,4920.61 6741.41,4899.08 6740.36,4876.84 6739.9,4854.62 6740.02,4832.75 6740.06,4809.74 6740.01,4786.12 6739.89,4762.0 6739.7,4737.45 6739.44,4712.57 6739.11,4687.45 6738.72,4662.18 6738.26,4636.84 6737.75,4611.53 6737.18,4586.34 6736.56,4561.35 6735.89,4536.65 6735.17,4512.34 6734.41,4488.5 6733.61,4465.22 6732.77,4442.6 6731.89,4420.72 6730.98,4399.66 6730.04,4379.53 6729.07,4360.41 6728.09,4342.38 6727.07,4325.55 6726.05,4309.99 6725.0,4295.8 6723.94,4283.07 6722.88,4271.88 6721.81,4262.33 6720.73,4254.51 6719.65,4248.49 6718.57,4244.39 6715.94,4237.39 6712.82,4221.08 6711.63,4200.54 6712.48,4177.66 6714.77,4153.9 6714.7,4134.74 6711.36,4118.56 6704.16,4102.79 6692.79,4085.16 6683.17,4067.93 6676.17,4050.03 6671.79,4031.48 6670.04,4012.28 6669.53,3998.31 6667.59,3985.7 6663.91,3972.94 6658.23,3959.64 6650.32,3945.38 6639.91,3929.76 6626.76,3912.37 6610.62,3892.8 6591.23,3870.63 6574.89,3852.22 6567.86,3840.47 6561.83,3825.77 6556.83,3808.61 6552.91,3789.47 6550.08,3768.85 6548.38,3747.23 6547.86,3725.12 6548.53,3702.99 6550.43,3681.33 6553.61,3660.65 6558.08,3641.43 6564.22,3620.32 6567.54,3602.31 6566.54,3586.59 6560.85,3569.08 6552.78,3551.12 6547.94,3537.84 6544.02,3522.77 6540.97,3505.57 6538.7,3485.88 6537.14,3463.36 6536.21,3437.66 6535.42,3408.67 6534.18,3383.18 6532.37,3361.88 6529.79,3343.83 6526.25,3328.1 6521.54,3313.74 6515.47,3299.82 6507.7,3284.36 6500.63,3266.46 6495.27,3247.48 6491.72,3228.05 6490.1,3208.81 6489.7,3190.34 6487.96,3173.77 6484.2,3158.11 6477.94,3142.08 6468.64,3124.39 6455.8,3103.73 6441.49,3081.93 6430.55,3064.37 6422.48,3049.46 6416.85,3035.58 6413.23,3021.13 6411.17,3004.47 6410.24,2984.01 6410.0,2958.12 6410.0,2937.32 6410.0,2917.95 6410.0,2898.58 6410.0,2879.21 6402.03,2862.52 6390.29,2847.11 6378.56,2831.7 6366.83,2816.28 6353.38,2798.89 6336.46,2778.77 6320.41,2761.44 6306.44,2748.1 6295.74,2739.96 6280.67,2737.0 6251.71,2733.18 6226.32,2728.18 6204.42,2721.93 6185.98,2714.42 6170.92,2705.58 6159.19,2695.38 6150.74,2683.79 6145.5,2670.75 6143.43,2656.23 6144.46,2640.18 6147.42,2620.92 6146.61,2603.49 6141.36,2586.4 6131.37,2567.28 6119.69,2546.75 6114.25,2530.72 6114.58,2514.75 6119.97,2494.08 6123.03,2481.98 6125.18,2467.51 6126.46,2450.96 6126.89,2432.66 6126.49,2412.94 6125.28,2392.14 6123.28,2370.59 6120.53,2348.61 6117.03,2326.55 6112.81,2304.73 6107.89,2283.48 6102.95,2268.08 6095.74,2251.5 6086.48,2233.5 6075.76,2215.18 6064.12,2197.64 6052.04,2181.79 6038.82,2164.03 6026.4,2145.6 6015.52,2127.77 6006.91,2111.79 6001.33,2098.95 5993.93,2082.31 5982.7,2064.75 5970.16,2049.82 5953.62,2035.88 5934.7,2019.95 5917.0,2004.05 5900.56,1988.24 5885.41,1972.57 5871.6,1957.07 5859.15,1941.8 5848.1,1926.81 5838.49,1912.15 5830.35,1897.85 5823.72,1883.97 5818.64,1870.56 5815.14,1857.66 5811.5,1843.46 5806.27,1827.91 5799.61,1811.32 5791.68,1793.93 5782.63,1775.98 5772.61,1757.73 5761.77,1739.42 5750.27,1721.3 5738.26,1703.62 5725.9,1686.61 5713.33,1670.53 5700.71,1655.63 5688.19,1642.15 5668.08,1622.95 5642.68,1598.85 5620.52,1577.38 5601.43,1558.38 5585.25,1541.67 5571.82,1527.07 5560.99,1514.41 5552.58,1503.52 5546.45,1494.23 5542.44,1486.36 5540.37,1479.75 5539.77,1471.88 5537.64,1458.79 5533.44,1444.28 5527.28,1428.58 5519.29,1411.91 5509.56,1394.53 5498.23,1376.65 5485.4,1358.52 5471.18,1340.37 5455.69,1322.43 5438.32,1303.79 5421.18,1283.97 5407.29,1265.85 5397.16,1250.15 5391.3,1237.63 5389.88,1226.31 5387.43,1209.84 5381.76,1193.61 5372.77,1177.52 5360.38,1161.49 5344.49,1145.42 5323.64,1126.88 5312.29,1111.36 5313.44,1097.8 5316.85,1091.68 5318.35,1089.86 5320.28,1088.17 5322.79,1086.62 5326.01,1085.18 5330.09,1083.86 5335.17,1082.65 5341.39,1081.55 5348.9,1080.54 5357.83,1079.62 5368.34,1078.78 5380.56,1078.03 5394.63,1077.34 5410.7,1076.72 5428.91,1076.16 5449.4,1075.65 5472.32,1075.18 5497.8,1074.75 5526.0,1074.36 5557.04,1073.99 5591.08,1073.65 5628.26,1073.31 5668.71,1072.99 5712.59,1072.66 5760.03,1072.33 5811.11,1071.99 5860.59,1071.78 5906.57,1071.6 5949.2,1071.46 5988.61,1071.35 6024.94,1071.28 6058.34,1071.26 6088.94,1071.3 6116.88,1071.38 6142.31,1071.53 6165.36,1071.74 6186.18,1072.01 6204.9,1072.36 6221.66,1072.79 6236.6,1073.3 6249.87,1073.89 6261.61,1074.57 6271.95,1075.34 6281.03,1076.22 6289.0,1077.19 6295.99,1078.27 6302.14,1079.46 6307.6,1080.77 6312.51,1082.2 6316.99,1083.74 6321.21,1085.42 6325.28,1087.23 6330.36,1089.73 6345.0,1099.39 6358.29,1111.57 6370.06,1125.97 6380.14,1142.29 6388.34,1160.21 6394.5,1179.44 6398.44,1199.66 6399.98,1220.59 6401.38,1235.92 6405.97,1253.38 6413.32,1272.66 6422.94,1292.43 6433.95,1310.66 6444.4,1329.21 6453.59,1348.48 6460.85,1366.65 6465.52,1381.89 6468.86,1395.85 6475.26,1412.89 6484.19,1431.57 6494.87,1450.37 6506.69,1467.95 6520.66,1488.85 6531.65,1508.32 6538.42,1523.78 6540.28,1533.68 6545.48,1548.08 6555.7,1567.17 6568.77,1587.02 6580.67,1603.72 6592.36,1621.66 6602.68,1638.76 6610.46,1652.93 6617.79,1664.46 6629.71,1677.1 6645.3,1690.21 6663.55,1703.05 6683.01,1714.62 6701.45,1725.13 6720.1,1736.6 6737.57,1748.09 6752.48,1758.66 6763.72,1767.58 6777.02,1777.53 6789.72,1785.14 6803.55,1790.9 6820.24,1795.33 6841.52,1798.92 6869.13,1802.2 6890.23,1805.36 6908.72,1810.82 6927.3,1818.57 6944.83,1828.23 6960.52,1839.4 6975.28,1849.2 6989.93,1856.44 7005.98,1861.57 7024.94,1865.05 7048.31,1867.33 7075.88,1868.99 7098.0,1869.5 7115.11,1868.09 7129.56,1864.18 7143.67,1857.16 7159.77,1846.45 7178.1,1833.15 7194.59,1822.55 7210.59,1814.33 7227.08,1808.11 7245.02,1803.51 7265.39,1800.15 7287.44,1797.54 7306.81,1794.32 7324.17,1789.93 7340.5,1784.0 7356.75,1776.16 7373.91,1766.03 7392.2,1753.71 7409.66,1742.05 7428.23,1730.78 7446.66,1720.58 7463.67,1712.11 7478.01,1706.05 7496.95,1698.78 7515.55,1690.46 7531.75,1681.61 7546.18,1671.68 7559.48,1660.15 7572.26,1646.48 7585.15,1630.16 7594.38,1616.83 7600.94,1604.09 7605.39,1589.95 7608.13,1572.73 7609.53,1550.73 7609.99,1522.23 7610.0,1499.85 7610.0,1480.47 7610.0,1461.1 7610.0,1441.73 7618.32,1425.86 7632.18,1412.32 7646.03,1398.79 7661.55,1383.57 7675.89,1368.5 7686.11,1355.24 7693.09,1341.83 7697.68,1326.3 7700.75,1306.7 7703.17,1281.54 7706.31,1259.12 7710.35,1236.9 7714.9,1216.74 7719.59,1200.52 7727.01,1184.42 7741.36,1157.85 7752.98,1137.55 7762.84,1122.16 7771.9,1110.31 7781.12,1100.63 7791.47,1091.76 7805.43,1080.5 7820.45,1068.26 7839.37,1067.26 7858.74,1067.55 7878.11,1067.84 7897.48,1068.13 7916.85,1068.42 7936.22,1068.72 7955.59,1069.01 7974.96,1069.3 7994.33,1069.59 8013.7,1069.88 8033.07,1070.17 8052.44,1070.46 8071.81,1070.75 8091.18,1071.04 8110.54,1071.33 8129.91,1071.63 8149.28,1071.92 8168.65,1072.21 8188.02,1072.5 8207.39,1072.79 8226.76,1073.08 8246.13,1073.37 8265.5,1073.66 8284.87,1073.95 8328.67,1074.59 8374.06,1075.26 8416.17,1075.9 8455.14,1076.53 8491.09,1077.14 8524.15,1077.74 8554.45,1078.35 8582.11,1078.96 8607.26,1079.58 8630.03,1080.22 8650.54,1080.89 8668.93,1081.58 8685.31,1082.32 8699.83,1083.1 8712.6,1083.93 8723.75,1084.82 8733.41,1085.77 8741.71,1086.79 8748.77,1087.89 8754.73,1089.07 8759.7,1090.34 8763.82,1091.7 8767.22,1093.17 8770.01,1094.74 8772.34,1096.43 8779.16,1103.88 8785.04,1115.57 8787.1,1129.32 8785.3,1145.33 8779.62,1163.81 8770.02,1184.95 8756.47,1208.98 8742.25,1231.16 8731.05,1249.03 8720.16,1267.62 8710.24,1285.58 8701.97,1301.56 8694.51,1316.9 8682.49,1338.36 8673.41,1350.93 8668.09,1355.4 8658.19,1366.26 8644.25,1382.86 8627.77,1403.58 8614.35,1421.2 8605.25,1433.62 8596.36,1446.17 8587.56,1459.03 8578.74,1472.39 8569.8,1486.44 8560.62,1501.36 8551.1,1517.33 8541.12,1534.55 8530.58,1553.19 8519.36,1573.44 8507.36,1595.48 8494.46,1619.51 8483.71,1637.68 8471.92,1654.77 8459.62,1670.92 8448.77,1683.3 8437.69,1696.22 8425.36,1712.35 8413.06,1729.76 8402.06,1746.47 8390.76,1763.18 8378.25,1780.33 8365.9,1796.14 8355.07,1808.84 8345.66,1820.85 8335.07,1836.88 8324.38,1855.17 8314.79,1873.89 8308.33,1887.55 8300.63,1900.98 8290.74,1916.31 8279.1,1932.92 8266.14,1950.18 8252.32,1967.46 8238.07,1984.15 8223.79,1999.98 8209.51,2016.61 8195.58,2033.82 8182.47,2051.01 8170.66,2067.55 8160.62,2082.84 8152.8,2096.25 8145.49,2111.77 8134.39,2133.9 8124.8,2149.69 8118.34,2156.39 8109.73,2167.35 8098.33,2185.4 8085.75,2207.62 8076.24,2225.88 8065.52,2244.33 8054.38,2261.86 8043.86,2277.04 8034.92,2288.52 8026.16,2301.66 8017.22,2318.6 8008.67,2337.93 8001.13,2358.24 7995.42,2377.09 7992.05,2389.57 7989.12,2401.48 7986.58,2413.28 7984.38,2425.46 7982.47,2438.48 7980.81,2452.83 7979.34,2468.98 7978.01,2487.41 7976.78,2508.58 7975.59,2532.98 7974.41,2561.07 7973.18,2593.34 7971.88,2629.7 7970.49,2658.55 7968.09,2679.69 7963.94,2695.4 7957.31,2707.94 7947.46,2719.6 7933.96,2732.55 7917.85,2745.04 7900.05,2756.16 7881.4,2765.57 7862.75,2772.91 7844.94,2777.82 7828.83,2779.94 7813.9,2781.82 7799.21,2788.77 7785.37,2800.29 7772.92,2815.74 7762.41,2834.46 7754.4,2855.81 7749.6,2873.94 7743.54,2891.42 7735.57,2910.56 7726.44,2929.62 7716.92,2946.86 7707.57,2962.71 7699.64,2978.89 7693.17,2995.75 7688.05,3013.76 7684.18,3033.39 7681.44,3055.11 7679.0,3076.41 7675.72,3095.68 7671.44,3113.73 7665.98,3131.09 7659.16,3148.28 7650.79,3165.84 7640.8,3184.07 7631.3,3202.07 7622.83,3220.99 7615.56,3240.17 7609.68,3258.91 7605.33,3276.54 7602.56,3293.35 7599.16,3312.67 7594.27,3329.83 7587.42,3345.91 7578.15,3361.98 7565.99,3379.11 7552.56,3395.76 7540.19,3410.67 7527.82,3425.58 7520.0,3442.13 7520.0,3461.5 7520.0,3480.87 7520.0,3500.24 7520.0,3519.62 7520.0,3538.99 7520.0,3558.36 7520.0,3577.73 7520.0,3597.1 7520.0,3616.47 7520.0,3636.8 7520.0,3675.27 7519.94,3708.87 7519.7,3738.05 7519.17,3763.28 7518.24,3785.01 7516.8,3803.71 7514.74,3819.83 7511.95,3833.84 7508.32,3846.18 7503.74,3857.34 7498.1,3867.75 7491.29,3877.88 7483.21,3888.2 7473.73,3899.16 7462.75,3911.22 7450.15,3924.83 7432.91,3943.99 7418.04,3961.62 7405.45,3978.06 7394.98,3993.68 7386.47,4008.86 7379.76,4023.97 7374.7,4039.41 7371.12,4055.55 7368.87,4072.77 7367.78,4091.45 7367.71,4111.98 7368.42,4136.69 7369.16,4161.81 7369.75,4184.39 7370.19,4204.84 7370.46,4223.59 7370.56,4241.03 7370.47,4257.59 7370.17,4273.67 7369.67,4289.68 7368.94,4306.03 7367.98,4323.14 7366.77,4341.42 7365.3,4361.27 7363.57,4383.11 7361.15,4408.48 7358.17,4433.25 7354.82,4456.08 7351.14,4476.68 7347.19,4494.79 7343.0,4510.11 7338.62,4522.37 7332.63,4535.02 7326.89,4550.3 7324.34,4565.6 7324.82,4583.76 7328.15,4607.57 7333.13,4637.07 7335.44,4659.0 7334.22,4674.83 7329.01,4688.4 7319.32,4703.54 7308.61,4718.83 7303.06,4732.4 7302.22,4748.26 7305.65,4770.45 7312.01,4799.15 7315.77,4821.13 7315.88,4838.01 7312.14,4853.05 7304.38,4869.48 7299.77,4878.7 7296.48,4887.53 7293.63,4897.92 7291.15,4910.26 7288.99,4924.96 7287.09,4942.41 7285.4,4963.03 7283.87,4987.2 7282.43,5015.34 7281.04,5047.85 7279.64,5086.11 7278.32,5124.67 7277.02,5156.84 7275.63,5183.37 7274.05,5205.0 7272.16,5222.47 7269.85,5236.54 7267.03,5247.96 7263.57,5257.46 7259.37,5265.8 7254.32,5273.72 7247.94,5282.92 7242.19,5292.84 7237.64,5303.6 7234.13,5316.28 7231.46,5331.97 7229.46,5351.75 7227.94,5376.7 7226.72,5407.91 7225.7,5441.42 7224.57,5467.8 7223.08,5493.01 7221.28,5516.34 7219.19,5537.08 7216.87,5554.52 7214.35,5567.95 7211.68,5576.65 7207.28,5587.07 7205.62,5600.66 7207.85,5618.25 7214.15,5642.32 7222.51,5668.54 7228.23,5687.65 7232.02,5704.6 7233.96,5720.88 7234.14,5737.96 7232.64,5757.34 7229.54,5780.5 7225.62,5806.71 7221.24,5830.35 7216.89,5849.3 7213.13,5861.57 7211.35,5865.77 7210.26,5871.74 7209.12,5881.37 7207.94,5894.36 7206.74,5910.43 7205.54,5929.3 7204.35,5950.68 7203.19,5974.29 7202.09,5999.84 7201.05,6027.05 7200.1,6055.63 7199.25,6085.3 7198.58,6110.61 7197.86,6133.83 7197.01,6157.17 7196.05,6180.5 7194.99,6203.63 7193.85,6226.43 7192.63,6248.71 7191.35,6270.33 7190.01,6291.13 7188.64,6310.94 7187.24,6329.6 7185.83,6346.95 7184.41,6362.84 7183.01,6377.1 7181.62,6389.58 7180.27,6400.1 7177.0,6422.05 7174.13,6443.68 7172.3,6462.33 7171.56,6479.08 7171.95,6494.98 7173.53,6511.1 7176.33,6528.49 7180.41,6548.22 7185.44,6569.93 7188.44,6583.9 7191.06,6597.51 7193.3,6611.05 7195.18,6624.86 7196.71,6639.24 7197.92,6654.49 7198.81,6670.95 7199.41,6688.92 7199.73,6708.71 7199.79,6730.64 7199.59,6755.03 7199.17,6782.18 7198.53,6812.4 7197.55,6850.02 7196.33,6891.24 7195.16,6925.46 7193.92,6953.45 7192.5,6975.99 7190.79,6993.85 7188.69,7007.83 7186.09,7018.69 7182.86,7027.22 7178.92,7034.2 7174.14,7040.4 7167.95,7047.11 7154.62,7059.96 7138.73,7073.34 7122.59,7085.19 7107.41,7095.32 7092.46,7108.97 7078.71,7125.52 7066.65,7143.95 7056.79,7163.25 7049.63,7182.39 7045.68,7200.36 7045.43,7216.15 7048.7,7227.7 7051.52,7238.19 7054.19,7253.66 7056.59,7273.11 7058.6,7295.57 7060.1,7320.05 7060.97,7345.57 7061.4,7369.22 7061.82,7392.79 7062.19,7415.57 7062.52,7436.71 7062.77,7455.36 7062.94,7470.66 7063.0,7481.78 7061.99,7501.86 7056.97,7519.74 7047.67,7535.9 7033.14,7552.17 7018.87,7564.17 7005.43,7568.42 6989.19,7565.32 6966.54,7555.26 7150.18,3148.31 7160.72,3138.83 7169.48,3126.93 7176.56,3112.41 7182.05,3095.08 7186.03,3074.72 7188.6,3051.14 7189.84,3024.15 7190.09,2999.84 7190.84,2979.79 7192.27,2958.77 7194.3,2937.85 7196.86,2918.11 7199.87,2900.59 7204.27,2880.92 7208.18,2858.96 7207.93,2843.16 7202.78,2829.44 7192.0,2813.71 7178.72,2796.66 7166.89,2783.07 7154.98,2771.71 7142.53,2762.42 7129.09,2755.04 7114.18,2749.42 7097.37,2745.4 7078.19,2742.81 7056.19,2741.5 7030.91,2741.31 7001.49,2742.09 6968.35,2743.81 6941.42,2746.42 6920.12,2750.29 6903.87,2755.76 6892.09,2763.2 6884.21,2772.95 6879.65,2785.36 6877.81,2800.78 6878.07,2818.3 6879.04,2829.98 6880.78,2844.01 6883.2,2860.1 6886.25,2877.92 6889.83,2897.17 6893.89,2917.55 6898.36,2938.75 6903.16,2960.45 6908.22,2982.36 6913.46,3004.16 6918.83,3025.55 6924.25,3046.22 6930.33,3067.92 6937.07,3092.62 6941.85,3112.58 6943.96,3124.19 6947.39,3132.33 6958.18,3141.32 6974.69,3150.05 6995.21,3157.91 7018.01,3164.27 7041.36,3168.51 7063.51,3170.0 7084.16,3168.73 7105.4,3165.45 7124.57,3160.68 7139.0,3155.0"/></g>
</svg>
