<?xml version="1.0" standalone="no"?>
<!DOCTYPE svg PUBLIC "-//W3C//DTD SVG 20010904//EN"
 "http://www.w3.org/TR/2001/REC-SVG-20010904/DTD/svg10.dtd">
<svg version="1.0" xmlns="http://www.w3.org/2000/svg"
 width="1400.000000pt" height="787.000000pt" viewBox="0 0 1400.000000 787.000000"
 preserveAspectRatio="xMidYMid meet">
<metadata>
Created by potrace 1.15, written by Peter Selinger 2001-2017
</metadata>
<g transform="translate(0.000000,787.000000) scale(0.100000,-0.100000)"
fill="#000000" stroke="none">
<path d="M6964 7554 c-18 -9 -41 -26 -53 -38 -20 -21 -21 -27 -12 -192 10
-202 5 -224 -65 -266 -44 -27 -45 -29 -38 -65 6 -33 7 -130 2 -283 -2 -60 19
-212 38 -280 14 -50 14 -59 0 -99 -9 -24 -16 -57 -16 -73 0 -16 -7 -45 -15
-65 -18 -43 -19 -93 -4 -194 12 -73 11 -78 -14 -133 -30 -65 -30 -62 -21 -282
5 -130 4 -171 -8 -206 -9 -24 -13 -58 -10 -76 2 -18 -1 -52 -8 -77 -10 -37 -9
-55 6 -119 15 -65 16 -83 5 -125 -6 -26 -12 -90 -11 -142 1 -231 -11 -575 -22
-596 -6 -13 -8 -42 -5 -71 5 -41 2 -55 -19 -85 -16 -24 -24 -50 -24 -78 0 -41
-19 -73 -92 -153 -31 -34 -40 -152 -18 -221 11 -36 11 -45 -5 -79 -13 -27 -18
-64 -19 -129 -2 -74 -6 -100 -24 -134 -14 -26 -22 -60 -22 -90 0 -39 -7 -59
-40 -108 -38 -58 -40 -63 -40 -141 l0 -81 -51 -67 c-28 -36 -59 -67 -68 -68
-112 -10 -157 -41 -146 -101 6 -28 2 -44 -15 -72 -19 -31 -20 -39 -10 -71 13
-40 7 -137 -13 -214 -7 -25 -31 -69 -54 -97 -23 -29 -46 -67 -52 -85 -6 -18
-23 -42 -36 -53 -85 -67 -139 -135 -150 -188 -13 -61 -78 -168 -133 -221 -107
-100 -142 -140 -142 -160 -1 -39 -39 -107 -95 -165 -33 -35 -55 -67 -55 -80 0
-32 -17 -62 -54 -93 -26 -22 -29 -30 -20 -45 10 -17 41 -18 493 -21 462 -2
483 -1 520 17 42 22 71 76 71 134 0 19 12 52 29 80 17 25 33 62 37 81 3 20 21
57 40 83 19 26 34 55 34 64 0 9 13 34 28 55 16 21 35 52 43 68 8 17 37 41 69
59 30 16 68 41 83 54 30 24 44 29 114 36 25 3 57 16 79 33 30 23 49 29 103 32
62 4 69 2 111 -29 35 -26 59 -35 105 -40 48 -5 72 -14 114 -43 29 -21 71 -44
92 -51 51 -19 75 -35 105 -76 21 -28 24 -44 24 -114 l0 -81 44 -43 c40 -39 44
-47 49 -108 4 -35 13 -77 20 -91 37 -70 46 -83 72 -103 l27 -22 466 7 c419 6
468 8 485 23 25 23 17 61 -26 127 -19 28 -41 68 -50 88 -10 20 -21 38 -25 40
-4 2 -28 30 -53 63 -40 53 -70 102 -128 211 -10 17 -28 42 -40 55 -13 13 -34
42 -48 64 -14 22 -36 51 -49 65 -12 14 -31 45 -42 70 -11 25 -47 75 -81 112
-34 37 -71 87 -82 112 -11 25 -24 48 -29 51 -6 4 -21 28 -35 54 -13 27 -35 61
-48 77 -14 16 -32 56 -41 89 -16 57 -18 82 -24 251 -2 63 -5 75 -29 98 -30 31
-84 56 -117 56 -31 0 -63 37 -74 85 -5 22 -22 61 -37 85 -20 32 -30 63 -34
110 -5 48 -15 80 -39 122 -20 34 -35 78 -39 108 -5 40 -15 62 -44 98 l-39 47
0 200 c0 221 2 212 -70 290 -71 77 -85 111 -82 198 4 129 4 158 -5 267 -6 65
-16 117 -27 138 -14 28 -15 41 -6 90 9 52 8 59 -11 86 -20 26 -21 33 -10 82
11 46 10 57 -6 86 -14 26 -18 67 -23 203 -5 156 -7 173 -28 202 -20 28 -23 46
-26 155 -2 68 -8 134 -15 146 -9 17 -7 33 8 80 17 50 19 68 10 126 -5 38 -13
73 -17 80 -4 6 -10 110 -13 231 -3 121 -12 259 -19 307 -12 78 -12 95 5 166
15 66 17 109 13 266 -5 179 -6 188 -29 212 -13 14 -37 34 -54 44 -43 27 -81
104 -67 136 6 13 12 67 13 121 1 54 2 115 2 135 1 26 -6 45 -23 63 -27 29 -34
30 -76 9z m175 -4399 c37 -18 51 -60 51 -146 0 -37 5 -90 12 -118 11 -48 10
-52 -16 -85 -43 -57 -74 -68 -182 -64 -110 4 -129 15 -126 75 2 43 27 160 50
243 9 30 16 60 16 65 1 19 71 45 119 45 26 0 61 -7 76 -15z"/>
</g>
</svg>
