<!DOCTYPE svg PUBLIC "-//W3C//DTD SVG 20010904//EN" "http://www.w3.org/TR/2001/REC-SVG-20010904/DTD/svg10.dtd">
<svg xmlns="http://www.w3.org/2000/svg" version="1.0" width="3840.000000pt" height="2525.000000pt" viewBox="0 0 3840.000000 2525.000000" preserveAspectRatio="xMidYMid meet">
<metadata>
Created by potrace 1.15, written by Peter Selinger 2001-2017
</metadata>
<g transform="translate(0.000000,2525.000000) scale(0.100000,-0.100000)" fill="#000000" stroke="none">
<polygon points="19485.0,17712.0 19354.0,17669.62 19247.92,17626.29 19147.01,17531.77 19042.46,17428.72 18923.89,17312.47 18813.68,17199.38 18734.81,17107.34 18627.41,17038.44 18500.46,16948.94 18417.25,16890.58 18279.06,16768.17 18195.42,16741.72 18058.05,16622.18 17979.18,16581.11 17861.39,16485.02 17691.97,16325.43 17619.19,16236.26 17608.53,16186.26 17569.3,16127.93 17424.9,15976.78 17287.23,15833.69 17226.78,15731.48 17153.1,15617.05 17099.89,15494.92 17043.45,15374.82 16973.61,15253.43 16952.48,15114.75 16894.04,14989.95 16891.07,14850.41 16888.1,14710.86 16885.13,14571.31 16828.67,14454.08 16835.13,14319.68 16840.43,14184.64 16837.99,14052.9 16843.41,13907.83 16889.22,13796.47 16895.47,13631.2 16807.1,13566.81 16716.84,13675.2 16606.49,13726.88 16464.65,13844.7 16375.69,13879.26 16252.5,13949.44 16122.33,13929.5 15970.52,13827.83 15886.43,13787.86 15758.56,13719.88 15689.65,13625.72 15600.34,13510.26 15492.66,13428.89 15410.1,13317.52 15337.97,13208.79 15302.3,13043.27 15282.62,12891.2 15236.31,12804.08 15233.43,12667.9 15143.3,12590.76 15000.48,12527.84 15033.59,12418.99 15106.42,12315.67 15208.12,12272.4 15236.11,12167.12 15239.04,11909.08 15230.93,11743.97 15200.34,11679.4 15081.21,11640.03 14948.71,11671.98 14810.9,11651.13 14697.79,11641.64 14556.85,11606.51 14441.92,11564.38 14272.32,11546.67 14150.92,11517.75 14036.77,11477.6 13872.98,11469.45 13745.74,11437.4 13626.39,11403.88 13470.3,11388.04 13396.17,11369.44 13376.15,11213.2 13371.35,10992.61 13378.65,10894.32 13387.32,10822.84 13390.34,10683.75 13387.89,10478.77 13388.27,10333.66 13387.24,10197.09 13385.63,10062.08 13389.71,9911.84 13378.07,9792.72 13378.62,9725.66 13378.9,9593.99 13378.99,9416.75 13378.89,9214.26 13378.37,9021.14 13378.11,8854.96 13378.01,8733.17 13378.0,8672.24 13378.69,8589.94 13380.34,8446.49 13382.62,8267.99 13385.2,8080.51 13387.75,7910.12 13389.92,7782.92 13389.52,7684.65 13376.43,7559.72 13381.98,7491.28 13386.65,7351.25 13389.65,7174.48 13390.15,6995.86 13385.81,6744.22 13370.04,6631.3 13331.13,6598.67 13238.91,6592.6 13025.63,6594.88 12840.54,6604.09 12792.15,6651.15 12788.9,6738.53 12785.52,6919.77 12781.8,7152.46 12780.62,7304.42 12782.17,7401.91 12787.8,7495.6 12831.65,7608.51 12904.34,7751.25 12839.72,7861.87 12772.42,7948.59 12782.47,8130.81 12760.97,8240.22 12725.07,8375.94 12759.49,8506.33 12736.24,8597.71 12727.03,8677.76 12722.81,8877.41 12721.06,9058.47 12719.83,9198.04 12751.67,9324.25 12852.88,9454.03 12794.24,9536.79 12727.11,9601.21 12709.98,9783.54 12708.54,9948.19 12713.02,10047.65 12705.86,10205.77 12697.01,10343.69 12702.08,10471.08 12712.15,10631.19 12708.16,10755.97 12684.0,10893.55 12693.95,11033.98 12731.87,11163.48 12789.95,11282.28 12727.86,11422.95 12676.8,11528.28 12640.62,11665.12 12665.07,11832.61 12742.98,11891.09 12765.95,11992.74 12672.17,12081.29 12628.85,12235.76 12569.07,12344.79 12443.78,12402.44 12300.83,12436.62 12185.52,12394.82 12085.43,12284.11 12020.49,12175.34 11974.13,12030.29 11903.92,11940.45 12006.51,11840.91 12032.19,11708.03 12036.52,11575.29 11962.99,11464.26 11870.08,11350.8 11940.45,11227.33 11991.29,11146.82 12012.54,11062.25 12014.57,10902.08 12008.04,10620.34 11998.7,10479.56 11976.76,10437.81 11964.97,10417.67 11957.99,10365.2 11953.63,10236.2 11949.72,9986.48 11944.0,9685.13 11919.1,9598.52 11829.17,9480.39 11834.98,9387.9 11924.64,9235.91 11945.38,9076.83 11941.93,9026.77 11938.95,8909.74 11935.98,8729.06 11933.59,8534.14 11932.13,8394.57 11930.67,8254.99 11929.21,8115.42 11873.77,7990.69 11864.73,7872.99 11775.82,7740.08 11838.38,7637.39 11908.72,7516.62 11925.41,7375.75 11885.5,7261.89 11885.14,7098.51 11869.21,6963.37 11872.72,6838.39 11868.04,6671.14 11826.25,6579.5 11696.01,6537.21 11536.13,6520.4 11418.06,6561.32 11287.49,6527.7 11164.62,6576.72 11031.84,6532.24 10906.67,6587.43 10766.18,6577.92 10624.1,6556.82 10498.26,6574.91 10387.12,6531.51 10204.68,6519.88 10092.72,6545.37 9964.9,6550.37 9830.81,6549.73 9714.52,6525.48 9539.39,6523.26 9429.4,6548.55 9306.64,6564.88 9123.08,6558.3 9015.28,6533.34 8906.19,6583.87 8748.05,6578.39 8590.86,6583.4 8489.27,6637.47 8476.05,6729.99 8473.34,6846.73 8471.92,7014.51 8471.95,7216.88 8470.34,7416.65 8466.64,7549.04 8461.02,7613.88 8463.12,7754.33 8454.79,7876.41 8452.0,8031.77 8452.38,8183.74 8451.58,8306.14 8453.7,8452.98 8409.33,8572.52 8405.01,8706.63 8443.38,8852.52 8471.92,9000.16 8538.06,9104.17 8634.02,9234.53 8623.51,9348.53 8526.0,9466.26 8416.86,9513.41 8397.82,9663.15 8393.84,9776.96 8393.0,9941.84 8392.62,10103.73 8390.36,10221.52 8384.76,10349.51 8381.38,10456.86 8379.23,10606.27 8378.34,10775.54 8378.74,10942.43 8380.47,11084.74 8383.42,11181.28 8383.22,11312.41 8378.69,11475.33 8377.28,11628.87 8385.34,11762.64 8459.75,11875.04 8519.1,11992.25 8471.0,12076.45 8349.46,12210.37 8305.82,12328.08 8302.51,12412.81 8300.13,12559.92 8299.03,12741.36 8299.02,13027.64 8300.25,13180.48 8304.8,13237.46 8315.51,13298.29 8316.1,13463.73 8270.55,13575.89 8239.42,13705.55 8238.5,13845.13 8237.79,13984.7 8237.33,14124.28 8254.93,14259.48 8286.7,14392.36 8244.85,14498.65 8241.11,14684.83 8272.29,14794.88 8368.16,14864.1 8398.06,14983.61 8400.0,15155.91 8324.1,15264.02 8226.49,15346.52 8209.46,15488.3 8222.85,15616.58 8229.28,15791.04 8283.12,15888.33 8404.03,15963.9 8466.14,16045.74 8346.79,16152.29 8254.34,16229.87 8208.51,16379.07 8147.69,16491.1 8072.42,16629.4 7974.73,16722.67 7855.55,16780.19 7741.27,16858.3 7618.9,16897.4 7507.65,16839.56 7393.47,16733.83 7290.09,16636.73 7221.54,16529.1 7192.59,16393.94 7096.31,16277.31 6978.74,16201.28 6946.71,16128.33 7064.63,16030.81 7177.67,15960.22 7208.61,15881.82 7219.14,15643.26 7210.06,15507.17 7164.56,15424.52 7052.76,15340.88 6975.59,15267.71 6970.43,15102.25 7036.73,14987.16 7112.47,14874.21 7150.57,14754.47 7157.55,14617.25 7166.15,14453.81 7151.75,14363.7 7146.32,14299.7 7142.2,14154.12 7139.03,13923.14 7139.67,13780.37 7139.75,13684.3 7137.0,13530.41 7132.7,13363.37 7128.23,13223.86 7101.26,13092.48 7065.96,12960.74 7078.41,12823.5 7087.03,12702.91 7073.54,12561.25 7059.77,12381.05 7010.14,12286.94 6901.05,12248.6 6890.0,12093.86 6890.0,11949.79 6979.42,11843.52 7055.31,11744.8 7065.27,11615.5 7061.13,11523.1 7057.09,11365.37 7053.8,11178.52 7051.57,11038.96 7049.33,10899.4 7015.53,10770.16 7007.41,10646.02 6997.46,10530.98 6994.68,10358.99 6996.97,10176.87 7003.83,10082.3 6987.57,9952.84 6983.7,9808.63 6979.55,9624.81 6951.83,9512.11 6849.41,9468.63 6746.04,9351.08 6777.99,9238.58 6857.14,9125.02 6956.11,9054.08 6965.99,9028.02 6971.14,8959.4 6972.81,8807.77 6972.3,8532.7 6971.2,8281.91 6969.47,8092.76 6967.16,7947.28 6964.51,7861.24 6935.89,7796.52 6923.87,7763.51 6917.87,7666.91 6914.9,7444.79 6912.57,7134.85 6908.83,6914.6 6902.5,6768.8 6892.73,6681.4 6878.68,6636.38 6804.24,6590.05 6667.52,6559.61 6614.96,6428.43 6593.2,6314.5 6599.05,6131.91 6599.91,5974.16 6596.11,5855.45 6606.91,5745.62 6657.52,5632.64 6645.78,5468.81 6599.11,5343.66 6527.4,5219.52 6544.22,5110.79 6648.62,4985.7 6759.92,4951.89 6856.92,4945.2 6993.19,4943.07 7175.21,4944.26 7345.64,4948.36 7450.73,4954.46 7601.11,4942.19 7708.39,4936.51 7828.47,4942.05 8014.67,4945.41 8154.24,4946.98 8288.07,4970.97 8417.75,5010.53 8557.32,5009.32 8696.9,5008.11 8836.47,5006.9 8976.05,5005.69 9105.84,4971.77 9231.47,4939.42 9422.09,4937.55 9572.83,4940.63 9673.53,4948.55 9792.69,4949.73 9907.26,4931.72 10102.31,4941.58 10259.73,4948.27 10370.46,4949.7 10469.38,4947.02 10643.24,4947.0 10812.52,4947.0 10907.47,4946.9 11026.98,4950.33 11172.78,4946.49 11328.06,4938.51 11464.34,4944.4 11609.88,4964.32 11727.63,4961.8 11886.11,4968.25 11989.89,5006.61 12150.74,5010.0 12266.8,4949.21 12401.59,4937.97 12548.33,4952.57 12671.03,4969.26 12798.71,4934.01 12934.14,4987.69 13003.52,5008.4 13210.44,5012.16 13350.01,5013.4 13476.21,4971.39 13615.01,4968.79 13723.26,5003.23 13873.56,5018.46 14036.14,5010.45 14162.71,4962.58 14285.11,5005.99 14410.89,4967.62 14542.5,4945.0 14688.92,4945.77 14839.77,4952.23 14977.38,4966.33 15104.16,4936.55 15232.29,4941.19 15385.5,4937.16 15513.17,4939.93 15608.64,4941.78 15752.46,4942.81 15916.64,4943.0 16072.11,4942.27 16320.77,4939.44 16524.98,4938.21 16663.39,4939.45 16752.33,4943.39 16808.13,4950.31 16898.83,4966.13 17059.92,4958.52 17176.28,4967.82 17331.61,4969.47 17422.16,5010.98 17592.1,5019.08 17707.16,4958.65 17837.55,4935.83 17977.12,4936.95 18139.32,4937.57 18256.4,4937.75 18376.29,4937.5 18541.28,4936.77 18690.92,4936.36 18820.88,4937.27 18916.0,4938.97 19059.44,4941.27 19233.28,4944.29 19372.84,4946.29 19507.74,4960.99 19629.1,5014.59 19806.95,5018.67 19924.99,5001.04 20024.52,4950.57 20081.99,4942.59 20124.88,4941.96 20196.22,4941.26 20293.74,4940.52 20415.14,4939.74 20558.14,4938.95 20720.44,4938.16 20899.77,4937.38 21093.83,4936.64 21300.33,4935.95 21517.0,4935.33 21754.31,4934.64 21996.45,4933.91 22216.6,4933.4 22415.78,4933.11 22594.98,4933.04 22755.22,4933.2 22897.49,4933.59 23022.8,4934.22 23132.16,4935.08 23226.57,4936.18 23307.02,4937.52 23374.54,4939.1 23430.12,4940.93 23538.3,4945.7 23698.8,4950.52 23798.52,4949.84 23938.85,4947.22 24135.81,4949.9 24273.89,4947.4 24353.61,4937.0 24470.97,4935.58 24607.25,4939.02 24759.13,4940.07 24858.08,4940.35 24989.42,4940.62 25144.9,4940.88 25316.25,4941.12 25495.22,4941.34 25673.55,4941.54 25843.0,4941.71 25995.31,4941.85 26122.21,4941.94 26215.46,4941.99 26294.15,4942.01 26438.36,4942.3 26599.36,4942.93 26756.11,4941.62 26862.42,4937.83 27018.48,4935.53 27141.25,4938.04 27202.39,4938.74 27327.87,4939.25 27500.36,4939.41 27702.53,4939.04 27836.37,4938.95 27978.16,4938.82 28127.7,4938.64 28279.4,4938.43 28427.7,4938.24 28567.03,4938.08 28691.79,4938.0 28866.1,4938.0 29045.64,4938.0 29183.36,4938.0 29259.7,4938.0 29382.76,4938.0 29447.63,4937.4 29527.9,4937.04 29632.25,4936.97 29761.59,4937.18 29916.81,4937.67 30098.81,4938.4 30308.49,4939.37 30506.23,4940.43 30667.51,4941.25 30828.35,4941.87 30980.9,4942.26 31117.28,4942.39 31229.65,4942.25 31342.81,4941.68 31503.72,4941.16 31641.56,4941.01 31754.77,4940.98 31901.86,4939.94 32032.76,4938.26 32159.65,4939.13 32257.99,4939.36 32407.48,4938.73 32582.83,4937.39 32844.49,4935.68 32975.15,4939.13 33011.43,4951.44 33028.64,5012.59 33032.02,5230.81 33032.61,5398.22 33033.01,5490.54 33033.4,5590.01 33033.91,5756.55 33033.65,5935.29 33033.62,6098.6 33033.92,6229.61 33034.52,6339.72 32979.96,6463.38 32910.21,6557.66 32755.18,6603.53 32720.37,6658.57 32712.78,6777.99 32710.26,7027.99 32705.87,7197.79 32699.09,7283.66 32692.81,7395.73 32693.97,7584.6 32700.79,7735.44 32703.74,7814.91 32663.8,7967.97 32649.4,8015.21 32642.04,8102.84 32638.12,8291.49 32634.86,8602.8 32634.64,8834.93 32639.54,8975.78 32651.62,9054.76 32672.91,9101.25 32750.52,9188.1 32822.22,9317.31 32864.46,9447.75 32815.44,9538.07 32647.39,9565.12 32605.31,9668.0 32609.95,9772.8 32609.57,9924.76 32603.7,10098.56 32578.9,10218.51 32563.83,10292.44 32555.93,10465.09 32552.0,10655.32 32550.0,10810.92 32549.05,10935.53 32547.06,11074.9 32537.55,11190.72 32530.64,11313.18 32528.73,11485.49 32531.53,11656.61 32538.75,11775.47 32553.9,11897.32 32616.99,11992.35 32707.84,12097.16 32696.64,12271.03 32633.32,12396.18 32532.1,12437.76 32485.24,12504.23 32470.31,12628.11 32463.87,12855.31 32453.57,13000.02 32427.17,13120.37 32420.09,13249.32 32404.0,13333.68 32395.81,13531.56 32389.94,13720.07 32384.75,13866.87 32380.39,13971.66 32380.7,14081.63 32384.94,14230.42 32362.88,14356.93 32367.92,14483.72 32372.69,14632.21 32376.91,14810.86 32387.88,14929.79 32408.84,15054.04 32518.81,15143.73 32549.33,15271.92 32480.01,15394.35 32400.1,15514.85 32311.81,15581.12 32292.76,15714.01 32310.57,15875.19 32321.48,15988.6 32399.85,16086.84 32544.46,16233.89 32596.77,16324.88 32482.11,16401.72 32361.01,16448.3 32310.83,16578.84 32250.81,16709.01 32202.4,16829.88 32103.14,16926.88 31986.36,16992.34 31874.02,17062.45 31725.15,17077.98 31604.56,17031.75 31519.47,16920.2 31425.99,16838.26 31313.53,16743.15 31289.31,16604.74 31223.88,16485.15 31180.46,16368.63 31061.66,16312.41 30991.37,16182.59 31023.43,16094.83 31179.51,16038.27 31233.38,15920.77 31261.73,15795.01 31289.87,15653.37 31237.32,15537.94 31188.9,15417.71 31080.7,15377.67 31057.26,15223.85 31055.1,15074.95 31152.73,15015.62 31207.9,14932.98 31237.28,14764.13 31240.99,14586.14 31234.28,14468.98 31228.66,14339.86 31223.38,14164.07 31220.0,13999.55 31220.02,13904.51 31220.97,13882.52 31221.46,13847.41 31221.21,13764.02 31219.98,13597.19 31217.5,13311.78 31214.54,12998.56 31211.61,12786.87 31208.2,12628.68 31204.31,12521.13 31199.93,12461.36 31162.78,12385.15 31045.13,12296.04 30981.39,12210.28 30969.28,12046.12 31068.95,11928.08 31133.99,11838.05 31155.46,11659.46 31166.09,11524.18 31161.83,11477.47 31156.85,11367.7 31153.03,11202.73 31151.1,11015.39 31151.0,10848.5 31150.34,10714.98 31149.13,10541.52 31149.03,10395.51 31150.17,10326.32 31148.93,10220.42 31145.21,10041.85 31141.61,9886.33 31138.4,9746.79 31084.03,9627.69 30990.18,9524.37 30923.27,9412.56 30905.5,9286.24 30972.93,9159.65 31073.23,9073.81 31103.84,8936.9 31129.08,8803.77 31129.21,8664.19 31129.34,8524.61 31129.47,8385.03 31129.6,8245.45 31129.73,8105.86 31129.86,7966.28 31129.99,7826.7 31130.0,7687.12 31130.0,7547.54 31130.0,7407.96 31130.0,7268.38 31130.0,7128.8 31130.0,6989.22 31130.0,6849.64 31117.91,6714.43 31036.15,6598.98 30962.2,6521.6 30791.14,6511.51 30655.11,6508.91 30545.88,6508.5 30390.39,6509.27 30253.32,6509.32 30101.42,6508.65 29987.63,6507.89 29911.2,6507.59 29806.01,6507.38 29676.7,6507.27 29527.86,6507.26 29364.13,6507.33 29190.12,6507.51 29010.44,6507.78 28823.78,6508.28 28630.93,6508.83 28448.03,6509.1 28280.64,6509.15 28134.3,6509.01 28014.58,6508.73 27927.02,6508.37 27855.46,6507.5 27687.89,6517.76 27622.84,6574.6 27596.93,6715.15 27586.89,6866.26 27579.9,7021.66 27581.37,7204.35 27587.58,7405.87 27599.26,7518.35 27622.07,7589.78 27666.84,7690.98 27625.75,7811.91 27581.57,7937.85 27559.99,8076.05 27534.34,8218.24 27568.74,8349.81 27533.61,8447.69 27517.67,8609.95 27513.4,8729.2 27509.73,8881.87 27507.5,9060.3 27511.91,9254.52 27542.67,9326.74 27597.36,9415.22 27539.29,9543.05 27456.04,9667.52 27466.84,9787.38 27449.18,9878.6 27441.48,9986.88 27436.07,10184.34 27432.59,10383.4 27429.6,10544.5 27427.41,10655.01 27427.85,10777.58 27425.0,10908.77 27432.74,11048.14 27425.8,11182.23 27507.73,11283.87 27510.76,11425.89 27434.39,11512.91 27363.91,11637.04 27361.33,11808.73 27418.89,11889.0 27505.2,11976.13 27421.98,12086.72 27350.0,12195.67 27316.31,12321.46 27182.72,12384.9 27061.28,12436.98 26928.22,12420.27 26814.61,12315.13 26743.64,12223.34 26723.1,12076.04 26614.69,11951.17 26648.36,11873.52 26753.92,11767.05 26754.4,11632.64 26715.9,11508.1 26606.52,11386.91 26583.37,11300.22 26709.3,11173.48 26739.68,11054.76 26740.55,11012.69 26740.57,10921.87 26740.07,10789.7 26739.1,10627.81 26737.71,10447.81 26735.97,10261.33 26733.87,10073.47 26730.09,9814.14 26723.25,9703.91 26708.56,9662.91 26616.34,9548.21 26588.71,9424.74 26638.95,9306.97 26715.56,9216.11 26729.4,9082.86 26721.81,8879.65 26687.38,8780.6 26684.47,8650.45 26682.42,8548.04 26679.6,8406.66 26677.72,8198.29 26671.62,7985.73 26652.55,7894.62 26593.33,7846.85 26570.0,7708.1 26652.5,7605.29 26682.78,7490.57 26690.82,7366.47 26687.99,7204.89 26682.21,7082.17 26678.24,6932.81 26674.26,6727.9 26659.27,6560.59 26599.16,6525.96 26469.48,6542.42 26371.69,6639.59 26247.91,6660.42 26101.75,6657.43 26086.34,6706.84 26081.77,6819.08 26080.07,7027.52 26080.0,7205.55 26080.0,7345.13 26080.0,7484.71 26126.81,7620.16 26082.46,7741.36 26080.0,7880.18 26080.0,8019.76 26080.0,8159.34 26080.0,8298.92 26080.0,8438.5 26080.0,8578.08 26120.8,8707.32 26074.99,8828.56 26074.71,8968.14 26074.42,9107.72 26074.14,9247.3 26073.42,9431.92 26071.4,9624.09 26068.27,9761.42 26064.16,9833.45 26056.37,9908.71 26059.19,10064.1 26072.26,10225.76 26075.69,10392.63 26064.39,10528.71 26044.83,10615.4 26059.32,10771.09 26073.91,10889.41 26074.23,11057.72 26065.35,11210.26 26049.15,11333.58 25951.35,11403.4 25849.57,11444.54 25700.45,11468.64 25542.77,11502.79 25446.47,11538.48 25245.05,11556.18 25127.19,11577.85 25002.6,11606.31 24858.14,11623.02 24710.19,11633.42 24584.61,11637.83 24457.86,11674.99 24294.12,11685.07 24181.8,11708.73 24164.4,11782.73 24160.28,11942.65 24160.0,12129.55 24160.0,12269.13 24228.32,12367.84 24346.45,12431.47 24405.0,12547.08 24352.67,12665.25 24232.13,12734.89 24183.93,12858.25 24153.52,12986.98 24143.98,13122.36 24080.05,13245.43 24060.61,13294.52 23952.51,13409.95 23761.9,13597.53 23656.94,13692.25 23586.98,13715.64 23477.13,13804.73 23365.39,13879.95 23238.25,13920.43 23106.84,13921.8 22971.45,13874.32 22845.99,13795.05 22798.32,13679.23 22680.52,13622.25 22584.53,13511.73 22484.02,13413.53 22402.67,13461.31 22453.78,13595.7 22466.55,13716.63 22474.22,13861.23 22484.3,14046.37 22512.32,14151.5 22528.19,14282.81 22536.26,14425.14 22544.04,14547.04 22549.67,14699.07 22489.33,14804.98 22480.0,14958.24 22440.23,15084.69 22399.97,15217.49 22345.87,15339.27 22309.67,15480.96 22226.23,15609.27 22161.2,15713.39 22097.56,15828.0 22065.21,15898.57 22022.73,15962.85 21915.9,16079.73 21730.7,16267.33 21585.15,16407.56 21494.25,16481.8 21435.58,16508.39 21320.4,16599.74 21218.09,16697.19 21113.6,16757.78 21039.11,16807.05 20877.3,16961.0 20761.63,17067.4 20679.37,17121.94 20568.9,17209.05 20465.73,17293.3 20341.11,17397.24 20269.38,17420.7 20124.76,17555.37 20016.85,17644.93 19920.77,17692.96 19782.13,17705.24 19595.16,17710.15 19485.0,17712.0"/><path d="M13794 13018 c5 -34 36 -36 36 -4 0 19 -5 26 -20 26 -15 0 -19 -6 -16 -22z"/>
</g>
</svg>
