<!DOCTYPE svg PUBLIC "-//W3C//DTD SVG 20010904//EN" "http://www.w3.org/TR/2001/REC-SVG-20010904/DTD/svg10.dtd">
<svg xmlns="http://www.w3.org/2000/svg" version="1.0" width="3840.000000pt" height="2525.000000pt" viewBox="0 0 3840.000000 2525.000000" preserveAspectRatio="xMidYMid meet">
<metadata>
Created by potrace 1.15, written by Peter Selinger 2001-2017
</metadata>
<g transform="translate(0.000000,2525.000000) scale(0.100000,-0.100000)" fill="#000000" stroke="none">
<polygon points="19385.0,17687.0 19311.1,17655.08 19238.54,17610.3 19151.66,17539.8 19034.77,17430.72 18872.2,17270.2 18747.46,17149.37 18658.05,17069.86 18566.55,17006.06 18453.74,16923.04 18356.4,16847.04 18240.68,16764.16 18092.67,16664.29 17958.63,16568.0 17848.91,16480.97 17759.29,16399.5 17685.51,16319.87 17623.33,16238.37 17557.31,16144.21 17465.63,16033.47 17353.99,15912.62 17274.4,15815.94 17211.72,15719.47 17138.4,15590.62 17074.12,15466.04 17019.3,15346.48 16974.39,15232.67 16930.61,15097.63 16897.81,14964.11 16882.36,14843.22 16878.44,14718.53 16861.82,14582.3 16844.07,14464.28 16833.6,14317.08 16830.44,14161.36 16835.22,14021.74 16851.58,13905.25 16863.82,13750.15 16821.47,13662.18 16712.9,13676.12 16589.9,13752.15 16420.26,13859.98 16297.06,13920.76 16204.09,13936.02 16109.83,13914.94 15981.97,13852.59 15842.87,13766.03 15725.41,13676.41 15663.07,13606.54 15577.21,13512.01 15457.93,13382.4 15372.11,13265.24 15319.78,13160.31 15295.88,13046.79 15263.72,12891.15 15225.77,12754.36 15188.75,12667.75 15086.86,12564.47 15042.14,12457.82 15102.49,12343.04 15193.84,12232.77 15221.73,12155.82 15224.99,11956.13 15218.79,11795.91 15183.4,11723.94 15109.87,11680.54 14912.25,11668.35 14767.03,11660.59 14662.24,11641.47 14518.18,11602.52 14376.29,11568.03 14263.37,11546.17 14127.98,11516.97 13994.7,11489.48 13888.37,11473.04 13781.86,11452.74 13622.8,11416.6 13465.2,11368.23 13393.1,11285.93 13364.22,11152.81 13363.58,11027.7 13369.18,10945.83 13370.86,10908.95 13372.37,10858.67 13373.71,10794.33 13374.9,10715.24 13375.94,10620.72 13376.82,10510.11 13377.56,10382.73 13378.15,10237.9 13378.61,10074.96 13378.93,9893.21 13379.12,9691.99 13379.18,9470.62 13379.13,9228.43 13379.0,8979.51 13379.06,8775.57 13379.21,8576.93 13379.43,8384.98 13379.71,8201.1 13380.06,8026.68 13380.46,7863.1 13380.92,7711.77 13381.42,7574.05 13381.95,7451.35 13382.52,7345.05 13383.11,7256.53 13383.72,7187.19 13384.35,7138.4 13384.98,7111.57 13386.72,6982.53 13379.77,6840.12 13355.35,6705.55 13290.84,6630.43 13169.77,6606.06 12961.08,6607.54 12874.96,6633.38 12812.43,6697.21 12791.51,6847.09 12785.63,7003.19 12782.19,7147.42 12780.94,7283.19 12787.19,7439.4 12809.73,7554.87 12852.4,7667.88 12857.85,7790.0 12803.95,7930.3 12776.81,8050.72 12761.38,8199.04 12751.91,8256.76 12744.34,8350.78 12737.15,8483.6 12730.8,8646.69 12725.74,8831.5 12722.71,8993.48 12720.36,9127.72 12738.77,9258.44 12789.84,9408.5 12787.45,9516.29 12733.19,9646.2 12710.35,9742.24 12707.86,9797.26 12705.29,9891.01 12702.76,10015.74 12700.4,10163.76 12698.32,10327.32 12696.63,10498.7 12695.47,10670.19 12694.95,10834.05 12696.15,11001.64 12715.01,11113.29 12752.31,11237.45 12748.66,11370.16 12692.48,11504.24 12654.68,11634.87 12659.37,11756.97 12703.66,11892.38 12712.2,12002.25 12654.73,12147.42 12604.36,12267.0 12517.72,12360.06 12385.25,12416.87 12266.88,12420.72 12171.67,12373.04 12085.18,12282.47 12008.66,12150.48 11955.26,12008.19 11967.35,11887.03 12015.39,11731.44 12014.5,11615.25 11966.71,11489.47 11911.44,11350.46 11936.95,11236.91 11988.53,11098.4 12004.32,10999.6 12005.83,10874.52 12000.41,10722.87 11989.23,10569.65 11973.45,10440.27 11959.71,10335.78 11950.67,10217.91 11944.11,10059.47 11939.7,9902.38 11936.18,9768.16 11913.76,9638.11 11856.54,9501.26 11848.45,9401.53 11897.75,9258.17 11928.04,9125.59 11931.65,9045.91 11932.15,8915.57 11930.59,8749.95 11927.36,8570.05 11922.82,8396.89 11917.37,8251.5 11911.39,8154.88 11893.66,8057.2 11855.17,7914.22 11820.1,7799.63 11824.78,7673.42 11878.22,7547.17 11898.43,7434.74 11890.4,7278.25 11881.49,7159.7 11872.56,7010.3 11863.79,6845.18 11851.76,6719.97 11802.19,6620.6 11697.44,6556.69 11568.15,6546.51 11410.71,6549.92 11250.0,6556.04 11092.52,6563.88 10964.06,6572.19 10888.18,6579.94 10786.78,6582.71 10640.16,6576.17 10483.29,6562.18 10339.71,6544.78 10206.44,6540.02 10083.32,6550.01 9965.2,6553.07 9785.65,6544.68 9620.76,6538.67 9508.32,6542.22 9408.01,6556.19 9291.51,6568.07 9133.91,6565.03 8986.4,6565.91 8885.32,6577.46 8722.19,6588.23 8587.24,6610.74 8522.88,6652.09 8494.97,6693.7 8480.21,6783.67 8472.89,6965.47 8467.63,7254.07 8462.81,7503.98 8458.28,7721.97 8453.97,7909.83 8449.82,8069.41 8445.78,8202.5 8441.78,8310.95 8437.76,8396.55 8433.68,8461.14 8429.46,8506.53 8420.6,8559.53 8412.56,8686.07 8434.43,8830.05 8471.59,8970.77 8521.37,9077.13 8592.56,9216.1 8606.26,9314.36 8540.3,9431.19 8461.52,9513.15 8422.3,9571.15 8402.33,9663.86 8392.58,9834.8 8386.31,10051.59 8384.08,10155.31 8382.03,10277.69 8380.24,10413.98 8378.76,10559.44 8377.67,10709.29 8377.02,10858.8 8376.89,11003.2 8377.05,11245.22 8378.03,11478.29 8381.45,11629.07 8388.86,11721.18 8401.79,11778.21 8421.78,11823.76 8465.54,11929.68 8464.21,12051.37 8397.1,12163.76 8352.94,12228.16 8324.41,12291.88 8308.19,12377.93 8300.96,12509.28 8299.4,12708.95 8300.1,12960.56 8300.58,13094.83 8301.07,13229.09 8301.56,13363.36 8298.18,13497.03 8264.11,13610.92 8244.99,13729.73 8234.9,13870.6 8234.21,14019.94 8243.31,14164.18 8263.3,14299.09 8261.71,14424.94 8242.46,14595.46 8254.26,14709.31 8304.43,14815.48 8372.28,14949.95 8389.45,15069.51 8360.53,15190.78 8283.38,15304.73 8220.62,15428.38 8213.81,15545.2 8227.61,15705.02 8254.25,15819.1 8345.99,15940.19 8399.78,16047.46 8344.1,16153.96 8274.41,16246.85 8195.59,16391.66 8110.21,16549.83 8043.41,16647.94 7975.78,16712.12 7853.68,16792.75 7734.22,16857.93 7632.51,16879.62 7523.03,16844.59 7394.1,16744.19 7286.74,16631.17 7225.1,16529.09 7170.82,16402.16 7092.41,16293.39 7013.63,16174.56 7031.48,16082.84 7141.09,15956.51 7192.39,15860.08 7203.91,15712.25 7197.12,15557.11 7153.9,15458.81 7049.59,15338.83 6987.11,15228.85 6985.02,15108.32 7035.54,14986.65 7110.57,14850.76 7140.08,14746.29 7151.75,14612.93 7153.88,14467.22 7147.59,14357.55 7141.98,14238.1 7137.64,14085.35 7135.19,13902.98 7131.69,13681.16 7127.52,13505.14 7122.3,13367.71 7115.6,13261.69 7107.03,13179.9 7096.17,13115.15 7078.19,13017.46 7071.6,12895.81 7071.45,12692.18 7062.02,12522.73 7038.17,12405.03 6996.2,12321.3 6925.94,12226.84 6895.11,12106.94 6907.09,11970.72 6971.46,11849.95 7019.42,11769.53 7044.58,11691.37 7052.88,11573.75 7050.24,11374.92 7043.63,11137.91 7036.99,10983.97 7028.33,10881.84 7016.08,10804.53 7006.52,10736.75 6999.97,10645.69 6995.03,10505.71 6990.28,10291.16 6985.23,10023.7 6979.54,9831.85 6971.87,9706.84 6960.96,9629.9 6945.54,9582.27 6870.25,9486.49 6785.43,9378.62 6774.82,9280.62 6842.68,9156.63 6914.95,9062.77 6942.35,9011.44 6956.97,8932.07 6962.5,8791.41 6962.58,8556.22 6960.77,8272.93 6958.31,8086.82 6954.07,7969.43 6946.82,7889.91 6935.31,7817.38 6920.52,7724.25 6912.87,7625.73 6910.24,7473.78 6909.48,7252.25 6906.45,7065.22 6900.88,6916.05 6892.76,6805.9 6882.1,6735.93 6830.85,6647.98 6718.06,6562.18 6650.61,6494.08 6611.4,6401.9 6594.21,6263.98 6592.84,6058.71 6597.7,5868.56 6608.62,5763.22 6631.89,5651.75 6635.24,5524.4 6603.42,5391.9 6546.56,5217.58 6555.18,5133.53 6633.88,5023.45 6719.68,4972.25 6750.59,4964.79 6805.04,4959.86 6904.12,4956.94 7068.89,4955.5 7320.45,4955.04 7555.4,4955.0 7689.66,4955.0 7823.93,4955.0 7958.2,4955.0 8092.46,4955.0 8226.23,4958.37 8330.62,4989.11 8417.78,5001.38 8591.25,5006.2 8757.77,5008.45 8892.02,5010.37 9024.01,4990.88 9154.75,4960.3 9287.34,4946.13 9421.6,4946.38 9555.87,4946.62 9690.13,4946.87 9824.4,4947.11 9958.66,4947.36 10092.93,4947.6 10227.19,4947.85 10412.89,4948.21 10659.83,4948.92 10877.46,4949.92 11068.02,4951.26 11233.75,4953.0 11376.89,4955.2 11499.67,4957.9 11604.34,4961.18 11693.13,4965.08 11768.29,4969.66 11832.06,4974.97 11886.67,4981.08 11985.4,4994.23 12119.71,4997.31 12230.15,4974.9 12306.77,4959.79 12449.7,4956.88 12688.53,4959.82 12825.19,4966.03 12912.97,4981.44 13024.77,5005.63 13163.45,5012.8 13322.29,5008.2 13439.36,4990.86 13571.89,4981.47 13698.83,4999.37 13841.72,5011.94 13993.42,5010.45 14087.73,4996.27 14244.5,4989.83 14381.15,4978.49 14458.35,4962.91 14569.46,4956.21 14768.76,4954.0 14844.82,4953.8 14946.47,4953.27 15069.33,4952.47 15209.04,4951.43 15361.23,4950.21 15521.51,4948.86 15685.53,4947.41 15853.81,4945.89 16082.0,4944.28 16270.59,4943.49 16424.92,4943.54 16550.34,4944.46 16652.19,4946.29 16735.83,4949.05 16806.59,4952.77 16935.03,4960.53 17074.99,4967.41 17187.5,4972.04 17324.19,4987.67 17489.67,5007.2 17604.09,5000.61 17726.45,4965.1 17793.68,4947.9 17853.16,4944.6 17948.6,4942.11 18073.23,4940.42 18220.24,4939.53 18382.86,4939.43 18554.28,4940.11 18727.71,4941.57 18896.37,4943.81 19053.46,4946.81 19239.65,4951.99 19398.45,4959.7 19485.73,4973.55 19590.19,5000.71 19723.47,5015.19 19858.0,5006.63 19987.77,4976.98 20122.36,4950.77 20149.9,4948.49 20191.18,4946.99 20251.95,4945.62 20332.09,4944.37 20431.52,4943.27 20550.11,4942.31 20687.77,4941.5 20844.39,4940.84 21019.86,4940.34 21214.08,4940.01 21426.95,4939.86 21658.35,4939.88 21880.12,4940.02 22056.28,4940.07 22233.57,4940.13 22411.86,4940.19 22590.98,4940.25 22770.8,4940.31 22951.17,4940.37 23131.94,4940.43 23312.95,4940.5 23494.07,4940.56 23675.14,4940.63 23856.02,4940.69 24036.55,4940.76 24216.6,4940.82 24396.0,4940.89 24574.62,4940.96 24752.31,4941.02 24928.91,4941.09 25104.29,4941.16 25278.28,4941.22 25450.75,4941.28 25621.54,4941.35 25790.51,4941.41 25957.51,4941.47 26122.39,4941.53 26285.0,4941.59 26445.2,4941.65 26602.84,4941.7 26757.76,4941.76 26909.82,4941.81 27058.88,4941.86 27204.78,4941.91 27347.38,4941.95 27486.53,4942.0 27622.08,4942.04 27753.88,4942.07 27881.79,4942.11 28005.65,4942.14 28125.32,4942.17 28240.65,4942.19 28351.49,4942.22 28457.7,4942.24 28559.12,4942.25 28655.61,4942.26 28747.03,4942.27 28833.21,4942.27 28914.02,4942.27 28989.3,4942.27 29058.91,4942.26 29122.7,4942.24 29180.52,4942.22 29232.23,4942.2 29277.67,4942.17 29316.7,4942.14 29349.17,4942.1 29374.93,4942.05 29393.83,4942.0 29553.44,4941.82 29728.83,4941.7 29907.31,4941.65 30088.03,4941.68 30270.13,4941.77 30452.78,4941.92 30635.12,4942.13 30816.3,4942.4 30995.48,4942.73 31171.81,4943.11 31344.44,4943.54 31512.52,4944.01 31675.21,4944.52 31831.67,4945.08 31981.03,4945.67 32122.45,4946.3 32255.09,4946.96 32378.1,4947.64 32490.63,4948.35 32591.84,4949.08 32680.86,4949.83 32756.87,4950.6 32819.0,4951.38 32866.42,4952.17 32898.27,4952.96 32913.71,4953.76 32989.45,5013.36 33013.26,5063.62 33019.15,5112.92 33022.64,5211.24 33024.6,5384.17 33025.88,5657.28 33026.15,5872.14 33025.41,6051.42 33023.76,6197.13 33021.25,6298.87 33017.65,6347.9 32965.08,6467.01 32856.06,6573.39 32750.94,6667.87 32727.43,6711.77 32718.08,6773.92 32710.28,6875.73 32703.79,7020.35 32698.36,7210.88 32693.77,7450.96 32689.76,7669.27 32684.56,7806.56 32676.63,7893.82 32664.4,7965.35 32651.72,8075.37 32641.9,8220.87 32635.15,8387.61 32631.64,8561.31 32631.6,8727.74 32635.21,8872.64 32642.67,8981.75 32655.33,9043.75 32720.55,9162.78 32806.78,9313.94 32828.39,9415.19 32789.62,9510.71 32673.54,9596.65 32626.34,9675.44 32608.82,9852.53 32599.55,10010.73 32587.29,10137.97 32578.63,10215.91 32569.36,10342.68 32560.2,10504.23 32553.26,10663.79 32547.65,10805.84 32541.84,10953.31 32536.3,11093.49 32531.48,11213.7 32526.31,11365.71 32525.32,11532.44 32529.98,11676.02 32540.08,11791.22 32555.37,11872.8 32612.84,11991.06 32682.03,12117.33 32687.06,12238.69 32643.04,12348.95 32545.96,12463.03 32490.72,12550.47 32467.59,12672.07 32457.23,12851.03 32446.54,12998.89 32434.23,13110.5 32420.12,13228.3 32407.93,13353.72 32397.76,13485.57 32389.69,13622.69 32383.81,13763.88 32380.2,13907.96 32378.93,14052.22 32376.15,14199.29 32370.99,14320.11 32368.18,14426.53 32368.79,14575.55 32373.88,14754.51 32385.84,14910.6 32412.85,15010.37 32466.8,15107.11 32514.72,15228.8 32500.52,15335.17 32437.44,15454.46 32338.51,15596.24 32302.28,15706.2 32303.96,15851.53 32332.33,15971.86 32396.74,16083.73 32497.44,16214.54 32522.74,16319.62 32445.31,16420.53 32338.92,16528.34 32289.93,16625.77 32226.44,16760.8 32152.53,16869.36 32056.7,16956.07 31926.15,17030.67 31813.1,17064.4 31694.08,17061.29 31607.38,17019.06 31468.87,16888.87 31350.81,16764.91 31296.83,16675.04 31248.74,16551.37 31184.66,16435.61 31090.83,16318.95 31037.52,16212.77 31065.7,16103.44 31163.8,16012.63 31224.4,15897.55 31261.53,15744.76 31257.64,15621.74 31208.23,15506.32 31113.16,15374.96 31063.86,15262.78 31066.96,15141.66 31127.69,15022.13 31185.84,14939.16 31213.09,14864.11 31222.73,14739.31 31223.1,14513.87 31222.5,14420.86 31221.61,14319.45 31220.41,14198.86 31218.94,14062.94 31217.25,13915.54 31215.38,13760.52 31213.39,13601.74 31211.32,13443.05 31208.14,13216.8 31203.9,12933.62 31199.24,12729.39 31192.19,12588.65 31180.79,12495.95 31163.06,12435.84 31137.05,12392.86 31100.78,12351.57 31027.45,12261.64 30981.99,12153.51 31001.8,12025.21 31076.6,11901.19 31108.59,11841.24 31122.14,11805.18 31131.74,11756.05 31138.0,11679.94 31141.54,11562.95 31142.96,11391.16 31142.89,11150.67 31141.95,10838.13 31140.96,10647.44 31139.69,10465.64 31138.17,10297.9 31136.47,10149.38 31134.61,10025.25 31132.65,9930.67 31130.64,9870.79 31117.91,9749.44 31075.81,9643.73 30977.99,9513.58 30937.16,9413.62 30936.71,9291.2 30965.75,9191.56 31043.69,9054.11 31066.76,9015.03 31084.64,8977.39 31098.0,8930.87 31107.49,8865.11 31113.77,8769.78 31117.51,8634.53 31119.35,8449.02 31119.96,8202.91 31120.0,7885.85 31120.24,7537.54 31120.15,7266.24 31119.19,7064.98 31116.85,6922.09 31112.67,6825.9 31106.16,6764.73 31096.83,6726.93 31084.2,6700.8 31048.77,6646.69 30964.05,6564.45 30841.82,6528.8 30750.89,6521.03 30695.47,6519.56 30613.56,6518.33 30507.97,6517.33 30381.51,6516.54 30236.99,6515.96 30077.22,6515.59 29905.01,6515.4 29723.17,6515.4 29534.5,6515.57 29341.82,6515.92 29147.94,6516.42 28955.65,6517.07 28767.78,6517.86 28587.13,6518.79 28416.51,6519.84 28258.72,6521.01 28116.58,6522.29 27992.9,6523.67 27890.49,6525.14 27812.15,6526.69 27760.69,6528.32 27738.07,6530.26 27672.55,6562.34 27627.15,6624.0 27598.94,6727.17 27584.95,6883.77 27582.23,7105.73 27585.91,7347.61 27592.67,7472.31 27608.61,7549.54 27637.18,7675.61 27625.55,7797.64 27586.45,7930.75 27564.88,8035.0 27553.61,8174.45 27543.67,8362.46 27532.53,8482.23 27523.31,8546.73 27513.55,8678.62 27505.25,8843.53 27500.46,9002.93 27502.12,9142.32 27521.76,9259.18 27558.52,9399.69 27538.88,9525.1 27477.25,9665.62 27457.98,9763.14 27452.96,9822.74 27447.66,9915.27 27442.26,10036.91 27436.94,10183.87 27431.86,10352.32 27427.21,10538.47 27422.99,10745.87 27421.64,10932.81 27427.28,11059.4 27442.21,11156.2 27469.38,11255.85 27488.63,11371.61 27449.95,11488.38 27380.9,11626.74 27376.99,11770.3 27422.77,11893.88 27447.39,12000.87 27392.61,12138.08 27307.01,12288.13 27229.05,12361.81 27109.69,12417.55 26970.46,12422.25 26868.12,12366.3 26794.35,12284.28 26725.18,12146.03 26665.8,11982.95 26669.74,11875.81 26727.22,11733.83 26735.26,11621.09 26683.43,11493.61 26625.65,11382.97 26639.5,11263.96 26701.44,11139.06 26730.88,11034.47 26739.7,10887.5 26739.33,10730.62 26737.17,10572.99 26733.84,10403.15 26729.66,10232.24 26724.92,10071.39 26719.93,9931.73 26714.97,9824.4 26710.37,9760.52 26683.26,9674.31 26618.28,9527.19 26606.22,9410.8 26654.05,9287.05 26701.32,9174.27 26718.54,9057.02 26708.47,8911.79 26691.43,8796.12 26682.66,8699.61 26676.32,8564.54 26671.22,8365.94 26668.23,8226.87 26665.33,8092.63 26652.56,7960.53 26603.52,7830.39 26593.86,7713.63 26637.51,7590.68 26662.52,7508.77 26675.08,7412.0 26677.78,7268.7 26673.2,7047.24 26664.51,6793.35 26650.25,6663.5 26620.51,6605.47 26553.17,6565.52 26420.95,6594.62 26277.58,6653.79 26169.79,6684.59 26109.52,6739.23 26087.5,6807.03 26081.69,6950.71 26085.34,7201.37 26087.73,7350.22 26089.33,7470.11 26090.14,7574.97 26090.16,7678.76 26089.39,7795.41 26087.83,7938.86 26085.49,8123.06 26083.12,8316.77 26083.07,8480.32 26084.94,8593.64 26089.87,8667.27 26087.14,8777.14 26083.85,8853.4 26079.94,8977.86 26075.75,9137.88 26071.61,9320.83 26067.56,9521.48 26063.63,9708.3 26060.29,9857.02 26057.92,9952.52 26056.82,9993.46 26060.61,10130.72 26066.34,10297.84 26065.49,10429.71 26057.24,10552.81 26052.55,10673.34 26059.29,10818.02 26068.01,11007.67 26060.91,11160.5 26037.63,11276.03 25997.98,11355.37 25914.64,11415.33 25774.44,11462.06 25652.51,11485.67 25499.24,11521.48 25361.91,11549.83 25240.56,11564.84 25092.59,11591.78 24965.38,11612.17 24842.76,11628.34 24701.42,11643.41 24526.48,11663.78 24379.82,11684.9 24285.29,11703.29 24200.0,11762.91 24164.52,11849.79 24161.19,11999.72 24167.18,12205.14 24194.73,12307.44 24273.45,12390.61 24361.66,12503.08 24357.51,12610.76 24272.02,12727.04 24210.24,12819.7 24165.36,12944.32 24126.66,13101.85 24078.55,13228.76 24017.97,13332.46 23940.13,13419.93 23828.68,13529.64 23712.89,13633.54 23617.22,13706.97 23501.06,13788.43 23397.28,13854.7 23278.11,13907.84 23126.21,13914.85 23010.22,13893.32 22899.17,13833.37 22799.17,13729.65 22690.85,13630.29 22578.76,13551.59 22480.52,13562.83 22463.92,13653.2 22466.74,13786.34 22477.72,13948.79 22494.7,14102.9 22519.23,14262.9 22535.53,14417.74 22539.5,14551.31 22531.2,14665.57 22509.1,14769.27 22479.55,14897.77 22453.99,15017.2 22415.6,15152.29 22368.04,15292.84 22314.97,15428.64 22260.05,15549.5 22203.82,15650.93 22131.01,15774.04 22061.07,15894.56 21994.07,15990.04 21907.35,16086.54 21805.05,16191.27 21685.75,16308.77 21582.92,16406.31 21521.8,16457.63 21405.04,16540.37 21295.32,16626.61 21199.52,16704.18 21089.93,16783.05 20980.92,16869.21 20865.08,16972.16 20757.06,17068.65 20670.28,17135.91 20564.39,17215.89 20476.53,17287.77 20356.76,17378.06 20253.61,17450.94 20140.67,17540.04 20029.77,17628.32 19932.82,17680.26 19820.2,17703.61 19659.07,17709.04 19472.47,17706.04 19385.0,17687.0"/></g>
</svg>
