<?xml version="1.0" standalone="no"?>
<!DOCTYPE svg PUBLIC "-//W3C//DTD SVG 20010904//EN"
 "http://www.w3.org/TR/2001/REC-SVG-20010904/DTD/svg10.dtd">
<svg version="1.0" xmlns="http://www.w3.org/2000/svg"
 width="3840.000000pt" height="2525.000000pt" viewBox="0 0 3840.000000 2525.000000"
 preserveAspectRatio="xMidYMid meet">
<metadata>
Created by potrace 1.15, written by Peter Selinger 2001-2017
</metadata>
<g transform="translate(0.000000,2525.000000) scale(0.100000,-0.100000)"
fill="#000000" stroke="none">
<path d="M19385 17687 c-134 -50 -196 -100 -520 -424 -93 -93 -192 -184 -220
-203 -80 -53 -185 -130 -260 -191 -38 -30 -115 -86 -170 -122 -347 -230 -497
-362 -610 -536 -34 -53 -106 -143 -161 -201 -123 -130 -170 -187 -220 -270
-121 -201 -212 -390 -266 -555 -58 -175 -78 -283 -78 -417 0 -60 -8 -137 -21
-200 -31 -151 -39 -508 -13 -634 26 -126 25 -215 -2 -251 -26 -34 -63 -40
-112 -17 -20 9 -100 58 -177 109 -222 146 -293 175 -393 156 -124 -24 -454
-237 -498 -323 -5 -9 -57 -66 -115 -125 -147 -151 -230 -281 -245 -384 -22
-158 -77 -368 -110 -423 -13 -22 -41 -54 -62 -70 -118 -94 -120 -177 -7 -286
26 -25 59 -67 73 -95 27 -49 27 -53 27 -240 0 -183 -1 -192 -24 -233 -43 -73
-51 -76 -271 -83 -192 -7 -197 -7 -358 -52 -90 -25 -207 -53 -260 -62 -54 -9
-140 -27 -192 -40 -52 -13 -135 -28 -185 -35 -81 -11 -161 -27 -365 -76 -144
-35 -177 -70 -201 -216 -10 -61 -10 -107 -1 -225 9 -107 12 -640 11 -1937 0
-984 3 -1846 6 -1915 4 -69 2 -184 -4 -255 -9 -118 -13 -134 -38 -170 -52 -74
-76 -81 -258 -81 -151 1 -162 2 -204 25 -76 42 -84 67 -92 275 -4 99 -8 259
-8 356 -1 188 11 265 59 374 36 82 31 152 -18 255 -35 75 -41 97 -47 185 -4
55 -11 118 -17 140 -13 54 -28 358 -34 705 l-5 285 37 100 c54 148 54 170 5
274 -27 58 -44 109 -50 156 -7 60 -17 761 -16 1195 1 126 3 140 30 210 25 62
30 89 29 155 0 73 -4 88 -42 166 -73 152 -79 252 -23 391 17 42 31 92 31 112
0 19 -18 76 -41 128 -23 51 -50 116 -60 143 -11 28 -30 62 -43 77 -62 70 -207
126 -289 113 -126 -21 -235 -147 -316 -365 -29 -76 -26 -112 15 -230 31 -89
36 -112 32 -174 -3 -63 -10 -84 -57 -178 -49 -98 -53 -111 -48 -155 3 -26 22
-86 42 -132 20 -46 41 -110 45 -142 15 -105 1 -429 -25 -599 -20 -124 -26
-216 -33 -460 l-8 -305 -41 -95 c-65 -151 -65 -146 -2 -313 18 -47 33 -111 38
-160 10 -108 -5 -893 -20 -982 -12 -80 -52 -226 -77 -288 -9 -23 -17 -69 -17
-102 0 -50 7 -74 39 -140 46 -97 53 -153 37 -320 -6 -66 -16 -214 -21 -328 -5
-114 -14 -227 -21 -250 -16 -62 -54 -106 -118 -136 -53 -25 -63 -26 -201 -24
-198 3 -562 21 -635 32 -69 11 -315 -2 -476 -25 -121 -17 -222 -19 -327 -5
-46 6 -136 6 -245 -1 -249 -14 -320 -13 -432 7 -81 14 -130 16 -255 11 -94 -4
-179 -2 -215 4 -33 6 -114 13 -180 16 -134 6 -175 15 -223 51 -64 48 -65 51
-73 543 -17 925 -28 1272 -43 1350 -20 101 -19 168 4 279 29 140 49 198 99
281 51 86 81 158 81 198 0 48 -46 125 -110 187 -103 100 -100 87 -113 550 -6
220 -11 686 -10 1035 0 678 0 676 51 776 10 21 27 63 37 92 23 70 8 132 -49
210 -122 167 -118 137 -116 796 l2 551 -27 85 c-47 150 -56 486 -18 692 14 76
14 99 3 175 -32 216 -25 265 52 391 76 125 92 202 67 312 -10 45 -50 116 -89
157 -32 35 -68 110 -75 156 -9 62 10 284 30 344 11 32 36 71 67 105 115 124
116 161 9 278 -25 27 -73 107 -121 203 -95 187 -144 263 -205 314 -56 47 -215
144 -273 166 -108 43 -201 6 -351 -141 -100 -98 -129 -143 -173 -259 -23 -63
-59 -120 -105 -169 -54 -55 -83 -107 -83 -144 1 -45 12 -63 89 -146 95 -102
104 -129 105 -304 1 -177 -8 -201 -115 -317 -87 -93 -109 -137 -108 -218 0
-73 14 -114 66 -197 45 -71 78 -142 87 -184 18 -94 26 -275 16 -393 -6 -69
-13 -261 -14 -426 -7 -557 -15 -738 -42 -860 -21 -98 -24 -133 -22 -320 1
-295 -20 -404 -97 -490 -15 -16 -39 -50 -53 -75 -24 -40 -27 -56 -27 -135 0
-101 9 -129 70 -225 95 -148 94 -138 83 -575 -8 -293 -13 -380 -30 -470 -18
-96 -21 -171 -29 -590 -8 -487 -15 -584 -45 -646 -10 -18 -50 -68 -90 -110
-120 -128 -115 -185 36 -374 76 -96 75 -86 72 -650 -3 -477 -5 -506 -28 -635
-22 -124 -24 -161 -24 -465 -1 -340 -11 -552 -30 -617 -15 -52 -52 -92 -131
-144 -140 -93 -163 -170 -156 -534 3 -211 7 -257 26 -335 30 -121 25 -209 -18
-330 -64 -174 -67 -195 -46 -251 26 -69 92 -135 157 -159 51 -19 81 -20 778
-20 l725 0 80 24 c75 23 99 25 361 28 l280 4 140 -32 139 -33 1095 2 c1095 2
1417 9 1605 37 138 21 217 19 305 -7 71 -22 89 -23 345 -20 251 3 277 5 370
29 85 22 122 25 250 26 101 0 175 -6 227 -17 98 -20 177 -20 270 0 87 20 314
23 373 6 22 -7 96 -12 165 -12 86 0 145 -6 190 -18 54 -14 114 -17 355 -18
160 0 643 -4 1075 -8 617 -5 828 -3 985 8 110 7 245 14 300 15 55 1 143 9 195
18 175 28 249 28 337 0 43 -14 98 -31 122 -37 52 -14 899 -14 1361 -1 279 8
300 10 390 37 134 39 284 39 420 1 52 -15 133 -32 179 -37 55 -7 630 -11 1690
-10 3293 1 7296 3 7576 2 1482 -2 3504 5 3520 12 44 21 75 51 92 90 16 37 17
93 19 646 1 341 -2 627 -8 656 -13 72 -63 150 -128 201 -94 72 -141 116 -156
145 -21 40 -32 258 -40 743 -5 350 -9 425 -26 510 -40 203 -51 998 -15 1093 9
24 45 89 80 145 83 132 102 182 94 248 -7 57 -29 83 -122 143 -78 51 -87 77
-97 296 -4 102 -15 230 -23 285 -8 55 -22 264 -30 465 -8 201 -19 484 -25 630
-12 291 -2 529 26 625 8 30 36 84 60 121 61 88 74 122 74 192 0 94 -23 143
-109 236 -102 110 -110 135 -121 376 -5 102 -15 232 -23 290 -36 262 -57 598
-58 940 0 96 -4 227 -8 290 -4 63 -4 223 0 355 9 275 16 306 97 434 43 70 47
81 47 141 0 78 -32 146 -130 279 -74 99 -85 131 -85 242 1 157 32 239 139 366
119 141 117 192 -13 300 -68 57 -114 119 -131 176 -4 12 -28 65 -53 117 -63
132 -148 217 -286 286 -97 48 -101 49 -191 49 -114 0 -125 -6 -297 -177 -135
-133 -154 -160 -188 -258 -38 -108 -85 -191 -150 -265 -77 -87 -93 -118 -94
-176 0 -54 22 -89 87 -138 57 -42 92 -106 122 -223 42 -164 21 -256 -89 -395
-76 -97 -96 -142 -96 -223 0 -76 18 -122 81 -206 85 -115 84 -112 82 -509 -1
-192 -7 -710 -13 -1150 -14 -945 -5 -877 -128 -1014 -34 -39 -71 -90 -82 -113
-37 -81 -21 -178 44 -267 18 -25 42 -64 53 -86 48 -96 48 -94 45 -1015 -2
-476 -7 -921 -12 -990 -10 -144 -22 -179 -90 -265 -100 -126 -105 -139 -105
-245 0 -106 6 -124 104 -288 84 -142 81 -85 81 -1242 1 -1083 2 -1060 -47
-1137 -77 -122 -128 -149 -303 -161 -177 -13 -2983 -5 -3031 8 -135 37 -163
155 -156 645 4 289 5 303 30 390 35 116 34 169 -3 287 -45 144 -50 174 -60
398 -5 113 -14 221 -19 240 -12 42 -31 391 -31 565 0 120 6 158 44 280 26 82
21 138 -20 224 -50 106 -54 116 -65 196 -11 79 -26 464 -35 938 -7 345 -2 407
43 555 38 124 32 155 -58 317 -31 55 -34 67 -34 145 0 78 3 92 38 163 52 109
50 128 -27 278 -83 160 -109 190 -204 236 -69 34 -85 38 -153 38 -67 0 -82 -4
-120 -29 -91 -61 -124 -107 -194 -274 -66 -158 -70 -199 -26 -294 53 -116 62
-162 40 -229 -15 -47 -40 -103 -49 -109 -4 -3 -19 -28 -34 -57 -39 -77 -35
-120 18 -219 67 -122 76 -170 76 -385 -1 -344 -20 -1024 -31 -1078 -6 -29 -32
-96 -57 -149 -42 -86 -47 -104 -47 -162 1 -57 6 -74 42 -140 77 -139 88 -235
52 -450 -16 -101 -22 -196 -28 -495 l-8 -370 -32 -75 c-19 -43 -35 -100 -38
-135 -5 -53 -1 -71 31 -150 56 -138 60 -182 49 -585 -11 -397 -13 -411 -83
-458 -46 -31 -96 -25 -188 22 -62 33 -165 66 -202 66 -9 0 -35 16 -57 35 -64
54 -66 70 -58 476 7 421 7 447 0 979 -4 228 -2 440 2 470 4 30 5 91 1 135 -4
44 -12 330 -18 635 -6 305 -12 566 -13 580 -1 14 2 111 6 216 6 135 5 230 -3
325 -10 108 -10 167 0 307 22 287 -1 462 -71 538 -40 43 -150 88 -258 104 -36
6 -129 26 -205 45 -77 19 -155 35 -175 36 -20 0 -67 6 -106 13 -211 40 -330
58 -510 76 -212 21 -424 52 -465 68 -41 16 -77 54 -95 99 -14 35 -16 74 -13
245 4 237 5 243 113 340 124 114 128 191 13 317 -77 84 -107 154 -148 340 -21
97 -61 193 -113 271 -52 77 -297 311 -398 379 -52 35 -117 81 -145 102 -28 21
-86 55 -130 76 -76 36 -83 38 -189 38 -106 0 -113 -1 -185 -36 -84 -41 -91
-47 -176 -144 -64 -72 -198 -177 -252 -196 -43 -15 -69 2 -83 54 -15 55 4 385
32 551 47 277 51 469 13 607 -14 51 -29 117 -34 144 -34 209 -162 566 -263
734 -35 58 -85 143 -111 188 -69 122 -88 150 -174 243 -88 97 -352 355 -397
388 -16 12 -66 47 -110 78 -44 31 -109 82 -144 113 -35 31 -110 88 -166 126
-56 39 -151 116 -211 171 -119 111 -159 145 -219 189 -22 16 -42 32 -45 35 -3
3 -21 17 -40 30 -34 24 -60 44 -84 65 -34 31 -151 119 -216 163 -41 27 -118
87 -170 131 -172 146 -219 161 -495 160 -172 0 -196 -2 -250 -22z"/>
</g>
</svg>
