<?xml version="1.0" standalone="no"?>
<!DOCTYPE svg PUBLIC "-//W3C//DTD SVG 20010904//EN"
 "http://www.w3.org/TR/2001/REC-SVG-20010904/DTD/svg10.dtd">
<svg version="1.0" xmlns="http://www.w3.org/2000/svg"
 width="3840.000000pt" height="2525.000000pt" viewBox="0 0 3840.000000 2525.000000"
 preserveAspectRatio="xMidYMid meet">
<metadata>
Created by potrace 1.15, written by Peter Selinger 2001-2017
</metadata>
<g transform="translate(0.000000,2525.000000) scale(0.100000,-0.100000)"
fill="#000000" stroke="none">
<path d="M19485 17712 c-73 -3 -83 -6 -124 -37 -29 -23 -55 -35 -75 -35 -25 0
-44 -14 -101 -70 -38 -39 -138 -137 -221 -218 -83 -81 -170 -171 -193 -201
-47 -61 -72 -82 -118 -100 -18 -7 -43 -22 -55 -33 -31 -27 -123 -88 -133 -88
-4 0 -48 -38 -96 -85 -77 -74 -93 -85 -124 -85 -30 0 -46 -11 -114 -75 -54
-52 -92 -80 -120 -88 -30 -9 -79 -47 -186 -145 -176 -162 -215 -208 -215 -251
0 -34 -12 -48 -231 -271 -52 -52 -98 -102 -104 -111 -5 -9 -18 -27 -27 -40 -9
-13 -19 -36 -22 -51 -6 -33 -22 -65 -39 -75 -26 -16 -57 -67 -57 -93 0 -17
-15 -47 -40 -78 -26 -33 -40 -60 -40 -80 0 -19 -13 -46 -39 -78 -36 -46 -39
-54 -40 -118 -1 -62 -4 -73 -38 -120 l-38 -51 -5 -235 -5 -235 -32 -43 -32
-43 16 -52 c14 -47 14 -56 -3 -111 -20 -66 -20 -74 3 -123 10 -22 13 -46 9
-70 -4 -21 -9 -73 -11 -117 -5 -74 -4 -81 23 -122 25 -37 30 -56 36 -142 4
-54 4 -107 0 -118 -10 -29 -45 -64 -63 -64 -29 0 -91 49 -97 78 -11 45 -53 82
-94 82 -29 0 -45 9 -90 51 -85 79 -115 99 -144 99 -18 0 -45 15 -76 41 l-49
41 -78 -7 c-74 -7 -82 -10 -156 -64 -94 -67 -117 -81 -137 -81 -8 0 -34 -18
-58 -40 -36 -34 -49 -40 -87 -40 -53 0 -75 -24 -75 -83 0 -35 -7 -46 -68 -106
-37 -37 -81 -72 -99 -80 -17 -7 -36 -25 -42 -39 -7 -15 -30 -47 -52 -72 -23
-25 -50 -64 -60 -87 -10 -24 -22 -43 -27 -43 -15 0 -33 -53 -36 -106 -10 -180
-19 -225 -49 -266 -27 -38 -29 -46 -23 -98 12 -101 -12 -128 -143 -166 -64
-18 -79 -27 -95 -53 l-19 -32 32 -37 c17 -20 42 -58 56 -84 14 -27 26 -48 28
-48 1 0 27 -9 57 -19 85 -27 88 -38 89 -294 1 -268 -3 -293 -45 -334 -30 -31
-36 -33 -106 -33 -57 0 -84 6 -123 24 l-49 24 -38 -19 c-41 -21 -73 -24 -83
-9 -10 16 -41 12 -82 -11 -20 -12 -67 -25 -103 -30 -36 -6 -89 -22 -118 -36
-44 -21 -74 -27 -174 -33 -108 -7 -127 -12 -185 -41 -60 -30 -72 -33 -172 -34
-104 -2 -167 -15 -247 -51 -36 -16 -188 -37 -256 -36 -75 1 -77 -2 -84 -244
-5 -146 -3 -222 5 -251 11 -39 14 -171 9 -408 -1 -55 -1 -131 1 -170 2 -38 1
-97 -3 -130 -3 -33 -3 -103 2 -155 5 -57 4 -113 -1 -140 -6 -25 -9 -67 -9 -95
1 -27 1 -275 1 -550 -1 -275 -1 -531 -1 -570 0 -83 10 -839 13 -940 1 -38 -4
-90 -11 -114 -6 -23 -8 -50 -4 -60 8 -18 16 -357 14 -586 -3 -339 -6 -356 -58
-376 -17 -7 -114 -8 -267 -5 -229 5 -241 7 -257 27 -10 12 -18 31 -18 43 0 11
-2 138 -5 281 -6 359 -6 427 1 528 6 79 9 93 35 122 16 18 43 62 60 99 28 60
30 70 19 96 -13 30 -73 90 -90 90 -5 0 -17 14 -26 32 -14 26 -15 46 -9 113 13
137 11 168 -20 227 -35 64 -40 144 -12 197 9 19 17 48 17 66 0 18 -8 47 -17
66 -16 30 -18 73 -21 372 l-3 338 56 57 c100 101 106 148 23 187 -76 36 -82
53 -88 248 -3 95 -2 197 1 227 4 30 2 111 -4 180 -5 69 -10 139 -10 155 0 51
12 259 18 320 4 44 0 73 -15 118 -17 47 -20 74 -15 121 3 34 7 93 9 131 4 92
9 106 56 144 39 31 40 34 40 95 0 51 -5 69 -25 97 -50 68 -66 94 -72 119 -3
14 -15 39 -27 55 -16 23 -22 49 -25 109 -6 142 31 236 93 236 13 0 30 8 39 18
33 36 15 81 -45 110 -46 23 -89 114 -98 207 -9 88 -21 112 -62 120 -18 4 -58
22 -89 40 -63 37 -170 60 -231 50 -26 -5 -45 -16 -60 -37 -13 -17 -51 -60 -85
-95 -67 -71 -77 -90 -93 -177 -12 -71 -32 -105 -71 -120 -51 -19 -51 -76 0
-102 45 -23 70 -53 76 -91 3 -21 12 -73 19 -116 21 -120 6 -158 -101 -263 -38
-37 -63 -69 -63 -82 0 -12 31 -67 70 -124 83 -123 80 -100 71 -483 -6 -267 -6
-270 -31 -303 -26 -35 -24 9 -33 -658 -2 -115 -5 -155 -17 -171 -8 -11 -39
-51 -68 -89 -66 -85 -68 -75 36 -237 28 -43 35 -66 42 -136 5 -46 7 -88 4 -93
-3 -4 -7 -223 -10 -485 l-5 -478 -30 -43 c-25 -35 -29 -48 -23 -75 15 -64 4
-94 -61 -172 -36 -42 -42 -56 -39 -85 4 -34 18 -51 78 -94 14 -11 29 -31 32
-45 3 -14 12 -40 20 -57 7 -17 16 -56 20 -87 6 -48 3 -62 -18 -100 -23 -40
-25 -53 -21 -138 2 -58 -1 -119 -10 -159 -12 -55 -12 -71 0 -106 11 -34 11
-46 0 -80 -9 -26 -12 -68 -10 -129 5 -97 -6 -145 -34 -145 -19 0 -73 -17 -122
-38 -19 -8 -73 -17 -121 -20 -78 -4 -90 -2 -136 21 l-51 26 -71 -25 -71 -26
-45 31 c-54 37 -64 38 -124 6 -60 -32 -80 -31 -130 5 -26 19 -54 30 -74 30
-40 0 -260 -29 -266 -34 -2 -3 -26 2 -54 10 -56 17 -93 12 -147 -20 -30 -18
-55 -22 -158 -25 -120 -3 -123 -2 -175 27 -56 31 -82 30 -133 -4 -26 -19 -79
-18 -117 2 -28 15 -33 14 -81 -6 -44 -19 -64 -22 -172 -18 -101 2 -126 6 -150
23 -27 18 -47 20 -170 20 -114 0 -146 -3 -174 -18 -48 -24 -82 -21 -128 12
-38 28 -41 28 -134 22 -52 -3 -138 -4 -191 -1 -131 7 -150 21 -160 116 -4 38
-7 249 -6 469 0 266 -4 416 -11 449 -7 29 -9 68 -4 95 9 61 9 57 1 126 -4 33
-7 119 -6 190 0 72 1 153 0 180 0 28 0 91 -1 140 0 50 1 99 3 110 2 11 -9 43
-25 71 -38 67 -39 151 -5 256 13 40 29 107 35 148 18 107 16 104 87 183 87 97
98 118 90 180 -9 62 -17 78 -74 139 -36 39 -51 48 -79 48 -23 0 -42 8 -58 25
-23 22 -25 32 -27 127 0 57 -2 114 -3 128 -2 14 -3 86 -2 160 0 218 0 267 -8
425 -8 148 -9 678 -2 825 2 41 1 156 -3 255 -3 99 -4 221 -1 271 6 89 7 91 49
139 23 26 42 53 42 59 0 6 11 28 25 48 14 20 25 46 25 57 0 21 -74 114 -156
197 -51 50 -51 51 -58 130 -4 43 -7 248 -7 454 0 467 -1 426 12 486 6 28 10
96 7 151 -3 96 -5 101 -41 150 l-37 51 -2 303 -1 304 26 50 c34 64 35 116 2
174 -23 39 -25 53 -25 168 0 89 4 132 14 152 18 34 81 91 102 91 30 0 44 63
44 203 l0 134 -43 39 c-23 22 -58 48 -78 58 -61 32 -89 115 -68 201 6 28 13
111 14 186 1 74 6 145 9 157 6 19 84 82 101 82 3 0 21 11 39 25 18 14 40 25
48 25 20 0 48 32 48 54 0 32 -19 53 -101 112 -45 33 -90 66 -101 74 -12 9 -24
41 -33 84 -8 37 -23 82 -34 100 -11 17 -42 74 -68 126 -26 52 -58 108 -70 123
-40 50 -103 96 -146 108 -23 6 -52 21 -65 32 -13 12 -32 30 -43 39 -10 10 -30
20 -44 24 -14 3 -25 10 -25 16 0 5 -18 17 -41 27 -33 15 -48 17 -78 9 -64 -18
-124 -59 -196 -132 -38 -40 -93 -92 -121 -117 -68 -59 -81 -82 -88 -164 -7
-72 -27 -113 -86 -175 -51 -55 -132 -110 -160 -110 -15 0 -33 -7 -40 -15 -13
-15 -5 -55 11 -55 16 0 116 -83 130 -108 7 -12 30 -27 51 -34 21 -6 49 -21 62
-33 22 -21 24 -31 31 -190 10 -216 4 -267 -33 -319 -16 -23 -43 -48 -59 -57
-17 -8 -45 -27 -63 -42 -17 -15 -36 -27 -40 -27 -5 0 -18 -9 -29 -21 -17 -18
-20 -36 -20 -133 l-1 -112 50 -49 c27 -27 55 -64 61 -82 5 -18 24 -43 40 -57
41 -35 49 -62 31 -108 -14 -34 -13 -46 2 -121 17 -82 17 -243 -1 -270 -7 -10
-11 -152 -14 -447 -1 -41 0 -111 1 -155 1 -44 -2 -206 -6 -361 l-9 -281 -28
-36 c-25 -33 -28 -46 -31 -124 -1 -55 3 -107 12 -138 13 -47 13 -138 -2 -240
-2 -16 -8 -82 -12 -145 -6 -100 -10 -117 -30 -137 -17 -16 -35 -23 -64 -23
-27 0 -47 -7 -60 -20 -18 -18 -20 -33 -20 -174 l0 -153 43 -44 c24 -24 60 -59
79 -76 44 -40 62 -106 54 -190 -4 -32 -9 -227 -12 -432 l-6 -375 -34 -48 c-32
-48 -33 -49 -17 -86 13 -30 14 -47 5 -92 -11 -58 -9 -490 2 -508 3 -6 -1 -45
-9 -87 -12 -55 -15 -109 -11 -193 6 -154 -11 -278 -43 -303 -13 -11 -37 -19
-55 -19 -20 -1 -43 -12 -67 -33 -84 -75 -99 -133 -50 -196 15 -20 38 -55 50
-78 16 -32 33 -49 68 -65 26 -13 56 -35 67 -51 20 -27 20 -40 18 -610 -1 -320
-5 -591 -9 -602 -3 -11 -15 -32 -26 -47 -19 -25 -20 -45 -23 -475 -3 -543 -11
-662 -42 -696 -27 -29 -83 -47 -144 -47 -53 0 -66 -12 -75 -67 -3 -21 -19 -57
-35 -80 -28 -42 -28 -42 -23 -165 7 -168 7 -368 -1 -436 -5 -53 -3 -61 30
-116 39 -65 40 -76 27 -207 -8 -74 -16 -98 -57 -175 -26 -49 -56 -101 -67
-115 -29 -40 -16 -78 54 -149 33 -33 65 -74 70 -90 13 -36 34 -43 88 -31 25 5
57 5 83 -1 41 -9 524 -5 618 6 25 2 91 -2 148 -10 56 -8 107 -12 113 -9 5 4
130 8 277 10 l267 3 60 32 59 31 346 -3 345 -3 49 -32 c45 -30 55 -32 145 -34
211 -4 379 0 439 12 55 11 69 11 116 -5 45 -16 71 -17 182 -11 197 12 343 17
409 14 33 -2 130 -3 215 -2 177 0 238 0 295 0 22 -1 65 1 95 3 42 2 243 -5
335 -12 46 -4 239 15 281 28 42 12 58 13 75 4 12 -7 58 -12 105 -11 68 1 92 6
130 26 42 22 59 25 160 25 l114 0 40 -36 40 -37 125 1 c100 1 130 5 151 19 37
24 120 21 174 -7 60 -31 131 -17 210 42 23 17 48 19 252 20 l226 2 37 -28 c31
-24 46 -28 93 -27 33 0 73 9 97 21 55 27 185 43 305 38 81 -3 105 -8 149 -31
65 -34 96 -34 143 -2 53 36 104 34 156 -7 l41 -33 183 0 c101 0 227 6 282 13
94 13 101 12 157 -8 43 -16 68 -20 91 -15 18 4 62 7 98 6 127 -5 166 -5 265
-1 85 3 399 4 585 2 543 -7 657 -5 725 12 58 14 88 16 170 8 62 -5 113 -5 135
1 19 5 71 7 114 3 75 -5 82 -4 113 20 31 24 44 26 158 30 l125 5 46 -43 47
-43 251 2 c251 1 277 1 521 0 146 -1 256 -1 360 1 39 1 195 3 348 6 l279 4 40
33 41 32 141 4 c164 5 195 0 233 -31 29 -24 65 -36 123 -43 19 -2 730 -6 1580
-8 1133 -4 1614 -2 1805 7 143 7 296 11 340 8 44 -2 127 -4 185 -2 222 4 312
2 357 -8 25 -6 73 -8 107 -6 34 3 167 6 296 6 250 1 1334 2 1510 2 58 0 193 0
300 1 107 0 227 -1 265 -3 80 -5 258 -6 325 -2 25 1 284 2 575 1 292 0 746 -1
1010 -1 264 0 507 0 540 0 33 0 92 0 130 0 119 -2 445 -1 1040 2 314 2 696 3
850 2 154 -1 341 -1 415 -1 74 0 182 0 240 -2 58 -1 152 -1 210 0 58 1 271 0
474 -2 349 -3 371 -2 388 15 17 17 19 39 20 246 0 125 1 254 1 287 0 33 1 197
1 365 -1 168 0 360 0 426 l1 122 -41 48 c-23 27 -44 59 -48 72 -11 33 -49 54
-124 66 -58 10 -69 15 -88 43 -20 31 -21 43 -23 325 -1 168 -6 309 -12 332
-12 43 -6 456 6 476 10 17 -13 136 -40 205 -24 59 -24 65 -29 505 -5 528 -2
578 43 640 18 25 47 57 64 71 19 16 42 51 56 85 13 33 33 72 44 88 26 37 29
148 6 171 -10 10 -49 18 -107 24 -77 7 -97 12 -118 32 -23 22 -25 28 -19 84 7
65 7 229 1 393 -3 73 -10 119 -25 155 -18 46 -21 82 -27 327 -3 151 -5 340 -5
420 1 80 -4 179 -10 220 -15 95 -13 536 2 610 6 30 12 80 13 110 1 44 5 56 21
65 27 13 49 31 97 78 38 37 38 39 38 116 0 148 -66 270 -147 271 -22 0 -38 9
-56 29 -30 36 -38 101 -42 351 -2 107 -8 187 -15 205 -21 51 -28 105 -19 145
7 31 5 50 -10 87 -16 40 -20 87 -25 278 -7 239 -13 398 -17 475 -1 25 1 84 5
131 6 66 4 100 -9 149 -13 49 -15 86 -10 154 4 50 8 177 9 281 2 112 8 202 15
218 6 16 11 47 11 71 0 51 11 67 70 99 51 28 80 76 83 137 1 31 -6 46 -36 79
-28 31 -37 50 -37 77 0 30 -10 46 -61 100 -34 35 -65 61 -69 59 -4 -3 -17 3
-29 13 -29 24 -38 177 -16 277 8 39 15 91 15 117 0 47 0 47 129 173 71 70 135
140 142 157 11 28 11 33 -10 49 -13 11 -30 19 -38 19 -9 0 -35 18 -59 40 -35
32 -51 40 -82 40 -53 0 -73 25 -84 103 -6 42 -19 79 -42 117 -19 30 -37 74
-41 98 -7 43 -46 99 -90 132 -11 8 -39 33 -62 57 -34 34 -49 43 -77 43 -25 0
-46 10 -81 39 -54 44 -81 51 -198 49 l-78 -1 -55 -56 c-31 -31 -62 -72 -70
-91 -20 -47 -63 -90 -90 -90 -14 0 -45 -23 -83 -60 l-61 -60 0 -74 c0 -71 -1
-75 -40 -124 -31 -39 -40 -58 -40 -89 0 -50 -26 -75 -78 -77 -51 -2 -72 -20
-72 -62 0 -26 -10 -45 -40 -78 -45 -49 -46 -53 -23 -94 17 -29 46 -43 149 -71
59 -16 87 -50 88 -108 0 -26 -3 -59 -7 -73 -7 -21 -1 -33 28 -67 34 -40 35
-44 35 -122 0 -78 -1 -82 -34 -118 -20 -23 -36 -52 -39 -74 -9 -68 -22 -81
-98 -94 -53 -10 -60 -31 -62 -189 l-2 -138 28 -24 c15 -13 38 -24 51 -24 61 0
104 -133 106 -327 1 -57 1 -109 1 -115 1 -7 -2 -51 -6 -98 -7 -98 -18 -515
-15 -575 2 -50 3 12 -4 -760 -4 -452 -10 -664 -18 -695 -14 -53 -72 -115 -139
-147 -73 -36 -77 -44 -84 -174 l-8 -116 48 -39 c89 -73 114 -102 119 -136 19
-136 37 -321 31 -335 -7 -18 -14 -302 -14 -538 0 -71 0 -157 0 -190 -2 -164
-3 -404 -1 -440 1 -22 -2 -177 -6 -345 l-7 -304 -109 -120 -109 -120 6 -47 c5
-34 2 -56 -10 -79 -16 -31 -16 -32 19 -77 20 -26 36 -57 36 -70 0 -27 50 -83
73 -83 29 0 50 -37 44 -77 -5 -30 -1 -47 18 -78 l24 -40 1 -1083 0 -1083 -39
-47 c-21 -26 -48 -68 -61 -95 -12 -26 -32 -53 -43 -59 -14 -8 -81 -14 -172
-16 -195 -4 -172 -4 -385 -3 -102 1 -293 0 -425 -1 -132 -1 -631 -1 -1110 0
-478 2 -935 1 -1015 0 -175 -4 -211 3 -245 48 -21 27 -27 51 -36 136 -9 93
-21 324 -20 388 8 437 9 446 65 554 39 74 35 118 -14 173 -29 33 -40 55 -40
78 0 18 -7 52 -15 75 -8 23 -15 75 -15 114 0 42 -7 91 -17 119 -17 47 -17 49
5 90 28 53 28 100 0 138 -20 26 -23 48 -30 182 -4 83 -9 267 -10 407 -3 278
-1 292 56 334 53 38 41 147 -21 196 -36 28 -92 120 -93 151 0 14 5 41 11 58 9
26 8 45 -4 89 -13 45 -17 132 -22 402 -3 190 -7 386 -8 435 -1 50 0 115 4 145
4 36 1 69 -8 95 -12 35 -12 48 3 105 14 53 15 77 6 125 l-10 60 50 46 50 46
-4 70 c-3 55 -9 76 -28 101 -14 17 -30 31 -37 31 -6 1 -29 22 -50 48 l-38 46
-3 121 c-3 110 -2 124 17 147 13 17 34 29 60 33 43 7 54 20 65 75 6 32 2 38
-74 110 l-80 77 0 59 c0 86 -14 106 -89 133 -35 12 -81 36 -102 53 -31 24 -52
32 -98 36 -95 9 -127 -2 -193 -64 -32 -31 -58 -61 -58 -66 0 -6 -16 -25 -35
-43 -34 -30 -35 -35 -35 -101 0 -58 -4 -73 -22 -93 -54 -58 -118 -134 -118
-140 0 -13 67 -78 106 -103 45 -28 59 -64 42 -103 -8 -17 -7 -36 1 -67 19 -66
1 -121 -56 -172 -64 -57 -113 -127 -113 -162 0 -30 4 -35 104 -126 55 -50 59
-57 57 -93 -1 -21 -2 -46 -1 -54 2 -26 -1 -560 -6 -964 -4 -376 -5 -390 -26
-424 -11 -19 -32 -46 -46 -61 -65 -69 -71 -83 -73 -165 l-2 -78 57 -56 c88
-86 89 -88 84 -281 -2 -132 -7 -172 -20 -196 -29 -52 -36 -90 -28 -137 5 -25
7 -69 4 -99 -2 -30 -5 -180 -6 -334 -1 -308 -8 -362 -48 -382 -47 -23 -60 -50
-60 -123 l0 -68 46 -40 c41 -34 47 -46 59 -104 17 -81 21 -210 10 -388 -3 -52
-7 -205 -9 -339 -6 -293 -3 -286 -114 -285 -83 1 -120 20 -167 86 -43 59 -78
68 -168 43 -80 -22 -118 -17 -134 15 -10 19 -13 125 -13 434 l0 408 25 50 c14
27 25 63 25 79 0 17 -11 47 -25 67 l-25 37 0 443 0 444 26 48 26 48 -28 48
-29 49 -1 490 c-1 298 -5 504 -11 525 -12 40 -8 222 6 350 14 127 7 329 -13
368 -19 37 -14 145 10 243 15 62 11 368 -6 444 -5 22 -10 57 -10 77 0 38 -27
68 -60 68 -9 0 -40 13 -71 29 -53 27 -112 39 -286 57 -35 3 -73 13 -85 23 -46
34 -76 41 -228 51 -113 8 -166 16 -198 30 -24 11 -72 22 -106 25 -33 3 -108
12 -166 19 -58 7 -137 11 -176 9 -58 -4 -83 0 -145 22 -62 22 -94 27 -199 29
-69 2 -129 4 -133 5 -4 0 -15 17 -23 36 -11 27 -14 93 -14 319 l0 285 26 20
c16 13 41 21 63 21 31 0 45 9 96 60 l60 61 0 64 c0 77 -24 110 -88 120 -36 7
-88 45 -85 64 4 33 -8 66 -42 111 l-39 53 3 100 3 101 -39 55 c-26 38 -38 65
-38 89 0 33 -16 52 -215 249 -158 156 -222 213 -240 214 -14 1 -29 3 -35 4 -5
1 -13 3 -17 4 -5 1 -45 37 -91 81 -74 72 -86 80 -121 80 -36 0 -74 13 -131 45
-14 8 -34 15 -45 15 -25 0 -104 -24 -141 -43 -16 -8 -47 -18 -69 -22 -73 -13
-164 -97 -165 -151 0 -47 -29 -76 -80 -83 -37 -5 -49 -13 -78 -51 -19 -25 -53
-64 -76 -87 -22 -23 -55 -55 -72 -73 -18 -18 -43 -32 -60 -33 -25 -2 -30 2
-38 34 -7 30 -5 43 18 81 15 26 29 67 31 94 3 27 7 69 10 94 3 25 8 119 11
210 5 132 10 174 26 212 14 34 18 58 14 83 -5 25 -1 48 14 82 19 43 20 54 10
115 -7 37 -9 75 -6 85 3 10 10 57 16 105 11 95 6 117 -45 187 -23 31 -25 43
-25 143 l0 109 -40 54 c-37 51 -40 59 -40 121 0 64 -2 70 -39 115 -36 42 -41
53 -47 122 -6 64 -11 80 -35 106 -84 92 -119 144 -119 175 0 23 -12 45 -45 83
-25 28 -45 59 -45 68 0 43 -49 101 -299 352 -203 204 -279 269 -328 279 -19 4
-58 33 -104 76 -41 39 -97 93 -125 119 -37 35 -61 50 -91 55 -36 5 -61 26
-204 165 -90 87 -169 159 -174 159 -13 0 -145 99 -145 108 0 4 -14 13 -31 21
-16 7 -71 53 -122 102 -80 78 -96 89 -127 89 -31 0 -48 13 -154 116 -65 64
-137 125 -160 135 -22 11 -54 27 -71 36 -24 13 -64 17 -193 19 -89 2 -165 4
-170 6 -4 2 -43 2 -87 0z"/>
<path d="M13794 13018 c5 -34 36 -36 36 -4 0 19 -5 26 -20 26 -15 0 -19 -6
-16 -22z"/>
</g>
</svg>
